  <svg xmlns="http://www.w3.org/2000/svg" width="37.107" height="43.328"
                    viewBox="0 0 27.107 33.328">
                    <g id="Group_1134" data-name="Group 1134" transform="translate(-247.173 0)">
                      <path id="Path_2219" data-name="Path 2219"
                        d="M284.6,62.321a.857.857,0,0,0,.166-.71,17,17,0,0,1-.269-2.256,10.941,10.941,0,0,1,.168-2.122.924.924,0,0,0,.007-.269.985.985,0,0,0-.012-.166c-.062-.385-.114-.771-.162-1.157,0-.018,0-.036,0-.055a24.138,24.138,0,0,0,.019-2.7q-.006-.657-.059-1.313a2.961,2.961,0,0,0,.213-1.968,1.96,1.96,0,0,0-.656-1.131,1.194,1.194,0,0,0-.818-.852,4.022,4.022,0,0,0-2.131-.539l-.356-.034a.983.983,0,0,0-.2-.039l-.913-.072a.874.874,0,0,0-.941-.362,1.435,1.435,0,0,0-.285.113,1.672,1.672,0,0,0-.686.579c-.009.012-.014.027-.022.04a.865.865,0,0,0-.17.782l.025.07a.729.729,0,0,0,.113.387.918.918,0,0,0,.1.131,6.723,6.723,0,0,0-.708.948.81.81,0,0,0,.2,1.071.818.818,0,0,0,0,.387c-.123.136-.245.273-.363.413-.055.066-.11.132-.163.2q-1.966.529-3.912,1.126a.856.856,0,0,0,.455,1.649l.21-.04a.954.954,0,0,0,1.3.733l.612-.263a4.2,4.2,0,0,1,1.96-.369c.024.031.047.062.069.093a8.492,8.492,0,0,1,.969,1.836,10.857,10.857,0,0,1,.909,4.019,12.615,12.615,0,0,1-.473,2.367l-.245,1.042-.027.065-.021.01a3.368,3.368,0,0,0-1.34,1.532.985.985,0,0,0-.161.112,8.693,8.693,0,0,1-7.591,1.783,7.218,7.218,0,0,0-1.4-.481.8.8,0,0,0-.2-.019,1.352,1.352,0,0,0-1.137-.453c-.045-.014-.091-.027-.138-.039a3.143,3.143,0,0,0-.3-.418.711.711,0,0,0-.538-.253,4.438,4.438,0,0,0-.178-.515,1,1,0,0,0-.524-.519c-.022-.05-.044-.1-.064-.148-.213-.516-.392-1.111-.92-1.311l-.206-.691a.816.816,0,0,0-.53-.542q-.066-.562-.172-1.119c-.012-.136-.027-.271-.037-.407a.891.891,0,0,0-.165-.467l.015-.154a.873.873,0,0,0,.206-.532l.1-1.658a.692.692,0,0,0,.123-.444,2.437,2.437,0,0,1,.1-1.065.865.865,0,0,0-.6-1.052.9.9,0,0,0-.763.165.861.861,0,0,0-1.064-.184.886.886,0,0,0-.775.815q-.1.892-.105,1.784c-.015.49.008.984.038,1.474a.9.9,0,0,0,.075.311l0,1.737c-.032.239-.053.477-.062.715a11.027,11.027,0,0,0,.048,3.4,1.217,1.217,0,0,0,.158.39,2.332,2.332,0,0,0-.383,2c.02.061.042.117.066.171a2.714,2.714,0,0,0,.171,1.727,1.566,1.566,0,0,0,.345.852,1.2,1.2,0,0,0,.12.123,1.418,1.418,0,0,0,.131.209,1.462,1.462,0,0,0,.844.535,1.384,1.384,0,0,0,.972.248,2.551,2.551,0,0,0,1.071.2c.074.008.15.012.227.012l.015.015a.99.99,0,0,0,.875.3.806.806,0,0,0,.507.172c3.435,0,6.88.471,10.3.173a.72.72,0,0,0,.69.35c1.866-.149,5.391-.411,5.914-2.551a.867.867,0,0,0,.633-.624.907.907,0,0,0,.393-.575.666.666,0,0,0,.346-.514l.056-.39a.888.888,0,0,0,.409-.678l.055-.521a.883.883,0,0,0,.233-.542q.038-.46.077-.92a.686.686,0,0,0,.309-.683Q284.637,63.559,284.6,62.321Z"
                        transform="translate(-10.929 -39.913)" fill="#a3e7f8" />
                      <path id="Path_2220" data-name="Path 2220"
                        d="M265.1,82.039c0-.016,0-.031.005-.047a2.635,2.635,0,0,0-1.225-2.556l-.613-.259a2.585,2.585,0,0,0-1.364,0,2.689,2.689,0,0,0-1.5,1.124q.021.2.033.407a19.825,19.825,0,0,1-.116,3.033,2.635,2.635,0,0,0,2.865,1.053,2.537,2.537,0,0,0,1.167-.686,2.855,2.855,0,0,0,.752-1.814A2.074,2.074,0,0,0,265.1,82.039Z"
                        transform="translate(-11.274 -67.813)" fill="#a3e7f8" />
                      <path id="Path_2221" data-name="Path 2221"
                        d="M271.557,58.328a3.677,3.677,0,0,0-.8.163.7.7,0,0,0-.086-.11.813.813,0,0,0-.811-.583.958.958,0,0,0-.37-.245,1.2,1.2,0,0,0-.043-.114.88.88,0,0,0-.552-.53,3.908,3.908,0,0,1-1.047-.694.927.927,0,0,0-.29-.45,3.422,3.422,0,0,0,.452-.537l0,0a.851.851,0,0,0-.92-1.431l-1.189.866a1.128,1.128,0,0,0-.193.178c-.168.14-.333.284-.489.438a.844.844,0,0,0-.243.633l-.008.019a2.764,2.764,0,0,0-1.226,1.212.884.884,0,0,0-.095.509c-.016.036-.03.071-.042.105a.821.821,0,0,0,.247.851.862.862,0,0,0,.961.381l.076-.029a.986.986,0,0,0,.682.084.709.709,0,0,0,.813.336.878.878,0,0,0,.228.175.923.923,0,0,0,1.231.727.724.724,0,0,0,.757.023.815.815,0,0,0,.5.052.76.76,0,0,0,.431-.032.812.812,0,0,0,1.253.1,1.234,1.234,0,0,1,.776-.389C272.643,59.934,272.654,58.222,271.557,58.328Z"
                        transform="translate(-14.055 -46.019)" fill="#a3e7f8" />
                      <path id="Path_2222" data-name="Path 2222"
                        d="M260.226,71.692l.311-13.28a6.124,6.124,0,0,1,.472-2.688,6.127,6.127,0,0,1,2.031-2.006l1.951-1.4"
                        transform="translate(-11.192 -44.864)" fill="none" stroke="#030504" stroke-width="1" />
                      <path id="Path_2223" data-name="Path 2223"
                        d="M370.683,134.719a.209.209,0,0,0-.024-.093.207.207,0,0,0,.049-.2.219.219,0,0,0-.263-.149c-.075.012-.149.029-.221.047-.108-.215-.425-.2-.645-.159a.239.239,0,0,0-.227-.008c-.083.037-.186.029-.273.057a.5.5,0,0,0-.294.224.382.382,0,0,0-.005.351.26.26,0,0,0,.015.137.222.222,0,0,0,.263.149l.03-.006a.218.218,0,0,0,.2.165h.007a.2.2,0,0,0,.015.088.219.219,0,0,0,.252.124c.11-.015.219-.037.327-.061,0,.005,0,.01.007.015a.263.263,0,0,0,.36.1.19.19,0,0,0,.1-.184l.119-.058.291-.143A.218.218,0,0,0,370.683,134.719Z"
                        transform="translate(-104.239 -115.016)" fill="#bebec2" />
                      <path id="Path_2224" data-name="Path 2224"
                        d="M331.811,191.077a7.005,7.005,0,0,1,1.271.066c0-.018-.005-.035-.009-.054a.933.933,0,0,0-.426-.554.926.926,0,0,0-1.268.332,1,1,0,0,0-.091.242C331.463,191.1,331.637,191.086,331.811,191.077Z"
                        transform="translate(-72.127 -163.27)" fill="#006bad" />
                      <path id="Path_2225" data-name="Path 2225"
                        d="M290.92,97.82a2.7,2.7,0,0,0-1.42,2.234,2.072,2.072,0,0,0,.056.522,5.666,5.666,0,0,0-.234.65,5.393,5.393,0,0,0-.146.7c-.011.071-.02.142-.03.213a1.76,1.76,0,0,0-.512.513,1.959,1.959,0,0,0-.22,1.627c.011.037.106.275.182.433-.029.112-.05.334-.067.411a3.84,3.84,0,0,0,.052,1.786c.447,1.778,3.2,1.025,2.749-.758-.1-.41.106-.766.148-1.182a2.27,2.27,0,0,0-.059-.852,1.839,1.839,0,0,0,.517-1.2,3.676,3.676,0,0,1,.609-1.876,1.288,1.288,0,0,0,.16-.989,2.206,2.206,0,0,0,.164-.279A1.437,1.437,0,0,0,290.92,97.82Z"
                        transform="translate(-35.291 -83.706)" fill="#bebec2" />
                      <path id="Path_2226" data-name="Path 2226"
                        d="M349.38,186.932a.5.5,0,0,0-.128-.22l-.1-.078a.5.5,0,0,0-.252-.068h-.027a.512.512,0,0,0-.5.5l.018.133a.5.5,0,0,0,.128.22l.1.078a.5.5,0,0,0,.252.068h.027a.513.513,0,0,0,.5-.5Z"
                        transform="translate(-86.776 -159.975)" fill="#006bad" />
                      <path id="Path_2227" data-name="Path 2227"
                        d="M367.227,161.8c-.521-.238-1.429-.427-1.778.153a8.41,8.41,0,0,1-1.433,1.979c-.418.392.1.992.545.808a.478.478,0,0,0,.6-.057l1.437-1.334c.322-.3.88-.629.877-1.119A.492.492,0,0,0,367.227,161.8Z"
                        transform="translate(-100.057 -138.544)" fill="#006bad" />
                      <path id="Path_2228" data-name="Path 2228"
                        d="M415.111,76.4q-.007-.36-.014-.72a19.349,19.349,0,0,0-.051-2.826q.028-6.794.055-13.588a.5.5,0,0,0-.852-.353l-1.9,2.05a.5.5,0,0,0,0,.706,1.091,1.091,0,0,1,.432.814v.186a.459.459,0,0,0,.177.381c.143,1.5.079,3.034.09,4.527q.014,2,.01,3.993a.469.469,0,0,0-.107.29,13.545,13.545,0,0,0,.07,1.682c0,.008,0,.016,0,.025-.011.392-.014.783-.013,1.175Q413,75.748,413,76.76a15.162,15.162,0,0,0-.184,2.618s0,.01,0,.015c-.046.087-.094.174-.143.26a.5.5,0,0,0,.784.6,5.629,5.629,0,0,0,1.278-2.784.5.5,0,0,0,.392-.465l.03-.374A.46.46,0,0,0,415.111,76.4Z"
                        transform="translate(-141.512 -50.388)" fill="#5db4cb" />
                      <path id="Path_2229" data-name="Path 2229"
                        d="M287.619,101a.453.453,0,0,0-.467-.481.519.519,0,0,0-.529-.015.418.418,0,0,0-.305-.1.781.781,0,0,0-.13.02.435.435,0,0,0-.66.164c-.022.044-.04.088-.061.132a.427.427,0,0,0-.261.224l-.067.129a2.084,2.084,0,0,0-.369.721,2.914,2.914,0,0,0-.4,1.9,6.718,6.718,0,0,0-.055.795l-.04.5a.489.489,0,0,0-.086.282,8.773,8.773,0,0,0,.087,1.35,5.008,5.008,0,0,0,.09.577l.117,1a.5.5,0,0,0,1,0c.063-.866.056-1.741.091-2.609a.506.506,0,0,0,.868.02v0a.5.5,0,0,0,.493-.351,5.551,5.551,0,0,0,.2-1.61,10.8,10.8,0,0,1,.266-1.666A3.614,3.614,0,0,0,287.619,101Z"
                        transform="translate(-31.74 -86.038)" fill="#bebec2" />
                      <path id="Path_2230" data-name="Path 2230"
                        d="M366.6,106.675c-.2-.61-.37-1.738-1.16-1.845a3.04,3.04,0,0,0-1.17.245c-.456.132-.766.157-1.034.554a.469.469,0,0,0,0,.49.54.54,0,0,0,.3.568,6.448,6.448,0,0,0-.07,2.29.5.5,0,0,0,.92.243.507.507,0,0,0,.314,0,.519.519,0,0,0,.45.279h.009a.534.534,0,0,0,.131.07,3.89,3.89,0,0,0,.172.818c0,.015.012.027.018.041l.1,1.017a.554.554,0,0,0,.019.093,4.724,4.724,0,0,1-.237.716.5.5,0,0,0,.348.614l.965.28a.5.5,0,0,0,.614-.348A13,13,0,0,0,366.6,106.675Z"
                        transform="translate(-99.458 -89.882)" fill="#bebec2" />
                      <path id="Path_2231" data-name="Path 2231"
                        d="M283.412,105.905a8.088,8.088,0,0,1,1.156-5.91.8.8,0,0,1,.239-.264.784.784,0,0,1,.518-.053,5.075,5.075,0,0,1,3.117,1.728"
                        transform="translate(-30.949 -85.456)" fill="none" stroke="#030504" stroke-width="1" />
                      <path id="Path_2232" data-name="Path 2232" d="M359.454,113.233"
                        transform="translate(-96.277 -97.094)" fill="none" stroke="#030504" stroke-width="1" />
                      <path id="Path_2233" data-name="Path 2233"
                        d="M356.981,104.648a6.439,6.439,0,0,1,3.169-1.37.546.546,0,0,1,.334.028.556.556,0,0,1,.192.217,11.1,11.1,0,0,1,1.409,7.515"
                        transform="translate(-94.157 -88.548)" fill="none" stroke="#030504" stroke-width="1" />
                      <path id="Path_2234" data-name="Path 2234" d="M291.844,114.676a8.519,8.519,0,0,1-7.6-13.369"
                        transform="translate(-30.503 -86.868)" fill="none" stroke="#030504" stroke-width="1" />
                      <path id="Path_2235" data-name="Path 2235"
                        d="M332.519,107.516a13.852,13.852,0,0,1,1.533,4.494,7.259,7.259,0,0,1-.087,2.373,7.1,7.1,0,0,1-4.095,4.741,7.3,7.3,0,0,1-5.8.509"
                        transform="translate(-65.938 -92.192)" fill="none" stroke="#030504" stroke-width="1" />
                      <path id="Path_2236" data-name="Path 2236"
                        d="M308.508,103.732a3.221,3.221,0,0,1,1.452,1.105.325.325,0,0,0,.1.1.318.318,0,0,0,.241-.011,7.693,7.693,0,0,1,4.777.071.461.461,0,0,0,.544-.088,7.669,7.669,0,0,1,2.6-1.16"
                        transform="translate(-52.593 -88.947)" fill="none" stroke="#030504" stroke-width="1" />
                      <path id="Path_2237" data-name="Path 2237" d="M284.862,65.042q7.787.332,15.568.8"
                        transform="translate(-32.317 -55.772)" fill="none" stroke="#030504" stroke-width="1" />
                      <path id="Path_2238" data-name="Path 2238"
                        d="M361.241,69.552q2.133.062,4.261.236a4.273,4.273,0,0,1,2.545.789,2.825,2.825,0,0,1,.958,1.877c.371,5.566.064,11.236.048,16.815"
                        transform="translate(-97.81 -59.639)" fill="none" stroke="#030504" stroke-width="1" />
                      <path id="Path_2239" data-name="Path 2239"
                        d="M261.758,73.864l-.022-4.572a3.824,3.824,0,0,1,.389-1.733,2.679,2.679,0,0,1,1.955-1.426,10.007,10.007,0,0,1,2.561.061,29.164,29.164,0,0,0,3.576.119"
                        transform="translate(-12.488 -56.652)" fill="none" stroke="#030504" stroke-width="1" />
                      <path id="Path_2240" data-name="Path 2240"
                        d="M373.227,170.241q.065,2.21.051,4.42a7.136,7.136,0,0,1-.22,2.061,2.65,2.65,0,0,1-1.274,1.624,3.879,3.879,0,0,1-1.363.324,18.537,18.537,0,0,1-4.3-.073"
                        transform="translate(-101.99 -145.977)" fill="none" stroke="#030504" stroke-width="1" />
                      <path id="Path_2241" data-name="Path 2241"
                        d="M304.087,225.775a107.711,107.711,0,0,1-14.726-.589q-.519-.057-1.038-.116"
                        transform="translate(-35.285 -192.991)" fill="none" stroke="#030504" stroke-width="1" />
                      <path id="Path_2242" data-name="Path 2242"
                        d="M402.038,181.565a4.433,4.433,0,0,0,1.9-1.752,32,32,0,0,0,1.986-3.2,4.516,4.516,0,0,0,.618-1.673c.043-.448-.038-.9.034-1.349"
                        transform="translate(-132.792 -148.848)" fill="none" stroke="#030504" stroke-width="1" />
                      <path id="Path_2243" data-name="Path 2243"
                        d="M426.568,98.1a4.61,4.61,0,0,0,1-3.208c.012-2.122-.016-11.55,0-13.673"
                        transform="translate(-153.826 -69.641)" fill="none" stroke="#030504" stroke-width="1" />
                      <path id="Path_2244" data-name="Path 2244" d="M301.39,45.407q7.53-.077,15.044.566"
                        transform="translate(-46.489 -38.928)" fill="none" stroke="#030504" stroke-width="1" />
                      <path id="Path_2245" data-name="Path 2245"
                        d="M381.316,47.752q2.43.1,4.845.421a3.72,3.72,0,0,1,1.23.314,2.6,2.6,0,0,1,1.222,1.662,7.7,7.7,0,0,1,.172,2.11l-.05,4.713"
                        transform="translate(-115.023 -40.946)" fill="none" stroke="#030504" stroke-width="1" />
                      <path id="Path_2246" data-name="Path 2246" d="M415.383,64l1.321-1.468"
                        transform="translate(-144.235 -53.619)" fill="none" stroke="#030504" stroke-width="1" />
                      <path id="Path_2247" data-name="Path 2247" d="M294.684,99.961l-.03,8.535"
                        transform="translate(-40.713 -85.714)" fill="none" stroke="#030504" stroke-width="1" />
                      <path id="Path_2248" data-name="Path 2248"
                        d="M304.346,157.739c-.175-.073-.362-.143-.562-.208a13.988,13.988,0,0,0-2.835-.561c-1.076-.116-2.259-.218-3.511-.253a22.53,22.53,0,0,0-3.528.163,14.078,14.078,0,0,0-2.816.653c-.392.129-.731.286-1.031.416l-.238.12a.881.881,0,0,1,.147.173c.339-.136.745-.283,1.216-.421a15.814,15.814,0,0,1,2.77-.549,25.4,25.4,0,0,1,3.469-.127c1.234.034,2.413.124,3.481.217a15.685,15.685,0,0,1,2.788.459c.189.052.366.108.533.165C304.266,157.9,304.305,157.82,304.346,157.739Z"
                        transform="translate(-36.572 -134.372)" fill="#030504" stroke="#030504" stroke-width="1" />
                      <path id="Path_2249" data-name="Path 2249"
                        d="M312.92,71.709a1.387,1.387,0,0,1-.968.187.852.852,0,0,1-.614-.5.113.113,0,0,0-.135-.077.112.112,0,0,0-.078.131.123.123,0,0,0,0,.025.924.924,0,0,0,.594.851,1.2,1.2,0,0,0,1.089-.154h0a.136.136,0,0,0,.056-.04.112.112,0,0,0,.036-.147.1.1,0,0,0-.011-.015c.049-.023.1-.047.144-.073C313.155,71.83,313.044,71.64,312.92,71.709Z"
                        transform="translate(-54.833 -61.154)" fill="#fff" />
                      <path id="Path_2250" data-name="Path 2250"
                        d="M327.285,74.392a.1.1,0,0,0,.01-.05l-.006,0a2.319,2.319,0,0,1-2.2-.168.1.1,0,0,0,0,.11.436.436,0,0,0,.086.112.106.106,0,0,0-.025.171l.267.208c.028.176.251.266.41.329a.52.52,0,0,0,.35.12.779.779,0,0,0,.287.021.113.113,0,0,0,.049.013l.147,0a.1.1,0,0,0,.094-.054.413.413,0,0,0,.079-.038l.025-.017a.11.11,0,0,0,.02-.014,1.314,1.314,0,0,0,.105-.079.651.651,0,0,0,.268-.19.374.374,0,0,0,.092-.142l0-.005a.16.16,0,0,0,.02-.176A.116.116,0,0,0,327.285,74.392Z"
                        transform="translate(-66.796 -63.605)" fill="#fff" />
                      <path id="Path_2251" data-name="Path 2251"
                        d="M348.917,192.961a.222.222,0,0,0-.179-.037c-.019-.2-.33-.264-.374-.042a.733.733,0,0,1-.053.161Q348.613,193.013,348.917,192.961Z"
                        transform="translate(-86.723 -165.272)" fill="#fff" />
                      <path id="Path_2252" data-name="Path 2252"
                        d="M287.272,160.2c.05.166.1.332.149.5,0,.013.006.026.01.039l0,.006q.055.112.106.224l.015.015a2.673,2.673,0,0,1,.311.405,1.968,1.968,0,0,1,.284.335.206.206,0,0,0,.091-.153c-.073-.149-.151-.3-.23-.442a10.86,10.86,0,0,0-.65-1.064c-.061-.087-.125-.171-.19-.255C287.206,159.935,287.24,160.066,287.272,160.2Z"
                        transform="translate(-34.298 -137.027)" fill="#312c29" />
                      <path id="Path_2253" data-name="Path 2253"
                        d="M322.717,61.518a.386.386,0,0,0-.02-.082.412.412,0,0,0-.349-.276.488.488,0,0,0-.088,0,.478.478,0,0,0-.559.194.2.2,0,0,0,.069.264.438.438,0,0,0,.115.05.166.166,0,0,0,.045.017l.048.008a.208.208,0,0,0,.157.169.226.226,0,0,0,.161.088.427.427,0,0,0,.416-.246A.214.214,0,0,0,322.717,61.518Zm-.481-.1a.075.075,0,0,1-.05.021.661.661,0,0,1-.109,0l.006.006a.071.071,0,0,1-.05.122.074.074,0,0,1-.05-.021.906.906,0,0,1-.085-.089.148.148,0,0,1-.042-.089.085.085,0,0,1,.066-.083.192.192,0,0,1,.064,0l.068.009a.729.729,0,0,0,.133.008.071.071,0,0,1,.05.021.072.072,0,0,1,.021.05A.073.073,0,0,1,322.236,61.416Z"
                        transform="translate(-63.883 -52.42)" fill="#fff" />
                      <path id="Path_2254" data-name="Path 2254" d="M390.615,153.306"
                        transform="translate(-122.997 -131.455)" fill="none" stroke="#1f1c1a" stroke-width="1" />
                      <path id="Path_2255" data-name="Path 2255"
                        d="M301.262,174.542l.024.033.017.025.031.047c.04.062.08.121.113.174l-.23.038-.047.008a3.541,3.541,0,0,1,.37.3c.2-.066.37-.126.522-.18-.184-.178-.343-.327-.474-.447l-.093-.084-.042-.037-.032-.026q-.062-.051-.114-.091c-.14-.106-.225-.154-.248-.132s.02.109.119.254Q301.214,174.478,301.262,174.542Z"
                        transform="translate(-46.199 -149.341)" fill="#1f1c1a" />
                      <path id="Path_2256" data-name="Path 2256"
                        d="M313.43,183.852h.041a.412.412,0,0,0,.225-.076.383.383,0,0,0,.125-.18,1.077,1.077,0,0,0,.046-.185,1.293,1.293,0,0,0,.014-.274,1,1,0,0,0-.085-.361c-.037-.077-.07-.11-.089-.1s-.025.051-.028.129a2.208,2.208,0,0,1-.029.325,1.388,1.388,0,0,1-.058.219.481.481,0,0,1-.038.087.128.128,0,0,1-.055.057.144.144,0,0,1-.083.006l-.021,0-.01,0-.023,0-.094-.006-.1-.006-.05,0h-.051l-.2.008C313.058,183.6,313.249,183.72,313.43,183.852Z"
                        transform="translate(-56.331 -156.634)" fill="#1f1c1a" />
                      <path id="Path_2257" data-name="Path 2257" d="M346.74,175.452"
                        transform="translate(-85.375 -150.445)" fill="#1f1c1a" />
                      <g id="Group_1133" data-name="Group 1133" transform="translate(252.519 21.511)">
                        <path id="Path_2258" data-name="Path 2258"
                          d="M293,169.2c.051-.062.1-.123.148-.184.029-.036.056-.074.083-.11l.049-.069.045-.068.018-.028c0-.019-.007-.039-.009-.058-.047-.054-.091-.111-.134-.172l-.069.087-.057.07-.056.067c-.029.033-.057.067-.088.1s-.077.084-.115.126A2.039,2.039,0,0,1,293,169.2Z"
                          transform="translate(-291.659 -166.006)" fill="#1f1c1a" />
                        <path id="Path_2259" data-name="Path 2259"
                          d="M285.054,152.134c.051-.06.1-.118.153-.174a2.8,2.8,0,0,1,.586-.5l.038-.023-.124-.251c-.018.009-.036.017-.054.027a2.972,2.972,0,0,0-.685.517c-.049.048-.1.1-.145.148A.821.821,0,0,1,285.054,152.134Z"
                          transform="translate(-284.802 -151.147)" fill="#1f1c1a" />
                        <path id="Path_2260" data-name="Path 2260"
                          d="M292.721,168.707c.039-.042.078-.083.118-.128.024-.026.047-.052.069-.079l.18-.219c.036.05.072.1.109.138,0,.011,0,.021,0,.032v.008l-.057.086-.064.089c-.022.03-.044.06-.068.089-.048.062-.1.119-.143.177l.032.048c.051-.062.1-.124.154-.191.024-.03.047-.061.069-.091l.134-.195,0-.03c0-.012,0-.025-.006-.037V168.4l-.006-.007c-.044-.051-.088-.106-.132-.17l-.021-.03-.091.115-.132.159c-.022.026-.044.052-.068.077-.039.044-.076.083-.114.124Z"
                          transform="translate(-291.543 -165.73)" fill="#1f1c1a" />
                        <path id="Path_2261" data-name="Path 2261"
                          d="M284.721,151.674c.047-.049.093-.1.141-.146a2.947,2.947,0,0,1,.679-.513l.028-.015.1.2-.017.011a2.8,2.8,0,0,0-.592.507c-.049.053-.1.111-.147.169.01.016.02.033.029.05.053-.063.105-.125.158-.182a2.748,2.748,0,0,1,.581-.5l.037-.022.023-.013-.148-.3-.025.012-.055.028a3,3,0,0,0-.691.522c-.05.049-.1.1-.147.152C284.692,151.651,284.706,151.663,284.721,151.674Z"
                          transform="translate(-284.677 -150.927)" fill="#1f1c1a" />
                      </g>
                      <path id="Path_2262" data-name="Path 2262"
                        d="M285.607,98.637c.042-.061.086-.12.131-.178a4.833,4.833,0,0,0-.958-.348c-.082-.02-.165-.04-.25-.055s-.168-.033-.268-.043a1.11,1.11,0,0,0-.334.012.743.743,0,0,0-.359.183,2.485,2.485,0,0,0-.355.492c-.1.157-.188.325-.278.494a8.149,8.149,0,0,0-.435,1.027,7.8,7.8,0,0,0-.266,1,7.307,7.307,0,0,0-.136,1.741,2.926,2.926,0,0,0,.345,1.559,9.463,9.463,0,0,0,.058-1.556,8.932,8.932,0,0,1,.942-3.512c.084-.157.165-.313.256-.46a2.515,2.515,0,0,1,.25-.377.182.182,0,0,1,.094-.052.591.591,0,0,1,.171-.009c.067,0,.147.017.224.028s.152.025.226.039a4.994,4.994,0,0,1,.8.231A1.915,1.915,0,0,1,285.607,98.637Z"
                        transform="translate(-29.942 -84.038)" fill="#030504" stroke="#030504" stroke-width="1" />
                      <path id="Path_2263" data-name="Path 2263"
                        d="M300.489,116.416c.142-.122.28-.25.417-.378-.036-.011-.072-.021-.107-.033a2.767,2.767,0,0,0-.893-.2,7.036,7.036,0,0,0,.835-1.076,8.7,8.7,0,0,0,1.04-1.864,2.77,2.77,0,0,0,.183-1.926,1.4,1.4,0,0,0-.778-.8,2.571,2.571,0,0,0-1.324-.091l-.034.006a5.15,5.15,0,0,0-.348-3.489.519.519,0,0,0-.24-.221l-.388-.631a1.677,1.677,0,0,0-.1-.164.691.691,0,0,0-.441-.288.662.662,0,0,0-.244-.448.174.174,0,0,1-.063.045,4.38,4.38,0,0,1-2.442.1,3.988,3.988,0,0,1-2.09-.143.169.169,0,0,1-.1-.1l-.029,0c-.008.009-.018.018-.025.027l-.066.084a.605.605,0,0,0-.189.122l-.145.143a.688.688,0,0,0-.385.275q-.22.314-.456.62-.331.377-.64.768a.521.521,0,0,0-.033.566l-.007.024a3.981,3.981,0,0,0-.276.727.973.973,0,0,0,0,.672.7.7,0,0,0,.181.248,1.489,1.489,0,0,0,.061.445,4.983,4.983,0,0,0,.093.544c0,.014-.007.028-.011.042a.782.782,0,0,0-.576-.258,1.726,1.726,0,0,0-1.655,1.294,2.368,2.368,0,0,0,.1,1.413.729.729,0,0,0-.748.28.724.724,0,0,1,.25.364q.061.2.117.406c.05.146.1.292.149.437,0,.012.006.023.01.034l0,.005q.055.1.106.2l.015.013a2.41,2.41,0,0,1,.312.356,1.8,1.8,0,0,1,.258.263,2.089,2.089,0,0,0,.222-.412c.081-.066.164-.128.251-.189q.229.328.488.638a7.509,7.509,0,0,0,.777.855c-.1.023-.2.05-.3.077.33.253.614.545.966.773.166.107.338.2.508.3a4.076,4.076,0,0,1,.476-.04c-.043.082-.083.165-.124.247l.043.029.159.036c.457.1.923.2,1.392.275a2.853,2.853,0,0,0,.131-.664.6.6,0,0,0,0-.293,2.783,2.783,0,0,0-.05-.326,1.434,1.434,0,0,0,.752.031,1.019,1.019,0,0,1,.594-.02q.038.014.077.026a3.953,3.953,0,0,0,.1,1.311c.009.039.019.079.029.118l.045,0a9.755,9.755,0,0,0,1.837-.108,2.882,2.882,0,0,0-.3-.522.745.745,0,0,0-.294-.235,2.419,2.419,0,0,1,0-.408.763.763,0,0,0,.563.462.681.681,0,0,0,.226.044.706.706,0,0,0,.255.252.782.782,0,0,0,.205.084,7.222,7.222,0,0,1,1.661-.745A.154.154,0,0,1,300.489,116.416Zm-8.459-3.7q-.11-.241-.218-.482a.664.664,0,0,0,.069-.083q.054.169.118.335c.012.031.025.063.037.094a.8.8,0,0,0-.008.115C292.029,112.7,292.03,112.705,292.031,112.712Zm.39.838q-.106-.223-.21-.447a.706.706,0,0,0,.1.086q.076.151.159.3Zm5.133-5.913c0-.043,0-.087-.006-.13.026.044.05.088.072.132Zm1.015,6.968-.044,0c.059-.215.112-.431.153-.649a1.486,1.486,0,0,0,.22-.157Q298.731,114.2,298.57,114.606Z"
                        transform="translate(-35.489 -89.801)" fill="#c2bebc" />
                      <path id="Path_2264" data-name="Path 2264"
                        d="M326.577,113.3a2.061,2.061,0,0,0-.069-1.145,1.774,1.774,0,0,0-.482-.989,1.916,1.916,0,0,0-1.638-.516,1.76,1.76,0,0,0-.414.075l-.054.019c-.047.014-.094.03-.141.048a2.1,2.1,0,0,0-1.194,1.258c-.008.024-.016.048-.023.072a1.888,1.888,0,0,0-.183,1.44.492.492,0,0,0,.032.072,2.674,2.674,0,0,0,.5,1.669.352.352,0,0,0,0,.27,1.81,1.81,0,0,0,.233.432,1.624,1.624,0,0,0,.341.823.506.506,0,0,0,.12.11.591.591,0,0,0-.194.184.985.985,0,0,0-.057.675l.147,1.385c.049.462.092.924.147,1.385a.628.628,0,0,0,.347.59,2.031,2.031,0,0,0,.824.068.524.524,0,0,0,.5-.338,6.82,6.82,0,0,0,.13-3.4c.013-.1.023-.206.03-.31a.387.387,0,0,0-.232-.381q.024-.045.045-.09l.011-.009a1.953,1.953,0,0,0,.166-.168.846.846,0,0,0,.511-.585l.32-.9a.389.389,0,0,0-.03-.31c.094-.278.181-.559.267-.84a.379.379,0,0,0-.039-.313c.005-.044.01-.089.015-.133A.336.336,0,0,0,326.577,113.3Z"
                        transform="translate(-64.42 -94.863)" fill="#fff" />
                      <path id="Path_2265" data-name="Path 2265"
                        d="M321.154,177.093l-.056,0c.143-.024.251-.177.11-.275l-.027-.019a.162.162,0,0,0-.075-.194,1.222,1.222,0,0,0-1.584.241.124.124,0,0,0-.027.132.189.189,0,0,0,.236.144c.034-.007.067-.017.1-.027a.212.212,0,0,0,.017.029l-.065.013c-.241.05-.139.377.1.327a3.564,3.564,0,0,1,.67-.1c.206,0,.4.059.6.069A.17.17,0,1,0,321.154,177.093Z"
                        transform="translate(-62.005 -151.268)" fill="#312c29" />
                      <path id="Path_2266" data-name="Path 2266"
                        d="M312.165,146.433l-.079-.015a.187.187,0,0,0-.162-.27c-.1-.011-.192-.017-.288-.02a.135.135,0,0,0,.027-.09.161.161,0,0,0-.011-.283,1.668,1.668,0,0,0-1.258-.173,3.425,3.425,0,0,0-1.167.839c-.155.149.069.367.236.267a.157.157,0,0,0,.013.036l-.014.009a.173.173,0,0,0-.029.271.183.183,0,0,0,.279.126,3.266,3.266,0,0,1,2.351-.369C312.3,146.812,312.406,146.485,312.165,146.433Z"
                        transform="translate(-53.164 -124.779)" fill="#312c29" />
                      <path id="Path_2267" data-name="Path 2267"
                        d="M316.406,161.618a.692.692,0,0,0-.251-.09.166.166,0,0,0,.006-.144.176.176,0,0,0,.13-.32,1.5,1.5,0,0,0-1.16-.193,2.216,2.216,0,0,0-1.027.746c-.161.164.11.4.273.24l.063-.066,0,.007c0,.006,0,.012-.006.018a.152.152,0,0,0,.064.172l-.083.053a.176.176,0,1,0,.195.293,2.773,2.773,0,0,1,.767-.37c.231-.068.612-.188.831-.052A.176.176,0,1,0,316.406,161.618Z"
                        transform="translate(-57.348 -137.906)" fill="#312c29" />
                      <path id="Path_2268" data-name="Path 2268"
                        d="M342.767,148.174l.08-.016a.189.189,0,0,1,.164-.273c.1-.011.194-.017.291-.02a.138.138,0,0,1-.027-.091.162.162,0,0,1,.011-.287,1.687,1.687,0,0,1,1.273-.175,3.465,3.465,0,0,1,1.18.848c.157.151-.069.371-.238.271a.154.154,0,0,1-.013.037l.014.009a.175.175,0,0,1,.03.274.185.185,0,0,1-.282.127,3.3,3.3,0,0,0-2.378-.374C342.627,148.558,342.523,148.228,342.767,148.174Z"
                        transform="translate(-81.85 -126.264)" fill="#312c29" />
                      <path id="Path_2269" data-name="Path 2269"
                        d="M344.383,161.98a.685.685,0,0,1,.251-.09.167.167,0,0,1-.006-.144.176.176,0,0,1-.13-.32,1.5,1.5,0,0,1,1.16-.193,2.216,2.216,0,0,1,1.027.746c.161.164-.11.4-.273.239l-.063-.066,0,.007c0,.006,0,.012.006.018a.152.152,0,0,1-.064.172l.083.054a.176.176,0,1,1-.195.292,2.776,2.776,0,0,0-.767-.37c-.231-.068-.612-.188-.831-.052A.176.176,0,1,1,344.383,161.98Z"
                        transform="translate(-83.282 -138.217)" fill="#312c29" />
                      <path id="Path_2270" data-name="Path 2270"
                        d="M342.74,177.481l.056,0c-.143-.024-.251-.177-.109-.276l.027-.019a.162.162,0,0,1,.075-.194,1.222,1.222,0,0,1,1.584.241.124.124,0,0,1,.028.132.189.189,0,0,1-.236.144c-.034-.007-.067-.017-.1-.027a.2.2,0,0,1-.017.029l.065.013c.241.05.139.377-.1.327a3.541,3.541,0,0,0-.67-.1c-.206,0-.4.059-.6.069A.17.17,0,1,1,342.74,177.481Z"
                        transform="translate(-81.786 -151.6)" fill="#312c29" />
                      <path id="Path_2271" data-name="Path 2271"
                        d="M313.343,108.843c-.133-.043-.286-.035-.424-.068a1.842,1.842,0,0,1-.51-.216c-.2-.117-.379.142-.221.273a.286.286,0,0,0-.186.305c-.046-.011-.091-.023-.136-.038a.172.172,0,1,0-.1.327,2.1,2.1,0,0,0,.883.083,1.557,1.557,0,0,0,.789-.275A.218.218,0,0,0,313.343,108.843Z"
                        transform="translate(-55.27 -93.06)" fill="#312c29" />
                      <path id="Path_2272" data-name="Path 2272"
                        d="M354.118,109.835a.174.174,0,0,0-.088-.125.169.169,0,0,0,0-.036.184.184,0,0,0-.162-.169.188.188,0,0,0-.312-.182,1.031,1.031,0,0,1-.329.224,1.378,1.378,0,0,0-.275.12.279.279,0,0,0-.059.439.953.953,0,0,0,.638.172,1.385,1.385,0,0,0,.74-.136C354.474,110.037,354.315,109.772,354.118,109.835Z"
                        transform="translate(-90.585 -93.695)" fill="#312c29" />
                      <path id="Path_2273" data-name="Path 2273"
                        d="M288.2,155.478c-.124-.049-.193-.2-.247-.313a2.074,2.074,0,0,0-.238-.421c-.016-.019-.114-.13-.126-.113a.661.661,0,0,1,.013-.087.206.206,0,0,0,.082-.113l.008-.057a.213.213,0,0,0-.029-.108l-.033-.043a.213.213,0,0,0-.094-.055l-.049-.016.045-.1a.22.22,0,0,0-.133-.31v0a.237.237,0,0,0-.058-.277.183.183,0,0,0-.011-.2.193.193,0,0,0-.025-.09.189.189,0,0,0-.014-.019.212.212,0,0,0-.286-.3,1.415,1.415,0,0,0-.4.345l-.007.006h0c-.011.014-.023.028-.035.042a.168.168,0,0,0-.022.184c-.044.067-.086.136-.125.207a.213.213,0,0,0,.166.315.242.242,0,0,0,.143.16.229.229,0,0,0,.225.289.257.257,0,0,0,.144.22.261.261,0,0,0,.068.022.328.328,0,0,0,0,.051.355.355,0,0,0,.118.219,1.031,1.031,0,0,1,.238.33,1.1,1.1,0,0,0,.564.641.215.215,0,0,0,.263-.149A.219.219,0,0,0,288.2,155.478Z"
                        transform="translate(-33.629 -131.042)" fill="#006bad" />
                      <path id="Path_2274" data-name="Path 2274"
                        d="M308.515,119.111a.2.2,0,0,0-.186-.124,3.635,3.635,0,0,1-.551-.1c-.136-.036-.379-.078-.463-.184-.14-.178-.474-.009-.333.171a.639.639,0,0,0,.09.092.281.281,0,0,0-.182.289h0a.172.172,0,1,0-.1.327C307.2,119.7,308.684,119.806,308.515,119.111Z"
                        transform="translate(-51.002 -101.716)" fill="#312c29" />
                      <path id="Path_2275" data-name="Path 2275"
                        d="M358.726,119.323a.177.177,0,0,0-.14-.293,1.278,1.278,0,0,0-.14,0l.076-.051c.194-.136-.081-.375-.273-.239a2.476,2.476,0,0,1-.77.306c-.166.05-.311.186-.251.351s.312.2.484.227a4.025,4.025,0,0,0,.955.035C358.891,119.64,358.912,119.357,358.726,119.323Z"
                        transform="translate(-94.357 -101.781)" fill="#312c29" />
                      <path id="Path_2276" data-name="Path 2276"
                        d="M371.224,146.442a.171.171,0,0,0-.024-.034.165.165,0,0,0-.075-.14l0,0,0,0c.186-.077.083-.29-.085-.308.033-.03.066-.061.1-.092.163-.163-.109-.4-.273-.24a3.144,3.144,0,0,1-1.033.694c-.219.09-.692.21-.5.516.142.224.633.217.885.211a2.633,2.633,0,0,0,1.125-.285C371.536,146.661,371.406,146.421,371.224,146.442Z"
                        transform="translate(-104.711 -124.819)" fill="#312c29" />
                      <path id="Path_2277" data-name="Path 2277"
                        d="M293.006,145.867a1.778,1.778,0,0,1-.875-.532c-.147-.172-.482,0-.333.171.031.036.063.072.1.106a.163.163,0,0,0-.148.159.444.444,0,0,0,.065.23s0,0,0,.007c-.218-.067-.4.212-.179.3a2.54,2.54,0,0,0,.943.18c.224,0,.628-.007.729-.228C293.4,146.051,293.2,145.926,293.006,145.867Z"
                        transform="translate(-38.037 -124.559)" fill="#312c29" />
                      <path id="Path_2278" data-name="Path 2278"
                        d="M294.921,158.583a2.154,2.154,0,0,1-.6-.433c-.163-.164-.435.076-.273.24a2.486,2.486,0,0,0,.2.182.165.165,0,0,0-.079.095.151.151,0,0,0,0,.094.172.172,0,0,0,.031.323c.258.083,1.13.313,1.129-.153C295.332,158.721,295.093,158.665,294.921,158.583Z"
                        transform="translate(-40.147 -135.562)" fill="#312c29" />
                      <path id="Path_2279" data-name="Path 2279"
                        d="M371.266,160.084a1.715,1.715,0,0,1-.777.508c-.188.076-.585.151-.666.342s.137.33.337.347a2.32,2.32,0,0,0,1.047-.191c.144-.058.115-.2.017-.269a.162.162,0,0,0-.09-.152,1.58,1.58,0,0,0,.465-.414C371.734,160.072,371.4,159.9,371.266,160.084Z"
                        transform="translate(-105.152 -137.2)" fill="#312c29" />
                      <path id="Path_2280" data-name="Path 2280"
                        d="M368.446,172.968a1.354,1.354,0,0,1-.386.143c-.131.027-.271.048-.313.18-.1.3.415.338.631.316.1-.011.193-.07.193-.169a.172.172,0,0,0-.054-.117c.042-.019.083-.039.123-.061C368.851,173.145,368.658,172.852,368.446,172.968Z"
                        transform="translate(-103.378 -148.292)" fill="#312c29" />
                      <path id="Path_2281" data-name="Path 2281"
                        d="M302.419,172.61a3.455,3.455,0,0,1-.472-.147.215.215,0,0,0-.264.061.16.16,0,0,0,.069.232l.121.046a.154.154,0,0,0,.1.258c.219.043.679.075.7-.214C302.687,172.7,302.559,172.644,302.419,172.61Z"
                        transform="translate(-46.719 -147.865)" fill="#312c29" />
                      <path id="Path_2282" data-name="Path 2282"
                        d="M306.731,115.787c-.239-.6-.51-1.315-.776-2.119-.133-.4-.265-.826-.392-1.267s-.242-.9-.33-1.366a5.9,5.9,0,0,1,.024-2.624,4.18,4.18,0,0,1,1.106-1.874c.115-.114.232-.218.346-.313l.086-.069.044-.034c-.024-.027-.049-.055-.076-.082a.576.576,0,0,1-.081-.05.284.284,0,0,1-.08-.07l-.021-.025-.016.011-.1.066a4.959,4.959,0,0,0-.406.312,4.547,4.547,0,0,0-.771.854,4.2,4.2,0,0,0-.319.543,4.669,4.669,0,0,0-.242.612,4.82,4.82,0,0,0-.211,1.368,7.3,7.3,0,0,0,.13,1.459A13.079,13.079,0,0,0,305,112.53c.136.448.282.875.432,1.28a21.737,21.737,0,0,0,.908,2.112c.146.294.285.558.414.787a2.232,2.232,0,0,1,.253.573.648.648,0,0,1-.008.364c-.016.04-.029.073-.039.1s-.011.039,0,.045.024,0,.05-.01a.348.348,0,0,0,.1-.08.515.515,0,0,0,.1-.175.757.757,0,0,0,.035-.261,1.926,1.926,0,0,0-.178-.666C306.961,116.357,306.851,116.087,306.731,115.787Z"
                        transform="translate(-49.169 -90.801)" fill="#1f1c1a" />
                      <path id="Path_2283" data-name="Path 2283"
                        d="M334.332,183.906a.214.214,0,0,0-.128-.1.946.946,0,0,1-.148-.047l-.029-.014a.158.158,0,0,0-.079-.025.219.219,0,0,0-.213.1.214.214,0,0,0,.077.292,1.167,1.167,0,0,0,.279.1.162.162,0,0,0,.085,0,.158.158,0,0,0,.079-.025.24.24,0,0,0,.1-.128l.008-.057A.212.212,0,0,0,334.332,183.906Z"
                        transform="translate(-74.198 -157.533)" fill="#fff" />
                      <path id="Path_2284" data-name="Path 2284"
                        d="M354.419,110.264a4.814,4.814,0,0,0-.211-1.368,4.659,4.659,0,0,0-.242-.612,4.225,4.225,0,0,0-.319-.543,4.546,4.546,0,0,0-.771-.854c-.1-.085-.2-.164-.3-.236-.114.065-.229.126-.349.18.114.094.229.2.344.311a4.183,4.183,0,0,1,1.106,1.874,5.9,5.9,0,0,1,.024,2.624c-.087.469-.2.926-.33,1.366s-.259.865-.392,1.267c-.266.8-.537,1.52-.776,2.119-.12.3-.23.57-.328.807a1.92,1.92,0,0,0-.178.666.758.758,0,0,0,.035.261.515.515,0,0,0,.1.175.344.344,0,0,0,.1.08c.026.014.043.017.05.01s.005-.022,0-.045-.024-.055-.039-.1a.648.648,0,0,1-.008-.364,2.231,2.231,0,0,1,.253-.573c.128-.229.267-.492.414-.787a21.735,21.735,0,0,0,.908-2.112c.149-.4.3-.832.432-1.28a13.144,13.144,0,0,0,.353-1.411A7.291,7.291,0,0,0,354.419,110.264Z"
                        transform="translate(-89.627 -91.45)" fill="#1f1c1a" />
                      <path id="Path_2285" data-name="Path 2285"
                        d="M322.454,124.611c-.026.027-.125,0-.276-.085a3,3,0,0,1-.571-.432,4.109,4.109,0,0,1-.334-.354,4.3,4.3,0,0,1-.324-.447,4.078,4.078,0,0,1-.493-1.138,3.868,3.868,0,0,1-.111-1.214,3.822,3.822,0,0,1,.074-.526,3.57,3.57,0,0,1,.128-.446,2.55,2.55,0,0,1,.3-.605c.1-.133.171-.2.208-.181.081.031-.022.354-.1.869a4.959,4.959,0,0,0,.079,1.989,5.315,5.315,0,0,0,.9,1.826C322.261,124.3,322.512,124.553,322.454,124.611Z"
                        transform="translate(-62.735 -102.194)" fill="#1f1c1a" />
                      <path id="Path_2286" data-name="Path 2286"
                        d="M326.41,147.957a.363.363,0,0,1,.07.1.126.126,0,0,1-.01.1l-.033.072-.04.1a2.859,2.859,0,0,0-.174.915c-.014.34.011.7.032,1.087s.053.8.108,1.239c.028.219.063.444.108.673.022.114.048.232.075.345s.05.221.065.325a1.309,1.309,0,0,1,.01.306,1.963,1.963,0,0,1-.055.32c-.027.109-.063.224-.1.335-.007.02-.015.039-.022.058.2.035.393.067.59.1v0c.043-.125.08-.248.111-.377a2.36,2.36,0,0,0,.064-.4,1.749,1.749,0,0,0-.019-.406c-.021-.13-.051-.25-.08-.364s-.055-.22-.079-.329c-.048-.217-.089-.432-.123-.643-.069-.422-.116-.829-.16-1.211s-.091-.738-.1-1.053a2.9,2.9,0,0,1,.073-.835l.025-.088.014-.046.008-.026.009-.032s0-.008,0-.012a.676.676,0,0,1-.252-.218.951.951,0,0,1-.127-.265c-.01-.033-.02-.069-.028-.1-.231-.19-.369-.285-.4-.264s.091.2.339.5Z"
                        transform="translate(-67.564 -126.341)" fill="#1f1c1a" />
                      <path id="Path_2287" data-name="Path 2287"
                        d="M350.47,170.732l.116.119c.067.07.13.141.187.214.137-.016.275-.037.412-.059l.137-.048.01-.006a2.7,2.7,0,0,0-.353-.4l-.115-.109a.436.436,0,0,1-.064-.074.131.131,0,0,1-.019-.058.323.323,0,0,1,.006-.093,1.106,1.106,0,0,1,.03-.119l.042-.134.082-.263.156-.494a9.217,9.217,0,0,0,.577-2.065,7.11,7.11,0,0,0-.977,1.953q-.095.232-.194.488l-.1.26-.051.135a1.5,1.5,0,0,0-.05.158.716.716,0,0,0-.022.2.535.535,0,0,0,.061.228A.83.83,0,0,0,350.47,170.732Z"
                        transform="translate(-88.41 -143.315)" fill="#1f1c1a" />
                      <path id="Path_2288" data-name="Path 2288"
                        d="M340.052,155.858c.015.063.032.124.05.184.1.007.209.014.313.019s.207,0,.312,0c-.036-.105-.069-.214-.1-.317a1.962,1.962,0,0,1-.055-.32,1.306,1.306,0,0,1,.01-.306c.015-.1.039-.213.065-.325s.053-.231.075-.345c.045-.229.08-.454.108-.673.056-.438.085-.853.108-1.239s.047-.747.032-1.087a2.86,2.86,0,0,0-.174-.915l-.04-.1-.033-.072a.125.125,0,0,1-.009-.1.362.362,0,0,1,.07-.1l.1-.117.109-.133c.063-.122.135-.24.2-.361a2.554,2.554,0,0,0-.484.361l-.119.1a.652.652,0,0,0-.146.158.323.323,0,0,0-.023.243l.009.032.008.026.014.046.025.088a2.9,2.9,0,0,1,.073.835c-.012.315-.06.669-.1,1.053s-.092.789-.16,1.211c-.035.211-.075.426-.123.643-.024.109-.05.216-.079.33s-.059.234-.08.364a1.749,1.749,0,0,0-.019.406A2.36,2.36,0,0,0,340.052,155.858Z"
                        transform="translate(-79.583 -128.248)" fill="#1f1c1a" />
                      <path id="Path_2289" data-name="Path 2289"
                        d="M366.287,141.234a1.825,1.825,0,0,0-.065-.28,1.853,1.853,0,0,0-.11-.265,1.578,1.578,0,0,0-.836-.764,2.088,2.088,0,0,0-.521-.124,3.871,3.871,0,0,0-.465-.021l-.106,0h-.057l-.079,0a.513.513,0,0,0-.272.094.381.381,0,0,0-.131.21c-.005.019-.01.038-.014.058l-.008.038-.015.073c-.038.192-.069.358-.089.495-.041.273-.045.429-.005.437s.12-.13.23-.388c.055-.129.118-.288.187-.473l.026-.071.013-.036.008-.017a.114.114,0,0,1,.048-.058.153.153,0,0,1,.082-.012l.021,0,.045,0,.1.007a2.335,2.335,0,0,1,.789.166,1.129,1.129,0,0,1,.546.564,1.486,1.486,0,0,1,.073.2,1.462,1.462,0,0,1,.041.214,1.976,1.976,0,0,1,0,.464,4.836,4.836,0,0,1-.264,1.007,7.047,7.047,0,0,1-.911,1.709,8,8,0,0,1-.555.685l-.143.152-.024.025-.033.033-.067.062-.131.122c-.086.081-.169.158-.251.231l-.12.109-.058.053c-.018.017-.043.036-.047.048l.423.042c.067.008.137.013.2.022l.181.024.291.048.191.03.311.048c.078-.072.158-.142.236-.214-.135-.041-.289-.086-.462-.135-.314-.083-.346-.1-.443-.127-.009,0,0-.006.007-.009l.017-.012.032-.023.058-.042.026-.02.013-.009.005,0,.014-.012.163-.153a7.212,7.212,0,0,0,.632-.706,6.644,6.644,0,0,0,1.015-1.819c.067-.185.124-.369.173-.554a3.705,3.705,0,0,0,.1-.564A2.3,2.3,0,0,0,366.287,141.234Z"
                        transform="translate(-99.415 -119.857)" fill="#1f1c1a" />
                      <path id="Path_2290" data-name="Path 2290"
                        d="M292.266,144.529l.17.157.021.019,0,0h0l0,0,.016.012.033.024c.023.017.046.033.071.05l.038.026.02.014,0,0h-.006l-.008,0a.747.747,0,0,0-.12.044l-.038.018a3.678,3.678,0,0,1,.324.233l.007,0c.178-.028.415-.056.639-.079l-.007-.018,0-.009,0,0-.007-.006-.055-.051-.114-.1c-.078-.071-.16-.146-.241-.225l-.127-.12-.065-.062-.017-.016-.008-.008,0-.005-.018-.019-.147-.158a8.074,8.074,0,0,1-.581-.729,7.12,7.12,0,0,1-.95-1.874,3.875,3.875,0,0,1-.208-.966,1.7,1.7,0,0,1,.03-.438,1.314,1.314,0,0,1,.145-.385,1.152,1.152,0,0,1,.248-.3.981.981,0,0,1,.153-.111,1.047,1.047,0,0,1,.171-.082,2.742,2.742,0,0,1,.777-.138l.049,0,.023,0h.011a.287.287,0,0,1,.04,0,.106.106,0,0,1,.073.025.193.193,0,0,1,.038.063l.051.138c.067.178.128.331.182.455.107.248.186.381.226.372s.038-.158,0-.421c-.019-.131-.047-.291-.084-.476l-.029-.143a.5.5,0,0,0-.091-.218.409.409,0,0,0-.233-.134.805.805,0,0,0-.151-.018l-.116,0c-.138,0-.285,0-.443.011a2.3,2.3,0,0,0-.5.093,1.572,1.572,0,0,0-.5.258,1.608,1.608,0,0,0-.377.416,1.718,1.718,0,0,0-.218.513,2.061,2.061,0,0,0-.055.554,3.969,3.969,0,0,0,.218,1.092,6.614,6.614,0,0,0,1.067,1.99A7.043,7.043,0,0,0,292.266,144.529Z"
                        transform="translate(-36.988 -119.066)" fill="#1f1c1a" />
                      <path id="Path_2291" data-name="Path 2291"
                        d="M365.487,179.481l.187.038c.126-.116.254-.229.381-.344-.171-.028-.337-.05-.495-.068q-.137-.015-.265-.025l-.064,0h-.085c-.076,0-.16,0-.25,0-.01,0,0,0,0-.005l.005-.009.011-.017.022-.036.046-.075.047-.076.023-.038.006-.009.008-.012.016-.024c.08-.123.112-.2.09-.213s-.1.026-.22.119l-.023.018-.012.01-.015.013-.066.057q-.07.061-.156.14l-.189.176-.107.1-.057.055-.009.008a4.505,4.505,0,0,1,.581.091c.173.037.351.066.523.112Z"
                        transform="translate(-100.442 -153.113)" fill="#1f1c1a" />
                      <path id="Path_2292" data-name="Path 2292"
                        d="M350.462,184.48l.026.008.052.017c.071.023.144.048.227.071l.126.037.065.019.043.013.367.111.43.126q.261-.16.533-.3c-.3-.067-.587-.127-.847-.18l-.378-.076-.044-.009-.022,0-.042-.005-.09-.012-.023,0-.012,0s-.011,0-.008,0l.006-.031c0-.021.009-.043.014-.065l.017-.066.005-.017.009-.025.018-.048c.094-.248.155-.389.118-.408s-.162.087-.328.322l-.031.046-.016.024-.02.033c-.027.046-.055.1-.082.149s-.055.11-.083.171l-.044.094,0,.006.006,0Z"
                        transform="translate(-88.551 -157.455)" fill="#1f1c1a" />
                      <path id="Path_2293" data-name="Path 2293"
                        d="M332.411,112.265c0,.005-.035.022-.1.052-.033.015-.074.034-.12.058s-.121.064-.2.114c-.008-.045-.013-.1-.02-.161l-.016-.134c-.011-.084-.024-.217-.029-.236l-.045.018c-.032.011-.072.024-.11.035l-.058.016-.03.007-.047.011c-.064.013-.127.024-.192.035l.039-.123c.007-.021.013-.041.021-.063l.017-.046q.03-.079.066-.158t.08-.159c.015-.026.03-.053.045-.079l.042-.067.014-.021.012-.017v0h-.041a.894.894,0,0,0-.093.013l-.058.013-.041.012c-.016,0-.033.011-.049.017-.066.026-.142.062-.208.092,0-.006,0-.011,0-.017l.011-.03.023-.059c.014-.039.032-.077.048-.114a.72.72,0,0,1,.047-.1c.014-.023.026-.046.041-.067a1.35,1.35,0,0,1,.194-.23,1.53,1.53,0,0,1,.215-.171,1.59,1.59,0,0,1,.211-.115,1.4,1.4,0,0,1,.33-.1.328.328,0,0,1,.126-.009,4.253,4.253,0,0,0-.422.166,1.671,1.671,0,0,0-.193.119,1.545,1.545,0,0,0-.195.168,1.313,1.313,0,0,0-.174.22c-.014.02-.024.042-.037.063a.287.287,0,0,0-.021.04.24.24,0,0,0-.011.026l0,.013,0,.006.007,0,.041-.017.011,0,.019-.005.065-.015a1.021,1.021,0,0,1,.161-.019c.035,0,.069,0,.1,0h.09l.008,0-.06.085-.03.043-.026.039-.019.029-.012.02-.023.038-.044.076q-.042.076-.078.152c-.024.051-.046.1-.066.152l-.017.045-.01.029c.014,0,.029,0,.044-.007l.012,0,.028-.007.056-.014c.038-.01.07-.019.11-.032.055-.018.111-.04.163-.06.017.19.02.258.027.356,0,.073.008.139.011.2a1.83,1.83,0,0,1,.249-.1A.289.289,0,0,1,332.411,112.265Z"
                        transform="translate(-72.127 -94.735)" fill="#050605" stroke="#050605" stroke-width="1" />
                      <path id="Path_2294" data-name="Path 2294"
                        d="M342.881,119.038c.04-.006.094.069.154.211a3.656,3.656,0,0,1,.185.616,4.873,4.873,0,0,1,.113.95,4.348,4.348,0,0,1-.148,1.18,4.56,4.56,0,0,1-.467,1.112,4.4,4.4,0,0,1-.6.8c-.4.421-.733.6-.785.55s.156-.32.441-.765a6.478,6.478,0,0,0,.833-1.823,5.766,5.766,0,0,0,.178-1.068c.023-.334.02-.641.017-.9s-.006-.474,0-.624S342.84,119.044,342.881,119.038Z"
                        transform="translate(-80.729 -102.072)" fill="#1f1c1a" />
                      <path id="Path_2295" data-name="Path 2295"
                        d="M315.843,167.79l.07.255.036.13a1.162,1.162,0,0,1,.026.116.365.365,0,0,1,0,.09.14.14,0,0,1-.016.056.407.407,0,0,1-.054.072l-.1.106c-.056.062-.112.13-.167.2.091.059.18.119.267.183l.135.035c.032-.042.066-.084.1-.126l.1-.116a.8.8,0,0,0,.11-.169.573.573,0,0,0,.052-.221.783.783,0,0,0-.018-.191,1.566,1.566,0,0,0-.042-.154l-.043-.131-.085-.253q-.085-.247-.165-.473a7.265,7.265,0,0,0-.833-1.895,9.953,9.953,0,0,0,.491,2Z"
                        transform="translate(-58.336 -141.745)" fill="#1f1c1a" />
                      <path id="Path_2296" data-name="Path 2296"
                        d="M331.739,175.1c.043,0,.084.234.076.628a5.58,5.58,0,0,1-.062.7c-.02.132-.044.272-.076.417-.016.072-.033.146-.052.221-.034.13-.075.269-.115.406-.107-.035-.217-.07-.33-.1l-.021-.006-.02,0-.021,0-.042-.009-.085-.015a2.054,2.054,0,0,0-.674.01c-.026.005-.052.009-.078.016l-.042.01c-.027.006-.052.014-.078.022q-.156.05-.3.1c-.036-.143-.071-.285-.1-.424-.01-.045-.016-.079-.024-.118l-.021-.113c-.027-.149-.048-.293-.065-.429a6.291,6.291,0,0,1-.048-.718c0-.405.04-.646.084-.646s.088.236.155.625c.034.195.075.427.129.687.027.13.057.267.091.409.017.07.036.147.053.214a.288.288,0,0,0,.013.032l.024-.01,0,0,.042-.011c.031-.008.062-.014.093-.021a2.243,2.243,0,0,1,.808-.011l.1.02.05.012.025.006h0l.027.011a.251.251,0,0,0,.015-.033q.032-.106.061-.209c.039-.137.072-.268.1-.394.06-.25.105-.475.141-.663C331.652,175.328,331.693,175.1,331.739,175.1Z"
                        transform="translate(-70.64 -150.09)" fill="#1f1c1a" />
                      <path id="Path_2297" data-name="Path 2297"
                        d="M324.386,119.925c.007-.018.079-.013.207.013s.315.065.554.111a6.932,6.932,0,0,0,2.044.033,9.093,9.093,0,0,0,2.882-.908,9.408,9.408,0,0,0,1.511-.952,7.42,7.42,0,0,0,1.351-1.335,5.545,5.545,0,0,0,.9-1.642,7.009,7.009,0,0,0,.317-1.734,6.83,6.83,0,0,0-.093-1.6,12.389,12.389,0,0,0-.307-1.392,19.936,19.936,0,0,0-.676-1.968c-.181-.46-.28-.718-.244-.737s.2.206.445.643a11.981,11.981,0,0,1,.86,1.944,11.048,11.048,0,0,1,.387,1.427,6.93,6.93,0,0,1,.153,1.713,7.191,7.191,0,0,1-.312,1.885,5.919,5.919,0,0,1-.979,1.816,7.642,7.642,0,0,1-1.462,1.429,9.338,9.338,0,0,1-1.619.98,8.732,8.732,0,0,1-3.073.838,5.857,5.857,0,0,1-2.135-.218,3.366,3.366,0,0,1-.541-.218C324.437,119.984,324.379,119.943,324.386,119.925Z"
                        transform="translate(-66.207 -92.443)" fill="#030504" stroke="#030504" stroke-width="1" />
                      <path id="Path_2298" data-name="Path 2298"
                        d="M283,101.595c.016.011,0,.079-.057.2-.026.058-.061.129-.1.211l-.069.132-.07.155-.167.36c-.057.133-.111.282-.174.438s-.114.33-.175.51-.108.377-.162.581-.087.424-.134.649c-.026.112-.033.23-.05.349s-.032.239-.043.362c-.01.248-.041.5-.032.766,0,.132,0,.265,0,.4l.028.41c0,.139.03.278.047.418s.033.284.066.425l.087.431.118.432a7.8,7.8,0,0,0,1.822,3.2l.311.322.326.295c.1.1.221.185.332.275s.219.18.335.255l.338.234c.113.074.23.139.342.208.222.143.457.246.675.365.111.054.224.1.334.148s.215.1.325.136c.217.075.422.164.626.216s.395.123.582.158.361.09.528.11.322.055.465.074l.395.041.169.019.149.008c.092.006.171.012.234.019.127.014.2.031.2.051s-.064.041-.191.064c-.064.011-.143.023-.237.035l-.152.018c-.054,0-.112,0-.173.007l-.41.008c-.15,0-.312-.018-.487-.029s-.36-.043-.557-.071-.4-.077-.618-.125-.436-.123-.669-.191c-.117-.032-.23-.083-.348-.126s-.238-.09-.358-.142c-.234-.115-.486-.216-.726-.359-.121-.069-.246-.135-.369-.209l-.365-.238c-.126-.077-.241-.172-.362-.262s-.245-.18-.358-.285l-.352-.308-.336-.339a7.976,7.976,0,0,1-1.951-3.432l-.12-.463-.085-.46c-.032-.151-.043-.3-.061-.454s-.038-.3-.04-.445-.012-.292-.018-.436.006-.285.009-.424c0-.279.042-.547.063-.807.017-.13.041-.256.061-.38s.037-.247.069-.364c.061-.235.1-.463.178-.672s.127-.413.208-.6.14-.36.224-.515.15-.3.224-.433l.216-.348c.033-.052.063-.1.095-.146l.094-.121c.058-.075.109-.137.151-.185C282.934,101.629,282.986,101.584,283,101.595Z"
                        transform="translate(-29.224 -87.113)" fill="#030504" stroke="#030504" stroke-width="1" />
                      <path id="Path_2299" data-name="Path 2299"
                        d="M304.054,3.239a.738.738,0,0,0-1.144.148l-.189.267a.888.888,0,0,0-.09.11l-.485.7c-.063.069-.121.141-.178.216a4.745,4.745,0,0,0-1.028,1.342,8.459,8.459,0,0,0-.746,1.224q-.118.167-.226.342a4.313,4.313,0,0,0-2.707-.864,12.13,12.13,0,0,0-1.452,0,2.572,2.572,0,0,0-.484.068,1.032,1.032,0,0,0-.023-.1.97.97,0,0,0-.434-.572.571.571,0,0,0-.1-.45c-.018-.024-.035-.047-.052-.071a.7.7,0,0,0,.054-.5,1.392,1.392,0,0,0-.334-.615A7.8,7.8,0,0,0,293,2.8a.74.74,0,0,0-1.145.147q-.289.471-.558.955a1.78,1.78,0,0,0-.462.9.986.986,0,0,0-.013.225,14.958,14.958,0,0,0-.563,1.889.8.8,0,0,0-.019.211c-.012.061-.025.121-.035.183a.833.833,0,0,0,.155.667c0,.006,0,.012,0,.019-.013.126-.019.252-.02.377a.739.739,0,0,0-.181.469,2.1,2.1,0,0,0,.341,1.238.8.8,0,0,0,.264.247,5.015,5.015,0,0,0-.47,3.25.852.852,0,0,0,.029.09.813.813,0,0,0-.049.093,1.2,1.2,0,0,0,.76,1.5,1.24,1.24,0,0,0,.3.188.963.963,0,0,0,.129.552,1.662,1.662,0,0,0,.84.608l.836.385a3.315,3.315,0,0,0,1.052.37,1.266,1.266,0,0,0,.28,0c.025.008.05.015.076.021a1,1,0,0,0,.127.066.547.547,0,0,0,.331.093l0,.008a.8.8,0,0,0-.3.171,1.894,1.894,0,0,1,.32.105c.285.015.571.027.854.041.091,0,.183,0,.274,0,.034-.012.068-.025.1-.039.011.011.024.021.036.032.112-.007.224-.016.336-.02a4.023,4.023,0,0,1,.692.047c.228.015.455,0,.683.018a4.026,4.026,0,0,1,.694.1,1.841,1.841,0,0,1,.625-.119.69.69,0,0,0-.218-.111.849.849,0,0,0-.206-.032c.09-.024.179-.049.268-.075a1.892,1.892,0,0,0,1.377-.171q.292-.112.571-.247l.111-.045a1.448,1.448,0,0,0,.15-.055q.158-.068.314-.141a.6.6,0,0,0,.071-.018A3.992,3.992,0,0,0,304,15.194a.7.7,0,0,0,.1-.4,1.315,1.315,0,0,0-.026-1.167c-.013-.021-.027-.041-.042-.06s0-.024,0-.036a2.812,2.812,0,0,0,0-.645l0-.02a.681.681,0,0,0,.481-.342,6.636,6.636,0,0,0,.536-2.377c.08-.822.16-1.645.212-2.468A5.777,5.777,0,0,0,304.054,3.239ZM296.5,13.873a1.232,1.232,0,0,0-.188.286,1.732,1.732,0,0,0-.722.8,1.348,1.348,0,0,0-.123.2l-.022.023a1.779,1.779,0,0,0,.052-.346.735.735,0,0,0-.922-.7,2.388,2.388,0,0,1-1.025.032c-.2-.035-.407-.084-.608-.137-.084-.022-.167-.045-.25-.069l-.039-.011a.763.763,0,0,0-.231-.166l-.027-.012a.7.7,0,0,0-.2-.383.747.747,0,0,0-.463-.207c-.017-.015-.035-.028-.053-.041a4.188,4.188,0,0,1,.553-2.582.916.916,0,0,0,.08-.467l.019-.1a.623.623,0,0,0,.332-.194c.075-.083.145-.17.212-.258a.576.576,0,0,0,.179.019,1.451,1.451,0,0,0,.682-.2.774.774,0,0,0,.384.34.77.77,0,0,0,.325.146,3.36,3.36,0,0,0,.46.872,1.932,1.932,0,0,1,.211.709c.049.377.031.773.117,1.145a1.076,1.076,0,0,0,.037.125v0l-.112.445a.2.2,0,0,0,.288.221.926.926,0,0,1,.236-.066.268.268,0,0,0,.076-.041,1.167,1.167,0,0,0,.39.125,1.558,1.558,0,0,0,.4.007.368.368,0,0,0,.009.049.3.3,0,0,0,.265.235l0,.006A.621.621,0,0,0,296.5,13.873Zm5.547-.331c-.01.031-.018.062-.026.093a3.141,3.141,0,0,1-1.96.856c-.452.052-.9.043-1.358.062a2.686,2.686,0,0,0-.3.028.723.723,0,0,0-.159-.128,1.074,1.074,0,0,0-.492-.147c-.009-.038-.019-.075-.032-.113a.8.8,0,0,0-.283-.38.158.158,0,0,0,.075-.156c-.008-.074-.014-.147-.018-.221a.208.208,0,0,0,.013-.07c0-.056,0-.111-.006-.165l-.013-.375a.189.189,0,0,0-.09-.16c.079-.229.124-.481.212-.7a4.785,4.785,0,0,1,.989-1.492.683.683,0,0,0,.125-.179.711.711,0,0,0,.128.005,2.029,2.029,0,0,0,.415-.064.881.881,0,0,0,.358.156.866.866,0,0,0,.489.01.846.846,0,0,0,.286.153,1.567,1.567,0,0,0,.373.351,1.83,1.83,0,0,0,.694.654l.038.018a1.742,1.742,0,0,0,.35.448,1.1,1.1,0,0,0,.371.59A2.4,2.4,0,0,0,302.049,13.542Z"
                        transform="translate(-36.852 -2.225)" fill="#c2bebc" />
                      <path id="Path_2300" data-name="Path 2300"
                        d="M367.679,29.815c.335,0,.5.319.545,1.024a16.231,16.231,0,0,1,.014,3.7,9.743,9.743,0,0,0-2.825-3.069,5.653,5.653,0,0,1,.984-1.015l.042-.031.007,0a2.655,2.655,0,0,1,1.231-.6h-.023"
                        transform="translate(-101.387 -25.566)" fill="#312c29" />
                      <path id="Path_2301" data-name="Path 2301"
                        d="M301.683,21.46q-.068.083-.13.169h0c-.117-.071-.225-.006-.336.043a2.6,2.6,0,0,0-.242.111l-.021.006a4.153,4.153,0,0,0-.8-1.133,3.182,3.182,0,0,0-.807-.586c-.026-.014-.052-.028-.079-.039a.537.537,0,0,0-.426-.029l-.031.015c-.225.068-.394.325-.544.8a13.323,13.323,0,0,0-.641,2.4c-.038.236-.075.5-.11.788l0,.012c-.012.086-.016.158-.022.23a7.136,7.136,0,0,1,1.255-1.231,5.774,5.774,0,0,1,.917-.578h0a.042.042,0,0,1,0-.019,4.123,4.123,0,0,1,.577-.262h0a3.833,3.833,0,0,0,.491.66,1.623,1.623,0,0,0,.36.4.2.2,0,0,0,.335-.139,2.321,2.321,0,0,1,.528-1.339C302.12,21.544,301.844,21.265,301.683,21.46Z"
                        transform="translate(-43.149 -17.122)" fill="#312c29" />
                      <path id="Path_2302" data-name="Path 2302"
                        d="M330.077,32.106c.319.007.667.012,1.026.024.4.017.814.045,1.228.1h0a1.7,1.7,0,0,0-.177.15,2.073,2.073,0,0,0-.148.162,4.7,4.7,0,0,0-.474.768l-.025.045c-.077.143-.155.285-.243.424-.009.053-.035.076-.073.077h-.01a2.5,2.5,0,0,1-1.1-1.748"
                        transform="translate(-71.084 -27.53)" fill="#312c29" />
                      <path id="Path_2303" data-name="Path 2303"
                        d="M345.409,33.624a4.16,4.16,0,0,1,1.887.718l.007.005.052.042.03.03c.036.034.07.062.1.086-.1-.01-.2-.015-.287-.016a1.945,1.945,0,0,0-.548.067,4.033,4.033,0,0,0-.567.235,2.591,2.591,0,0,1-.444.155l-.113.007h0l-.124-.085-.03-.033a1.079,1.079,0,0,1-.236-.563.873.873,0,0,1,0-.174.706.706,0,0,1,.043-.184l.049-.1.007-.011.076-.094.1-.083.005,0"
                        transform="translate(-83.992 -28.832)" fill="#312c29" />
                      <path id="Path_2304" data-name="Path 2304"
                        d="M315.3,88.665a1.411,1.411,0,0,1-.985.19.867.867,0,0,1-.625-.5.115.115,0,0,0-.138-.078.114.114,0,0,0-.079.133.117.117,0,0,0,0,.025.941.941,0,0,0,.6.866,1.22,1.22,0,0,0,1.108-.157h0a.138.138,0,0,0,.057-.041.114.114,0,0,0,.036-.15.1.1,0,0,0-.011-.015q.075-.035.146-.074C315.54,88.789,315.427,88.6,315.3,88.665Z"
                        transform="translate(-56.847 -75.688)" fill="#fff" />
                      <path id="Path_2305" data-name="Path 2305"
                        d="M329.921,91.4a.1.1,0,0,0,.01-.05l-.006,0a2.359,2.359,0,0,1-2.238-.171.106.106,0,0,0,0,.112.443.443,0,0,0,.088.114.108.108,0,0,0-.026.174l.271.211c.028.18.256.271.417.335a.53.53,0,0,0,.356.122.8.8,0,0,0,.292.022.117.117,0,0,0,.05.013l.149.005a.1.1,0,0,0,.1-.055.427.427,0,0,0,.08-.039l.026-.018a.112.112,0,0,0,.021-.014,1.324,1.324,0,0,0,.107-.08.661.661,0,0,0,.273-.193.38.38,0,0,0,.094-.144l0-.005a.163.163,0,0,0,.02-.179A.118.118,0,0,0,329.921,91.4Z"
                        transform="translate(-69.023 -78.183)" fill="#fff" />
                      <path id="Path_2306" data-name="Path 2306"
                        d="M303.933,54.9a1.54,1.54,0,0,1-.172.836,3.494,3.494,0,0,0-.173.306.413.413,0,0,0-.09-.013.464.464,0,0,0-.488-.185.414.414,0,0,0-.153-.04.442.442,0,0,0-.23-.127.38.38,0,0,0-.158-.115.469.469,0,0,0-.033-.042.346.346,0,0,0-.188-.338,1.242,1.242,0,0,0,.008-.14.406.406,0,0,0-.019-.123,1.492,1.492,0,0,0,.082-.325.987.987,0,0,0,.094-.168c.066-.083.125-.167.18-.252a.947.947,0,0,0,.4-.525q.019-.044.035-.09a.111.111,0,0,0,.222-.012.236.236,0,0,0-.171-.209c0-.021,0-.042,0-.063a.252.252,0,0,0-.048-.181h0c0-.009.006-.018.009-.027a.354.354,0,0,0-.021-.29.2.2,0,0,0-.109-.083.15.15,0,0,0-.2-.056,1.088,1.088,0,0,0-.212.142.342.342,0,0,0-.185.057,1.562,1.562,0,0,0-.673.919l-.014.027a2.084,2.084,0,0,0-.419,1.226,2.312,2.312,0,0,0,.028.661.335.335,0,0,0,.043.113c.007.06.017.12.03.181a.375.375,0,0,0,.317.291.585.585,0,0,0,.119.157.547.547,0,0,0,.172.108.629.629,0,0,0,.114.1.541.541,0,0,0,.3.1c.014.008.028.014.041.02a.6.6,0,0,0,.141.133.543.543,0,0,0,.481.09.572.572,0,0,0,.473.006,1.027,1.027,0,0,0,.63-.089.414.414,0,0,0,.208-.363c0-.226.26-.475.34-.69a2.758,2.758,0,0,0,.126-.935A.421.421,0,0,0,303.933,54.9Z"
                        transform="translate(-46.324 -45.119)" fill="#b8d4e9" />
                      <path id="Path_2307" data-name="Path 2307"
                        d="M345.5,59.918a1.338,1.338,0,0,0-.229-.706.441.441,0,0,0-.141-.133.416.416,0,0,0-.692.3,1.454,1.454,0,0,0-.008.225q-.09.383-.152.771a1.037,1.037,0,0,0-.159.526.385.385,0,0,0,.068.248c-.058.036-.115.072-.173.107l-.116.068a.5.5,0,0,0-.307-.09l-.006-.006a.554.554,0,0,0-.691-.077.426.426,0,0,0-.076,0,.5.5,0,0,0-.156-.261.461.461,0,0,0-.457-.263v0a1.784,1.784,0,0,0,.062-.244.983.983,0,0,0,.159-.4.372.372,0,0,0,.587-.239,3.34,3.34,0,0,0,.054-.732.367.367,0,0,0-.007-.055,1.407,1.407,0,0,0,0-.177.426.426,0,0,0-.245-.372.463.463,0,0,0-.651-.029.511.511,0,0,0-.246.188,3.817,3.817,0,0,0-.581,1.208,1.455,1.455,0,0,0-.131,1.4c0,.02.01.039.016.058a.942.942,0,0,0,.2.451.3.3,0,0,0,.072.064l.015.015a.526.526,0,0,0,.1.146.558.558,0,0,0,.066.06.539.539,0,0,0,.069.092l.036.035c0,.007.008.014.013.021a.514.514,0,0,0,.569.223.524.524,0,0,0,.229.058.771.771,0,0,0,.16-.016.712.712,0,0,0,.5.018.469.469,0,0,0,.191.045,1.628,1.628,0,0,0,.767-.32l.146-.086a.4.4,0,0,0,.2.006,1.4,1.4,0,0,0,1-1.04A2.055,2.055,0,0,0,345.5,59.918Z"
                        transform="translate(-80.523 -49.948)" fill="#b8d4e9" />
                      <path id="Path_2308" data-name="Path 2308"
                        d="M375.1,8.561a.417.417,0,0,1-.019-.079q-.018-.134-.042-.268a.41.41,0,0,1-.123-.227,3.177,3.177,0,0,1-.057-.655.436.436,0,0,1,.033-.17,6.976,6.976,0,0,0-.606-.573.432.432,0,0,0-.017-.575c-.067-.082-.137-.16-.209-.234a.465.465,0,0,0-.1-.2.992.992,0,0,0-.859-.312l-.041,0a.422.422,0,0,0-.385.584,2.239,2.239,0,0,0-.29-.016c-.039,0-.077,0-.116,0-.162.2-.334.383-.505.571-.115.175-.231.351-.354.521a2.658,2.658,0,0,1,.975-.257,1.945,1.945,0,0,1,1.066.347,4.877,4.877,0,0,1,.893.79,2.377,2.377,0,0,1,.634.915.409.409,0,0,0,.126.2C375.107,8.8,375.1,8.682,375.1,8.561Z"
                        transform="translate(-106.531 -4.502)" fill="#fff" />
                      <path id="Path_2309" data-name="Path 2309"
                        d="M374.867,82.7a18.22,18.22,0,0,1,5.391-.274c.506.053,1,.145,1.506.224.121.019.168-.184.047-.213a12.927,12.927,0,0,0-1.358-.225c-.457-.058-.916-.1-1.376-.125a18.007,18.007,0,0,0-2.729.062,14.734,14.734,0,0,0-1.541.231.163.163,0,0,0,.061.32Z"
                        transform="translate(-109.332 -70.362)" fill="#1f1c1a" />
                      <path id="Path_2310" data-name="Path 2310"
                        d="M375.532,90.77a5.064,5.064,0,0,1,1.18-.071c.4.024.8.076,1.2.121a18.876,18.876,0,0,1,2.348.373,12.289,12.289,0,0,1,1.3.406c.159.058.236-.172.089-.243a8.964,8.964,0,0,0-2.353-.666c-.4-.07-.81-.125-1.217-.177s-.809-.105-1.216-.134a4.021,4.021,0,0,0-1.386.087.155.155,0,0,0,.058.3Z"
                        transform="translate(-109.912 -77.48)" fill="#1f1c1a" />
                      <path id="Path_2311" data-name="Path 2311"
                        d="M373.428,97.116a2.517,2.517,0,0,0,.445.09c.138.03.275.066.41.108a5.86,5.86,0,0,1,.819.32,5.24,5.24,0,0,1,1.421.986,7.148,7.148,0,0,1,.656.75c.085.112.285-.013.21-.136a5.173,5.173,0,0,0-1.262-1.355,5.308,5.308,0,0,0-1.628-.857c-.163-.052-.329-.1-.5-.133a1.634,1.634,0,0,0-.55-.074.158.158,0,0,0-.025.3Z"
                        transform="translate(-108.175 -83.011)" fill="#1f1c1a" />
                      <path id="Path_2312" data-name="Path 2312"
                        d="M254.188,75.289a18.214,18.214,0,0,0-5.392-.251c-.506.055-1,.149-1.5.231-.121.02-.169-.184-.048-.213a12.869,12.869,0,0,1,1.357-.231c.457-.06.916-.1,1.375-.131a18.006,18.006,0,0,1,2.729.051,14.7,14.7,0,0,1,1.542.225.163.163,0,0,1-.059.32Z"
                        transform="translate(0 -64.021)" fill="#1f1c1a" />
                      <path id="Path_2313" data-name="Path 2313"
                        d="M258.577,83.3a5.067,5.067,0,0,0-1.18-.066c-.4.026-.8.079-1.2.126a18.86,18.86,0,0,0-2.347.383,12.24,12.24,0,0,0-1.3.411c-.159.059-.237-.171-.09-.243a8.97,8.97,0,0,1,2.35-.676c.4-.072.81-.129,1.216-.182s.809-.109,1.215-.139a4.019,4.019,0,0,1,1.387.081.155.155,0,0,1-.056.3Z"
                        transform="translate(-4.47 -71.077)" fill="#1f1c1a" />
                      <path id="Path_2314" data-name="Path 2314"
                        d="M274.544,89.617a2.527,2.527,0,0,1-.445.092c-.138.03-.274.067-.409.109a5.871,5.871,0,0,0-.818.324,5.241,5.241,0,0,0-1.417.992,7.125,7.125,0,0,0-.653.753c-.085.112-.285-.012-.21-.135a5.176,5.176,0,0,1,1.256-1.36,5.306,5.306,0,0,1,1.624-.864c.163-.053.328-.1.5-.135a1.635,1.635,0,0,1,.55-.076.158.158,0,0,1,.026.3Z"
                        transform="translate(-20.067 -76.582)" fill="#1f1c1a" />
                      <path id="Path_2315" data-name="Path 2315"
                        d="M325.272,78.293a.4.4,0,0,0-.02-.083.42.42,0,0,0-.355-.28.492.492,0,0,0-.089,0,.487.487,0,0,0-.569.2.2.2,0,0,0,.07.269.449.449,0,0,0,.117.05.166.166,0,0,0,.045.017l.049.008a.212.212,0,0,0,.159.172.23.23,0,0,0,.164.09.435.435,0,0,0,.424-.25A.217.217,0,0,0,325.272,78.293Z"
                        transform="translate(-66.059 -66.798)" fill="#fff" />
                      <path id="Path_2316" data-name="Path 2316"
                        d="M302.623,53.472a1.843,1.843,0,0,1-.916-.159,1.523,1.523,0,0,1-.166-.092,1.6,1.6,0,0,0,.509-.2c.174-.1.454-.253.48-.476a.293.293,0,0,0-.02-.149,1.51,1.51,0,0,0,.154-.467.418.418,0,0,0-.048-.27c.024-.034.049-.069.072-.106a.2.2,0,0,0-.169-.3.37.37,0,0,0-.277.1,1.539,1.539,0,0,0-.793.76l0,.01a1.049,1.049,0,0,0-.407.731l-.056-.037a.194.194,0,0,0-.288.206.216.216,0,0,0,0,.343,2.646,2.646,0,0,0,1.625.515.2.2,0,0,0,.083-.019c.074,0,.149,0,.224,0C302.873,53.848,302.875,53.456,302.623,53.472Z"
                        transform="translate(-45.817 -43.954)" fill="#006bad" />
                      <path id="Path_2317" data-name="Path 2317"
                        d="M319.642,66.937a.287.287,0,0,0,.007-.05.208.208,0,0,0-.052-.144.169.169,0,0,0,0-.044.215.215,0,0,0-.184-.212.219.219,0,0,0-.229.113.492.492,0,0,0,.007.334.62.62,0,0,1-.255-.081.2.2,0,0,0-.2.339,1.015,1.015,0,0,0,.825.086A.206.206,0,0,0,319.642,66.937Z"
                        transform="translate(-61.286 -57.009)" fill="#006bad" />
                      <path id="Path_2318" data-name="Path 2318"
                        d="M342.151,61.89a3,3,0,0,1-.308.046c.166-.15.3-.438.06-.591a.267.267,0,0,0-.125-.04.4.4,0,0,0-.176-.013.229.229,0,0,0-.044-.031l.091-.12a.193.193,0,0,0,0-.2l0,0a1.174,1.174,0,0,0,.1-.136.211.211,0,0,0,.015-.032,1.424,1.424,0,0,0,.359-.287.193.193,0,0,0,.206-.286.342.342,0,0,0-.193-.155.287.287,0,0,0-.312-.063.956.956,0,0,0-.561.281c-.166.155-.471.5-.434.777a.584.584,0,0,0-.135.372.283.283,0,0,0,.073.17.308.308,0,0,0,.037.18.421.421,0,0,0-.015.07c0,.007,0,.013,0,.02a.2.2,0,0,0-.091.38,3.411,3.411,0,0,0,1.567.039C342.5,62.218,342.4,61.84,342.151,61.89Z"
                        transform="translate(-80.068 -51.414)" fill="#006bad" />
                      <path id="Path_2319" data-name="Path 2319"
                        d="M363.031,63.84l-.063.03a.205.205,0,0,0-.008-.33s0-.007,0-.011a.242.242,0,0,0-.129-.2.359.359,0,0,0-.095-.313.449.449,0,0,0-.372-.111,1.125,1.125,0,0,1-.126-.005.162.162,0,0,0-.185.2.3.3,0,0,0-.034.116.19.19,0,0,0,.1.169.322.322,0,0,0,.069.022l-.043.02a.166.166,0,0,0-.076.241l-.025.014c-.151.094-.106.39.1.366l.034,0a.232.232,0,0,0,.043.1c-.128.032-.259.058-.391.077-.249.037-.143.415.1.378a4.337,4.337,0,0,0,1.3-.413C363.456,64.066,363.257,63.728,363.031,63.84Z"
                        transform="translate(-98.189 -53.931)" fill="#006bad" />
                      <path id="Path_2320" data-name="Path 2320"
                        d="M303.936,63.939a.217.217,0,0,0,.016-.092l-.008-.171a.265.265,0,0,0-.074-.178.252.252,0,0,0-.431.178l.008.168a2.635,2.635,0,0,1-.757-.127.2.2,0,0,0-.214-.11,2.157,2.157,0,0,1-1.758-.6c-.232-.227-.589.129-.357.357a2.643,2.643,0,0,0,2.039.758.265.265,0,0,0,.1.069,3.542,3.542,0,0,0,1.245.17A.253.253,0,0,0,303.936,63.939Z"
                        transform="translate(-45.543 -53.96)" fill="#74aed5" />
                      <path id="Path_2321" data-name="Path 2321"
                        d="M345.286,69.433c-.681.193-1.371.362-2.067.488a3.971,3.971,0,0,1-2.08-.069.553.553,0,0,1-.014.063.115.115,0,0,1,0,.017c.005-.012,0-.006,0,.007s-.007.035-.007.048c0,.037,0,.075-.005.112a.472.472,0,0,1-.079.248,4.3,4.3,0,0,0,2.123.094,19.923,19.923,0,0,0,2.267-.522A.252.252,0,0,0,345.286,69.433Z"
                        transform="translate(-80.479 -59.528)" fill="#74aed5" />
                      <path id="Path_2322" data-name="Path 2322"
                        d="M309.3,53.381a1.861,1.861,0,0,0-.843-.972.712.712,0,0,0-.528-.044.283.283,0,0,0-.114.012c-.444.134-.627.614-.758,1.019a3.163,3.163,0,0,0-.131,1.484,1.448,1.448,0,0,0,.69,1.057,1.039,1.039,0,0,0,1.1-.033,1.845,1.845,0,0,0,.6-1.062A2.38,2.38,0,0,0,309.3,53.381Z"
                        transform="translate(-51.206 -44.874)" fill="#1f1c1a" />
                      <path id="Path_2323" data-name="Path 2323"
                        d="M349.791,55.871a1.549,1.549,0,0,0-1.234-.82.931.931,0,0,0-.68.189.286.286,0,0,0-.356.1,2.855,2.855,0,0,0-.444,1.688,2.158,2.158,0,0,0,.511,1.542,1.292,1.292,0,0,0,1.452.194,1.445,1.445,0,0,0,.873-1.266A2.688,2.688,0,0,0,349.791,55.871Z"
                        transform="translate(-85.663 -47.201)" fill="#1f1c1a" />
                      <path id="Path_2324" data-name="Path 2324"
                        d="M306.75,54.11a1.182,1.182,0,0,0-.718.08.418.418,0,0,0-.216.364.3.3,0,0,0,.03.262.458.458,0,0,0,.23.171.856.856,0,0,0,.563.075.778.778,0,0,0,.251-.1.456.456,0,0,0,.257-.3A.483.483,0,0,0,306.75,54.11Z"
                        transform="translate(-50.269 -46.378)" fill="#fff" />
                      <path id="Path_2325" data-name="Path 2325"
                        d="M346.887,58.526c-.108-.282-.46-.349-.768-.317a.82.82,0,0,0-.8.438c-.164.48.568.565.876.532C346.517,59.145,347.056,58.967,346.887,58.526Z"
                        transform="translate(-84.135 -49.907)" fill="#fff" />
                      <path id="Path_2326" data-name="Path 2326"
                        d="M297.2,3.2a1.525,1.525,0,0,1-.181-.485.967.967,0,0,1-.1-.2,1.907,1.907,0,0,0-1.4.176.372.372,0,0,0-.155.523q-.083.046-.162.1c-.122.076-.241.159-.357.245a.4.4,0,0,1,.022.277c-.1.359-.208.714-.334,1.062l.062-.054a7.545,7.545,0,0,1,1.024-.817,1.669,1.669,0,0,1,1.109-.319,3.018,3.018,0,0,1,.768.282A1.842,1.842,0,0,1,297.2,3.2Z"
                        transform="translate(-40.611 -2.1)" fill="#fff" />
                      <g id="Artwork_86" data-name="Artwork 86" transform="translate(252.784 0)">
                        <path id="Path_2327" data-name="Path 2327"
                          d="M301.276,10.772a9.438,9.438,0,0,0,1.348-4.78A9.291,9.291,0,0,0,301.242.753.882.882,0,0,0,300.624.4c-1.289.045-2.41,2.054-4.19,4.225-.062.072-.129.153-.193.235a5.687,5.687,0,0,0-2.543-.592c-.317.015-.661.029-.982.06l-.066-.1C291.437,2.345,290.714.143,289.595,0h0a.934.934,0,0,0-.628.237,7.851,7.851,0,0,0-2.12,4.076,6.6,6.6,0,0,0,.45,4.1h0a6.1,6.1,0,0,0-.757,2l0,.038-.005,0c0,.016,0,.032,0,.049.006.089.017.178.03.265.028.185.053.372.094.554a4.239,4.239,0,0,0,.4,1.075,9.413,9.413,0,0,0,.569.925c.062.091.128.181.2.269a6.863,6.863,0,0,0,2.8,1.727c.143.068.287.136.434.194a2.645,2.645,0,0,0,.688.145,6.083,6.083,0,0,0,.68.109,12.79,12.79,0,0,0,5.416-.3c.223-.064.442-.141.656-.225h0a.5.5,0,0,1,.047-.021l.028-.015a.6.6,0,0,1,.122-.045l.014,0a2.735,2.735,0,0,1,.264-.124c.132-.071.265-.139.4-.208a7.652,7.652,0,0,0,.9-.569l.047-.035c.042-.031.082-.063.121-.1l.088-.074c.089-.078.175-.157.261-.237h0c.067-.062.135-.122.205-.181q.077-.112.151-.226c.074-.114.139-.236.211-.352a1.869,1.869,0,0,0,.086-.2,1.737,1.737,0,0,0,.035-.291c.012-.422-.064-.839-.064-1.257A3.6,3.6,0,0,0,301.276,10.772Zm-.125-.509c-.358-.515-.747-.368-.526.217a2.31,2.31,0,0,1,.082.978.822.822,0,0,1,.015.1,1.051,1.051,0,0,1-.015.241c-.005.037-.013.074-.021.111a2.351,2.351,0,0,1-.113.56,2.756,2.756,0,0,1-.24.539,1.233,1.233,0,0,1-.36.46h0c-.042.036-.085.07-.128.1l-.029.02a5,5,0,0,1-2.086,1.131,10.245,10.245,0,0,1-2.245.52c-3.881.458-6.069-.638-7.2-2.094a1.834,1.834,0,0,1-.337-.435,5.012,5.012,0,0,1-.384-.745,4.242,4.242,0,0,1-.239-.791,1.608,1.608,0,0,1-.035-.463l-.01-.069c-.062-1.339.871-2.832.574-2.811h0a.428.428,0,0,0-.169.08L287.609,8a8.964,8.964,0,0,1,.408-5.36A6.444,6.444,0,0,1,289.42.6l.1-.063c.559-.107,1.847,2.779,2.5,3.914a.782.782,0,0,0-.227.135c1.411.106,3.935-.1,5.233.97.458.438.442.089.015-.293.9-1.045,3.345-4.887,3.774-4.1a7.247,7.247,0,0,1,1.067,2.665A12.562,12.562,0,0,1,301.151,10.263Z"
                          transform="translate(-286.538 0)" fill="#1f1c1a" />
                        <path id="Path_2328" data-name="Path 2328"
                          d="M342.36,53.283c-1.592-.026-2.939,2.043-2.37,3.7-.4.162-.033.522.02.643.118.23.328.6.618.644a6.091,6.091,0,0,0,3.847-.671,1.633,1.633,0,0,0,.547-1.274A3.638,3.638,0,0,0,342.36,53.283Zm1.843,3.594a1.689,1.689,0,0,1-.958.852l.024-.018a.787.787,0,0,1-.211.06.426.426,0,0,1-.159.044,1.716,1.716,0,0,1-.262.074,2.64,2.64,0,0,1-.5.061.445.445,0,0,1-.105.019.336.336,0,0,1-.1-.013,6.408,6.408,0,0,1-.989-.058c-.354-.04-.408-.5-.607-.772a.306.306,0,0,0-.221-.158,4.662,4.662,0,0,0,.164-1.047,2.369,2.369,0,0,1,2.082-2.115C343.306,53.789,344.491,55.626,344.2,56.877Z"
                          transform="translate(-332.214 -45.688)" fill="#1f1c1a" />
                        <path id="Path_2329" data-name="Path 2329"
                          d="M304.909,55.268c-.13-.1-.293-.155-.392-.047s-.022.218.052.306c.122.122.064.268-.067.354a1.328,1.328,0,0,1-1.725-.193c-.234-.213-.183-.544-.118-.85.68-.084,1.418-.51,1.418-1.136-.016-.333-.871-.523-1.561-.543-.13,0-.248,0-.36.009l-.031-.03c.576-1.6-.307-3.807-1.547-3.942-.816-.054-2.244,1.475-2.317,2.774a1.976,1.976,0,0,0,.325,1.33,4.019,4.019,0,0,0,2.939,1.059.4.4,0,0,0,.254-.155,1.491,1.491,0,0,0,.469.593c-.007.079-.008.165-.008.254-.028.281-.069.583-.313.682a1.1,1.1,0,0,1-1.4-.421c-.082-.115-.089-.255.037-.314.081-.048.161-.122.119-.236s-.193-.129-.32-.093a.61.61,0,0,0-.15.81,1.338,1.338,0,0,0,1.947.438l.232-.2.008-.023.048.079a1.647,1.647,0,0,0,2.347.427A.675.675,0,0,0,304.909,55.268ZM301.871,53.2a.376.376,0,0,0-.207.1.544.544,0,0,0-.053.381c-.076.143-.163.257-.3.258-.033,0-.067,0-.1,0h-.044l-.022,0a.324.324,0,0,1-.1-.016,1.767,1.767,0,0,1-.374-.015l-.061-.009-.029,0a.289.289,0,0,1-.163-.034.323.323,0,0,1-.082-.01.355.355,0,0,1-.106-.027h0a1.758,1.758,0,0,1-1.369-1.248c-.125-1.279.944-3,1.68-2.885.871.112,1.414,1.313,1.451,2.326a5.928,5.928,0,0,0,.043,1.064A.212.212,0,0,0,301.871,53.2Zm.373.516-.072-.1a.531.531,0,0,0,.076-.182h.014s.89-.016.621.158C302.75,53.69,302.406,53.947,302.244,53.716Z"
                          transform="translate(-296.581 -42.183)" fill="#1f1c1a" />
                      </g>
                      <path id="Path_2330" data-name="Path 2330" d="M260.719,104.129l-.056-16.912"
                        transform="translate(-11.567 -74.786)" fill="none" stroke="#030504" stroke-width="1" />
                      <path id="Path_2331" data-name="Path 2331"
                        d="M272.441,174.8l-6.662-.4a9.65,9.65,0,0,1-2.856-.461A3.26,3.26,0,0,1,260.9,172a4.825,4.825,0,0,1-.14-1.519l.058-4.039a3.433,3.433,0,0,1,.05-.644"
                        transform="translate(-11.643 -142.17)" fill="none" stroke="#030504" stroke-width="1" />
                    </g>
                  </svg>