<svg xmlns="http://www.w3.org/2000/svg" width="41.762" height="43.717" viewBox="0 0 31.762 33.717">
                  <g id="Group_1166" data-name="Group 1166" transform="translate(-271.211 -278.56)">
                    <path id="Path_2793" data-name="Path 2793"
                      d="M466.768,506.436l0-.074a1.083,1.083,0,0,0-.787-1.034,1.02,1.02,0,0,0-.835.131,1.272,1.272,0,0,0-.33.026.972.972,0,0,0-.346.149,1.026,1.026,0,0,0-1.023-.07,1.339,1.339,0,0,0-.341.051,1.078,1.078,0,0,0-.317,2.084l.025.012a1.234,1.234,0,0,0,.656.325,1.115,1.115,0,0,0,.537.141c.022.013.044.025.069.037a1.13,1.13,0,0,0,1.338-.2,1.239,1.239,0,0,0,.324-.112,1.1,1.1,0,0,0,.965-.774,1.347,1.347,0,0,0,.079-.527A1.21,1.21,0,0,0,466.768,506.436Z"
                      transform="translate(-176.396 -209.953)" fill="#c2bebc" />
                    <path id="Path_2794" data-name="Path 2794"
                      d="M554.723,687.876a.645.645,0,0,0-.174-.391l-.119-.09a.434.434,0,0,0-.218-.066.294.294,0,0,0-.155,0,.437.437,0,0,0-.216.072l-.117.093a.583.583,0,0,0-.147.259l0,.012c-.007.05-.017.111-.019.161a.191.191,0,0,0,0,.028l0,.013a.441.441,0,0,0,.02.137l0,.011,0,.012a.171.171,0,0,0,.009.026.562.562,0,0,0,.49.411.445.445,0,0,0,.232-.014l.138-.061a.586.586,0,0,0,.206-.212l.057-.14A.586.586,0,0,0,554.723,687.876Z"
                      transform="translate(-261.084 -378.515)" fill="#c2bebc" />
                    <path id="Path_2795" data-name="Path 2795"
                      d="M452.709,692.882a.627.627,0,0,0-.535-.017l-.058-.01a.629.629,0,0,0-.449.065.583.583,0,0,0,.154,1.064,2.453,2.453,0,0,0,.465.062.74.74,0,0,0,.643-.369A.591.591,0,0,0,452.709,692.882Z"
                      transform="translate(-166.478 -383.602)" fill="#c2bebc" />
                    <path id="Path_2796" data-name="Path 2796"
                      d="M413.963,521.311a2.132,2.132,0,0,0-2.1-1.429,1.035,1.035,0,0,0-.719.3c0-.016-.009-.031-.014-.047a5.09,5.09,0,0,0,.108-.615,1.518,1.518,0,0,0,.07-.5.8.8,0,0,0,.223-.283.99.99,0,0,0-.015-.756,4.212,4.212,0,0,0-.357-.814l-.009-.027a.538.538,0,0,0-.05-.637q-.393-.435-.815-.854-.3-.34-.581-.69a.85.85,0,0,0-.314-.242.672.672,0,0,1-.13.18.567.567,0,0,0-.229-.38.111.111,0,0,0-.04-.019c-.012-.009-.022-.018-.035-.026l-.007,0a1.3,1.3,0,0,0-.07-.125.134.134,0,0,0-.059-.049c-.015-.025-.028-.052-.044-.076a.145.145,0,0,0-.1-.061c-.015-.03-.029-.061-.046-.09a.126.126,0,0,0-.1-.067.193.193,0,0,0-.168.077.105.105,0,0,0-.123.084c0,.02-.007.041-.011.061a.147.147,0,0,0-.028-.009.134.134,0,0,0-.208.056c0,.007,0,.015-.007.022a.14.14,0,0,0-.127-.015c0-.01,0-.02,0-.031a.127.127,0,0,0-.229-.041c-.025.039-.046.08-.067.121a.119.119,0,0,0-.124.055c-.006.011-.011.023-.017.034a.123.123,0,0,0-.054-.015.122.122,0,0,0-.2-.04c-.01.012-.018.024-.028.036a.127.127,0,0,0-.218-.015l0,0a.118.118,0,0,0-.187.023c-.015.025-.028.051-.041.076a.261.261,0,0,0-.054,0,.127.127,0,0,0-.2-.037c-.026.024-.05.051-.074.077a.094.094,0,0,0-.078.013.222.222,0,0,0-.208.015.126.126,0,0,0-.067.039.129.129,0,0,0-.093-.035c-.014-.091-.136-.164-.209-.081a1.3,1.3,0,0,0-.091.117.131.131,0,0,0-.244,0l-.105.243-.021,0a.105.105,0,0,0,0-.011s0-.007,0-.01l0-.011c.038-.131-.162-.241-.226-.106l-.054.112a.135.135,0,0,0-.145.03.13.13,0,0,0-.076-.032.12.12,0,0,0-.02-.015.126.126,0,0,0-.2-.1c-.021-.1-.169-.164-.227-.05l-.055.108a.141.141,0,0,0-.136-.021.131.131,0,0,0-.053,0h0a.135.135,0,0,0-.248-.006c-.019.047-.043.091-.064.137,0-.014,0-.027,0-.041a.124.124,0,0,0-.009-.052c.016-.043.035-.085.05-.128.056-.153-.183-.228-.24-.077-.017.044-.036.088-.055.131a.149.149,0,0,0-.023.023l-.042.059a.131.131,0,0,0-.152-.057.128.128,0,0,0-.218-.01l-.007.013a.147.147,0,0,0-.013-.023.132.132,0,0,0-.052-.072.128.128,0,0,0-.145.009.826.826,0,0,0-.076-.232.128.128,0,0,0-.232.02.932.932,0,0,0-.054.5l-.019.015-.041.033c0-.006-.007-.011-.009-.017a.872.872,0,0,0-.506.321,1.829,1.829,0,0,0-.124.187l-.477.717a.629.629,0,0,0-.3.253,5.254,5.254,0,0,0-.384,3.933l-.043-.006a3.583,3.583,0,0,0-1.661.125,1.665,1.665,0,0,0-.965.908,2.827,2.827,0,0,0,.259,2.165,9.563,9.563,0,0,0,1.333,2.081,8.094,8.094,0,0,0,1.064,1.2,3.819,3.819,0,0,0-1.118.238,14.462,14.462,0,0,1-1.552.339.225.225,0,0,1-.062.113c-.021.02-.04.043-.06.064l-.024.035a1.448,1.448,0,0,0-.083.157l0,.008v0l-.015.042q-.017.049-.031.1c0,.007,0,.015,0,.022a1.366,1.366,0,0,0,0,.138v.009a.26.26,0,0,1,.064.1,1.454,1.454,0,0,0,.119.27,1.139,1.139,0,0,0,.289.192c.179.089.365.147.563.226a.366.366,0,0,1,.068.036c.2-.032.412-.073.626-.115l1.123-.22a3.146,3.146,0,0,0,.857-.225,1.353,1.353,0,0,0,.893-.1.846.846,0,0,0,.317-.288,1.279,1.279,0,0,0,.983-.582,2.434,2.434,0,0,1,.008.459.925.925,0,0,0-.365.27,3.186,3.186,0,0,0-.365.574,2.207,2.207,0,0,1,.6.025c.05-.02.1-.04.151-.057a.182.182,0,0,1,.086-.04c.236-.039.466-.1.7-.143a.3.3,0,0,1,.183.025c.008-.006.014-.015.022-.021a.746.746,0,0,1-.009-.089.81.81,0,0,1,.792-.8,3.484,3.484,0,0,0-.025-.411c.033-.009.065-.019.1-.03a1.422,1.422,0,0,1,.746.013,2,2,0,0,0,.943-.048,2.8,2.8,0,0,0-.058.368.6.6,0,0,0,0,.33,2.938,2.938,0,0,0,.136.638c.471,0,.942.014,1.412-.029.251-.023.5-.042.755-.042q-.14-.256-.291-.508a9.583,9.583,0,0,1,2.816.564c.41.129.817.263,1.231.386a.3.3,0,0,1,.189-.029,1.236,1.236,0,0,0,1.11-.505.978.978,0,0,0,.233-.94l-.02-.01a5,5,0,0,0-1.452-.354,12.472,12.472,0,0,1-1.432-.247c-.206-.05-.413-.1-.622-.139a8.869,8.869,0,0,0,.963-.976c.164-.182.319-.369.469-.558a.274.274,0,0,1-.006-.248,11.534,11.534,0,0,1,.6-1.019c.209-.354.371-.734.593-1.081a.268.268,0,0,1,.207-.125A2.245,2.245,0,0,0,413.963,521.311Zm-11.695,4.132q-.209-.451-.425-.9a1.887,1.887,0,0,0,.279.173c.055.245.124.488.2.728Zm7.7-1.291-.066-.068q.1-.168.2-.34a.866.866,0,0,0,.127-.1Q410.1,523.9,409.97,524.153Zm.477-.95c0-.008,0-.016,0-.023a.812.812,0,0,0-.011-.129c.015-.035.031-.071.045-.106q.077-.188.143-.379a.766.766,0,0,0,.088.092Q410.582,522.93,410.448,523.2Z"
                      transform="translate(-116.716 -218.02)" fill="#c2bebc" />
                    <path id="Path_2797" data-name="Path 2797"
                      d="M473.526,533.561a2.1,2.1,0,0,1,.069-1.29,1.923,1.923,0,0,1,.59-1.121,2.588,2.588,0,0,1,2.048-.609,2.427,2.427,0,0,1,.521.077l.068.02c.06.015.119.032.178.052a2.489,2.489,0,0,1,1.518,1.4c.011.027.02.054.03.081a1.935,1.935,0,0,1,.252,1.618.516.516,0,0,1-.039.081,2.793,2.793,0,0,1-.6,1.887.358.358,0,0,1,.01.3,1.981,1.981,0,0,1-.286.49,1.734,1.734,0,0,1-.416.932.621.621,0,0,1-.149.126.713.713,0,0,1,.246.2,1,1,0,0,1,.081.759l-.163,1.562c-.054.521-.1,1.042-.163,1.562a.7.7,0,0,1-.427.669,2.829,2.829,0,0,1-1.033.09.661.661,0,0,1-.638-.371,6.917,6.917,0,0,1-.215-3.828c-.017-.116-.032-.232-.042-.348a.434.434,0,0,1,.286-.433q-.03-.05-.057-.1l-.015-.01a2.331,2.331,0,0,1-.21-.186.994.994,0,0,1-.65-.65l-.415-1.011a.4.4,0,0,1,.033-.349c-.122-.312-.236-.626-.347-.941a.388.388,0,0,1,.044-.353c-.007-.05-.014-.1-.02-.15A.363.363,0,0,1,473.526,533.561Z"
                      transform="translate(-186.911 -233.319)" fill="#fff" />
                    <path id="Path_2798" data-name="Path 2798"
                      d="M552.21,704.338c.132-.006.264-.008.4,0l.1,0a.577.577,0,0,0-.1-.233c-.156-.212-.571-.014-.415.2A.351.351,0,0,1,552.21,704.338Z"
                      transform="translate(-259.788 -393.976)" fill="#fff" />
                    <path id="Path_2799" data-name="Path 2799"
                      d="M469.007,709.942c.038-.015.077-.03.116-.043a.505.505,0,0,1-.02-.05c-.058-.219-.449-.147-.469.048a.353.353,0,0,0-.171.015A2.207,2.207,0,0,1,469.007,709.942Z"
                      transform="translate(-182.287 -399.252)" fill="#fff" />
                    <path id="Path_2800" data-name="Path 2800"
                      d="M399.895,688.765a2.21,2.21,0,0,1-1.285-.01c-.322-.175-.028-.514.038-.73a.435.435,0,0,0-.611-.508,1.122,1.122,0,0,0-.6.5.707.707,0,0,0-.166-.076.3.3,0,0,0-.271.03.365.365,0,0,0-.066.015.306.306,0,0,0-.286.072l-.018.019c-.015.024-.03.048-.043.073,0,.01-.025.053-.028.059a.953.953,0,0,0-.03.093.919.919,0,0,0-.019.095c0,.007,0,.055,0,.066a1.039,1.039,0,0,0,0,.112s0,.031,0,.035.005.03.009.045c.008.038.018.075.03.112s.026.074.033.09a.368.368,0,0,0,.121.167l0,0,.007,0,.043.029c.033.022.066.044.1.067a.3.3,0,0,1,.117.16.842.842,0,0,0,.151,0c.025,0,.049-.007.072-.011a1.966,1.966,0,0,0,.894.314c.267.028.444-.156.381-.318a3.425,3.425,0,0,0,1.6-.016C400.465,689.158,400.29,688.677,399.895,688.765Z"
                      transform="translate(-115.652 -378.667)" fill="#fff" />
                    <path id="Path_2801" data-name="Path 2801"
                      d="M592.433,689.312a.885.885,0,0,1,.682-.262c.1-.008.194.011.264-.065s.022-.109-.023-.192a.665.665,0,0,1-.109-.354c.009-.245.493-.252.484-.006a.359.359,0,0,0,.007.082.224.224,0,0,1,.279.027l.022.022a.274.274,0,0,1,.378.16c0,.018,0,.035.005.052a.228.228,0,0,1,.118.107c.007.014.012.028.018.042a.374.374,0,0,1,.289.24.447.447,0,0,1-.262.525.529.529,0,0,1-.049.046.3.3,0,0,1-.282.038.642.642,0,0,1-.542.094.272.272,0,0,1-.107-.053.867.867,0,0,1-.215.01.968.968,0,0,1-.731.021C592.425,689.74,592.3,689.508,592.433,689.312Z"
                      transform="translate(-297.034 -379.378)" fill="#fff" />
                    <path id="Path_2802" data-name="Path 2802"
                      d="M524.049,673.54l.071-.006c-.18-.024-.318-.195-.142-.308l.033-.021a.175.175,0,0,1,.092-.22,1.659,1.659,0,0,1,1.992.245.129.129,0,0,1,.036.148.238.238,0,0,1-.294.166c-.043-.008-.085-.018-.126-.029a.225.225,0,0,1-.02.032l.082.014c.3.052.18.422-.124.369a4.939,4.939,0,0,0-.842-.1c-.259,0-.5.073-.753.088C523.744,673.94,523.74,673.558,524.049,673.54Z"
                      transform="translate(-233.547 -365.033)" fill="#312c29" />
                    <path id="Path_2803" data-name="Path 2803"
                      d="M526.463,606.631l.1-.019c-.071-.105-.005-.284.2-.306.12-.013.24-.022.361-.027a.141.141,0,0,1-.035-.1.173.173,0,0,1,.01-.319,2.305,2.305,0,0,1,1.577-.216,4.32,4.32,0,0,1,1.477.924c.2.166-.081.414-.292.305a.161.161,0,0,1-.015.041l.017.01a.183.183,0,0,1,.041.3.235.235,0,0,1-.348.146A4.51,4.51,0,0,0,526.6,607C526.295,607.06,526.161,606.694,526.463,606.631Z"
                      transform="translate(-235.838 -302.822)" fill="#312c29" />
                    <path id="Path_2804" data-name="Path 2804"
                      d="M526.744,639.8a.929.929,0,0,1,.314-.106.171.171,0,0,1-.009-.162c-.214.048-.385-.226-.168-.358a2.064,2.064,0,0,1,1.453-.236,2.787,2.787,0,0,1,1.3.822c.205.182-.132.458-.339.274l-.081-.073-.005.008c0,.007.006.013.008.02a.163.163,0,0,1-.077.194l.105.059c.246.144.009.479-.24.333a3.662,3.662,0,0,0-.969-.4,1.639,1.639,0,0,0-1.044-.045C526.74,640.272,526.493,639.945,526.744,639.8Z"
                      transform="translate(-236.159 -333.675)" fill="#312c29" />
                    <path id="Path_2805" data-name="Path 2805"
                      d="M448.636,611.421l-.1-.016c.069-.108,0-.287-.21-.3-.122-.01-.244-.016-.365-.018a.144.144,0,0,0,.033-.1.175.175,0,0,0-.018-.322,2.331,2.331,0,0,0-1.6-.176,4.365,4.365,0,0,0-1.469.975c-.195.173.093.417.3.3a.164.164,0,0,0,.016.041l-.017.01a.186.186,0,0,0-.033.309.238.238,0,0,0,.356.139,4.561,4.561,0,0,1,2.98-.461C448.818,611.851,448.943,611.477,448.636,611.421Z"
                      transform="translate(-160.413 -307.291)" fill="#312c29" />
                    <path id="Path_2806" data-name="Path 2806"
                      d="M456.465,641.439a.929.929,0,0,0-.317-.1.171.171,0,0,0,.005-.162c.216.042.379-.236.159-.363a2.064,2.064,0,0,0-1.459-.2,2.788,2.788,0,0,0-1.278.857c-.2.188.144.454.346.265l.079-.076.005.008c0,.007-.006.014-.008.021a.164.164,0,0,0,.083.192l-.1.062c-.242.151,0,.479.249.326a3.667,3.667,0,0,1,.958-.43,1.638,1.638,0,0,1,1.042-.073C456.483,641.909,456.72,641.576,456.465,641.439Z"
                      transform="translate(-168.446 -335.22)" fill="#312c29" />
                    <path id="Path_2807" data-name="Path 2807"
                      d="M470.079,675.086l-.071,0c.18-.029.313-.2.133-.312l-.034-.02a.175.175,0,0,0-.1-.217,1.659,1.659,0,0,0-1.985.3.129.129,0,0,0-.033.149.238.238,0,0,0,.3.158c.043-.009.084-.02.125-.032a.213.213,0,0,0,.021.032l-.082.016c-.3.06-.169.426.134.366a4.938,4.938,0,0,1,.839-.12c.259-.007.5.059.755.067C470.4,675.477,470.39,675.1,470.079,675.086Z"
                      transform="translate(-181.841 -366.487)" fill="#312c29" />
                    <path id="Path_2808" data-name="Path 2808"
                      d="M542.923,528.864l-.007,0a.21.21,0,0,0,.016-.081.225.225,0,0,0-.093-.182.112.112,0,0,0-.088-.017l-.156-.243a.154.154,0,0,0-.011-.012.233.233,0,0,0-.356-.233,2.186,2.186,0,0,1-.639.319c-.173.051-.367.042-.533.105a.326.326,0,0,0-.107.562,1.813,1.813,0,0,0,1,.381,2.34,2.34,0,0,0,1.112-.134C543.349,529.222,543.216,528.755,542.923,528.864Z"
                      transform="translate(-249.301 -231.034)" fill="#312c29" />
                    <path id="Path_2809" data-name="Path 2809"
                      d="M448.539,532.046a1.643,1.643,0,0,0-.348-.168,1.308,1.308,0,0,1-.419-.316.233.233,0,0,0-.4.129.09.09,0,0,0-.019.012,1.731,1.731,0,0,0-.319.5l-.069.076a.1.1,0,0,0-.013.019.248.248,0,0,0-.068.45,1.564,1.564,0,0,0,.935.182,1.1,1.1,0,0,0,.8-.257A.433.433,0,0,0,448.539,532.046Z"
                      transform="translate(-162.198 -234.212)" fill="#312c29" />
                    <path id="Path_2810" data-name="Path 2810"
                      d="M553.624,556.463a.249.249,0,0,1,.232-.181,4.106,4.106,0,0,0,.693-.157c.17-.055.476-.118.58-.272.173-.258.6-.021.423.24a.861.861,0,0,1-.112.134.412.412,0,0,1,.234.412h0c.3-.1.431.367.135.467C555.288,557.279,553.424,557.462,553.624,556.463Z"
                      transform="translate(-261.133 -256.671)" fill="#312c29" />
                    <path id="Path_2811" data-name="Path 2811"
                      d="M436.7,558.226a2.91,2.91,0,0,1-.976-.426.258.258,0,0,0-.412.25l-.059.093a.141.141,0,0,0-.017.1h0a.261.261,0,0,0-.1.406c-.234.052-.2.458.08.48a4.459,4.459,0,0,0,1.2-.066c.217-.042.53-.083.606-.333A.42.42,0,0,0,436.7,558.226Z"
                      transform="translate(-151.283 -258.527)" fill="#312c29" />
                    <path id="Path_2812" data-name="Path 2812"
                      d="M397.809,608.643a.2.2,0,0,1,.03-.038.182.182,0,0,1,.092-.159l0-.005-.006,0c-.235-.083-.109-.325.1-.348-.042-.034-.083-.067-.124-.1-.207-.181.13-.457.339-.274a4,4,0,0,0,1.307.764c.276.1.872.225.634.572-.175.254-.791.255-1.108.252a3.614,3.614,0,0,1-1.417-.3C397.422,608.895,397.581,608.623,397.809,608.643Z"
                      transform="translate(-116.614 -304.743)" fill="#312c29" />
                    <path id="Path_2813" data-name="Path 2813"
                      d="M594.2,632.6a2.715,2.715,0,0,0,.752-.5c.2-.188.547.078.346.265a3.032,3.032,0,0,1-.25.208.192.192,0,0,1,.1.105.154.154,0,0,1,0,.106.188.188,0,0,1-.034.364c-.323.1-1.413.371-1.419-.153C593.682,632.765,593.981,632.7,594.2,632.6Z"
                      transform="translate(-298.244 -327.326)" fill="#312c29" />
                    <path id="Path_2814" data-name="Path 2814"
                      d="M402.462,639.05a2.19,2.19,0,0,0,.984.559c.237.083.737.16.841.374s-.167.374-.418.4a3.21,3.21,0,0,1-1.317-.2c-.182-.063-.148-.222-.025-.3a.18.18,0,0,1,.11-.173,1.929,1.929,0,0,1-.59-.458C401.874,639.044,402.29,638.847,402.462,639.05Z"
                      transform="translate(-120.747 -333.738)" fill="#312c29" />
                    <path id="Path_2815" data-name="Path 2815"
                      d="M421.836,666.791a1.831,1.831,0,0,0,.486.154c.165.028.34.05.4.2.126.337-.516.388-.788.366-.13-.01-.243-.076-.244-.187a.185.185,0,0,1,.066-.132c-.053-.02-.1-.042-.156-.066C421.331,667,421.569,666.665,421.836,666.791Z"
                      transform="translate(-138.781 -359.479)" fill="#312c29" />
                    <path id="Path_2816" data-name="Path 2816"
                      d="M581.234,663.6a4.7,4.7,0,0,0,.59-.174.291.291,0,0,1,.332.064.171.171,0,0,1-.083.262l-.152.054c.088.1.07.255-.121.292-.275.052-.851.1-.884-.229C580.9,663.7,581.059,663.639,581.234,663.6Z"
                      transform="translate(-286.419 -356.366)" fill="#312c29" />
                    <path id="Path_2817" data-name="Path 2817"
                      d="M403.185,699.242c0-.007,0-.018-.027-.029a.232.232,0,0,0-.107-.015.554.554,0,0,0-.145.032c-.049.017-.1.037-.152.061-.209.095-.35.206-.327.229s.194-.044.4-.135l.141-.066a.933.933,0,0,1,.108-.046C403.132,699.253,403.176,699.256,403.185,699.242Z"
                      transform="translate(-121.136 -389.514)" fill="#050605" stroke="#050605" stroke-width="1" />
                    <path id="Path_2818" data-name="Path 2818"
                      d="M408.092,704.6c0-.014-.048-.027-.124-.023a.763.763,0,0,0-.282.074.593.593,0,0,0-.213.164c-.039.052-.047.09-.032.1.034.016.143-.088.316-.168S408.093,704.629,408.092,704.6Z"
                      transform="translate(-125.773 -394.492)" fill="#050605" stroke="#050605" stroke-width="1" />
                    <path id="Path_2819" data-name="Path 2819"
                      d="M509.09,538.434c0,.007.042.029.122.07.04.02.089.046.145.077s.146.086.245.152c.009-.062.014-.14.021-.221l.017-.182c.011-.115.025-.3.031-.323l.055.024c.038.015.087.032.132.046l.07.021.036.01.056.014c.077.017.153.031.232.044L510.2,538c-.008-.028-.017-.056-.026-.085l-.021-.062c-.025-.072-.052-.143-.082-.215s-.063-.144-.1-.216c-.018-.036-.036-.071-.056-.107l-.051-.091-.017-.028-.015-.023,0,0h.049a.924.924,0,0,1,.112.016l.07.017.049.015a.589.589,0,0,1,.059.022c.08.034.172.083.251.123,0-.008,0-.015,0-.023l-.014-.04-.028-.08c-.018-.053-.039-.1-.06-.155a1.063,1.063,0,0,0-.058-.13c-.017-.031-.032-.062-.051-.091a1.806,1.806,0,0,0-.236-.312,1.9,1.9,0,0,0-.26-.23,1.859,1.859,0,0,0-.255-.153,1.534,1.534,0,0,0-.4-.136c-.1-.017-.15-.017-.151-.01a4.705,4.705,0,0,1,.509.22,1.986,1.986,0,0,1,.234.159,1.943,1.943,0,0,1,.237.227,1.784,1.784,0,0,1,.213.3c.017.027.03.057.045.086a.412.412,0,0,1,.025.054.356.356,0,0,1,.013.036l.006.018,0,.009-.009,0a.387.387,0,0,0-.049-.022l-.013,0-.023-.007c-.026-.007-.052-.014-.078-.019a1.107,1.107,0,0,0-.193-.024c-.042,0-.083,0-.123,0l-.061,0-.031,0H509.6l-.01,0,.073.115.037.058.032.054.023.039.015.027.029.051.054.1q.052.1.1.207t.082.206l.022.061.013.039a.491.491,0,0,1-.053-.009l-.015,0-.034-.008-.067-.018c-.045-.013-.084-.025-.132-.042-.066-.024-.134-.053-.2-.079-.017.26-.019.353-.026.486,0,.1-.007.19-.01.271a2.074,2.074,0,0,0-.3-.131C509.142,538.435,509.092,538.427,509.09,538.434Z"
                      transform="translate(-219.741 -238.39)" fill="#050605" stroke="#050605" stroke-width="1" />
                    <path id="Path_2820" data-name="Path 2820"
                      d="M546.009,530.745c.291-.678.62-1.489.942-2.4.161-.455.321-.934.472-1.433a15.459,15.459,0,0,0,.393-1.544,5.981,5.981,0,0,0-.07-2.953,4.643,4.643,0,0,0-1.416-2.091c-.147-.127-.294-.242-.44-.347l-.109-.076-.056-.038c.03-.031.06-.063.094-.094a.753.753,0,0,0,.1-.058.35.35,0,0,0,.1-.08l.027-.028.02.012.127.073a6.162,6.162,0,0,1,.515.344,5.363,5.363,0,0,1,.98.948,4.661,4.661,0,0,1,.409.606,4.737,4.737,0,0,1,.6,2.222,7.4,7.4,0,0,1-.141,1.645,13.523,13.523,0,0,1-.422,1.595c-.164.506-.341.99-.523,1.448a23.189,23.189,0,0,1-1.108,2.393c-.179.334-.35.633-.508.893a2.394,2.394,0,0,0-.309.65.658.658,0,0,0,.015.41c.02.045.037.082.051.107s.015.043.005.05-.03,0-.063-.011a.43.43,0,0,1-.125-.089.565.565,0,0,1-.125-.2.771.771,0,0,1-.048-.293,1.99,1.99,0,0,1,.213-.753C545.729,531.39,545.863,531.084,546.009,530.745Z"
                      transform="translate(-253.528 -223.209)" fill="#1f1c1a" />
                    <path id="Path_2821" data-name="Path 2821"
                      d="M433.294,535.115a1.993,1.993,0,0,0-.233-.747c-.127-.266-.27-.568-.424-.9-.309-.67-.66-1.472-1.006-2.372-.173-.45-.345-.925-.511-1.42a15.453,15.453,0,0,1-.435-1.532,5.981,5.981,0,0,1-.009-2.954,4.641,4.641,0,0,1,1.359-2.128c.093-.085.186-.163.279-.238a.276.276,0,0,1,.01-.04.655.655,0,0,1,.054-.113q-.181-.076-.356-.162c-.124.083-.249.173-.373.271a5.364,5.364,0,0,0-.954.974,4.679,4.679,0,0,0-.393.617,4.741,4.741,0,0,0-.538,2.237,7.4,7.4,0,0,0,.185,1.64,13.539,13.539,0,0,0,.464,1.583c.178.5.368.981.561,1.434a23.206,23.206,0,0,0,1.172,2.363c.188.329.367.623.531.879a2.4,2.4,0,0,1,.327.641.657.657,0,0,1,0,.41c-.019.045-.035.083-.048.108s-.013.044,0,.051.03,0,.063-.013a.429.429,0,0,0,.123-.092.568.568,0,0,0,.119-.2A.773.773,0,0,0,433.294,535.115Z"
                      transform="translate(-146.452 -225.896)" fill="#1f1c1a" />
                    <path id="Path_2822" data-name="Path 2822"
                      d="M516.434,554.76c.033.029.156,0,.345-.1a3.763,3.763,0,0,0,.71-.5,4.683,4.683,0,0,0,.813-.913,4.361,4.361,0,0,0,.6-1.289,3.859,3.859,0,0,0,.021-1.959,3.707,3.707,0,0,0-.168-.5,2.773,2.773,0,0,0-.391-.676c-.122-.148-.217-.217-.263-.2-.1.036.033.4.141.976a5.023,5.023,0,0,1-.07,2.24,5.771,5.771,0,0,1-1.1,2.071C516.672,554.407,516.361,554.7,516.434,554.76Z"
                      transform="translate(-226.699 -250.08)" fill="#1f1c1a" />
                    <path id="Path_2823" data-name="Path 2823"
                      d="M470.473,549.926c-.051-.006-.117.079-.191.238a3.748,3.748,0,0,0-.223.689,4.859,4.859,0,0,0-.127,1.06,4.33,4.33,0,0,0,.2,1.312,4.786,4.786,0,0,0,.6,1.23,4.98,4.98,0,0,0,.766.885c.507.462.929.654.994.6s-.2-.353-.565-.844a6.871,6.871,0,0,1-1.072-2.016,5.753,5.753,0,0,1-.24-1.187c-.034-.372-.034-.714-.035-1s0-.528-.015-.695S470.524,549.931,470.473,549.926Z"
                      transform="translate(-183.647 -251.286)" fill="#1f1c1a" />
                    <path id="Path_2824" data-name="Path 2824"
                      d="M518.717,616.825c.026.092.056.18.088.268.258-.013.516-.014.775-.012l-.006-.014c-.05-.124-.1-.253-.132-.375a2,2,0,0,1-.074-.36,1.326,1.326,0,0,1,.008-.344c.017-.118.046-.24.077-.367s.063-.261.089-.389c.053-.259.094-.512.125-.759.063-.494.094-.961.117-1.4a11.542,11.542,0,0,0,.024-1.225,2.932,2.932,0,0,0-.232-1.027l-.052-.107-.042-.081a.128.128,0,0,1-.013-.109.413.413,0,0,1,.087-.111l.122-.133c.306-.338.457-.538.418-.564s-.206.086-.493.3c-.009.041-.021.081-.034.118a1.025,1.025,0,0,1-.156.3.827.827,0,0,1-.313.25l0,.013.011.036.01.029.018.051.032.1a2.939,2.939,0,0,1,.1.939c-.011.355-.066.754-.114,1.187s-.1.89-.183,1.366c-.04.238-.087.481-.145.726-.028.123-.06.244-.095.372a4.164,4.164,0,0,0-.094.411,1.77,1.77,0,0,0-.018.458A2.417,2.417,0,0,0,518.717,616.825Z"
                      transform="translate(-228.736 -306.653)" fill="#1f1c1a" />
                    <path id="Path_2825" data-name="Path 2825"
                      d="M543.742,651.583l.147.132a2.961,2.961,0,0,1,.294.3c.135-.006.27-.008.4,0a2.754,2.754,0,0,1,.4.037c-.008-.014-.013-.03-.022-.044a2.64,2.64,0,0,0-.584-.641l-.146-.121a.508.508,0,0,1-.081-.082.139.139,0,0,1-.025-.065.332.332,0,0,1,.006-.1,1.134,1.134,0,0,1,.036-.135l.05-.152.1-.3.189-.559a9.534,9.534,0,0,0,.693-2.335,7.764,7.764,0,0,0-1.2,2.215q-.116.263-.236.552l-.121.295-.062.153a1.53,1.53,0,0,0-.06.179.724.724,0,0,0-.024.222.552.552,0,0,0,.08.256A.938.938,0,0,0,543.742,651.583Z"
                      transform="translate(-251.769 -341.656)" fill="#1f1c1a" />
                    <path id="Path_2826" data-name="Path 2826"
                      d="M484.584,615.816l.126.13a.418.418,0,0,1,.09.108.128.128,0,0,1-.01.109l-.04.082-.049.109a2.93,2.93,0,0,0-.2,1.033,11.518,11.518,0,0,0,.057,1.224c.035.434.078.9.155,1.393.039.246.086.5.146.755.029.128.064.26.1.387s.067.248.087.365c0,0,0,.008,0,.012a1.055,1.055,0,0,1,.708-.16c-.026-.121-.058-.237-.091-.345-.038-.127-.073-.247-.1-.37-.064-.244-.118-.485-.164-.722-.093-.474-.158-.931-.22-1.361s-.126-.829-.146-1.184a2.943,2.943,0,0,1,.079-.942l.029-.1.017-.052.009-.029.01-.036a.331.331,0,0,0-.032-.273.774.774,0,0,0-.186-.175l-.15-.113a3.209,3.209,0,0,0-.614-.4c.085.135.177.267.257.4Z"
                      transform="translate(-196.849 -311.79)" fill="#1f1c1a" />
                    <path id="Path_2827" data-name="Path 2827"
                      d="M457.474,656.614l.107.295.054.151a1.117,1.117,0,0,1,.04.134.328.328,0,0,1,.008.1.135.135,0,0,1-.023.065.5.5,0,0,1-.079.084l-.143.125a2.761,2.761,0,0,0-.533.606,2.006,2.006,0,0,1,.854-.088c.056-.062.115-.122.177-.182l.143-.136a.945.945,0,0,0,.159-.2.552.552,0,0,0,.073-.258.722.722,0,0,0-.03-.222,1.528,1.528,0,0,0-.065-.178l-.066-.151-.129-.292q-.128-.285-.251-.546a7.767,7.767,0,0,0-1.256-2.182,9.528,9.528,0,0,0,.755,2.315Z"
                      transform="translate(-171.208 -347.424)" fill="#1f1c1a" />
                    <path id="Path_2828" data-name="Path 2828"
                      d="M395.608,602.078c0,.043.27.06.72.007.225-.025.5-.065.807-.114l.24-.037.364-.059.227-.03c.077-.01.164-.018.248-.028l.53-.054c0-.014-.037-.035-.059-.054l-.074-.059-.152-.12c-.1-.081-.21-.167-.319-.256l-.167-.135-.085-.069-.042-.036-.03-.028-.181-.168a9.29,9.29,0,0,1-.707-.762,7.707,7.707,0,0,1-1.17-1.909,5,5,0,0,1-.347-1.129,1.99,1.99,0,0,1-.013-.522,1.492,1.492,0,0,1,.048-.241,1.546,1.546,0,0,1,.089-.226,1.348,1.348,0,0,1,.677-.644,3.222,3.222,0,0,1,.988-.2l.126-.01.056,0,.026,0a.212.212,0,0,1,.1.012.134.134,0,0,1,.061.065l.01.019.017.04.034.079c.09.208.171.385.242.53.142.289.245.443.295.433s.043-.185-.013-.492c-.028-.153-.068-.34-.119-.556l-.02-.082-.01-.043c-.006-.021-.012-.043-.019-.064a.425.425,0,0,0-.167-.234.7.7,0,0,0-.343-.1c-.033,0-.066,0-.1,0h-.2a5.424,5.424,0,0,0-.583.032,2.874,2.874,0,0,0-.652.148,2.2,2.2,0,0,0-.324.151,2.075,2.075,0,0,0-.287.2,1.92,1.92,0,0,0-.427.52,1.982,1.982,0,0,0-.134.3,1.9,1.9,0,0,0-.077.316,2.333,2.333,0,0,0-.006.644,3.786,3.786,0,0,0,.14.633c.065.207.139.414.226.621a7.308,7.308,0,0,0,1.3,2.03,8.5,8.5,0,0,0,.8.784l.207.169.017.014.007,0,.016.01.033.022.074.046.04.025.021.013c.005,0,.02.01.009.01-.121.028-.161.053-.554.151-.3.081-.559.154-.768.214C395.836,601.971,395.6,602.034,395.608,602.078Z"
                      transform="translate(-113.947 -292.829)" fill="#1f1c1a" />
                    <path id="Path_2829" data-name="Path 2829"
                      d="M575.031,597.9c0-.04-.17-.081-.462-.193l-.542-.212c-.055-.02-.113-.043-.171-.063l-.083-.034a.986.986,0,0,0-.151-.047l-.01,0h-.007l0,0,.025-.016.047-.03c.031-.019.06-.038.088-.058l.041-.028.02-.013,0,0,0,0,.006-.005.026-.022.211-.179a8.3,8.3,0,0,0,.829-.848,7.238,7.238,0,0,0,1.31-2.259,4.065,4.065,0,0,0,.258-1.233,2.094,2.094,0,0,0-.078-.623,1.839,1.839,0,0,0-.282-.573,1.9,1.9,0,0,0-.48-.461,2.062,2.062,0,0,0-.631-.282,3.179,3.179,0,0,0-.631-.1c-.2-.012-.384-.01-.557,0l-.145,0a1.15,1.15,0,0,0-.189.023.53.53,0,0,0-.29.155.537.537,0,0,0-.111.247l-.034.162c-.043.209-.076.389-.1.537-.044.3-.045.465.005.474s.146-.142.278-.422c.065-.14.14-.313.221-.515l.063-.156a.215.215,0,0,1,.046-.071.143.143,0,0,1,.092-.03.414.414,0,0,1,.05,0h.043l.061,0a3.8,3.8,0,0,1,.977.142,1.373,1.373,0,0,1,.215.089,1.227,1.227,0,0,1,.194.122,1.334,1.334,0,0,1,.315.338,1.388,1.388,0,0,1,.188.431,1.726,1.726,0,0,1,.044.492,3.979,3.979,0,0,1-.246,1.091,7.746,7.746,0,0,1-1.164,2.126,9.31,9.31,0,0,1-.719.83l-.182.181-.022.022-.006.006-.01.009-.02.018-.081.071-.157.137c-.1.09-.2.176-.3.257l-.141.12-.068.058-.008.007,0,.005,0,.01-.008.02c.282.022.58.049.8.078.106.021.207.039.3.062l.175.04c.227.054.43.1.6.127a1.981,1.981,0,0,0,.4.028C574.98,597.93,575.029,597.914,575.031,597.9Z"
                      transform="translate(-278.724 -288.952)" fill="#1f1c1a" />
                    <path id="Path_2830" data-name="Path 2830"
                      d="M554.686,682.041a1.218,1.218,0,0,0-.362-.3,2.042,2.042,0,0,0-.385-.161c-.125-.04-.24-.068-.356-.1-.231-.057-.458-.1-.676-.139-.437-.074-.844-.115-1.209-.143l-.266-.018-.127-.007h-.053l-.241,0,.013-.029c-.031.026-.059.055-.091.08a2.588,2.588,0,0,1-.377.243l.506.071.191.026.124.02.259.042c.354.059.744.126,1.156.218.206.046.417.1.632.16a2.621,2.621,0,0,1,.589.22.643.643,0,0,1,.188.162.35.35,0,0,1,.076.183.3.3,0,0,1-.053.179.528.528,0,0,1-.177.167,1.25,1.25,0,0,1-.471.145l-.138.013a1.35,1.35,0,0,1-.137.01c-.093,0-.184.007-.276,0a7.63,7.63,0,0,1-1.09-.143c-.355-.066-.7-.135-1.037-.176a4.553,4.553,0,0,0-.956-.027l-.217.03-.052.008-.05.012-.1.024-.1.023-.023.006-.01,0-.02.007a.154.154,0,0,1-.086.009.129.129,0,0,1-.066-.046.458.458,0,0,1-.055-.078,1.333,1.333,0,0,1-.1-.2,2.082,2.082,0,0,1-.086-.311c-.016-.075-.029-.118-.051-.121s-.049.036-.073.117a.954.954,0,0,0-.024.367,1.213,1.213,0,0,0,.061.265,1.024,1.024,0,0,0,.079.172.4.4,0,0,0,.136.136c.138-.006.276-.009.414,0,.058,0,.117.005.177.01l.02,0,.046,0,.188-.007a4.788,4.788,0,0,1,.85.093c.308.058.638.142,1,.224a7.17,7.17,0,0,0,1.179.189c.106.01.217,0,.327.006.055,0,.112-.006.168-.01l.17-.015a1.837,1.837,0,0,0,.718-.228,1.135,1.135,0,0,0,.38-.366.865.865,0,0,0,.138-.53A.9.9,0,0,0,554.686,682.041Z"
                      transform="translate(-256.707 -372.801)" fill="#1f1c1a" />
                    <path id="Path_2831" data-name="Path 2831"
                      d="M401.793,687.812l-.025-.112c-.016-.072-.033-.14-.049-.2s-.034-.123-.052-.178l-.013-.04-.011-.029-.022-.056c-.118-.287-.223-.425-.258-.41s-.006.182.04.472l.008.056,0,.029,0,.02,0,.077c0,.025,0,.05,0,.074s0,.023,0,.036-.006,0-.009,0h-.187l-.045,0-.38.024c-.532.036-1.165.089-1.866.157-.351.034-.718.071-1.1.112a4.636,4.636,0,0,1-.547.038,1.516,1.516,0,0,1-.25-.022.992.992,0,0,1-.114-.027.9.9,0,0,1-.107-.04.722.722,0,0,1-.227-.155.416.416,0,0,1-.063-.526.417.417,0,0,1,.215-.229,2.158,2.158,0,0,1,.613-.17c.083-.013.165-.02.247-.027.194-.053.408-.075.571-.113a7.221,7.221,0,0,1,1.165-.191c.084-.006.17-.013.257-.021-.042-.075-.08-.152-.118-.228l.01.029.015.043.007.021,0,.01s.005.009,0,.006c-.087-.017-.168-.033-.241-.045l-.053-.009-.013,0h-.016l-.063,0q-.126-.009-.261-.014a8.524,8.524,0,0,0-1.2.039c-.217.022-.443.054-.674.1a2.958,2.958,0,0,0-.372.084,1.065,1.065,0,0,0-.417.235,1.022,1.022,0,0,0-.289.963,1.026,1.026,0,0,0,.258.465,1.283,1.283,0,0,0,.41.285,1.438,1.438,0,0,0,.178.066,1.534,1.534,0,0,0,.18.041,2.043,2.043,0,0,0,.345.028,4.758,4.758,0,0,0,.618-.051c.38-.049.747-.1,1.1-.147.7-.1,1.326-.193,1.852-.282l.375-.065.044-.008.066-.011.129-.021c.085-.013.16-.029.232-.043l.053-.01.026-.005.013,0,.006,0Z"
                      transform="translate(-115.082 -377.417)" fill="#1f1c1a" />
                    <path id="Path_2832" data-name="Path 2832"
                      d="M492.473,663.877c-.054,0-.1.233-.087.623a4.379,4.379,0,0,0,.087.69c.027.131.059.268.1.411q.031.107.068.218c.045.128.1.265.15.4.134-.036.272-.073.413-.108l.027-.006.025,0,.026-.005.052-.01.107-.016a3.265,3.265,0,0,1,.846,0c.033.005.065.009.1.014l.053.009c.034.006.066.013.1.021q.2.047.383.1c.043-.143.085-.283.122-.421.012-.044.02-.078.029-.117l.025-.112c.032-.148.057-.291.076-.426a4.957,4.957,0,0,0,.051-.711c0-.4-.06-.638-.114-.638s-.107.235-.186.621c-.04.193-.088.424-.153.682-.032.129-.068.265-.109.406-.02.069-.043.146-.064.213a.247.247,0,0,1-.016.032l-.03-.01-.006,0-.053-.01c-.038-.007-.078-.013-.117-.019a3.559,3.559,0,0,0-1.014,0l-.127.021-.063.013-.031.007h-.005l-.034.012a.225.225,0,0,1-.02-.033c-.028-.069-.054-.138-.079-.205-.05-.135-.094-.264-.133-.388-.079-.247-.138-.468-.186-.653C492.586,664.1,492.531,663.875,492.473,663.877Z"
                      transform="translate(-204.438 -356.717)" fill="#1f1c1a" />
                    <path id="Path_2833" data-name="Path 2833" d="M481.342,676.666"
                      transform="translate(-194.213 -368.649)" fill="#1f1c1a" />
                    <path id="Path_2834" data-name="Path 2834"
                      d="M543.932,510.653a.127.127,0,0,1,.083-.071.14.14,0,0,1,.172.095,1.278,1.278,0,0,0,.506.683,7.24,7.24,0,0,1,.736.769.143.143,0,0,1,0,.2l0,0c.022.025.043.05.064.076a.139.139,0,0,1-.047.191.143.143,0,0,1-.191-.047,7.565,7.565,0,0,0-.878-.82,2.25,2.25,0,0,1-.653-.919C543.681,510.673,543.836,510.6,543.932,510.653Z"
                      transform="translate(-251.974 -214.85)" fill="#1f1c1a" />
                    <path id="Path_2835" data-name="Path 2835"
                      d="M447.606,518.015a4.009,4.009,0,0,1,.482-.67c.159-.179.4-.365.392-.627a.139.139,0,0,1,.278,0s0,0,0,.006l.022.01a.14.14,0,0,1,.261.1,1.32,1.32,0,0,1-.142.414,1.777,1.777,0,0,1-.311.332,7.1,7.1,0,0,0-.631.691.14.14,0,0,1-.2,0,2.44,2.44,0,0,1-.154-.25Z"
                      transform="translate(-162.956 -220.41)" fill="#1f1c1a" />
                    <path id="Path_2836" data-name="Path 2836"
                      d="M473.166,682.357a1.7,1.7,0,0,0-.035-.191.274.274,0,0,0-.268-.173,1.45,1.45,0,0,0-.186.015l-.488.05a.308.308,0,0,0-.173.062,3.294,3.294,0,0,0-.776.212.185.185,0,0,0-.111.223.5.5,0,0,0,.169.291.613.613,0,0,0,.482.088c.309-.045.616-.1.922-.159.179-.033.405-.05.47-.212A.355.355,0,0,0,473.166,682.357Z"
                      transform="translate(-184.75 -373.582)" fill="#fff" />
                    <path id="Path_2837" data-name="Path 2837"
                      d="M525.734,682.962c-.044-.171-.248-.21-.432-.246l-.523-.1a.3.3,0,0,0-.22.042c-.08-.011-.161-.021-.241-.028a.662.662,0,0,0-.41.073.258.258,0,0,0-.09.385.627.627,0,0,0,.359.191c.151.035.3.062.456.093a2.994,2.994,0,0,0,.48.076C525.448,683.459,525.808,683.249,525.734,682.962Z"
                      transform="translate(-233.498 -374.152)" fill="#fff" />
                    <path id="Path_2838" data-name="Path 2838"
                      d="M465.29,684.285a2.266,2.266,0,0,0-.51-.008q.116.273,0,0a.641.641,0,0,0-.137-.2,1.025,1.025,0,0,0-1.075-.055.657.657,0,0,0-.119-.059.966.966,0,0,0-1.133.492c-.184-.009-.369-.022-.551-.044l0-.006-.031-.065a.565.565,0,0,0-.507-.282l-.061.006a.655.655,0,0,0-.136.029.731.731,0,0,0-.2.042.7.7,0,0,0-.874-.2,1.265,1.265,0,0,0-.389.3,1.011,1.011,0,0,0-.281.164l-.036-.023a.713.713,0,0,0-.374-.089.753.753,0,0,0-.647.469.865.865,0,0,0-.037.833.649.649,0,0,0,.12.14c.007.016.014.032.022.048a.747.747,0,0,0,.105.3,1.049,1.049,0,0,0,1.427.255.756.756,0,0,0,.669.064,1.007,1.007,0,0,0,.153-.062,1.34,1.34,0,0,0,1.106-.635,1.026,1.026,0,0,0,.058-.118c.159.015.32.026.48.035a.727.727,0,0,0,.529.336.779.779,0,0,0,.4.144.96.96,0,0,0,.918.255,1.959,1.959,0,0,0,1.91-.473C466.558,685.221,465.972,684.437,465.29,684.285Z"
                      transform="translate(-172.683 -375.307)" fill="#c2bebc" />
                    <path id="Path_2839" data-name="Path 2839"
                      d="M469.952,703.034a.083.083,0,0,0-.081-.06.087.087,0,0,0-.08.062,2.869,2.869,0,0,0-.164.858c0,.088.107.1.149.044a.082.082,0,0,0,.161.034A2.87,2.87,0,0,0,469.952,703.034Z"
                      transform="translate(-183.366 -393.011)" fill="#030504" />
                    <path id="Path_2840" data-name="Path 2840"
                      d="M482.82,704.951a2.074,2.074,0,0,0-.042-.246.79.79,0,0,0-.073-.226.118.118,0,0,0-.192-.03.227.227,0,0,0-.039.114q-.011.062-.02.125a2.922,2.922,0,0,0-.023.525.086.086,0,0,0,.142.059.075.075,0,0,0,.069.04l.014,0c0,.037,0,.075-.009.112a.086.086,0,0,0,.06.1.084.084,0,0,0,.1-.06A1.978,1.978,0,0,0,482.82,704.951Z"
                      transform="translate(-195.219 -394.341)" fill="#030504" />
                    <path id="Path_2841" data-name="Path 2841"
                      d="M497.745,703.973a.519.519,0,0,0-.131-.349.084.084,0,0,0-.139.039l-.1.63a.086.086,0,0,0,.06.1.088.088,0,0,0,.061-.008.084.084,0,0,0,.084.081.08.08,0,0,1,.14.041.084.084,0,0,0,.082-.084Q497.775,704.2,497.745,703.973Z"
                      transform="translate(-209.057 -393.592)" fill="#030504" />
                    <path id="Path_2842" data-name="Path 2842"
                      d="M414.547,284.914a.841.841,0,0,0-1.3.176l-.214.305a1.027,1.027,0,0,0-.1.126l-.547.8c-.071.079-.137.161-.2.247a5.4,5.4,0,0,0-1.16,1.536,9.646,9.646,0,0,0-.84,1.4q-.134.192-.255.391a4.908,4.908,0,0,0-3.088-.963,13.791,13.791,0,0,0-1.653.011,2.927,2.927,0,0,0-.551.081c-.007-.039-.015-.078-.026-.117a1.1,1.1,0,0,0-.5-.648.65.65,0,0,0-.114-.512c-.021-.027-.04-.054-.059-.081A.8.8,0,0,0,404,287.1a1.584,1.584,0,0,0-.384-.7,8.886,8.886,0,0,0-1.654-1.907.842.842,0,0,0-1.3.176q-.326.539-.628,1.091a2.027,2.027,0,0,0-.52,1.024,1.117,1.117,0,0,0-.013.257,17.044,17.044,0,0,0-.627,2.154.915.915,0,0,0-.02.241c-.013.069-.027.138-.039.208a.949.949,0,0,0,.181.758c0,.007,0,.014,0,.021-.014.144-.02.287-.02.429a.842.842,0,0,0-.2.535,2.389,2.389,0,0,0,.4,1.407.915.915,0,0,0,.3.28,5.71,5.71,0,0,0-.51,3.7.147.147,0,0,1-.021.209,1.366,1.366,0,0,0,.877,1.7,1.418,1.418,0,0,0,.345.211,1.1,1.1,0,0,0,.151.627,1.892,1.892,0,0,0,.961.686l.955.432a3.774,3.774,0,0,0,1.2.413,1.434,1.434,0,0,0,.319-.008q.043.013.087.023a1.144,1.144,0,0,0,.145.074.623.623,0,0,0,.377.1l.005.009a.91.91,0,0,0-.341.2,2.169,2.169,0,0,1,.365.118c.324.015.65.026.973.041.1,0,.208,0,.312,0,.039-.014.078-.029.116-.046.013.013.027.024.041.036.127-.009.254-.02.382-.025a4.562,4.562,0,0,1,.788.048c.259.015.518,0,.778.016a4.593,4.593,0,0,1,.79.107,2.1,2.1,0,0,1,.711-.14.781.781,0,0,0-.249-.124.962.962,0,0,0-.234-.035c.1-.028.2-.057.3-.088a2.153,2.153,0,0,0,1.566-.2q.331-.13.648-.285l.126-.053a1.672,1.672,0,0,0,.17-.063q.179-.078.356-.162a.654.654,0,0,0,.081-.021,4.545,4.545,0,0,0,2.533-2.053.8.8,0,0,0,.109-.459,1.5,1.5,0,0,0-.038-1.329c-.015-.024-.032-.046-.049-.068,0-.014,0-.027-.006-.041a3.2,3.2,0,0,0,0-.734c0-.008,0-.015,0-.023a.775.775,0,0,0,.545-.393,7.555,7.555,0,0,0,.593-2.71c.085-.936.169-1.873.222-2.812A6.577,6.577,0,0,0,414.547,284.914Zm-8.518,12.162a1.4,1.4,0,0,0-.212.327,1.971,1.971,0,0,0-.816.913,1.544,1.544,0,0,0-.139.233l-.025.027a2.028,2.028,0,0,0,.056-.395.837.837,0,0,0-1.055-.793,2.719,2.719,0,0,1-1.166.044c-.233-.039-.464-.093-.693-.152-.1-.025-.191-.051-.285-.077l-.045-.013a.873.873,0,0,0-.265-.187l-.031-.013a.794.794,0,0,0-.227-.434.85.85,0,0,0-.529-.232c-.02-.016-.04-.032-.06-.047a4.767,4.767,0,0,1,.61-2.944,1.043,1.043,0,0,0,.088-.532l.021-.117a.71.71,0,0,0,.376-.223c.085-.1.164-.194.239-.3a.656.656,0,0,0,.2.02,1.652,1.652,0,0,0,.774-.238,1.647,1.647,0,0,0,.811.548,3.828,3.828,0,0,0,.53.989,2.2,2.2,0,0,1,.246.806c.059.429.042.88.142,1.3a1.256,1.256,0,0,0,.044.141v0l-.125.508a.226.226,0,0,0,.33.25,1.055,1.055,0,0,1,.268-.077.3.3,0,0,0,.086-.047,1.329,1.329,0,0,0,.444.14,1.784,1.784,0,0,0,.454,0,.4.4,0,0,0,.01.056.344.344,0,0,0,.3.266l0,.007A.707.707,0,0,0,406.03,297.077Zm6.313-.418c-.011.035-.02.071-.029.106a3.575,3.575,0,0,1-2.225.99c-.514.063-1.029.056-1.545.08a3.064,3.064,0,0,0-.343.034.819.819,0,0,0-.182-.144,1.221,1.221,0,0,0-.561-.164c-.01-.043-.023-.085-.037-.128a.917.917,0,0,0-.325-.431.18.18,0,0,0,.084-.178c-.01-.084-.017-.167-.022-.251a.235.235,0,0,0,.014-.08c0-.063,0-.126-.008-.188l-.017-.426a.215.215,0,0,0-.1-.182c.088-.262.137-.548.237-.8a5.443,5.443,0,0,1,1.115-1.706.776.776,0,0,0,.14-.2.821.821,0,0,0,.146,0,2.315,2.315,0,0,0,.472-.076,1,1,0,0,0,.408.174.987.987,0,0,0,.557.007.965.965,0,0,0,.327.172,1.785,1.785,0,0,0,.427.4,2.083,2.083,0,0,0,.795.74l.043.02a1.982,1.982,0,0,0,.4.508,1.257,1.257,0,0,0,.427.669A2.73,2.73,0,0,0,412.342,296.658Z"
                      transform="translate(-117.744 -5.285)" fill="#c2bebc" />
                    <path id="Path_2843" data-name="Path 2843"
                      d="M566.29,342.878c.382,0,.566.36.628,1.162a18.472,18.472,0,0,1,.044,4.209,11.092,11.092,0,0,0-3.239-3.473,6.443,6.443,0,0,1,1.113-1.163l.048-.036.007-.005a3.024,3.024,0,0,1,1.4-.695h-.026"
                      transform="translate(-270.499 -59.559)" fill="#312c29" />
                    <path id="Path_2844" data-name="Path 2844"
                      d="M419.658,324.019q-.077.1-.146.194h0c-.133-.08-.256-.005-.382.051a2.939,2.939,0,0,0-.275.128l-.024.007a4.726,4.726,0,0,0-.916-1.283,3.619,3.619,0,0,0-.923-.661c-.029-.016-.059-.031-.09-.044a.611.611,0,0,0-.486-.03l-.036.018c-.256.079-.446.373-.613.917a15.163,15.163,0,0,0-.712,2.734c-.042.269-.082.566-.12.9l0,.014c-.013.1-.017.18-.023.262a8.124,8.124,0,0,1,1.419-1.411,6.565,6.565,0,0,1,1.039-.664h0a.048.048,0,0,1,0-.021,4.709,4.709,0,0,1,.655-.3h0a4.361,4.361,0,0,0,.564.748,1.851,1.851,0,0,0,.413.451.227.227,0,0,0,.38-.16,2.644,2.644,0,0,1,.591-1.529C420.156,324.112,419.84,323.8,419.658,324.019Z"
                      transform="translate(-132.698 -40.541)" fill="#312c29" />
                    <path id="Path_2845" data-name="Path 2845"
                      d="M486.1,348.64c.364.006.759.008,1.168.02.454.017.927.046,1.4.1h0a1.928,1.928,0,0,0-.2.172,2.316,2.316,0,0,0-.168.186,5.331,5.331,0,0,0-.534.878l-.028.051c-.086.163-.174.326-.273.484-.009.06-.039.087-.083.088h-.011a2.842,2.842,0,0,1-1.268-1.981"
                      transform="translate(-198.618 -64.894)" fill="#312c29" />
                    <path id="Path_2846" data-name="Path 2846"
                      d="M519.5,351.723a4.736,4.736,0,0,1,2.153.8l.008.006.06.048.035.033c.042.038.08.07.114.1-.119-.011-.227-.016-.327-.016a2.208,2.208,0,0,0-.623.08,4.579,4.579,0,0,0-.644.272,2.952,2.952,0,0,1-.5.18l-.129.009h0l-.141-.1c-.011-.012-.024-.024-.035-.038a1.23,1.23,0,0,1-.273-.639.988.988,0,0,1,0-.2.8.8,0,0,1,.048-.21l.055-.111.008-.013.085-.108.112-.095.006,0"
                      transform="translate(-229.253 -67.749)" fill="#312c29" />
                    <path id="Path_2847" data-name="Path 2847"
                      d="M452.593,472.468a1.607,1.607,0,0,1-1.12.224.987.987,0,0,1-.715-.57.131.131,0,0,0-.158-.088.129.129,0,0,0-.089.152.135.135,0,0,0,0,.029,1.071,1.071,0,0,0,.695.981,1.389,1.389,0,0,0,1.261-.187h0a.158.158,0,0,0,.065-.047.13.13,0,0,0,.04-.171.126.126,0,0,0-.013-.017q.085-.04.166-.086C452.866,472.607,452.736,472.387,452.593,472.468Z"
                      transform="translate(-165.659 -179.154)" fill="#fff" />
                    <path id="Path_2848" data-name="Path 2848"
                      d="M484.246,478.445a.111.111,0,0,0,.011-.057l-.007,0a2.686,2.686,0,0,1-2.548-.178.121.121,0,0,0,0,.127.509.509,0,0,0,.1.129.123.123,0,0,0-.028.2l.311.238c.034.2.293.306.477.378a.6.6,0,0,0,.406.137.9.9,0,0,0,.333.022.132.132,0,0,0,.057.014l.17,0a.111.111,0,0,0,.109-.063.493.493,0,0,0,.091-.045l.029-.02a.119.119,0,0,0,.023-.016,1.5,1.5,0,0,0,.122-.092.754.754,0,0,0,.309-.222.431.431,0,0,0,.105-.165l0-.006a.186.186,0,0,0,.021-.2A.135.135,0,0,0,484.246,478.445Z"
                      transform="translate(-194.528 -184.88)" fill="#fff" />
                    <path id="Path_2849" data-name="Path 2849"
                      d="M426.443,396.465a1.751,1.751,0,0,1-.189.953,3.982,3.982,0,0,0-.194.35.475.475,0,0,0-.1-.014.528.528,0,0,0-.557-.207.47.47,0,0,0-.174-.045.5.5,0,0,0-.263-.143.433.433,0,0,0-.18-.13.56.56,0,0,0-.038-.048.394.394,0,0,0-.216-.383,1.422,1.422,0,0,0,.008-.16.465.465,0,0,0-.023-.14,1.7,1.7,0,0,0,.091-.37,1.114,1.114,0,0,0,.106-.192c.074-.1.141-.191.2-.288a1.077,1.077,0,0,0,.447-.6q.021-.051.039-.1a.127.127,0,0,0,.253-.015.268.268,0,0,0-.2-.237c0-.024,0-.048,0-.072a.287.287,0,0,0-.056-.205h0c0-.01.007-.02.01-.03a.4.4,0,0,0-.026-.33.225.225,0,0,0-.124-.094.171.171,0,0,0-.228-.062,1.235,1.235,0,0,0-.24.163.391.391,0,0,0-.21.066,1.779,1.779,0,0,0-.759,1.052l-.016.031a2.374,2.374,0,0,0-.468,1.4,2.634,2.634,0,0,0,.037.752.378.378,0,0,0,.05.128c.008.068.02.136.035.205a.426.426,0,0,0,.363.329.665.665,0,0,0,.137.177.619.619,0,0,0,.2.122.712.712,0,0,0,.131.119.616.616,0,0,0,.344.114c.016.009.032.015.047.022a.686.686,0,0,0,.162.151.618.618,0,0,0,.548.1.651.651,0,0,0,.538,0,1.17,1.17,0,0,0,.717-.106.471.471,0,0,0,.234-.415c0-.257.292-.543.382-.788a3.141,3.141,0,0,0,.136-1.066A.479.479,0,0,0,426.443,396.465Z"
                      transform="translate(-140.495 -106.787)" fill="#b8d4e9" />
                    <path id="Path_2850" data-name="Path 2850"
                      d="M515.879,407.549a1.524,1.524,0,0,0-.266-.8.5.5,0,0,0-.162-.151.473.473,0,0,0-.786.347,1.663,1.663,0,0,0-.007.257q-.1.437-.168.879a1.183,1.183,0,0,0-.177.6.439.439,0,0,0,.079.282c-.065.041-.13.083-.2.124l-.132.078a.566.566,0,0,0-.351-.1l-.006-.007a.631.631,0,0,0-.787-.083.49.49,0,0,0-.087,0,.568.568,0,0,0-.18-.3.525.525,0,0,0-.523-.3l0,0a2.027,2.027,0,0,0,.069-.278,1.116,1.116,0,0,0,.177-.458.423.423,0,0,0,.667-.277,3.81,3.81,0,0,0,.056-.834.414.414,0,0,0-.008-.063,1.622,1.622,0,0,0,0-.2.485.485,0,0,0-.282-.422.527.527,0,0,0-.741-.028.581.581,0,0,0-.278.216,4.347,4.347,0,0,0-.653,1.38A1.657,1.657,0,0,0,511,409c.005.022.012.044.019.066a1.073,1.073,0,0,0,.232.512.339.339,0,0,0,.082.072l.017.017a.6.6,0,0,0,.115.165.641.641,0,0,0,.076.067.61.61,0,0,0,.08.1c.013.014.027.027.041.039s.009.016.015.024a.585.585,0,0,0,.649.25.6.6,0,0,0,.261.064.88.88,0,0,0,.182-.019.812.812,0,0,0,.573.017.532.532,0,0,0,.218.05,1.853,1.853,0,0,0,.87-.37l.165-.1a.46.46,0,0,0,.227.005,1.588,1.588,0,0,0,1.126-1.191A2.34,2.34,0,0,0,515.879,407.549Z"
                      transform="translate(-221.541 -117.708)" fill="#b8d4e9" />
                    <path id="Path_2851" data-name="Path 2851"
                      d="M413.324,283.544a1.766,1.766,0,0,1-.214-.561,1.118,1.118,0,0,1-.112-.232,2.209,2.209,0,0,0-1.624.214.431.431,0,0,0-.176.607q-.1.054-.187.112c-.141.089-.278.186-.412.286a.466.466,0,0,1,.028.321c-.11.417-.235.828-.379,1.233l.071-.063a8.726,8.726,0,0,1,1.18-.954,1.933,1.933,0,0,1,1.283-.379,3.491,3.491,0,0,1,.892.321A2.136,2.136,0,0,1,413.324,283.544Z"
                      transform="translate(-128.38 -3.816)" fill="#fff" />
                    <path id="Path_2852" data-name="Path 2852"
                      d="M580.739,292.721a.47.47,0,0,1-.022-.09c-.014-.1-.031-.2-.049-.3a.468.468,0,0,1-.142-.257,3.611,3.611,0,0,1-.07-.745.5.5,0,0,1,.036-.193,7.93,7.93,0,0,0-.694-.648.492.492,0,0,0-.024-.655c-.077-.093-.157-.181-.24-.265a.529.529,0,0,0-.113-.231,1.129,1.129,0,0,0-.981-.349l-.047-.005a.48.48,0,0,0-.433.668,2.534,2.534,0,0,0-.33-.015c-.044,0-.088,0-.132.006-.182.224-.378.438-.57.654-.13.2-.26.4-.4.6a3.026,3.026,0,0,1,1.108-.3,2.211,2.211,0,0,1,1.216.387,5.551,5.551,0,0,1,1.023.893,2.707,2.707,0,0,1,.729,1.037.467.467,0,0,0,.145.228C580.747,293,580.743,292.858,580.739,292.721Z"
                      transform="translate(-282.355 -9.635)" fill="#fff" />
                    <path id="Path_2853" data-name="Path 2853"
                      d="M584.894,457.93a20.743,20.743,0,0,1,6.135-.353c.577.057,1.144.157,1.716.244.138.021.19-.211.052-.243a14.667,14.667,0,0,0-1.547-.246c-.52-.062-1.044-.1-1.567-.132a20.511,20.511,0,0,0-3.106.091,16.749,16.749,0,0,0-1.753.275.185.185,0,0,0,.071.364Z"
                      transform="translate(-289.905 -165.4)" fill="#1f1c1a" />
                    <path id="Path_2854" data-name="Path 2854"
                      d="M586.462,476.1a5.764,5.764,0,0,1,1.343-.09c.456.024.911.081,1.365.128a21.48,21.48,0,0,1,2.676.407,13.979,13.979,0,0,1,1.482.452c.182.065.268-.2.1-.277a10.208,10.208,0,0,0-2.684-.74c-.461-.076-.924-.137-1.387-.193s-.922-.114-1.385-.143a4.576,4.576,0,0,0-1.577.109.176.176,0,0,0,.068.346Z"
                      transform="translate(-291.368 -182.484)" fill="#1f1c1a" />
                    <path id="Path_2855" data-name="Path 2855"
                      d="M582.014,490.232a2.87,2.87,0,0,0,.507.1c.157.033.313.073.467.119a6.69,6.69,0,0,1,.935.358,5.97,5.97,0,0,1,1.626,1.112,8.12,8.12,0,0,1,.752.849c.1.126.325-.017.238-.156a5.893,5.893,0,0,0-1.447-1.533,6.041,6.041,0,0,0-1.86-.964c-.186-.058-.375-.107-.565-.147a1.86,1.86,0,0,0-.627-.08.18.18,0,0,0-.026.343Z"
                      transform="translate(-287.331 -195.686)" fill="#1f1c1a" />
                    <path id="Path_2856" data-name="Path 2856"
                      d="M312.953,443.461a20.737,20.737,0,0,0-6.14-.246c-.576.067-1.141.177-1.712.274-.137.023-.194-.208-.056-.242a14.681,14.681,0,0,1,1.543-.273c.519-.071,1.042-.122,1.565-.159a20.506,20.506,0,0,1,3.107.037,16.745,16.745,0,0,1,1.758.245.185.185,0,0,1-.065.365Z"
                      transform="translate(-30.888 -152.061)" fill="#1f1c1a" />
                    <path id="Path_2857" data-name="Path 2857"
                      d="M323.624,461.042a5.771,5.771,0,0,0-1.344-.066c-.456.032-.91.1-1.363.152a21.5,21.5,0,0,0-2.669.454,14,14,0,0,0-1.474.478c-.181.068-.271-.193-.1-.276a10.207,10.207,0,0,1,2.671-.787c.459-.084.921-.153,1.383-.217s.92-.13,1.383-.167a4.578,4.578,0,0,1,1.579.082.176.176,0,0,1-.062.347Z"
                      transform="translate(-41.645 -168.555)" fill="#1f1c1a" />
                    <path id="Path_2858" data-name="Path 2858"
                      d="M361.2,474.9a2.85,2.85,0,0,1-.506.108c-.157.035-.312.079-.465.127a6.673,6.673,0,0,0-.928.375,5.968,5.968,0,0,0-1.606,1.14,8.111,8.111,0,0,0-.737.862c-.1.128-.325-.011-.24-.152a5.891,5.891,0,0,1,1.42-1.558,6.041,6.041,0,0,1,1.842-1c.185-.061.373-.113.563-.157a1.86,1.86,0,0,1,.625-.091.18.18,0,0,1,.032.342Z"
                      transform="translate(-78.796 -181.492)" fill="#1f1c1a" />
                    <path id="Path_2859" data-name="Path 2859"
                      d="M475.142,449.547a.455.455,0,0,0-.023-.095.478.478,0,0,0-.406-.316.56.56,0,0,0-.1,0,.554.554,0,0,0-.646.229.227.227,0,0,0,.082.305.509.509,0,0,0,.134.057.189.189,0,0,0,.052.019c.019,0,.037.006.056.009a.241.241,0,0,0,.183.195.262.262,0,0,0,.187.1.5.5,0,0,0,.481-.288A.247.247,0,0,0,475.142,449.547Z"
                      transform="translate(-187.353 -157.927)" fill="#fff" />
                    <path id="Path_2860" data-name="Path 2860"
                      d="M424.246,393.4a2.1,2.1,0,0,1-1.044-.174,1.748,1.748,0,0,1-.19-.1,1.823,1.823,0,0,0,.578-.228c.2-.114.515-.292.543-.545a.334.334,0,0,0-.024-.17,1.714,1.714,0,0,0,.171-.533.476.476,0,0,0-.056-.307c.028-.04.055-.079.081-.121a.226.226,0,0,0-.2-.335.421.421,0,0,0-.315.113,1.753,1.753,0,0,0-.9.871l0,.011a1.193,1.193,0,0,0-.458.836l-.065-.042a.221.221,0,0,0-.326.236.245.245,0,0,0,0,.391,3.012,3.012,0,0,0,1.854.574.228.228,0,0,0,.095-.022c.085,0,.17,0,.255-.006C424.534,393.823,424.534,393.376,424.246,393.4Z"
                      transform="translate(-139.214 -104.007)" fill="#006bad" />
                    <path id="Path_2861" data-name="Path 2861"
                      d="M462.721,424.634a.324.324,0,0,0,.007-.056.237.237,0,0,0-.06-.164.19.19,0,0,0,0-.05.245.245,0,0,0-.211-.24.249.249,0,0,0-.26.13.559.559,0,0,0,.011.38.706.706,0,0,1-.291-.09.224.224,0,0,0-.223.387,1.155,1.155,0,0,0,.94.092A.235.235,0,0,0,462.721,424.634Z"
                      transform="translate(-175.921 -134.791)" fill="#006bad" />
                    <path id="Path_2862" data-name="Path 2862"
                      d="M511.5,411.626a3.432,3.432,0,0,1-.35.055c.188-.172.34-.5.063-.673a.307.307,0,0,0-.143-.045.457.457,0,0,0-.2-.013.264.264,0,0,0-.051-.034l.1-.138a.22.22,0,0,0,0-.225l0,0a1.322,1.322,0,0,0,.108-.156.241.241,0,0,0,.017-.036,1.621,1.621,0,0,0,.406-.329.22.22,0,0,0,.232-.328.39.39,0,0,0-.221-.175.327.327,0,0,0-.356-.069,1.088,1.088,0,0,0-.636.324c-.188.178-.533.574-.488.887a.666.666,0,0,0-.151.424.322.322,0,0,0,.084.193.351.351,0,0,0,.044.2.5.5,0,0,0-.017.08c0,.008,0,.015,0,.023a.223.223,0,0,0-.1.434,3.882,3.882,0,0,0,1.784.033C511.907,412,511.785,411.567,511.5,411.626Z"
                      transform="translate(-220.456 -121.187)" fill="#006bad" />
                    <path id="Path_2863" data-name="Path 2863"
                      d="M557.536,416.717l-.072.035a.233.233,0,0,0-.012-.376s0-.008,0-.012a.275.275,0,0,0-.149-.23.408.408,0,0,0-.11-.355.511.511,0,0,0-.424-.124,1.249,1.249,0,0,1-.144,0,.184.184,0,0,0-.209.224.336.336,0,0,0-.037.133.217.217,0,0,0,.112.192.372.372,0,0,0,.079.024l-.049.023a.189.189,0,0,0-.085.275l-.028.016c-.172.108-.118.444.115.415l.038-.005a.264.264,0,0,0,.05.113c-.146.037-.294.068-.445.091-.283.044-.16.474.122.43a4.94,4.94,0,0,0,1.476-.48C558.021,416.971,557.793,416.588,557.536,416.717Z"
                      transform="translate(-263.353 -126.944)" fill="#006bad" />
                    <path id="Path_2864" data-name="Path 2864"
                      d="M425.406,417.761a.246.246,0,0,0,.018-.1l-.01-.195a.3.3,0,0,0-.085-.2.287.287,0,0,0-.489.206q0,.1.01.191a3,3,0,0,1-.863-.139.228.228,0,0,0-.245-.124,2.456,2.456,0,0,1-2.006-.675c-.266-.257-.67.151-.4.409a3.008,3.008,0,0,0,2.327.848.3.3,0,0,0,.117.077,4.032,4.032,0,0,0,1.418.185A.289.289,0,0,0,425.406,417.761Z"
                      transform="translate(-138.563 -127.86)" fill="#74aed5" />
                    <path id="Path_2865" data-name="Path 2865"
                      d="M515.591,429.887c-.774.225-1.557.422-2.35.571a4.521,4.521,0,0,1-2.369-.062.609.609,0,0,1-.016.072.166.166,0,0,1,0,.019c.006-.013,0-.006,0,.008s-.007.04-.008.054c0,.043,0,.085,0,.128a.537.537,0,0,1-.089.283,4.895,4.895,0,0,0,2.418.091,22.691,22.691,0,0,0,2.576-.611A.287.287,0,0,0,515.591,429.887Z"
                      transform="translate(-221.448 -140.118)" fill="#74aed5" />
                    <path id="Path_2866" data-name="Path 2866"
                      d="M438.5,394.39a2.118,2.118,0,0,0-.967-1.1.811.811,0,0,0-.6-.046.324.324,0,0,0-.129.014c-.5.156-.709.7-.855,1.166a3.6,3.6,0,0,0-.138,1.691,1.648,1.648,0,0,0,.793,1.2,1.183,1.183,0,0,0,1.256-.045,2.1,2.1,0,0,0,.676-1.214A2.709,2.709,0,0,0,438.5,394.39Z"
                      transform="translate(-152.005 -106.163)" fill="#1f1c1a" />
                    <path id="Path_2867" data-name="Path 2867"
                      d="M526.986,399.491a1.763,1.763,0,0,0-1.411-.924,1.06,1.06,0,0,0-.772.221.326.326,0,0,0-.405.119,3.249,3.249,0,0,0-.493,1.925,2.457,2.457,0,0,0,.593,1.751,1.471,1.471,0,0,0,1.654.21,1.646,1.646,0,0,0,.985-1.448A3.06,3.06,0,0,0,526.986,399.491Z"
                      transform="translate(-233.625 -111.123)" fill="#1f1c1a" />
                    <path id="Path_2868" data-name="Path 2868"
                      d="M434.315,397.146a1.345,1.345,0,0,0-.816.1.476.476,0,0,0-.243.416.339.339,0,0,0,.036.3.521.521,0,0,0,.263.193.973.973,0,0,0,.642.082.886.886,0,0,0,.285-.115.518.518,0,0,0,.291-.338A.55.55,0,0,0,434.315,397.146Z"
                      transform="translate(-149.667 -109.789)" fill="#fff" />
                    <path id="Path_2869" data-name="Path 2869"
                      d="M521.717,405.912c-.125-.321-.526-.394-.876-.355a.934.934,0,0,0-.911.5c-.183.548.651.639,1,.6C521.3,406.62,521.912,406.412,521.717,405.912Z"
                      transform="translate(-229.921 -117.591)" fill="#fff" />
                    <path id="Path_2870" data-name="Path 2870"
                      d="M522.14,703.478a1.73,1.73,0,0,0-.229.735.084.084,0,0,0,.084.082.076.076,0,0,0,.039-.012.084.084,0,0,0,.162,0,2.861,2.861,0,0,0,.1-.769A.084.084,0,0,0,522.14,703.478Z"
                      transform="translate(-231.78 -393.44)" fill="#030504" />
                    <path id="Path_2871" data-name="Path 2871"
                      d="M536.683,703.943a.084.084,0,0,0-.152.022,4.069,4.069,0,0,0-.113.762.084.084,0,0,0,.084.082.078.078,0,0,0,.039-.012.089.089,0,0,0,.077.049.085.085,0,0,0,.082-.084q.016-.215.032-.429A.7.7,0,0,0,536.683,703.943Z"
                      transform="translate(-245.214 -393.872)" fill="#030504" />
                    <path id="Path_2872" data-name="Path 2872"
                      d="M553.33,704.572a.083.083,0,0,0-.091-.016.085.085,0,0,0-.05.077,5.259,5.259,0,0,0,.006.636.085.085,0,0,0,.084.082.084.084,0,0,0,.082-.082.079.079,0,0,0,.056.056.084.084,0,0,0,.1-.06A.824.824,0,0,0,553.33,704.572Z"
                      transform="translate(-260.737 -394.47)" fill="#030504" />
                    <path id="Path_2873" data-name="Path 2873"
                      d="M461.274,679.325a.889.889,0,0,0-.58-.209,1.811,1.811,0,0,0-.3.026.64.64,0,0,0-.165.034c-.078.039-.044.039-.109-.026a.942.942,0,0,0-1.186-.039c-.115.067-.127.113-.25.067a.937.937,0,0,0-.316-.081.927.927,0,0,0-.635.256,1.279,1.279,0,0,0-.379.722,1.46,1.46,0,0,0,.717,1.859,1.349,1.349,0,0,0,.645.056c.266-.02.513.1.777.082a4.286,4.286,0,0,1,.669-.078,1.237,1.237,0,0,0,.658-.093,1.513,1.513,0,0,0,.8-1.146A1.618,1.618,0,0,0,461.274,679.325Zm-.361,1.865a.931.931,0,0,1-.467.189c-.164.018-.324-.009-.487.025a2.165,2.165,0,0,1-.563.091c-.165-.009-.311-.088-.476-.1a1.812,1.812,0,0,1-.662-.058.827.827,0,0,1-.315-.286.744.744,0,0,1-.131-.681c0-.013,0-.025.006-.038a.54.54,0,0,1,.384-.439,1.166,1.166,0,0,1,.446.053.672.672,0,0,0,.424-.135.913.913,0,0,1,.531-.128c.187.022.314.15.486.205.144.046.3-.036.449-.057a.64.64,0,0,1,.771.484A.99.99,0,0,1,460.913,681.191Z"
                      transform="translate(-171.928 -370.736)" fill="#1f1c1a" />
                    <path id="Path_2874" data-name="Path 2874"
                      d="M515.774,680.933a1.279,1.279,0,0,0-.394-.714.816.816,0,0,0-.954-.156c-.122.049-.135,0-.251-.062a.942.942,0,0,0-1.185.064c-.065.067-.03.066-.109.029a.638.638,0,0,0-.166-.03,1.807,1.807,0,0,0-.3-.02.888.888,0,0,0-.576.221,1.08,1.08,0,0,0-.305.566.723.723,0,0,1,.1.182.653.653,0,0,1,.019.312,1.356,1.356,0,0,1-.129.372v0a1.513,1.513,0,0,0,.82,1.13,1.237,1.237,0,0,0,.66.08,4.273,4.273,0,0,1,.671.064c.265.015.509-.112.775-.1a1.348,1.348,0,0,0,.644-.069A1.46,1.46,0,0,0,515.774,680.933Zm-.8,1.212a1.488,1.488,0,0,1-.441.081c-.189.012-.371.067-.559.082a6.184,6.184,0,0,1-1.046-.146,1.232,1.232,0,0,1-.292.026.72.72,0,0,1-.689-.675.7.7,0,0,1,.506-.754.8.8,0,0,1,.447.059c.088.031.166.074.249.021.152-.1.227-.246.424-.282a.7.7,0,0,1,.485.121.523.523,0,0,0,.353.116,1.379,1.379,0,0,1,.43-.056.723.723,0,0,1,.583.657A.7.7,0,0,1,514.978,682.145Z"
                      transform="translate(-222.162 -371.573)" fill="#1f1c1a" />
                    <path id="Path_2875" data-name="Path 2875"
                      d="M327.039,654.51a9.162,9.162,0,0,1,3.228-.545.285.285,0,0,1,.251.137c.268,0,.58.02.886.056a.3.3,0,0,1,.271-.165h.042a2.028,2.028,0,0,1,1.031.048,4.141,4.141,0,0,1,.59.163l.116,0a.317.317,0,0,1,.307-.257,6.683,6.683,0,0,1,1.308.226q.13,0,.256.007a8.4,8.4,0,0,1,1.262.034c.114.012.27.015.421.037a4.445,4.445,0,0,1,.548.064,4.013,4.013,0,0,1,.642.141l.042,0a.365.365,0,0,1,.277.1.316.316,0,0,1,.049.378.257.257,0,0,1-.049.069.33.33,0,0,1-.28.182.809.809,0,0,1-.382-.032.416.416,0,0,1-.137-.094.314.314,0,0,1-.225.033l-.148-.032a.322.322,0,0,1-.379.229c-.268-.046-.535-.1-.8-.149a1.858,1.858,0,0,1-.336.007.731.731,0,0,1-.472.141.414.414,0,0,1-.12.033l-.03,0a.735.735,0,0,1-.542.4,3.267,3.267,0,0,1-1.469-.178c-.06-.016-.154-.045-.268-.083a1.911,1.911,0,0,1-.894-.029,6.972,6.972,0,0,1-.889-.095q-.141-.016-.281-.036a2.915,2.915,0,0,1-.994.038,7.97,7.97,0,0,1-1.022-.137l-.073-.005c-.3-.019-.589-.048-.882-.083a3.565,3.565,0,0,0-.768.015C326.752,655.169,326.732,654.622,327.039,654.51Z"
                      transform="translate(-51.129 -347.604)" fill="#74aed5" />
                    <g id="Group_1161" data-name="Group 1161" transform="translate(274.663 306.18)">
                      <path id="Path_2876" data-name="Path 2876"
                        d="M313.693,653.351a5.886,5.886,0,0,1,1.562-.53c.343-.072.721-.132,1.125-.184s.838-.1,1.3-.143c.914-.081,1.924-.133,2.984-.126a31.216,31.216,0,0,1,5.4.483,7.134,7.134,0,0,1,1.088.281,1.046,1.046,0,0,0-.081.189,8.69,8.69,0,0,0-1.051-.2,42.756,42.756,0,0,0-5.356-.366c-1.049-.006-2.047.034-2.954.095-.454.03-.884.068-1.287.106s-.775.081-1.112.134a7.4,7.4,0,0,0-1.519.388A.788.788,0,0,0,313.693,653.351Z"
                        transform="translate(-313.631 -652.327)" fill="#030504" />
                      <path id="Path_2877" data-name="Path 2877"
                        d="M312.979,653.01a.753.753,0,0,0-.088-.121l-.033-.037.043-.023a5.8,5.8,0,0,1,1.572-.534c.325-.068.694-.129,1.128-.185.472-.061.9-.108,1.3-.143,1.012-.09,2.018-.133,2.988-.127a31.429,31.429,0,0,1,5.406.484,7.162,7.162,0,0,1,1.094.282l.043.015-.022.04a1,1,0,0,0-.078.182l-.011.036-.036-.01a8.63,8.63,0,0,0-1.046-.2,42.482,42.482,0,0,0-5.351-.365c-.938-.006-1.931.026-2.952.095-.487.032-.943.073-1.286.106-.433.041-.8.084-1.11.134a7.273,7.273,0,0,0-1.511.385l-.031.012Zm6.905-.781a42.536,42.536,0,0,1,5.361.366,8.825,8.825,0,0,1,1.02.19,1.064,1.064,0,0,1,.051-.121,7.17,7.17,0,0,0-1.039-.264,31.349,31.349,0,0,0-5.392-.483c-.969-.006-1.971.037-2.98.126-.4.035-.823.082-1.294.143-.432.056-.8.116-1.122.184a5.842,5.842,0,0,0-1.509.5.826.826,0,0,1,.048.068,7.415,7.415,0,0,1,1.5-.378c.315-.05.68-.094,1.114-.135.343-.033.8-.074,1.288-.106.945-.063,1.867-.1,2.744-.1Z"
                        transform="translate(-312.858 -651.839)" fill="#030504" />
                    </g>
                    <path id="Path_2878" data-name="Path 2878"
                      d="M300.067,618.572a23.827,23.827,0,0,0,3.527,5.922,42.864,42.864,0,0,0-3.527-5.922Z"
                      transform="translate(-26.343 -314.852)" fill="#090909" stroke="#090909" stroke-width="1" />
                    <path id="Path_2879" data-name="Path 2879"
                      d="M408,290.735a10.745,10.745,0,0,0,1.5-5.452,10.579,10.579,0,0,0-1.612-5.953,1,1,0,0,0-.707-.4c-1.467.061-2.728,2.356-4.738,4.842-.07.082-.146.176-.218.268a6.475,6.475,0,0,0-2.9-.655c-.361.02-.752.038-1.117.076l-.076-.115c-1.395-2.128-2.234-4.63-3.51-4.78h0a1.065,1.065,0,0,0-.713.274,8.938,8.938,0,0,0-2.382,4.657,7.51,7.51,0,0,0,.543,4.664h0a6.945,6.945,0,0,0-.846,2.278l0,.043-.006,0c0,.018,0,.037,0,.056.007.1.021.2.036.3.034.21.064.423.111.63a4.823,4.823,0,0,0,.469,1.221,10.738,10.738,0,0,0,.655,1.048c.072.1.147.2.226.3a7.814,7.814,0,0,0,3.2,1.945c.164.077.328.152.5.217.027.01.054.018.081.027l0,.009,0,0-.029.068h0l-.007.015a.047.047,0,0,0,0,.026l-.013.029a.065.065,0,0,0,.023.086.064.064,0,0,0,.066,0l0,0c.067.014.1-.048.13-.093l.027-.038a.062.062,0,0,0,.059-.035c.148.03.3.05.451.066a6.924,6.924,0,0,0,.775.119,14.562,14.562,0,0,0,6.163-.378c.253-.074.5-.164.746-.261h0a.561.561,0,0,1,.054-.024c.011-.006.02-.012.031-.017a.683.683,0,0,1,.138-.053l.016,0a3.129,3.129,0,0,1,.3-.143c.149-.082.3-.161.451-.24a8.678,8.678,0,0,0,1.017-.655l.053-.041c.047-.035.093-.072.137-.11l.1-.085c.1-.089.2-.18.3-.272h0q.114-.106.232-.208.087-.128.17-.258c.083-.13.156-.27.238-.4a2.144,2.144,0,0,0,.1-.225,1.982,1.982,0,0,0,.038-.331c.011-.481-.079-.954-.082-1.431A4.1,4.1,0,0,0,408,290.735Zm-.146-.578c-.411-.584-.854-.414-.6.25a2.629,2.629,0,0,1,.1,1.113.927.927,0,0,1,.018.115,1.194,1.194,0,0,1-.015.275c-.006.043-.014.085-.023.127a2.691,2.691,0,0,1-.124.639,3.148,3.148,0,0,1-.269.615,1.4,1.4,0,0,1-.406.526h0c-.048.041-.1.081-.145.118l-.032.023a5.685,5.685,0,0,1-2.366,1.3,11.66,11.66,0,0,1-2.551.608c-4.414.55-6.914-.68-8.211-2.33a2.086,2.086,0,0,1-.387-.493,5.7,5.7,0,0,1-.443-.845,4.823,4.823,0,0,1-.278-.9,1.828,1.828,0,0,1-.043-.526l-.012-.078c-.081-1.524.97-3.23.632-3.2h0a.487.487,0,0,0-.192.092l-.084.1a10.206,10.206,0,0,1,.424-6.1,7.337,7.337,0,0,1,1.582-2.339l.116-.073c.636-.126,2.124,3.149,2.873,4.437a.889.889,0,0,0-.258.156c1.607.11,4.478-.141,5.964,1.065.525.5.5.1.015-.334,1.02-1.2,3.771-5.589,4.265-4.7a8.246,8.246,0,0,1,1.235,3.026A14.3,14.3,0,0,1,407.855,290.157Z"
                      transform="translate(-110.76 0)" fill="#1f1c1a" />
                    <path id="Path_2880" data-name="Path 2880"
                      d="M511.02,394.682c-1.813-.018-3.331,2.348-2.67,4.233-.454.188-.034.595.028.731.136.261.377.686.708.728a6.934,6.934,0,0,0,4.374-.793,1.859,1.859,0,0,0,.614-1.455A4.142,4.142,0,0,0,511.02,394.682Zm2.125,4.078a1.923,1.923,0,0,1-1.084.977l.027-.021a.9.9,0,0,1-.24.07.487.487,0,0,1-.181.052,1.96,1.96,0,0,1-.3.086,3,3,0,0,1-.564.073.5.5,0,0,1-.12.022.384.384,0,0,1-.117-.014,7.292,7.292,0,0,1-1.126-.058c-.4-.043-.468-.57-.7-.874a.348.348,0,0,0-.253-.178,5.3,5.3,0,0,0,.179-1.193,2.7,2.7,0,0,1,2.354-2.424C512.1,395.251,513.463,397.333,513.144,398.76Z"
                      transform="translate(-219.03 -107.529)" fill="#1f1c1a" />
                    <path id="Path_2881" data-name="Path 2881"
                      d="M413.559,504.444q-.814-4.489-1.428-9.071-.173-1.295-.33-2.6l-.182.349,3.6-1.789c.287-.143.2-.631-.084-.488l-3.6,1.789a.352.352,0,0,0-.182.349q.556,4.6,1.314,9.122.214,1.277.445,2.546c.057.313.505.1.449-.21Z"
                      transform="translate(-129.4 -196.557)" fill="#b8d4e9" />
                    <path id="Path_2882" data-name="Path 2882"
                      d="M301.722,669.518a4.62,4.62,0,0,1,.8-2.373.892.892,0,0,1,.967-.394c.924.216,1.849.476,2.783.643a12.069,12.069,0,0,0,2.6-.079c.9-.039,1.811-.039,2.715,0a3.752,3.752,0,0,1,.919.143,12.37,12.37,0,0,1,2.68-.72,1.308,1.308,0,0,1,1.547.853,3.482,3.482,0,0,1,.54,1.873c-.144.715-.788.911-1.4,1.136a3.65,3.65,0,0,1-1.923.42c-.026-.005-.051-.012-.076-.018a.981.981,0,0,1-.417.119,37.96,37.96,0,0,1-11.1-.78A.864.864,0,0,1,301.722,669.518Z"
                      transform="translate(-27.883 -359.412)" fill="#006bad" />
                    <g id="Group_1162" data-name="Group 1162" transform="translate(273.411 308.168)">
                      <path id="Path_2883" data-name="Path 2883"
                        d="M297.225,679.264a2.488,2.488,0,0,0-.338.762c-.092.25-.2.558-.321.916a2.113,2.113,0,0,0-.088.3.741.741,0,0,0-.011.2.536.536,0,0,0,.066.219.588.588,0,0,0,.152.174.949.949,0,0,0,.178.108c.121.057.228.09.341.132a18.768,18.768,0,0,0,3.265.856,26.269,26.269,0,0,0,4.112.362c.732.009,1.445-.006,2.133-.037s1.351-.075,1.985-.15a13.022,13.022,0,0,0,1.786-.329c.275-.072.537-.149.787-.226l.366-.115c.121-.039.23-.072.355-.117a1.171,1.171,0,0,0,.363-.2.623.623,0,0,0,.147-.183.549.549,0,0,0,.061-.228,1.12,1.12,0,0,0-.058-.359l-.079-.282c-.1-.364-.195-.677-.273-.931a2.483,2.483,0,0,0-.3-.778,2.488,2.488,0,0,0,.092.828c.047.263.108.583.183.953l.059.288a.846.846,0,0,1,.029.256.219.219,0,0,1-.1.154.84.84,0,0,1-.254.117c-.1.031-.226.062-.344.094l-.367.1c-.25.065-.509.131-.778.191a13.84,13.84,0,0,1-1.733.269c-.617.059-1.272.093-1.953.116s-1.384.034-2.1.026a29.889,29.889,0,0,1-4.039-.312,21.915,21.915,0,0,1-3.222-.725c-.112-.034-.229-.065-.315-.1a.382.382,0,0,1-.18-.123.281.281,0,0,1-.032-.191,1.949,1.949,0,0,1,.057-.264c.094-.366.172-.683.233-.942A2.483,2.483,0,0,0,297.225,679.264Z"
                        transform="translate(-296.426 -679.223)" fill="#030504" />
                      <path id="Path_2884" data-name="Path 2884"
                        d="M304.093,682.821a26.2,26.2,0,0,1-4.118-.362,18.718,18.718,0,0,1-3.272-.858l-.082-.029a2.676,2.676,0,0,1-.263-.1.988.988,0,0,1-.185-.112.627.627,0,0,1-.161-.186.58.58,0,0,1-.071-.234.773.773,0,0,1,.011-.206,1.826,1.826,0,0,1,.075-.267l.014-.042c.123-.362.232-.67.322-.917.3-.812.338-.8.385-.785s.088.026-.108.868c-.06.256-.138.574-.233.943l-.008.031a1.635,1.635,0,0,0-.048.228.245.245,0,0,0,.026.166.352.352,0,0,0,.162.108c.064.026.145.05.231.076l.08.024a21.874,21.874,0,0,0,3.217.724,29.8,29.8,0,0,0,4.033.312c.67.008,1.358,0,2.1-.026.787-.027,1.407-.063,1.951-.115a13.886,13.886,0,0,0,1.729-.268c.291-.065.568-.136.776-.19l.367-.1.122-.033c.078-.021.155-.041.221-.061a.8.8,0,0,0,.241-.11.181.181,0,0,0,.082-.129.834.834,0,0,0-.029-.243l-.059-.288c-.075-.373-.137-.694-.183-.954-.152-.851-.11-.861-.062-.873s.089-.022.344.8c.078.252.17.566.274.932l.09.323a1.033,1.033,0,0,1,.049.33.583.583,0,0,1-.066.244.662.662,0,0,1-.156.195,1.209,1.209,0,0,1-.375.206c-.086.031-.165.056-.246.082l-.111.035-.366.115c-.3.092-.55.164-.788.226a13.064,13.064,0,0,1-1.791.33c-.571.067-1.2.115-1.988.15-.59.026-1.168.04-1.724.04Zm7.4-3.151c.046.26.108.58.183.952l.059.287a.866.866,0,0,1,.03.27.258.258,0,0,1-.111.18.87.87,0,0,1-.266.123c-.067.02-.145.041-.224.062l-.122.033-.367.1c-.209.055-.487.126-.779.191a13.9,13.9,0,0,1-1.738.269c-.545.052-1.167.089-1.955.116-.746.025-1.435.034-2.106.026a29.881,29.881,0,0,1-4.044-.313,21.966,21.966,0,0,1-3.228-.727l-.079-.024c-.088-.026-.171-.051-.238-.078a.417.417,0,0,1-.2-.137.314.314,0,0,1-.039-.217,1.7,1.7,0,0,1,.05-.239l.008-.031c.095-.369.173-.686.232-.942a7.057,7.057,0,0,0,.141-.709,7.006,7.006,0,0,0-.27.67c-.09.246-.2.554-.321.915l-.014.042a1.766,1.766,0,0,0-.072.256.7.7,0,0,0-.01.186.5.5,0,0,0,.061.2.549.549,0,0,0,.141.162.912.912,0,0,0,.17.1,2.614,2.614,0,0,0,.256.1l.082.029a18.654,18.654,0,0,0,3.258.854,26.136,26.136,0,0,0,4.105.361c.679.009,1.4,0,2.131-.037.783-.035,1.413-.082,1.982-.15a12.951,12.951,0,0,0,1.781-.328c.238-.062.487-.133.785-.225l.365-.115.111-.036c.079-.025.158-.05.243-.081a1.139,1.139,0,0,0,.351-.192.587.587,0,0,0,.138-.172.507.507,0,0,0,.057-.211.953.953,0,0,0-.046-.306l-.09-.323c-.1-.366-.2-.679-.273-.93a7.014,7.014,0,0,0-.235-.683A7.031,7.031,0,0,0,311.5,679.67Z"
                        transform="translate(-295.939 -678.715)" fill="#030504" />
                    </g>
                    <g id="Group_1163" data-name="Group 1163" transform="translate(273.669 306.99)">
                      <path id="Path_2885" data-name="Path 2885"
                        d="M299.98,666.354a2.927,2.927,0,0,0,.263-.738c.077-.237.177-.524.311-.85.067-.161.144-.337.228-.511a.981.981,0,0,1,.326-.414.306.306,0,0,1,.1-.039.36.36,0,0,1,.115-.005,2.621,2.621,0,0,1,.319.068c.241.056.491.118.752.175s.532.11.812.16l.427.072c.144.024.29.049.439.068a26.19,26.19,0,0,0,3.9.261,26.541,26.541,0,0,0,3.891-.327c.3-.053.584-.1.863-.156s.549-.112.809-.174l.744-.184a.513.513,0,0,1,.247-.018.258.258,0,0,1,.144.129,1.194,1.194,0,0,1,.1.263l.087.3.163.549c.1.343.195.637.273.877.157.479.261.74.3.731a2.234,2.234,0,0,0-.092-.783c-.047-.248-.108-.55-.183-.9l-.122-.56-.069-.306a1.525,1.525,0,0,0-.121-.354.747.747,0,0,0-.133-.186.6.6,0,0,0-.219-.141.7.7,0,0,0-.249-.037,1.3,1.3,0,0,0-.216.026l-.75.153c-.257.052-.525.094-.8.145s-.56.085-.852.131a30.867,30.867,0,0,1-3.822.279,30.39,30.39,0,0,1-3.825-.214c-.147-.015-.291-.036-.433-.056l-.421-.058c-.276-.041-.543-.089-.8-.13l-.746-.141a2.753,2.753,0,0,0-.39-.06.739.739,0,0,0-.443.121.981.981,0,0,0-.278.291,1.909,1.909,0,0,0-.158.305c-.079.2-.143.376-.2.551a7.487,7.487,0,0,0-.231.9A1.813,1.813,0,0,0,299.98,666.354Z"
                        transform="translate(-299.919 -663.281)" fill="#030504" />
                      <path id="Path_2886" data-name="Path 2886"
                        d="M314.768,665.381c-.078-.238-.17-.533-.273-.878l-.25-.848a1.188,1.188,0,0,0-.1-.254.222.222,0,0,0-.122-.112.452.452,0,0,0-.226.018l-.744.184c-.176.042-.354.079-.542.118l-.268.056c-.192.038-.384.072-.587.107l-.277.049a26.5,26.5,0,0,1-3.9.327,26.14,26.14,0,0,1-3.9-.262c-.134-.017-.268-.039-.4-.061l-.472-.079c-.191-.034-.379-.072-.56-.109l-.253-.051c-.183-.04-.362-.082-.535-.123l-.217-.051-.106-.025a1.355,1.355,0,0,0-.208-.041.316.316,0,0,0-.1,0,.263.263,0,0,0-.089.034.922.922,0,0,0-.31.4c-.076.157-.153.328-.227.509-.111.27-.213.547-.31.847-.038.119-.071.224-.1.316-.123.394-.145.459-.207.449a.049.049,0,0,1-.032-.021,2.18,2.18,0,0,1,.058-.816,7.513,7.513,0,0,1,.232-.906c.064-.2.127-.374.2-.554a1.938,1.938,0,0,1,.161-.311,1,1,0,0,1,.288-.3.774.774,0,0,1,.467-.128,1.773,1.773,0,0,1,.293.041l.1.02.745.141.3.05c.163.027.328.055.5.08l.48.067c.121.017.247.035.373.047a30.343,30.343,0,0,0,3.821.214,30.779,30.779,0,0,0,3.816-.278l.345-.052c.172-.026.341-.051.506-.078l.315-.056c.168-.029.327-.057.484-.089l.75-.153a1.352,1.352,0,0,1,.223-.026.734.734,0,0,1,.264.04.646.646,0,0,1,.233.15.78.78,0,0,1,.141.2,1.556,1.556,0,0,1,.124.363l.191.867c.075.352.137.655.184.9.152.805.111.816.063.828a.072.072,0,0,1-.018,0C315.051,666.14,314.992,666.065,314.768,665.381Zm-.853-2.51a1.281,1.281,0,0,0-.21.025l-.75.153c-.158.032-.318.06-.486.089l-.315.056c-.166.028-.335.053-.508.079l-.345.052a30.829,30.829,0,0,1-3.826.279,30.376,30.376,0,0,1-3.83-.214c-.127-.013-.253-.031-.375-.048l-.481-.067c-.17-.025-.336-.053-.5-.08l-.3-.05L301.24,663l-.105-.02a1.666,1.666,0,0,0-.281-.04.7.7,0,0,0-.419.115.931.931,0,0,0-.267.28,1.863,1.863,0,0,0-.154.3c-.072.178-.135.352-.2.548a7.44,7.44,0,0,0-.229.9,3.856,3.856,0,0,0-.078.682c.028-.073.066-.2.108-.331.029-.092.062-.2.1-.317.1-.3.2-.581.312-.852.075-.182.152-.355.229-.514a.978.978,0,0,1,.341-.43.336.336,0,0,1,.112-.043.4.4,0,0,1,.127-.006,1.415,1.415,0,0,1,.22.043l.1.025.217.051c.173.041.351.083.533.123l.252.051c.181.037.368.075.558.109l.471.079c.128.021.26.044.394.06a26.122,26.122,0,0,0,3.89.261,26.4,26.4,0,0,0,3.885-.326l.277-.049c.2-.036.395-.069.585-.107l.268-.056c.188-.039.365-.076.539-.118l.744-.184a.537.537,0,0,1,.268-.017.3.3,0,0,1,.167.147,1.249,1.249,0,0,1,.109.272l.25.848c.1.344.2.638.273.876a6.262,6.262,0,0,0,.234.642,6.27,6.27,0,0,0-.1-.676c-.046-.245-.108-.547-.183-.9l-.191-.865a1.48,1.48,0,0,0-.117-.345.709.709,0,0,0-.127-.177.569.569,0,0,0-.2-.131.651.651,0,0,0-.218-.035ZM299.5,665.827h0Z"
                        transform="translate(-299.429 -662.793)" fill="#030504" />
                    </g>
                    <g id="Group_1164" data-name="Group 1164" transform="translate(283.978 306.918)">
                      <path id="Path_2887" data-name="Path 2887"
                        d="M439.288,663.331a3.61,3.61,0,0,0,1.644.038,11.013,11.013,0,0,0,1.757-.343c.082-.022.163-.047.246-.072s.161-.05.232-.067a.615.615,0,0,1,.181-.021.2.2,0,0,1,.109.038.665.665,0,0,1,.179.327l.156.535.318,1.07.155.508.075.243a1.413,1.413,0,0,1,.048.2.411.411,0,0,1,0,.148.241.241,0,0,1-.056.1.845.845,0,0,1-.3.182c-.263.105-.524.2-.755.287a6.385,6.385,0,0,0-1.508.607,4.026,4.026,0,0,0,1.622-.239c.247-.065.508-.138.8-.232a1.253,1.253,0,0,0,.484-.272.728.728,0,0,0,.184-.3.882.882,0,0,0,.03-.338,1.8,1.8,0,0,0-.054-.287l-.068-.252-.142-.511-.307-1.073-.08-.273c-.027-.091-.051-.178-.084-.277a1.7,1.7,0,0,0-.129-.3.885.885,0,0,0-.256-.292.728.728,0,0,0-.392-.13,1.112,1.112,0,0,0-.338.044c-.1.026-.183.059-.259.084s-.156.054-.234.078a16.162,16.162,0,0,1-1.672.443A7.882,7.882,0,0,0,439.288,663.331Z"
                        transform="translate(-439.249 -662.299)" fill="#030504" />
                      <path id="Path_2888" data-name="Path 2888"
                        d="M441.268,666.679a.056.056,0,0,1-.027-.036c-.02-.087.132-.149.992-.457l.54-.2c.2-.075.482-.178.754-.287a.8.8,0,0,0,.284-.171.2.2,0,0,0,.048-.089.379.379,0,0,0,0-.133,1.372,1.372,0,0,0-.047-.2l-.547-1.82-.156-.535a.639.639,0,0,0-.165-.307.157.157,0,0,0-.089-.031.581.581,0,0,0-.169.02c-.049.011-.1.028-.157.045l-.126.038c-.065.02-.129.039-.193.056a11,11,0,0,1-1.763.344,4.042,4.042,0,0,1-1.666-.035.056.056,0,0,1-.02-.041c0-.081.131-.108.694-.208.25-.044.561-.1.921-.174a15.947,15.947,0,0,0,1.668-.442c.055-.017.11-.036.165-.055l.133-.045c.059-.02.125-.043.2-.063a1.167,1.167,0,0,1,.349-.046.769.769,0,0,1,.413.137.912.912,0,0,1,.268.3,1.711,1.711,0,0,1,.132.31c.023.07.042.134.06.2l.411,1.428.211.764a1.843,1.843,0,0,1,.055.294.91.91,0,0,1-.032.353.763.763,0,0,1-.194.32,1.3,1.3,0,0,1-.5.281c-.252.082-.5.153-.8.233a7.628,7.628,0,0,1-1.5.268A.318.318,0,0,1,441.268,666.679Zm1.291-4.745c-.069.019-.132.041-.192.061l-.065.022-.068.023c-.056.019-.111.038-.166.055a16.029,16.029,0,0,1-1.676.444c-.361.075-.673.13-.923.174a4.846,4.846,0,0,0-.608.127,5.17,5.17,0,0,0,1.579,0,10.933,10.933,0,0,0,1.751-.342c.064-.017.127-.036.192-.056l.126-.038c.057-.017.11-.034.162-.046a.632.632,0,0,1,.193-.022.232.232,0,0,1,.127.045.686.686,0,0,1,.195.349l.473,1.6.23.75a1.414,1.414,0,0,1,.049.21.446.446,0,0,1,0,.162.281.281,0,0,1-.064.122.856.856,0,0,1-.314.193c-.273.109-.552.213-.756.288l-.541.2a7.723,7.723,0,0,0-.922.362,6.036,6.036,0,0,0,1.555-.263c.3-.079.547-.15.8-.231a1.218,1.218,0,0,0,.47-.263.685.685,0,0,0,.174-.286.834.834,0,0,0,.029-.323,1.778,1.778,0,0,0-.053-.281l-.21-.762-.24-.84-.171-.588c-.018-.062-.037-.125-.059-.195a1.679,1.679,0,0,0-.126-.3.839.839,0,0,0-.245-.28.689.689,0,0,0-.371-.123h-.034A1.122,1.122,0,0,0,442.559,661.934Z"
                        transform="translate(-438.762 -661.812)" fill="#030504" />
                    </g>
                    <g id="Group_1165" data-name="Group 1165" transform="translate(273.331 306.957)">
                      <path id="Path_2889" data-name="Path 2889"
                        d="M298.2,667.244c.012-.079-.461-.2-1.188-.466-.181-.067-.379-.143-.587-.231-.1-.045-.213-.089-.305-.14a.648.648,0,0,1-.211-.16.054.054,0,0,1-.011-.039c0-.01.012-.082.025-.147q.037-.194.085-.395c.063-.267.141-.54.234-.815a7.866,7.866,0,0,1,.31-.784c.057-.122.117-.238.181-.347.032-.055.065-.108.1-.159a1.288,1.288,0,0,1,.094-.131.249.249,0,0,1,.07-.061.234.234,0,0,1,.09-.023.94.94,0,0,1,.283.037c.221.057.444.106.64.14.8.134,1.3.09,1.3.019s-.473-.172-1.213-.395c-.187-.057-.381-.121-.6-.2a1.327,1.327,0,0,0-.422-.082.685.685,0,0,0-.513.22,1.656,1.656,0,0,0-.148.181c-.042.058-.084.118-.123.18a4.183,4.183,0,0,0-.218.386,6.824,6.824,0,0,0-.346.842,7.61,7.61,0,0,0-.239.874c-.03.143-.056.285-.077.424l-.015.107a.839.839,0,0,0-.008.148.555.555,0,0,0,.125.325.837.837,0,0,0,.2.178,1.482,1.482,0,0,0,.2.106,3.536,3.536,0,0,0,.359.133c.226.073.439.131.635.177a5.431,5.431,0,0,0,.941.141C298.066,667.3,298.193,667.281,298.2,667.244Z"
                        transform="translate(-295.344 -662.829)" fill="#030504" />
                      <path id="Path_2890" data-name="Path 2890"
                        d="M297.352,666.841a5.543,5.543,0,0,1-.948-.142c-.213-.05-.428-.109-.638-.178l-.026-.009a3.325,3.325,0,0,1-.336-.126,1.515,1.515,0,0,1-.2-.109.884.884,0,0,1-.211-.186.593.593,0,0,1-.133-.348.881.881,0,0,1,.008-.155l.016-.107c.021-.142.047-.285.077-.426a7.679,7.679,0,0,1,.24-.878,6.881,6.881,0,0,1,.348-.847,4.252,4.252,0,0,1,.22-.389c.038-.059.078-.119.124-.182a1.683,1.683,0,0,1,.151-.185.761.761,0,0,1,.251-.176.752.752,0,0,1,.291-.056,1.36,1.36,0,0,1,.435.084c.225.079.416.142.6.2.242.073.46.133.635.181.486.134.613.172.6.254a.061.061,0,0,1-.025.044,2.84,2.84,0,0,1-1.322-.028c-.194-.033-.416-.082-.643-.141a.883.883,0,0,0-.27-.036.2.2,0,0,0-.074.019.213.213,0,0,0-.059.052,1.247,1.247,0,0,0-.091.127c-.037.056-.069.108-.1.157-.061.1-.122.22-.179.344a7.858,7.858,0,0,0-.309.78c-.09.265-.168.538-.233.812-.031.129-.059.261-.084.393-.014.073-.024.129-.024.141a.019.019,0,0,0,0,.016.629.629,0,0,0,.2.147c.083.045.18.086.275.126l.027.012c.182.077.374.152.585.23.23.084.439.155.607.212.492.167.62.214.607.3h0c0,.027-.013.08-.281.08Zm-.234-.3c-.168-.057-.377-.128-.608-.212-.213-.079-.406-.154-.589-.232l-.027-.012c-.1-.041-.2-.083-.281-.129a.683.683,0,0,1-.226-.174.088.088,0,0,1-.017-.057,1.17,1.17,0,0,1,.025-.157c.026-.133.054-.267.085-.4.066-.276.145-.552.235-.819a7.925,7.925,0,0,1,.312-.788c.059-.126.12-.243.183-.35.029-.05.062-.1.1-.161a1.314,1.314,0,0,1,.1-.135.288.288,0,0,1,.082-.07.273.273,0,0,1,.1-.028.945.945,0,0,1,.3.038c.225.058.445.106.637.139a3.361,3.361,0,0,0,1.245.052,3.449,3.449,0,0,0-.536-.17c-.176-.048-.394-.108-.637-.182-.187-.057-.379-.12-.606-.2a1.287,1.287,0,0,0-.407-.079.675.675,0,0,0-.261.05.694.694,0,0,0-.225.158,1.612,1.612,0,0,0-.144.177c-.045.062-.085.12-.121.178a4.142,4.142,0,0,0-.216.382,6.8,6.8,0,0,0-.344.837,7.589,7.589,0,0,0-.238.869c-.029.139-.055.281-.076.421l-.015.106a.8.8,0,0,0-.008.142.514.514,0,0,0,.116.3.8.8,0,0,0,.193.17,1.435,1.435,0,0,0,.191.1,3.272,3.272,0,0,0,.329.123l.026.009c.208.068.42.127.632.176a5.364,5.364,0,0,0,.934.14,1,1,0,0,0,.3-.015A3.588,3.588,0,0,0,297.118,666.54Z"
                        transform="translate(-294.857 -662.342)" fill="#030504" />
                    </g>
                    <path id="Path_2891" data-name="Path 2891" d="M441.178,695.336"
                      transform="translate(-157.021 -385.938)" fill="none" stroke="#d18187" stroke-width="1" />
                    <path id="Path_2892" data-name="Path 2892"
                      d="M271.62,616.237a7.107,7.107,0,0,1,1.34-2.447,3.414,3.414,0,0,1,.478-.5,1.047,1.047,0,0,1,.682-.215,5.6,5.6,0,0,1,.751.092q.4.061.794.129.684.118,1.363.258a.372.372,0,0,1,.059.006l.072.015.29.06a.173.173,0,0,1,.075.041.2.2,0,0,1-.079.375,1.42,1.42,0,0,0-.865.259.793.793,0,0,0-.319.713.2.2,0,0,1-.239.24,2.062,2.062,0,0,0-1.5.3,1.88,1.88,0,0,0-.3.242,1.668,1.668,0,0,1-.322.287,2.114,2.114,0,0,1-.905.118,2.854,2.854,0,0,0-1.013.285.2.2,0,0,1-.234-.03A.176.176,0,0,1,271.62,616.237Z"
                      transform="translate(0 -309.765)" fill="#74aed5" />
                    <path id="Path_2893" data-name="Path 2893"
                      d="M302.619,614.449a2.235,2.235,0,0,0,.522.108c.323.054.766.138,1.26.227a10.627,10.627,0,0,0,1.8.24,10.66,10.66,0,0,0-1.773-.393c-.493-.088-.944-.156-1.273-.183A1.559,1.559,0,0,0,302.619,614.449Z"
                      transform="translate(-28.714 -311.018)" fill="#090909" stroke="#090909" stroke-width="1" />
                    <path id="Path_2894" data-name="Path 2894"
                      d="M424.463,393.223c-.148-.109-.335-.174-.447-.05s-.024.248.061.348c.14.138.075.3-.074.4a1.511,1.511,0,0,1-1.965-.207c-.269-.24-.212-.618-.141-.967.774-.1,1.61-.591,1.606-1.3-.021-.378-1-.589-1.781-.606-.147,0-.282,0-.409.013l-.036-.034c.643-1.828-.378-4.331-1.791-4.476-.929-.055-2.543,1.7-2.616,3.175a2.25,2.25,0,0,0,.38,1.512,4.575,4.575,0,0,0,3.354,1.184.457.457,0,0,0,.288-.178,1.7,1.7,0,0,0,.538.672c-.007.09-.008.188-.007.289-.03.32-.074.665-.351.779a1.251,1.251,0,0,1-1.6-.469c-.094-.131-.1-.289.04-.358.091-.055.182-.14.133-.269s-.221-.145-.365-.1a.694.694,0,0,0-.165.923,1.523,1.523,0,0,0,2.22.484l.262-.225.009-.027.055.089a1.875,1.875,0,0,0,2.675.469A.768.768,0,0,0,424.463,393.223Zm-3.474-2.33a.429.429,0,0,0-.235.117.618.618,0,0,0-.057.435c-.085.163-.184.294-.341.3-.037,0-.076,0-.115,0h-.051l-.025,0a.365.365,0,0,1-.119-.017,2.015,2.015,0,0,1-.426-.014l-.07-.01-.033,0a.331.331,0,0,1-.186-.037.368.368,0,0,1-.094-.01.4.4,0,0,1-.121-.03h0a2,2,0,0,1-1.568-1.411c-.151-1.455,1.053-3.419,1.891-3.3.992.121,1.619,1.485,1.669,2.637a6.758,6.758,0,0,0,.057,1.211A.241.241,0,0,0,420.989,390.893Zm.429.584-.083-.108a.6.6,0,0,0,.085-.207h.015s1.013-.025.709.175C421.993,391.443,421.6,391.738,421.418,391.477Z"
                      transform="translate(-134.502 -99.807)" fill="#1f1c1a" />
                    <path id="Path_2895" data-name="Path 2895"
                      d="M272.563,621.408a16.72,16.72,0,0,0,1.647-2.771,16.7,16.7,0,0,0-1.647,2.771Z"
                      transform="translate(-0.88 -314.914)" fill="#090909" stroke="#090909" stroke-width="1" />
                    <path id="Path_2896" data-name="Path 2896"
                      d="M302.588,620.846a10.317,10.317,0,0,0,2.191,1.262,10.3,10.3,0,0,0-2.191-1.262Z"
                      transform="translate(-28.685 -316.956)" fill="#090909" stroke="#090909" stroke-width="1" />
                    <path id="Path_2897" data-name="Path 2897"
                      d="M297.089,622.093a8.345,8.345,0,0,0-.256,2.26,8.35,8.35,0,0,0,.256-2.26Z"
                      transform="translate(-23.335 -318.114)" fill="#090909" stroke="#090909" stroke-width="1" />
                    <path id="Path_2898" data-name="Path 2898"
                      d="M296.912,614.253c-.015.016.031.082.1.154s.126.124.143.111-.018-.089-.085-.163S296.927,614.237,296.912,614.253Z"
                      transform="translate(-23.427 -310.851)" fill="#090909" stroke="#090909" stroke-width="1" />
                  </g>
                </svg>