<svg xmlns="http://www.w3.org/2000/svg" width="20.776" height="20.782" viewBox="0 0 20.776 20.782">
  <g id="Card" transform="translate(-2.003 -2)">
    <path id="Path_10" data-name="Path 10" d="M3.039,13.43h0v8.313a1.039,1.039,0,0,0,1.039,1.039H20.7a1.039,1.039,0,0,0,1.039-1.039V13.43h0a1.039,1.039,0,0,0,.925-1.507l-3-6.006V3.039A1.039,1.039,0,0,0,18.625,2H6.156A1.039,1.039,0,0,0,5.117,3.039V5.949l-3,5.975a1.039,1.039,0,0,0,.925,1.507ZM13.43,20.7H11.352V17.586a1.039,1.039,0,0,1,2.078,0Zm6.235,0H15.508V17.586a3.117,3.117,0,0,0-6.235,0V20.7H5.117V13.43H19.664ZM17.586,4.078V5.117H7.2V4.078ZM6.821,7.2H17.96l2.078,4.156H4.722Z" transform="translate(0 0)" fill="#919191"/>
  </g>
</svg>
