    <svg xmlns="http://www.w3.org/2000/svg" width="48.637" height="47.175" viewBox="0 0 38.637 37.175">
                  <g id="Group_1218" data-name="Group 1218" transform="translate(-921.379 -656.141)">
                    <g id="Group_1211" data-name="Group 1211" transform="translate(922.841 656.141)">
                      <path id="Path_3428" data-name="Path 3428"
                        d="M949.546,693.316a18.587,18.587,0,1,1,18.588-18.587A18.609,18.609,0,0,1,949.546,693.316Zm0-35.5a16.908,16.908,0,1,0,16.909,16.908A16.928,16.928,0,0,0,949.546,657.82Z"
                        transform="translate(-930.958 -656.141)" fill="#c60000" />
                    </g>
                    <g id="Group_1212" data-name="Group 1212" transform="translate(923.81 670.491)">
                      <rect id="Rectangle_1998" data-name="Rectangle 1998" width="35.455" height="1.679"
                        transform="translate(0 9.292) rotate(-15.194)" fill="#c60000" />
                    </g>
                    <path id="Path_3429" data-name="Path 3429"
                      d="M1112.087,806.365a15.729,15.729,0,0,1,1.072,3.919,4.2,4.2,0,0,0,1.337,2.631l2.031.75,1.274-.332.584-1.073-.206-.779a3.185,3.185,0,0,1-2.588-2.826c-.287-2.481-1.652-7.547-2.389-7.248Z"
                      transform="translate(-161.6 -123.084)" fill="#c2bebc" />
                    <path id="Path_3430" data-name="Path 3430"
                      d="M1064.8,667.312s1.636-2.166,2.449-1.822.932,1.822.932,1.822Z"
                      transform="translate(-121.534 -7.891)" fill="#fff" />
                    <path id="Path_3431" data-name="Path 3431"
                      d="M1137.522,689.3s1.585-1.138,2.13-.822.569,1.971.569,1.971h-1.35Z"
                      transform="translate(-183.152 -27.352)" fill="#fff" />
                    <path id="Path_3432" data-name="Path 3432"
                      d="M945.842,679.307s.224-7.445,5.044-5.96l.7,3.385,2.942,1.148.842.714,2.831-2.011s2.837-.675,3.061,1.3a4.047,4.047,0,0,1-.435,2.822l-1.67,3.66-.971.843-.627,1.979-2.1,1.418.108,1.161s2.868,11.377-8.842,12.491c0,0-2.41,4.19-4.284,2.946l-.378.05-.527-.478-.269-.727.137-.909-2.906.063-1.768-.239-1.774,1.085-1.573.776-.956-.418-.5-1.075.213-1.115,1.161-.879-1-1.135-.378-1.413-1-.326-2.568-1.692s-3.289-2.222-1.4-5.256,3.136-3.481,3.643-6.339-1.165-2.8-2.658-2.322.237-2.854,1.792-2.418a3.307,3.307,0,0,1,2.538,3,24.089,24.089,0,0,1-1.314,5.52c-.538.921-2.141,3.34-1.862,5.4a2.469,2.469,0,0,0,2.889,2.15l.735-2.419,2.926-3.464,1.374-1.476.083-.542s-1.577.9-2.234.35a2.248,2.248,0,0,1-.339-2.3,22.167,22.167,0,0,1,3.326-1.92l1.643-.922,1.3-1.015.432-.04a.942.942,0,0,1,.21.144c.025.045.275.143.3.176s.146.1.186.152.067.05.111.12.082.055.12.149.038.09.078.192a.623.623,0,0,0,.075.147l.154.184.08.214-.03.578.108.784-2.475,1.146.227.11.08.289-.249,1.264a2.519,2.519,0,0,1,1.953,1.653c.385,1.4-1.777,3.374-1.777,3.374l-1.891,1.849,1.577-.266s3.12-1.045,3.769-1.792,3.887-4.856,3.887-4.856l.487-1.147-1.492-.732-1.808-2.284-.381-2.255.448-1.508Z"
                      transform="translate(-4.234 -14.414)" fill="#c2bebc" />
                    <path id="Path_3433" data-name="Path 3433"
                      d="M1020.528,731.821a18.888,18.888,0,0,0-2.378-.278c.554-.351,1.348.121,2.035.072a.521.521,0,0,1,.556.241Z"
                      transform="translate(-82.001 -63.782)" fill="#fff" />
                    <path id="Path_3434" data-name="Path 3434"
                      d="M1011.634,737.256a.012.012,0,0,1,0,.006l.011.014,0,.006.04.076a.559.559,0,0,1,.032.084l.011.031a.776.776,0,0,1,.029.253.6.6,0,0,1-.029.18l-.014.061-.026.06a1.125,1.125,0,0,1-.081.16l-.043.061a.867.867,0,0,1-.1.127l-.156.162-.093.076a2.091,2.091,0,0,1-.266.2,5.255,5.255,0,0,1-.8.427c-.191-.031-.366-.067-.53-.11-.084-.023-.163-.046-.24-.072a1.975,1.975,0,0,1-1.6-2.013,2.611,2.611,0,0,1,.037-.374q.387-.227.751-.47c.192-.128.35-.24.464-.321a1.752,1.752,0,0,1,.267-.175.991.991,0,0,1,.282-.269,1.108,1.108,0,0,1,.447-.2.524.524,0,0,1,.35.053l.024.014c.02.014.041.027.061.043l.069.075a.224.224,0,0,1,.038.05l0,.009a.062.062,0,0,1,.011.017.046.046,0,0,1,.006.012l.063,0a1.131,1.131,0,0,1,.137.021.909.909,0,0,1,.293.113.6.6,0,0,1,.24.278.624.624,0,0,1,.049.186.315.315,0,0,1,0,.066v.053a.108.108,0,0,1,0,.021.15.15,0,0,1,0,.02.223.223,0,0,1,.034.008l.014,0,.018.008a.288.288,0,0,1,.061.032l.008,0a.463.463,0,0,1,.128.107.513.513,0,0,1,.073.113c.076-.035.153-.067.23-.1s.154-.06.232-.087c.015.105.031.214.046.324-.157.052-.311.11-.461.175a1.027,1.027,0,0,1-.04.186.746.746,0,0,1-.032.089c-.006.014-.011.027-.017.043Z"
                      transform="translate(-73.217 -67.011)" fill="#fff" />
                    <path id="Path_3435" data-name="Path 3435"
                      d="M1027.522,866.965l-.371.684c-.023.04-.044.079-.069.118a3.585,3.585,0,0,1-.234.327,4.4,4.4,0,0,1-1.65,1.212,4.044,4.044,0,0,1-1.566.353,3.245,3.245,0,0,1-.388-.024,1.782,1.782,0,0,1-.957-.426,1.422,1.422,0,0,1-.316-.432l-.1-.217c-.02-.058-.038-.116-.055-.172l-.018-.066a1.2,1.2,0,0,1-.032-.18l-.009-.073c0-.053,0-.1,0-.15l.879-.644.583-.426.478.021h.023l1.145.05a6.194,6.194,0,0,0,1.279-.078l.823-.136.394-.066S1027.435,866.78,1027.522,866.965Z"
                      transform="translate(-85.058 -178.37)" fill="#fff" />
                    <path id="Path_3436" data-name="Path 3436"
                      d="M1066.95,785.811l.977-.672.866-.388h.687l.8.418.679.774.4,1.033.319,1.284-.149,1.06-.269,1.2-.508,1.173-1.224,1.333-1.807,1.26-2.389,1.005-.328.056S1067.583,786.93,1066.95,785.811Z"
                      transform="translate(-121.7 -108.979)" fill="#fff" />
                    <path id="Path_3437" data-name="Path 3437"
                      d="M926.732,720.025l-2.09.308-.832,1.035-.462,1.2,1.095.144,1.195-.233Z"
                      transform="translate(-1.668 -54.133)" fill="#fff" />
                    <path id="Path_3438" data-name="Path 3438"
                      d="M1123.257,861.034a1.9,1.9,0,0,1-.517.676,1.987,1.987,0,0,1-.742.377,2.245,2.245,0,0,1-.4.067c-.041,0-.081,0-.121,0a2.612,2.612,0,0,1-.273-.015,4.988,4.988,0,0,1-.714-.115,4.3,4.3,0,0,1-1.308-.539,3.209,3.209,0,0,1-.978-.954,3.358,3.358,0,0,1-.482-1.187,1.392,1.392,0,0,1-.037-.211c0-.029-.006-.06-.011-.089l-.012-.092c-.008-.069-.017-.137-.023-.2l-.015-.169.488-.108.81.25a2.272,2.272,0,0,0,1.275.02l.733-.2c.066.159.029-.365.108-.238a1.331,1.331,0,0,0,.408.414,2.685,2.685,0,0,0,.449.2c.056.021.116.043.176.067a3.188,3.188,0,0,1,.719.385,1.422,1.422,0,0,1,.563.731A1.336,1.336,0,0,1,1123.257,861.034Z"
                      transform="translate(-166.288 -171.293)" fill="#fff" />
                    <path id="Path_3439" data-name="Path 3439"
                      d="M993.162,839.732a.777.777,0,0,1,.029.253.6.6,0,0,1-.027.18c-.006.02-.011.041-.015.061l-.026.061a1.194,1.194,0,0,1-.081.159l-.043.061a.868.868,0,0,1-.1.127l-.154.162-.095.076a2.087,2.087,0,0,1-.266.2,6.665,6.665,0,0,1-1.276.623l-.717-.047c-.108-.012-.209-.029-.3-.049a1.53,1.53,0,0,1-1.333-2.01,1.791,1.791,0,0,1,.079-.27,1.24,1.24,0,0,1-.023-.137c.415-.227.814-.467,1.191-.72.194-.13.351-.24.466-.322a1.758,1.758,0,0,1,.266-.174.99.99,0,0,1,.282-.269,1.117,1.117,0,0,1,.447-.2.522.522,0,0,1,.349.053l.024.014a.628.628,0,0,1,.061.043l.069.075a.222.222,0,0,1,.038.05l.006.009s.006.012.011.018a.038.038,0,0,0,.006.011.45.45,0,0,1,.063,0,1.139,1.139,0,0,1,.136.021.945.945,0,0,1,.293.113.6.6,0,0,1,.24.278.622.622,0,0,1,.049.186.229.229,0,0,1,0,.064v.055a.094.094,0,0,1,0,.021.16.16,0,0,1,0,.02l.034.008.014,0,.02.008a.574.574,0,0,1,.061.032l.008,0a.477.477,0,0,1,.127.107.505.505,0,0,1,.122.318.835.835,0,0,1-.041.295.787.787,0,0,1-.032.09.433.433,0,0,0-.015.041l-.038.082a.012.012,0,0,1,0,.006.084.084,0,0,1,.011.014l0,.006.04.078a.535.535,0,0,1,.032.082Z"
                      transform="translate(-57.045 -153.663)" fill="#fff" />
                    <g id="Group_1214" data-name="Group 1214" transform="translate(921.379 657.247)">
                      <path id="Path_3440" data-name="Path 3440"
                        d="M1025.706,746.909c.031.107-.086.235-.26.284a.366.366,0,0,1-.33-.038,4.269,4.269,0,0,1,.461-.354A.166.166,0,0,1,1025.706,746.909Z"
                        transform="translate(-1009.283 -734.07)" />
                      <path id="Path_3441" data-name="Path 3441"
                        d="M1033.964,741.045a1.5,1.5,0,0,1-.366-.024c-.031,0-.061-.008-.09-.009-.14-.009-.284-.011-.426-.008l-.114,0a3.471,3.471,0,0,0-.461.082,5.54,5.54,0,0,0-.783.2c-.157.052-.311.11-.461.176s-.272.127-.4.2l-.06.034a1.1,1.1,0,0,0,.066-.147l.006-.014a.562.562,0,0,0,.032-.165.164.164,0,0,0-.009-.064q.158-.085.32-.156c.076-.035.153-.067.23-.1s.154-.06.232-.087a5.257,5.257,0,0,1,1.2-.272c.128-.015.256-.024.385-.029a.987.987,0,0,1,.212.006l.023,0a1.539,1.539,0,0,1,.53.078A.158.158,0,0,1,1033.964,741.045Z"
                        transform="translate(-1014.099 -728.865)" />
                      <path id="Path_3442" data-name="Path 3442"
                        d="M1087.231,801.621c0,.01.052.043.153.106.05.031.112.071.182.119s.183.13.306.23c.019-.081.035-.184.054-.289l.044-.239c.028-.151.067-.389.078-.422l.07.038c.048.024.112.052.169.076l.09.036.046.017.072.025c.1.032.2.058.3.085l-.045-.226c-.008-.038-.016-.076-.025-.116l-.021-.085q-.036-.146-.084-.293t-.105-.3c-.02-.049-.04-.1-.061-.148l-.057-.127-.019-.039-.016-.032,0,0h.03l.034,0a1.261,1.261,0,0,1,.145.034c.03.009.061.019.09.03.01,0,.038.015.063.026a.77.77,0,0,1,.076.036c.1.054.217.129.317.191,0-.01,0-.019,0-.03l-.014-.055-.028-.109c-.017-.072-.04-.142-.061-.211a1.389,1.389,0,0,0-.062-.178c-.019-.042-.035-.086-.056-.126a2.41,2.41,0,0,0-.276-.439,2.535,2.535,0,0,0-.317-.334,2.445,2.445,0,0,0-.319-.232,2.025,2.025,0,0,0-.509-.226c-.126-.033-.2-.04-.2-.031a6.166,6.166,0,0,1,.647.349,2.59,2.59,0,0,1,.29.237,2.564,2.564,0,0,1,.286.327,2.38,2.38,0,0,1,.246.418c.019.038.032.079.049.118a.559.559,0,0,1,.027.074.457.457,0,0,1,.013.049l.005.024,0,.012-.011-.007a.557.557,0,0,0-.062-.035l-.017-.007-.03-.012c-.033-.013-.067-.024-.1-.035a1.457,1.457,0,0,0-.252-.054c-.056-.007-.109-.01-.163-.013l-.081,0-.042,0h-.021l-.013,0,.083.16.042.081.036.074.026.054.017.037.032.071.059.142q.057.142.1.284c.031.095.059.189.084.282l.021.083.012.053a.66.66,0,0,1-.069-.018l-.019-.006-.044-.015-.087-.032c-.059-.023-.109-.043-.17-.071-.085-.039-.171-.086-.251-.127-.052.341-.066.464-.09.639l-.045.357a2.725,2.725,0,0,0-.381-.208C1087.3,801.628,1087.235,801.612,1087.231,801.621Z"
                        transform="translate(-1061.916 -777.781)" />
                      <path id="Path_3443" data-name="Path 3443"
                        d="M1125.932,709.369c.324.1.391.446.244,1.142a16.341,16.341,0,0,1-1.008,3.584,9.81,9.81,0,0,0-1.886-3.753,5.691,5.691,0,0,1,1.233-.711l.049-.018.008,0a2.674,2.674,0,0,1,1.358-.243l-.022-.006Z"
                        transform="translate(-1092.465 -702.328)" />
                      <path id="Path_3444" data-name="Path 3444"
                        d="M1064.5,683.81c-.06.041-.117.084-.172.128h0c-.093-.1-.216-.068-.337-.052a2.585,2.585,0,0,0-.265.041h-.022a4.178,4.178,0,0,0-.459-1.317,3.2,3.2,0,0,0-.619-.79c-.021-.021-.042-.041-.066-.06a.54.54,0,0,0-.4-.146l-.035.006c-.237,0-.471.206-.748.626a13.413,13.413,0,0,0-1.283,2.144c-.1.218-.21.46-.325.732l-.005.011c-.036.08-.059.148-.084.216a7.177,7.177,0,0,1,1.555-.845,5.813,5.813,0,0,1,1.047-.306h0a.045.045,0,0,1,.007-.017,4.173,4.173,0,0,1,.631-.094h0a3.845,3.845,0,0,0,.292.775,1.637,1.637,0,0,0,.239.486.2.2,0,0,0,.363-.042,2.337,2.337,0,0,1,.881-1.151C1064.9,684.012,1064.709,683.666,1064.5,683.81Z"
                        transform="translate(-1038.566 -678.828)" />
                      <path id="Path_3445" data-name="Path 3445"
                        d="M1093.463,698.369c.307.1.642.2.986.307.381.127.775.269,1.162.434h0a1.718,1.718,0,0,0-.213.1,2.09,2.09,0,0,0-.188.116,4.727,4.727,0,0,0-.671.612l-.036.037c-.114.117-.229.233-.352.343-.023.049-.055.064-.092.054l-.009,0a2.513,2.513,0,0,1-.584-2Z"
                        transform="translate(-1067.151 -693.03)" />
                      <path id="Path_3446" data-name="Path 3446"
                        d="M1106.179,704.131a4.189,4.189,0,0,1,1.628,1.217l.005.007c.013.018.026.037.039.056l.022.037c.026.043.05.08.072.11-.1-.039-.189-.07-.274-.1a1.964,1.964,0,0,0-.549-.087,4.054,4.054,0,0,0-.614.071,2.6,2.6,0,0,1-.473.027l-.112-.024h0l-.1-.116c-.007-.013-.014-.026-.021-.041a1.087,1.087,0,0,1-.073-.61.881.881,0,0,1,.047-.169.711.711,0,0,1,.093-.166l.074-.081.01-.009.1-.071.119-.052.006,0Z"
                        transform="translate(-1077.58 -697.912)" />
                      <path id="Path_3447" data-name="Path 3447"
                        d="M1120.4,757.618a18.334,18.334,0,0,1,5.294,1.225c.475.192.932.417,1.4.634.112.052.214-.132.1-.193a13.032,13.032,0,0,0-1.252-.594c-.426-.182-.86-.348-1.3-.5a18.14,18.14,0,0,0-2.659-.694,14.8,14.8,0,0,0-1.556-.2.164.164,0,0,0-.03.326Z"
                        transform="translate(-1089.9 -742.958)" />
                      <path id="Path_3448" data-name="Path 3448"
                        d="M1119.25,763.916a5.1,5.1,0,0,1,1.162.258c.381.134.753.295,1.127.448a19.023,19.023,0,0,1,2.17,1.01,12.375,12.375,0,0,1,1.145.752c.138.1.277-.1.153-.211a9.035,9.035,0,0,0-2.094-1.295c-.372-.179-.75-.345-1.129-.508s-.754-.326-1.14-.466a4.049,4.049,0,0,0-1.366-.3.156.156,0,0,0-.028.31Z"
                        transform="translate(-1088.932 -748.309)" />
                      <path id="Path_3449" data-name="Path 3449"
                        d="M1115.878,768.556a2.529,2.529,0,0,0,.406.21c.125.067.248.14.367.217a5.88,5.88,0,0,1,.7.536,5.275,5.275,0,0,1,1.1,1.347,7.187,7.187,0,0,1,.428.907c.052.132.28.066.24-.074a5.209,5.209,0,0,0-.847-1.661,5.347,5.347,0,0,0-1.339-1.28c-.144-.1-.292-.184-.444-.265a1.643,1.643,0,0,0-.512-.224.159.159,0,0,0-.107.284Z"
                        transform="translate(-1086.14 -752.261)" />
                      <path id="Path_3450" data-name="Path 3450"
                        d="M1013.653,720.2a18.345,18.345,0,0,0-5.15-1.734c-.505-.086-1.012-.133-1.521-.193-.122-.014-.113-.224.013-.219a13,13,0,0,1,1.377.151c.458.068.915.155,1.368.253a18.117,18.117,0,0,1,2.628.8,14.832,14.832,0,0,1,1.431.644.164.164,0,0,1-.146.294Z"
                        transform="translate(-993.843 -709.706)" />
                      <path id="Path_3451" data-name="Path 3451"
                        d="M1014.5,731.438c-.061-.029-.122-.058-.183-.082a4.579,4.579,0,0,0-.681-.243v0c-.086-.023-.171-.044-.259-.064-.325-.07-.655-.122-.983-.174l-.212-.035a18.887,18.887,0,0,0-2.378-.278,12.069,12.069,0,0,0-1.369.04.131.131,0,0,1-.02-.261,9.047,9.047,0,0,1,2.462,0c.411.041.82.1,1.227.159s.814.119,1.216.2c.092.018.183.04.276.061a4.385,4.385,0,0,1,.675.214,2.453,2.453,0,0,1,.368.188A.156.156,0,0,1,1014.5,731.438Z"
                        transform="translate(-995.029 -720.047)" />
                      <path id="Path_3452" data-name="Path 3452"
                        d="M1043.99,675.8a1.275,1.275,0,0,1-.124-.25c-.031,0-.061-.008-.09-.009-.14-.009-.284-.011-.426-.008l-.114,0c.026.081.052.162.079.243.035.105.073.211.116.314a6.887,6.887,0,0,0,2.231,2.445c.121.105.241.211.366.308a2.791,2.791,0,0,0,.626.331l.035.018.049-.078c.078-.119.15-.234.214-.337A5.751,5.751,0,0,1,1043.99,675.8Zm9.781,4.048a3.5,3.5,0,0,1-1.074.087,10.209,10.209,0,0,1-2.317-.118,12.641,12.641,0,0,1-3.01-.841c-.144-.061-.282-.127-.417-.194a5.751,5.751,0,0,1-2.963-2.982,1.275,1.275,0,0,1-.124-.25c-.032-.087-.058-.176-.083-.264-.008-.029-.017-.058-.023-.087a4.968,4.968,0,0,1-.11-.5,4.576,4.576,0,0,0-.681-.243c.014.09.031.179.049.267.035.165.076.33.122.493.031.107.061.212.095.318.026.081.052.162.079.243.035.105.073.211.116.314a6.887,6.887,0,0,0,2.231,2.445c.121.105.241.211.366.308a2.791,2.791,0,0,0,.626.331l.035.018c.159.082.319.16.484.229.037.017.073.031.11.046a12.877,12.877,0,0,0,5.325,1.21c.234,0,.466-.014.7-.037v0a.306.306,0,0,1,.052-.008l.031-.006a.54.54,0,0,1,.131-.011l.014,0c.095-.02.191-.037.289-.047l.076-.015C1053.854,680.3,1053.812,680.058,1053.771,679.843Zm0,0a3.5,3.5,0,0,1-1.074.087,10.209,10.209,0,0,1-2.317-.118,12.641,12.641,0,0,1-3.01-.841c-.144-.061-.282-.127-.417-.194a5.751,5.751,0,0,1-2.963-2.982,1.275,1.275,0,0,1-.124-.25c-.031,0-.061-.008-.09-.009-.14-.009-.284-.011-.426-.008l-.114,0c.026.081.052.162.079.243.035.105.073.211.116.314a6.887,6.887,0,0,0,2.231,2.445c.121.105.241.211.366.308a2.791,2.791,0,0,0,.626.331l.035.018c.159.082.319.16.484.229.037.017.073.031.11.046a12.877,12.877,0,0,0,5.325,1.21c.234,0,.466-.014.7-.037v0a.306.306,0,0,1,.052-.008l.031-.006a.54.54,0,0,1,.131-.011l.014,0c.095-.02.191-.037.289-.047l.076-.015C1053.854,680.3,1053.812,680.058,1053.771,679.843Zm6.189-12.467a.89.89,0,0,0-.5-.517c-1.259-.313-2.9,1.322-5.223,2.932-.081.053-.168.113-.252.174a5.72,5.72,0,0,0-2.3-1.276c-.311-.073-.647-.156-.966-.214l-.037-.116c-.655-2.154-.746-4.484-1.79-4.929v0a.936.936,0,0,0-.673.056,7.886,7.886,0,0,0-3.179,3.359,6.642,6.642,0,0,0-.7,4.094,7.99,7.99,0,0,0-.685.763,4.559,4.559,0,0,0-.6.96l-.008.038s0,0,0,0l-.014.047c-.017.078-.029.157-.038.235l0,.029c-.014.1-.027.2-.038.3v0c-.011.087-.02.172-.026.259a3.814,3.814,0,0,0,.006.53c.008.119.021.237.04.354v0c.014.09.031.179.049.267.035.165.076.33.122.493.031.107.061.212.095.318.026.081.052.162.079.243.035.105.073.211.116.314a6.887,6.887,0,0,0,2.231,2.445c.121.105.241.211.366.308a2.791,2.791,0,0,0,.626.331l.035.018c.159.082.319.16.484.229.037.017.073.031.11.046a12.877,12.877,0,0,0,5.325,1.21c.234,0,.466-.014.7-.037v0a.306.306,0,0,1,.052-.008l.031-.006a.54.54,0,0,1,.131-.011l.014,0c.095-.02.191-.037.289-.047l.076-.015c.122-.027.244-.05.366-.076.053-.011.107-.023.159-.035.224-.053.441-.121.658-.194h0l.209-.073.055-.021c.041-.015.082-.032.122-.05l.021-.009.105-.046c.108-.052.214-.105.319-.157a0,0,0,0,1,0,0c.082-.041.165-.081.249-.119.07-.058.14-.116.209-.177.037-.032.072-.064.107-.1.064-.06.128-.124.194-.183.021-.023.043-.047.063-.07a1.094,1.094,0,0,0,.075-.1,1.72,1.72,0,0,0,.115-.272,4.779,4.779,0,0,0,.128-.519l.059-.3c.027-.14.058-.281.1-.418a3.673,3.673,0,0,0,.011-.557,9.5,9.5,0,0,0,2.627-4.254A9.355,9.355,0,0,0,1059.96,667.376Zm-.23,3.149a12.643,12.643,0,0,1-2.486,6.032c-.2-.6-.623-.563-.569.064a2.322,2.322,0,0,1-.191.969.809.809,0,0,1-.014.1,1,1,0,0,1-.078.221s0,0,0,.008c-.015.035-.034.069-.052.1a1.75,1.75,0,0,1-.081.192,2.276,2.276,0,0,1-.183.319,2.916,2.916,0,0,1-.279.351c-.032.037-.066.07-.1.1a.892.892,0,0,1-.166.163,1.5,1.5,0,0,1-.31.182v0h0c-.052.023-.1.044-.153.064l-.034.012a3.777,3.777,0,0,1-.375.171c-.136.052-.273.1-.411.137l-.027.008-.031.009c-.133.038-.272.075-.414.105a3.5,3.5,0,0,1-1.074.087,10.209,10.209,0,0,1-2.317-.118,12.641,12.641,0,0,1-3.01-.841c-.144-.061-.282-.127-.417-.194a5.751,5.751,0,0,1-2.963-2.982,1.275,1.275,0,0,1-.124-.25c-.032-.087-.058-.176-.083-.264-.008-.029-.017-.058-.023-.087a4.968,4.968,0,0,1-.11-.5c-.014-.081-.024-.162-.033-.244,0-.046-.009-.093-.012-.14a4.178,4.178,0,0,1,0-.691c0-.008,0-.014,0-.021a1.872,1.872,0,0,1,.058-.334c.011-.035.021-.069.035-.1l.008-.069c.311-1.314,1.627-2.5,1.333-2.563a.149.149,0,0,0-.029,0,.585.585,0,0,0-.157.032l-.1.061a9.023,9.023,0,0,1,1.877-5.075,6.471,6.471,0,0,1,1.923-1.592l.116-.034c.572.052,1.021,3.2,1.337,4.48a.916.916,0,0,0-.18.038h0v0a.284.284,0,0,0-.073.029c.218.081.469.162.737.246h0l.172.055a18.455,18.455,0,0,1,2.065.739c.075.034.15.067.223.1a4.046,4.046,0,0,1,1.6,1.244,1.458,1.458,0,0,0,.1.148c.238.327.273.008,0-.427,1.161-.762,4.588-3.807,4.786-2.926A7.3,7.3,0,0,1,1059.729,670.525Zm-5.959,9.318a3.5,3.5,0,0,1-1.074.087,10.209,10.209,0,0,1-2.317-.118,12.641,12.641,0,0,1-3.01-.841c-.144-.061-.282-.127-.417-.194a5.751,5.751,0,0,1-2.963-2.982,1.275,1.275,0,0,1-.124-.25c-.031,0-.061-.008-.09-.009-.14-.009-.284-.011-.426-.008l-.114,0c.026.081.052.162.079.243.035.105.073.211.116.314a6.887,6.887,0,0,0,2.231,2.445c.121.105.241.211.366.308a2.791,2.791,0,0,0,.626.331l.035.018c.159.082.319.16.484.229.037.017.073.031.11.046a12.877,12.877,0,0,0,5.325,1.21c.234,0,.466-.014.7-.037v0a.306.306,0,0,1,.052-.008l.031-.006a.54.54,0,0,1,.131-.011l.014,0c.095-.02.191-.037.289-.047l.076-.015C1053.854,680.3,1053.812,680.058,1053.771,679.843Zm0,0a3.5,3.5,0,0,1-1.074.087,10.209,10.209,0,0,1-2.317-.118,12.641,12.641,0,0,1-3.01-.841c-.144-.061-.282-.127-.417-.194a5.751,5.751,0,0,1-2.963-2.982,1.275,1.275,0,0,1-.124-.25c-.031,0-.061-.008-.09-.009-.14-.009-.284-.011-.426-.008l-.114,0c.026.081.052.162.079.243.035.105.073.211.116.314a6.887,6.887,0,0,0,2.231,2.445c.121.105.241.211.366.308a2.791,2.791,0,0,0,.626.331l.035.018c.159.082.319.16.484.229.037.017.073.031.11.046a12.877,12.877,0,0,0,5.325,1.21c.234,0,.466-.014.7-.037v0a.306.306,0,0,1,.052-.008l.031-.006a.54.54,0,0,1,.131-.011l.014,0c.095-.02.191-.037.289-.047l.076-.015C1053.854,680.3,1053.812,680.058,1053.771,679.843Z"
                        transform="translate(-1024.367 -663.389)" />
                      <g id="Group_1213" data-name="Group 1213" transform="translate(22.113 9.289)">
                        <path id="Path_3453" data-name="Path 3453"
                          d="M1096.632,727.374a1.859,1.859,0,0,0-.216,1.209,1.046,1.046,0,0,0,.834.734,1.457,1.457,0,0,0,1.214-.376,3.14,3.14,0,0,0,.813-1.141.861.861,0,0,1-.466-.3.779.779,0,0,1-.131-.238.458.458,0,0,1-.01-.394.486.486,0,0,1,.667-.178,1.075,1.075,0,0,1,.175.116.8.8,0,0,0-.13-.378.275.275,0,0,0-.081-.082.719.719,0,0,0-.437-.3,1.872,1.872,0,0,0-1.278.212A2.4,2.4,0,0,0,1096.632,727.374Z"
                          transform="translate(-1091.783 -725.736)" />
                        <path id="Path_3454" data-name="Path 3454"
                          d="M1074.039,724.454c-1.049-.693-3.149.45-3.732,2.062l-.044,0c-.081-.078-.169-.157-.272-.238-.548-.427-1.333-.829-1.56-.582-.4.484-.1,1.288.371,1.79-.146.279-.321.569-.638.583a1.334,1.334,0,0,1-1.461-.957c-.047-.153,0-.3.174-.319.115-.02.24-.069.237-.2s-.171-.208-.334-.217a.681.681,0,0,0-.513.8,1.658,1.658,0,0,0,2.094,1.175l.087-.031-.009.024.055.3a1.346,1.346,0,0,0,1.79.911.615.615,0,0,0,.4-.725c-.076-.108-.191-.2-.308-.133s-.092.169-.06.258c.061.128-.035.23-.172.269a1.11,1.11,0,0,1-1.355-.572c-.125-.234.038-.495.2-.731.058-.069.111-.136.157-.2a1.5,1.5,0,0,0,.745-.157.4.4,0,0,0,.1.282,4.038,4.038,0,0,0,2.958,1.067,1.978,1.978,0,0,0,1.107-.823C1074.831,727.038,1074.706,724.935,1074.039,724.454Zm-4.08,2.406-.116.027c-.273.075-.375-.345-.418-.5-.1-.308.582.275.583.276l.009.009A.559.559,0,0,0,1069.959,726.859Zm3.233,1.333a1.769,1.769,0,0,1-1.862.089.348.348,0,0,1-.1-.047.393.393,0,0,1-.07-.046.3.3,0,0,1-.148-.078.273.273,0,0,0-.02-.021l-.053-.034a1.716,1.716,0,0,1-.3-.227.364.364,0,0,1-.092-.055.082.082,0,0,1-.015-.017l-.035-.027-.076-.066c-.105-.09-.1-.235-.067-.394a.543.543,0,0,0,.2-.33.367.367,0,0,0-.095-.212.215.215,0,0,0-.055-.182,6.056,6.056,0,0,0,.716-.8c.038-.043.076-.084.117-.124l0,0c.693-.7,1.793-1.192,2.5-.745a.538.538,0,0,1,.172.174,0,0,0,0,0,0,0A3.194,3.194,0,0,1,1073.192,728.192Z"
                          transform="translate(-1066.256 -724.247)" />
                      </g>
                      <path id="Path_3455" data-name="Path 3455"
                        d="M1066.57,775.859c0,.043,0,.085,0,.128a10.243,10.243,0,0,1-1.134,4.352l-.02.037c-.07.13-.144.256-.221.382a8.022,8.022,0,0,1-1.174,1.482,8.547,8.547,0,0,1-1.754,1.326,10.842,10.842,0,0,1-3.453,1.207,14.223,14.223,0,0,1-1.487.185c-.267.018-.5.027-.707.029q.131-.234.256-.476c.22-.034.47-.076.743-.128.324-.061.681-.137,1.061-.23a11.734,11.734,0,0,0,3.181-1.273,8.223,8.223,0,0,0,1.564-1.232,7.493,7.493,0,0,0,1.255-1.713q.057-.105.11-.211v0c.049-.1.095-.2.139-.295a10.479,10.479,0,0,0,.846-3.492,15.8,15.8,0,0,0,.043-1.6l0-.044c0-.166-.011-.336-.021-.508-.023-.42-.061-.856-.115-1.317-.052-.438-.111-.838-.171-1.2-.044-.259-.087-.5-.128-.714.153-.034.3-.073.444-.115.067.206.139.446.209.717.095.351.188.757.273,1.21a16.258,16.258,0,0,1,.275,2.532v0C1066.587,775.225,1066.585,775.542,1066.57,775.859Z"
                        transform="translate(-1035.975 -754.101)" />
                      <path id="Path_3456" data-name="Path 3456"
                        d="M1010.44,764.4c-.053.134-.108.264-.168.392l-.027.058-.037.079c-.1.223-.215.476-.359.737l-.266.5-.371.618c-.037.061-.075.124-.115.186l-.188.279c-.035.05-.069.1-.1.153-.093.139-.189.282-.3.421a14.418,14.418,0,0,1-2.1,2.315,13.065,13.065,0,0,1-1.288,1,11.555,11.555,0,0,1-1.32.762,9.623,9.623,0,0,1-2.438.826,7.2,7.2,0,0,1-1.352.134c-.056,0-.11,0-.159,0-.087,0-.16-.006-.221-.011-.1-.008-.2-.02-.292-.035a2.2,2.2,0,0,1,.258-.267c.038-.034.078-.07.122-.108a12.391,12.391,0,0,0,1.38-.3c.038-.009.076-.021.116-.032a11.262,11.262,0,0,0,2.222-.916,12.916,12.916,0,0,0,1.209-.746,14.02,14.02,0,0,0,1.2-.948,19.891,19.891,0,0,0,3.46-4.153c.125-.183.232-.357.336-.525.043-.069.082-.134.124-.2l.049-.078c.078-.119.15-.234.214-.337C1010.157,764.278,1010.3,764.344,1010.44,764.4Z"
                        transform="translate(-987.438 -748.822)" />
                      <path id="Path_3457" data-name="Path 3457"
                        d="M1004.151,773.791a3.633,3.633,0,0,1-.505,1.186,8.222,8.222,0,0,1-1.565,1.722,14.442,14.442,0,0,1-1.3.963c-.067.044-.133.087-.2.128-.237.148-.43.266-.6.365s-.319.166-.444.224a.367.367,0,0,1-.035.017,1.251,1.251,0,0,1-.433.148.092.092,0,0,1-.087-.04c-.023-.037-.021-.084.043-.171a2.211,2.211,0,0,1,.258-.267c.038-.034.078-.07.122-.108.082-.073.176-.151.279-.237l.046-.038c.143-.124.3-.261.482-.406.441-.365.89-.757,1.337-1.171a9.323,9.323,0,0,0,1.374-1.586,3.094,3.094,0,0,0,.406-.905,1.5,1.5,0,0,0-.027-.824,1.8,1.8,0,0,0-.423-.664,3.4,3.4,0,0,0-.589-.482,6.531,6.531,0,0,0-.568-.334c-.119-.064-.23-.119-.331-.169l-.073-.037c.061-.111.124-.241.186-.383a3.82,3.82,0,0,1,.476.121,4.526,4.526,0,0,1,.624.252,3.421,3.421,0,0,1,.774.505,2.4,2.4,0,0,1,.669.913A2.243,2.243,0,0,1,1004.151,773.791Z"
                        transform="translate(-987.126 -754.339)" />
                      <path id="Path_3458" data-name="Path 3458"
                        d="M1012.432,761.487c-.018.052-.04.1-.061.153a2.833,2.833,0,0,1-.258.469,2.152,2.152,0,0,1-.362.412.883.883,0,0,1-.444.249.052.052,0,0,1-.015,0,.059.059,0,0,1-.049-.027c-.038-.055.021-.143.142-.319.029-.043.061-.089.095-.14a4.172,4.172,0,0,0,.229-.379c.061-.111.124-.241.186-.383.026-.064.052-.13.078-.2a5.219,5.219,0,0,0,.223-.862c.014-.085.026-.165.038-.238.018-.115.032-.209.049-.281l.215-.078.015.043.008.023a1.363,1.363,0,0,1,.069.345c0,.011,0,.024,0,.038A2.75,2.75,0,0,1,1012.432,761.487Z"
                        transform="translate(-997.517 -745.136)" />
                      <path id="Path_3459" data-name="Path 3459"
                        d="M966.413,771.018a2.07,2.07,0,0,1-.174.484,8.635,8.635,0,0,1-1,1.514,24.964,24.964,0,0,1-1.78,1.983,9.166,9.166,0,0,0-.962,1.142,7.95,7.95,0,0,0-1.276,3.108c-.021.124-.041.246-.056.369a7.723,7.723,0,0,0-.064.917,6.978,6.978,0,0,0,.047.9c.017.143.038.285.064.424a5.037,5.037,0,0,0,.334,1.117,3.175,3.175,0,0,0,.485.8,1.846,1.846,0,0,0,.153.157,2.088,2.088,0,0,0,.369.275c-.13.072-.252.143-.365.215a2.069,2.069,0,0,1-.392-.258c-.029-.023-.056-.047-.086-.073a3.323,3.323,0,0,1-.655-.872,5.45,5.45,0,0,1-.533-1.6c-.027-.154-.049-.311-.066-.47-.023-.2-.035-.4-.04-.606a7.341,7.341,0,0,1,.038-.951c.012-.133.029-.266.049-.4a8.077,8.077,0,0,1,1.4-3.466,8.8,8.8,0,0,1,1.07-1.213c.725-.688,1.345-1.311,1.845-1.85a15.889,15.889,0,0,0,1.126-1.334c.121-.163.2-.3.259-.386.079-.127.1-.165.15-.162a.06.06,0,0,1,.043.023C966.441,770.855,966.422,770.971,966.413,771.018Z"
                        transform="translate(-954.455 -754.388)" />
                      <path id="Path_3460" data-name="Path 3460"
                        d="M1030.555,788.96c0,.1,0,.243-.009.438,0,.124-.011.269-.02.44-.044.821-.156,1.891-.314,3.008l-.165.991c-.037.229-.084.456-.136.7-.024.122-.05.244-.076.371-.049.243-.108.485-.172.742-.032.13-.066.263-.1.4l-.285,1-.063.194c-.16.508-.337,1-.53,1.481-.049.122-.1.243-.15.362q-.14.33-.292.649c-.055.116-.111.232-.168.346-.1.194-.194.386-.293.575-.06.113-.119.226-.18.336l-.084.156-.371.684c-.023.04-.044.079-.069.118a3.585,3.585,0,0,1-.234.327,4.4,4.4,0,0,1-1.65,1.212,4.044,4.044,0,0,1-1.566.353,3.245,3.245,0,0,1-.388-.024,1.783,1.783,0,0,1-.957-.426,1.421,1.421,0,0,1-.316-.432l-.1-.217c-.02-.058-.038-.116-.055-.172l-.018-.066a1.2,1.2,0,0,1-.032-.18l-.009-.073c0-.053,0-.1,0-.15s.006-.085.011-.125a1.052,1.052,0,0,1,.154-.394,1.009,1.009,0,0,1,.081-.113,1.331,1.331,0,0,1,.412-.305,1.552,1.552,0,0,1,.221-.089l.031-.009c.027-.008.055-.015.082-.021a.5.5,0,0,1,.087-.02l.128-.055.133-.079.006,0a2.332,2.332,0,0,0,.256-.206,3.447,3.447,0,0,0,.438-.511,7.246,7.246,0,0,0,.643-1.125,17.7,17.7,0,0,0,.778-2.009c.156-.485.276-.89.365-1.186.18-.607.2-.664.261-.652l.017,0,.012.017a7.181,7.181,0,0,1-.323,1.913,15.054,15.054,0,0,1-.7,2.1,7.394,7.394,0,0,1-.647,1.224,3.691,3.691,0,0,1-.276.369c-.067.079-.136.154-.211.229l0,0a2.357,2.357,0,0,1-.226.2c-.029.023-.06.047-.093.072l-.186.116-.229.1-.089.018-.015,0a.393.393,0,0,0-.05.015l-.027.009a1,1,0,0,0-.147.061.788.788,0,0,0-.232.176.522.522,0,0,0-.1.235,1.368,1.368,0,0,0,0,.145.478.478,0,0,1,.011.063.654.654,0,0,0,.018.093c.008.024.017.049.024.075s.02.063.032.095l.079.169a.8.8,0,0,0,.194.259,1.17,1.17,0,0,0,.644.269,3.253,3.253,0,0,0,1.632-.3,3.859,3.859,0,0,0,1.419-1.043,3.032,3.032,0,0,0,.189-.263l.079-.139.325-.6.1-.188a.066.066,0,0,0,.008-.015q.131-.233.256-.476.19-.362.371-.733c.038-.078.075-.157.111-.237l.133-.29c.264-.6.508-1.227.727-1.883l.1-.295.262-.865c.035-.14.073-.279.111-.417.064-.24.127-.466.179-.693.029-.134.061-.267.093-.4.053-.224.1-.437.145-.649l.2-.974c.217-1.2.362-2.178.469-2.889.012-.079.023-.153.034-.221.031-.209.057-.372.078-.5a0,0,0,0,1,0,0Z"
                        transform="translate(-1006.437 -769.794)" />
                      <path id="Path_3461" data-name="Path 3461"
                        d="M990.567,866.92a2.2,2.2,0,0,0,.5.255,3.772,3.772,0,0,0,.362.116,7.913,7.913,0,0,0,2.154.256c.176,0,.353,0,.533-.012.487-.024.951-.075,1.378-.136a12.479,12.479,0,0,0,1.571-.33l.438-.429c-.18,0-.449.028-.833.067l-.226.023c-.65.067-1.461.15-2.357.2a14.794,14.794,0,0,1-2.482-.067l-.082-.011c-.266-.032-.485-.075-.656-.11Z"
                        transform="translate(-980.007 -835.618)" />
                      <path id="Path_3462" data-name="Path 3462"
                        d="M1116.927,805.142a1.9,1.9,0,0,1-.517.676,1.987,1.987,0,0,1-.742.377,2.245,2.245,0,0,1-.4.067c-.041,0-.081,0-.121,0a2.612,2.612,0,0,1-.273-.015,4.988,4.988,0,0,1-.714-.115,4.3,4.3,0,0,1-1.308-.539,3.209,3.209,0,0,1-.978-.954,3.358,3.358,0,0,1-.482-1.187,1.392,1.392,0,0,1-.037-.211c0-.029-.006-.06-.011-.089l-.012-.092c-.008-.069-.017-.137-.023-.2l-.015-.169-.035-.365c-.043-.325-.09-.672-.154-.992a14.26,14.26,0,0,0-.548-2.033q-.153-.447-.337-.879c-.023-.053-.044-.105-.066-.154v0c.049-.1.095-.2.139-.295.059.1.121.211.183.328.092.174.2.38.3.62a12.7,12.7,0,0,1,.771,2.32c.081.343.143.71.194,1.024l.04.319.029.232c.008.056.015.111.024.165,0,.032.011.066.015.1s.008.055.012.084a1.032,1.032,0,0,0,.035.174,2.862,2.862,0,0,0,.429,1,2.718,2.718,0,0,0,.826.775,3.706,3.706,0,0,0,1.139.449,4.444,4.444,0,0,0,.635.1,2.081,2.081,0,0,0,.3.008,1.611,1.611,0,0,0,.285-.05,1.309,1.309,0,0,0,.862-.725.714.714,0,0,0,.061-.5.817.817,0,0,0-.336-.412,2.587,2.587,0,0,0-.588-.313c-.055-.023-.111-.044-.169-.066a3.239,3.239,0,0,1-.548-.25,1.979,1.979,0,0,1-.6-.6,3.848,3.848,0,0,1-.305-.626l-.027-.073-.118-.348-.095-.346c-.043-.15-.075-.3-.105-.446-.017-.079-.034-.159-.052-.237-.063-.324-.118-.643-.169-.951-.021-.122-.041-.243-.063-.362a28.492,28.492,0,0,0-1.119-4.394c-.069-.194-.139-.379-.211-.556a8.849,8.849,0,0,0-.755-1.525v-.044l-.021-.508a5.382,5.382,0,0,1,.788,1.119v0a12.269,12.269,0,0,1,.626,1.352,25.737,25.737,0,0,1,1.253,4.451c.028.143.055.285.081.429.052.284.107.577.166.867.02.076.037.154.053.234.031.137.063.279.1.415l.09.325.11.314c.02.052.04.1.061.151a2.891,2.891,0,0,0,.218.429,1.331,1.331,0,0,0,.408.414,2.685,2.685,0,0,0,.449.2c.056.021.116.043.176.067a3.188,3.188,0,0,1,.719.385,1.422,1.422,0,0,1,.563.731A1.336,1.336,0,0,1,1116.927,805.142Z"
                        transform="translate(-1081.337 -772.649)" />
                      <path id="Path_3463" data-name="Path 3463"
                        d="M928.349,721.587c0,.041,0,.079,0,.119,0,.073,0,.151-.009.224l-.032.325c-.012.157-.037.314-.06.466-.009.06-.018.119-.028.177a17.887,17.887,0,0,1-1.5,4.579c-.3.638-.638,1.285-1.006,1.926-.032.058-.067.116-.1.175-.053.092-.107.182-.151.264a2.184,2.184,0,0,0-.105.206,1.912,1.912,0,0,0-.092.212,3.37,3.37,0,0,0-.215.867,3.224,3.224,0,0,0,.234,1.632,3.728,3.728,0,0,0,.176.35l.1.151c.02.026.044.053.067.081s.032.038.046.056a2.037,2.037,0,0,0,.549.423,3.5,3.5,0,0,0,1.207.366c.017,0,.034.006.05.008a6.333,6.333,0,0,0,.665.049c-.021.124-.041.246-.056.369a6.113,6.113,0,0,1-.652-.023c-.018,0-.038,0-.057-.006a4.556,4.556,0,0,1-.636-.1,3.316,3.316,0,0,1-.73-.259,2.53,2.53,0,0,1-.691-.5l-.047-.053c-.034-.038-.069-.076-.1-.117l-.131-.186a4.229,4.229,0,0,1-.215-.4,3.714,3.714,0,0,1-.321-1.887,3.96,3.96,0,0,1,.229-1.015c.035-.1.067-.176.1-.249a2.387,2.387,0,0,1,.119-.243c.052-.1.1-.192.156-.282.031-.057.063-.111.093-.169.35-.638.67-1.276.951-1.9a17.186,17.186,0,0,0,1.392-4.423c.008-.058.017-.118.024-.177.02-.139.041-.284.05-.427l.027-.308c0-.064.006-.127.006-.188,0-.037,0-.073,0-.11a3.557,3.557,0,0,0-.182-1.16,2.9,2.9,0,0,0-1.563-1.714,3.273,3.273,0,0,0-2.422-.148,2.385,2.385,0,0,0-.543.276,2.077,2.077,0,0,0-.427.411,1.84,1.84,0,0,0-.272.527,1.47,1.47,0,0,0-.061.211c-.009.035-.017.07-.026.1l0,.023c-.017.095-.035.191-.041.276a.339.339,0,0,0,0,.078c0,.018,0,.035,0,.055a.054.054,0,0,0,0,.015.08.08,0,0,1,0,.027l0,.014,0,0,0,.006.034,0,.049,0a.634.634,0,0,0,.089-.011l.043-.008c.1-.021.2-.049.3-.081.163-.052.327-.11.5-.171.276-.1.562-.2.861-.279a3.414,3.414,0,0,1,.772-.124,1.7,1.7,0,0,1,.856.179l.038.023c.053.034.107.067.157.1l.026.023c.05.043.1.087.143.13s.058.067.086.1a1.521,1.521,0,0,1,.166.209l.108.159a1.315,1.315,0,0,1,.066.119l.029.056c.011.02.02.038.031.056.02.041.041.079.058.122l.066.183a3.418,3.418,0,0,1,.133,1.491c-.011.058-.02.113-.027.166a3.756,3.756,0,0,1-.113.536l-.092.333-.235.644-.279.61c-.029.066-.064.13-.1.191-.018.035-.037.069-.055.1-.037.067-.072.134-.107.2-.066.124-.134.252-.208.374l-.334.546c-.076.134-.165.261-.249.385l-.1.145-.35.514-.73.974-.742.922h0l-.02.023-.1.171c-.026.047-.052.1-.076.145l-.046.087a3.563,3.563,0,0,0-.182.475,2.727,2.727,0,0,0,.125,1.9,4.862,4.862,0,0,0,1.079,1.517,9.266,9.266,0,0,0,1.358,1.1,13.751,13.751,0,0,0,1.357.807c.284.148.572.287.862.417.229.1.459.2.69.289.017.143.038.285.064.424-.229-.073-.459-.154-.688-.243-.377-.143-.755-.307-1.129-.485a13.427,13.427,0,0,1-1.43-.791,9.584,9.584,0,0,1-1.464-1.131,5.352,5.352,0,0,1-1.236-1.671,3.313,3.313,0,0,1-.186-2.3,3.819,3.819,0,0,1,.209-.572l.044-.09c.031-.061.061-.124.095-.185l.116-.2a.441.441,0,0,1,.041-.056l.74-.945.7-.962.336-.5.1-.145c.079-.119.162-.241.234-.368l.319-.533c.067-.113.128-.232.188-.346l.105-.2.053-.1c.031-.058.063-.116.089-.177l.256-.574.212-.591.079-.3a2.812,2.812,0,0,0,.09-.44l.027-.168a2.736,2.736,0,0,0-.1-1.172l-.05-.139c-.011-.024-.024-.05-.038-.076a.535.535,0,0,1-.026-.05c-.009-.014-.017-.031-.026-.047s-.026-.052-.041-.078l-.085-.121a.854.854,0,0,0-.115-.145c-.026-.027-.05-.056-.075-.086l-.087-.078-.095-.06a1.6,1.6,0,0,0-1.1.011c-.256.069-.511.159-.781.255-.177.064-.359.128-.546.189a3.853,3.853,0,0,1-.385.1l-.049.009a1.435,1.435,0,0,1-.179.021h-.029a.946.946,0,0,1-.095,0c-.052,0-.1-.011-.148-.018a1,1,0,0,1-.168-.053.653.653,0,0,1-.124-.072l-.027-.02a.758.758,0,0,1-.211-.292.685.685,0,0,1-.044-.15l-.006-.035a.647.647,0,0,1-.014-.1c0-.021,0-.044,0-.067a1.015,1.015,0,0,1,0-.168,2.894,2.894,0,0,1,.055-.379l0-.027c.012-.04.02-.076.029-.113a2.126,2.126,0,0,1,.079-.272,2.54,2.54,0,0,1,.382-.736,2.781,2.781,0,0,1,.594-.569,3.083,3.083,0,0,1,.716-.365,3.992,3.992,0,0,1,2.973.183,3.62,3.62,0,0,1,1.925,2.141A4.247,4.247,0,0,1,928.349,721.587Z"
                        transform="translate(-921.379 -709.383)" />
                      <path id="Path_3464" data-name="Path 3464"
                        d="M985.379,737.173c.006-.015.011-.029.017-.043a.757.757,0,0,0,.032-.089,1.022,1.022,0,0,0,.04-.186.64.64,0,0,0,0-.108.5.5,0,0,0-.049-.2.515.515,0,0,0-.073-.113.462.462,0,0,0-.128-.107l-.008,0a.29.29,0,0,0-.061-.032l-.018-.008-.014,0a.224.224,0,0,0-.034-.008.159.159,0,0,0,0-.02.108.108,0,0,0,0-.021v-.053a.315.315,0,0,0,0-.066.62.62,0,0,0-.049-.186.6.6,0,0,0-.24-.278.909.909,0,0,0-.293-.113,1.129,1.129,0,0,0-.137-.021l-.063,0a.046.046,0,0,0-.006-.012.062.062,0,0,0-.011-.017l0-.009a.225.225,0,0,0-.038-.05l-.069-.075c-.02-.015-.041-.029-.061-.043l-.024-.014a.524.524,0,0,0-.35-.053,1.107,1.107,0,0,0-.447.2.989.989,0,0,0-.282.269,1.747,1.747,0,0,0-.267.175c-.114.081-.272.192-.464.321q-.364.243-.751.47-.634.373-1.325.7l-.258.119-.464.2c-.238.1-.519.221-.8.365a7.109,7.109,0,0,0-.823.488,4.926,4.926,0,0,0-.4.313c-.061.055-.124.113-.2.186s-.124.137-.18.214a1.768,1.768,0,0,0-.325,1.117,1.747,1.747,0,0,0,.481,1.123,1.678,1.678,0,0,0,1.168.492h.009a1.58,1.58,0,0,0,.65-.145,2.146,2.146,0,0,0,.281-.153l.134-.082.691-.424,1.175-.72c.1-.061.2-.124.3-.186.185-.114.359-.223.53-.32a5.621,5.621,0,0,1,.8-.372l.026-.011c.121-.043.246-.089.372-.137.157-.061.319-.125.479-.2a5.252,5.252,0,0,0,.8-.427,2.087,2.087,0,0,0,.266-.2l.093-.076.156-.162a.858.858,0,0,0,.1-.127l.043-.061a1.125,1.125,0,0,0,.081-.16l.026-.06.014-.061a.6.6,0,0,0,.029-.18.777.777,0,0,0-.029-.253l-.011-.031a.559.559,0,0,0-.032-.084l-.04-.076,0-.006-.011-.014a.012.012,0,0,0,0-.006Zm-.319.6a1.268,1.268,0,0,1-.629.679,6.216,6.216,0,0,1-1.146.534l-.194.07-.021.008-.217.075a6.075,6.075,0,0,0-.9.4c-.2.11-.386.224-.569.337-.093.056-.188.115-.285.172l-1.757,1.07c-.053.031-.108.066-.162.1a2.769,2.769,0,0,1-.311.179,1.134,1.134,0,0,1-.455.1.972.972,0,0,1-.229-.023,1.82,1.82,0,0,1-.224-.069,1.255,1.255,0,0,1-.379-.25,1.274,1.274,0,0,1-.354-.813,1.306,1.306,0,0,1,.229-.829c.035-.047.072-.092.111-.139l.024-.029c.058-.061.111-.113.165-.162a4.558,4.558,0,0,1,.357-.29,6.851,6.851,0,0,1,.76-.476c.258-.14.521-.264.763-.375l.375-.174.351-.177c.435-.227.812-.447,1.128-.652a10.439,10.439,0,0,0,.922-.661,3.153,3.153,0,0,0,.643-.626.548.548,0,0,0,.114-.06c.052-.029.122-.07.211-.116a1.037,1.037,0,0,1,.386-.125.3.3,0,0,1,.194.043.261.261,0,0,0,.021.017.112.112,0,0,1,.018.014l.044.055a.481.481,0,0,1,.026.05l.011.023.018.035a.465.465,0,0,0,.035.067l.009.015h.015c.046,0,.111,0,.166.011a.689.689,0,0,1,.11.024.645.645,0,0,1,.194.086.3.3,0,0,1,.115.148.294.294,0,0,1,.017.087l0,.012a.082.082,0,0,1,0,.027.14.14,0,0,0,0,.026.656.656,0,0,1-.015.1l0,.009,0,.009c0,.014.011.031.015.046a.478.478,0,0,0,.038.1l.009.009a.776.776,0,0,1,.111.1l.006.006.024.006.024.008a.2.2,0,0,1,.031.014.2.2,0,0,1,.018.009l.008.006a.142.142,0,0,1,.041.038.251.251,0,0,1,.024.044.163.163,0,0,1,.009.064.564.564,0,0,1-.032.165l-.006.014a1.085,1.085,0,0,1-.066.146v0c-.012.021-.024.044-.04.07l0,.008v.05a.448.448,0,0,0,0,.09,1.086,1.086,0,0,1,.029.121l0,.011A.414.414,0,0,1,985.06,737.77Z"
                        transform="translate(-968.304 -724.259)" />
                      <path id="Path_3465" data-name="Path 3465"
                        d="M1019.957,739.264c.147-.106.214-.265.15-.355s-.237-.078-.384.027-.214.265-.15.355S1019.809,739.37,1019.957,739.264Z"
                        transform="translate(-1004.564 -727.331)" />
                      <path id="Path_3466" data-name="Path 3466"
                        d="M1023.8,742.084c.148-.106.215-.265.15-.355s-.237-.078-.384.027-.214.265-.15.355S1023.655,742.19,1023.8,742.084Z"
                        transform="translate(-1007.823 -729.72)" />
                      <path id="Path_3467" data-name="Path 3467"
                        d="M1025.182,747.114a.366.366,0,0,1-.33-.038.141.141,0,0,1-.043-.064c-.031-.107.085-.235.261-.284a.441.441,0,0,1,.243-.006.166.166,0,0,1,.128.108C1025.472,746.937,1025.356,747.066,1025.182,747.114Z"
                        transform="translate(-1009.019 -733.991)" />
                      <path id="Path_3468" data-name="Path 3468"
                        d="M1024.073,751.924c-.181,0-.328.09-.328.2s.147.2.328.2.329-.09.329-.2S1024.254,751.924,1024.073,751.924Z"
                        transform="translate(-1008.12 -738.411)" />
                      <path id="Path_3469" data-name="Path 3469"
                        d="M969.737,839.7a.555.555,0,0,0-.032-.082l-.04-.078,0-.006a.084.084,0,0,0-.011-.014.012.012,0,0,0,0-.006l.038-.082c0-.014.009-.027.015-.041a.787.787,0,0,0,.032-.09.835.835,0,0,0,.041-.295.505.505,0,0,0-.122-.318.477.477,0,0,0-.127-.107l-.008,0a.593.593,0,0,0-.061-.032l-.02-.008-.014,0-.034-.008a.16.16,0,0,0,0-.02.094.094,0,0,0,0-.021v-.055a.229.229,0,0,0,0-.064.622.622,0,0,0-.049-.186.6.6,0,0,0-.24-.278.946.946,0,0,0-.293-.113,1.138,1.138,0,0,0-.136-.021.449.449,0,0,0-.063,0,.038.038,0,0,1-.006-.011c0-.006-.008-.014-.011-.018l-.006-.009a.222.222,0,0,0-.038-.05l-.069-.075a.629.629,0,0,0-.061-.043l-.024-.014a.522.522,0,0,0-.35-.053,1.117,1.117,0,0,0-.447.2.989.989,0,0,0-.282.269,1.752,1.752,0,0,0-.266.174c-.115.082-.272.192-.466.322-.377.253-.775.493-1.191.72-.287.156-.583.307-.885.449l-.35.162-.372.159c-.237.1-.517.22-.8.365-.09.046-.176.092-.258.139-.137.076-.266.153-.388.232-.06.038-.119.078-.175.117a4.706,4.706,0,0,0-.4.313c-.063.055-.127.116-.2.186a2.677,2.677,0,0,0-.179.214,1.769,1.769,0,0,0,.154,2.242,1.683,1.683,0,0,0,1.168.49h.009a1.616,1.616,0,0,0,.652-.143,2.349,2.349,0,0,0,.279-.153l2-1.229c.1-.061.2-.124.3-.186l.108-.066c.145-.092.285-.177.423-.255.038-.021.076-.041.114-.061a5.534,5.534,0,0,1,.713-.32c.122-.044.249-.092.377-.14a6.665,6.665,0,0,0,1.276-.623,2.087,2.087,0,0,0,.266-.2l.095-.076.154-.162a.869.869,0,0,0,.1-.127l.043-.061a1.194,1.194,0,0,0,.081-.159l.026-.061c0-.02.009-.041.015-.061a.6.6,0,0,0,.027-.18.777.777,0,0,0-.029-.253Zm-.35-.514,0,.014a1.485,1.485,0,0,1-.107.218l0,.008v.008a.4.4,0,0,1,0,.043.356.356,0,0,0,0,.09c.009.034.018.073.027.121l0,.011a.415.415,0,0,1,.064.331,1.262,1.262,0,0,1-.629.679,7.564,7.564,0,0,1-1.577.687,4.913,4.913,0,0,0-.488.2c-.139.061-.276.13-.412.2s-.267.154-.4.232l-.174.105-.125.076-.16.1-1.757,1.07-.16.1a2.93,2.93,0,0,1-.313.179,1.134,1.134,0,0,1-.455.1.97.97,0,0,1-.229-.021,2.127,2.127,0,0,1-.224-.07,1.255,1.255,0,0,1-.379-.25,1.282,1.282,0,0,1-.354-.813,1.316,1.316,0,0,1,.229-.829c.035-.047.072-.092.111-.139l.024-.029c.058-.061.113-.113.166-.162a4.224,4.224,0,0,1,.356-.29c.1-.072.2-.143.314-.215s.235-.143.365-.215l.082-.046c.261-.142.52-.264.763-.374l.374-.176.353-.177c.241-.125.462-.249.667-.368a11.346,11.346,0,0,0,1.381-.945,3.153,3.153,0,0,0,.643-.626.59.59,0,0,0,.116-.06c.05-.029.121-.07.209-.116a1.037,1.037,0,0,1,.386-.125.3.3,0,0,1,.194.043c.006.006.014.011.021.017l.02.014.043.055a.442.442,0,0,1,.027.05l.011.023c.006.011.011.023.017.035s.023.047.035.069l.009.014h.017c.044,0,.11,0,.165.011a.8.8,0,0,1,.11.024.668.668,0,0,1,.194.086.3.3,0,0,1,.114.148.294.294,0,0,1,.017.087l0,.012a.2.2,0,0,1,0,.028.134.134,0,0,0,0,.026.654.654,0,0,1-.015.1l0,.009,0,.009a.42.42,0,0,1,.015.046.474.474,0,0,0,.04.1l.009.011a.807.807,0,0,1,.11.1l.006.006.024.006.024.008.031.014a.057.057,0,0,1,.018.011l.008,0a.123.123,0,0,1,.041.038.162.162,0,0,1,.034.108A.479.479,0,0,1,969.387,839.187Z"
                        transform="translate(-955.009 -810.91)" />
                      <path id="Path_3470" data-name="Path 3470"
                        d="M1004.269,841.525c.147-.106.214-.265.15-.355s-.237-.078-.384.027-.214.265-.15.355S1004.121,841.631,1004.269,841.525Z"
                        transform="translate(-991.27 -813.983)" />
                      <path id="Path_3471" data-name="Path 3471"
                        d="M1008.115,844.345c.147-.106.214-.265.15-.355s-.237-.078-.384.027-.214.265-.15.355S1007.967,844.451,1008.115,844.345Z"
                        transform="translate(-994.529 -816.373)" />
                      <path id="Path_3472" data-name="Path 3472"
                        d="M1009.126,849.269c.031.107.2.153.371.1s.291-.178.26-.285-.2-.153-.371-.1S1009.095,849.162,1009.126,849.269Z"
                        transform="translate(-995.728 -820.639)" />
                      <path id="Path_3473" data-name="Path 3473"
                        d="M1008.385,854.185c-.182,0-.328.09-.328.2s.147.2.328.2.328-.09.328-.2S1008.566,854.185,1008.385,854.185Z"
                        transform="translate(-994.826 -825.063)" />
                      <path id="Path_3474" data-name="Path 3474" d="M1062.812,714.983s-.961,3.2,3.16,2.1"
                        transform="translate(-1041.142 -707.108)" fill="none" stroke="#000" stroke-width="0.5" />
                      <path id="Path_3475" data-name="Path 3475"
                        d="M1061.457,794.277c.224-.043.464-.092.72-.154a12.014,12.014,0,0,0,1.3-.4,9.773,9.773,0,0,0,3-1.706,7.273,7.273,0,0,0,1.369-1.546,6.414,6.414,0,0,0,.884-2.044,5.183,5.183,0,0,0-.7-4.178,3.382,3.382,0,0,0-.688-.722,2.087,2.087,0,0,0-.888-.394,2.011,2.011,0,0,0-.9.056,2.985,2.985,0,0,0-.736.331,4.75,4.75,0,0,0-.63.478c-.076.067-.146.133-.209.2a0,0,0,0,0,0,0c-.072.069-.134.134-.189.192a7.607,7.607,0,0,0-.633.775,2.53,2.53,0,0,0-.429.756l0,.015.011.008c.04.026.07-.014.273-.258.082-.1.189-.229.319-.38.165-.188.345-.391.566-.606.032-.034.067-.066.1-.1.052-.049.111-.1.177-.162a5.009,5.009,0,0,1,.824-.6,2.012,2.012,0,0,1,1.378-.293,1.677,1.677,0,0,1,.7.334,2.975,2.975,0,0,1,.583.636,4.865,4.865,0,0,1,.592,3.8,6.055,6.055,0,0,1-.811,1.894,7,7,0,0,1-1.265,1.465,10.029,10.029,0,0,1-2.834,1.709c-.366.147-.71.269-1.024.372-.27.089-.517.163-.737.226Z"
                        transform="translate(-1040.076 -764.837)" />
                      <path id="Path_3476" data-name="Path 3476"
                        d="M994.212,846.668s-.051.3,1.086.628a.76.76,0,0,0,.809-.252c.379-.492-.492-.713-.492-.713s.367-.553-.063-.814a.6.6,0,0,0-.685.068C993.988,846.315,994.212,846.668,994.212,846.668Z"
                        transform="translate(-983.074 -817.652)" />
                      <path id="Path_3477" data-name="Path 3477"
                        d="M1010.907,744.533s-.049.276.936.549a.667.667,0,0,0,.708-.243c.338-.451-.417-.636-.417-.636s.328-.507-.042-.736a.51.51,0,0,0-.6.074C1010.717,744.217,1010.907,744.533,1010.907,744.533Z"
                        transform="translate(-997.225 -731.189)" />
                    </g>
                    <g id="Group_1215" data-name="Group 1215" transform="translate(924.505 670.49)">
                      <path id="Path_3478" data-name="Path 3478"
                        d="M947.553,799.67a8.549,8.549,0,0,0-.78.951,8.039,8.039,0,0,0-.673,1.184l-.893.243-2.337.635-.493.133a3.777,3.777,0,0,1-.2-.369,3.63,3.63,0,0,1-.321-1.23l.525-.142L946.338,800Z"
                        transform="translate(-941.86 -792.112)" fill="#c60000" />
                      <path id="Path_3479" data-name="Path 3479"
                        d="M1028.951,775.77l-.1.194-.371.618c-.037.061-.075.124-.115.186l-.188.279c-.035.05-.069.1-.1.153-.093.139-.189.282-.3.421-.064.089-.13.176-.2.263l-1.41.383-2.815.765h0l-1.279.348a6.2,6.2,0,0,0,.429-.581,3.094,3.094,0,0,0,.406-.905,1.655,1.655,0,0,0,.04-.491l.792-.215,4.225-1.148Z"
                        transform="translate(-1009.827 -771.86)" fill="#c60000" />
                      <path id="Path_3480" data-name="Path 3480"
                        d="M1093.078,751.771l-1.917.52-.432.118-1.954.531-.514.139-.319.087-1.074.292-.446.122-.444.121-.5.134-1.329.36a12.619,12.619,0,0,1-3.912-.678l1.123-.3c.206.043.421.082.641.117a10.208,10.208,0,0,0,2.317.118,3.5,3.5,0,0,0,1.075-.087c.142-.031.281-.067.414-.105a.744.744,0,0,1-.079-.055.159.159,0,0,1,.107-.284,1.353,1.353,0,0,1,.441.185,3.752,3.752,0,0,0,.375-.171l.034-.012c.05-.02.1-.041.153-.064h0v0a1.5,1.5,0,0,0,.31-.182,5.144,5.144,0,0,0-.841-.157.156.156,0,0,1,.029-.31,3.431,3.431,0,0,1,1.079.2,2.916,2.916,0,0,0,.279-.351,2.276,2.276,0,0,0,.183-.319c-.237-.038-.473-.07-.71-.1l.788-.214.07-.02.8-.217,3.807-1.035Z"
                        transform="translate(-1059.119 -750.15)" fill="#c60000" />
                    </g>
                    <g id="Group_1217" data-name="Group 1217" transform="translate(921.379 657.247)">
                      <path id="Path_3481" data-name="Path 3481"
                        d="M1025.706,746.909c.031.107-.086.235-.26.284a.366.366,0,0,1-.33-.038,4.269,4.269,0,0,1,.461-.354A.166.166,0,0,1,1025.706,746.909Z"
                        transform="translate(-1009.283 -734.07)" />
                      <path id="Path_3482" data-name="Path 3482"
                        d="M1033.964,741.045a1.5,1.5,0,0,1-.366-.024c-.031,0-.061-.008-.09-.009-.14-.009-.284-.011-.426-.008l-.114,0a3.471,3.471,0,0,0-.461.082,5.54,5.54,0,0,0-.783.2c-.157.052-.311.11-.461.176s-.272.127-.4.2l-.06.034a1.1,1.1,0,0,0,.066-.147l.006-.014a.562.562,0,0,0,.032-.165.164.164,0,0,0-.009-.064q.158-.085.32-.156c.076-.035.153-.067.23-.1s.154-.06.232-.087a5.257,5.257,0,0,1,1.2-.272c.128-.015.256-.024.385-.029a.987.987,0,0,1,.212.006l.023,0a1.539,1.539,0,0,1,.53.078A.158.158,0,0,1,1033.964,741.045Z"
                        transform="translate(-1014.099 -728.865)" />
                      <path id="Path_3483" data-name="Path 3483"
                        d="M1087.231,801.621c0,.01.052.043.153.106.05.031.112.071.182.119s.183.13.306.23c.019-.081.035-.184.054-.289l.044-.239c.028-.151.067-.389.078-.422l.07.038c.048.024.112.052.169.076l.09.036.046.017.072.025c.1.032.2.058.3.085l-.045-.226c-.008-.038-.016-.076-.025-.116l-.021-.085q-.036-.146-.084-.293t-.105-.3c-.02-.049-.04-.1-.061-.148l-.057-.127-.019-.039-.016-.032,0,0h.03l.034,0a1.261,1.261,0,0,1,.145.034c.03.009.061.019.09.03.01,0,.038.015.063.026a.77.77,0,0,1,.076.036c.1.054.217.129.317.191,0-.01,0-.019,0-.03l-.014-.055-.028-.109c-.017-.072-.04-.142-.061-.211a1.389,1.389,0,0,0-.062-.178c-.019-.042-.035-.086-.056-.126a2.41,2.41,0,0,0-.276-.439,2.535,2.535,0,0,0-.317-.334,2.445,2.445,0,0,0-.319-.232,2.025,2.025,0,0,0-.509-.226c-.126-.033-.2-.04-.2-.031a6.166,6.166,0,0,1,.647.349,2.59,2.59,0,0,1,.29.237,2.564,2.564,0,0,1,.286.327,2.38,2.38,0,0,1,.246.418c.019.038.032.079.049.118a.559.559,0,0,1,.027.074.457.457,0,0,1,.013.049l.005.024,0,.012-.011-.007a.557.557,0,0,0-.062-.035l-.017-.007-.03-.012c-.033-.013-.067-.024-.1-.035a1.457,1.457,0,0,0-.252-.054c-.056-.007-.109-.01-.163-.013l-.081,0-.042,0h-.021l-.013,0,.083.16.042.081.036.074.026.054.017.037.032.071.059.142q.057.142.1.284c.031.095.059.189.084.282l.021.083.012.053a.66.66,0,0,1-.069-.018l-.019-.006-.044-.015-.087-.032c-.059-.023-.109-.043-.17-.071-.085-.039-.171-.086-.251-.127-.052.341-.066.464-.09.639l-.045.357a2.725,2.725,0,0,0-.381-.208C1087.3,801.628,1087.235,801.612,1087.231,801.621Z"
                        transform="translate(-1061.917 -777.781)" />
                      <path id="Path_3484" data-name="Path 3484"
                        d="M1125.932,709.369c.324.1.391.446.244,1.142a16.341,16.341,0,0,1-1.008,3.584,9.81,9.81,0,0,0-1.886-3.753,5.691,5.691,0,0,1,1.233-.711l.049-.018.008,0a2.674,2.674,0,0,1,1.358-.243l-.022-.006Z"
                        transform="translate(-1092.465 -702.328)" />
                      <path id="Path_3485" data-name="Path 3485"
                        d="M1064.5,683.81c-.06.041-.117.084-.172.128h0c-.093-.1-.216-.068-.337-.052a2.585,2.585,0,0,0-.265.041h-.022a4.178,4.178,0,0,0-.459-1.317,3.2,3.2,0,0,0-.619-.79c-.021-.021-.042-.041-.066-.06a.54.54,0,0,0-.4-.146l-.035.006c-.237,0-.471.206-.748.626a13.413,13.413,0,0,0-1.283,2.144c-.1.218-.21.46-.325.732l-.005.011c-.036.08-.059.148-.084.216a7.177,7.177,0,0,1,1.555-.845,5.813,5.813,0,0,1,1.047-.306h0a.045.045,0,0,1,.007-.017,4.173,4.173,0,0,1,.631-.094h0a3.845,3.845,0,0,0,.292.775,1.637,1.637,0,0,0,.239.486.2.2,0,0,0,.363-.042,2.337,2.337,0,0,1,.881-1.151C1064.9,684.012,1064.709,683.666,1064.5,683.81Z"
                        transform="translate(-1038.567 -678.828)" />
                      <path id="Path_3486" data-name="Path 3486"
                        d="M1093.463,698.369c.307.1.642.2.986.307.381.127.775.269,1.162.434h0a1.718,1.718,0,0,0-.213.1,2.09,2.09,0,0,0-.188.116,4.727,4.727,0,0,0-.671.612l-.036.037c-.114.117-.229.233-.352.343-.023.049-.055.064-.092.054l-.009,0a2.513,2.513,0,0,1-.584-2Z"
                        transform="translate(-1067.151 -693.03)" />
                      <path id="Path_3487" data-name="Path 3487"
                        d="M1106.179,704.131a4.189,4.189,0,0,1,1.628,1.217l.005.007c.013.018.026.037.039.056l.022.037c.026.043.05.08.072.11-.1-.039-.189-.07-.274-.1a1.964,1.964,0,0,0-.549-.087,4.054,4.054,0,0,0-.614.071,2.6,2.6,0,0,1-.473.027l-.112-.024h0l-.1-.116c-.007-.013-.014-.026-.021-.041a1.087,1.087,0,0,1-.073-.61.881.881,0,0,1,.047-.169.711.711,0,0,1,.093-.166l.074-.081.01-.009.1-.071.119-.052.006,0Z"
                        transform="translate(-1077.581 -697.912)" />
                      <path id="Path_3488" data-name="Path 3488"
                        d="M1127.092,759.472c-.464-.217-.92-.443-1.4-.633q-.522-.211-1.056-.383a17.57,17.57,0,0,0-2.048-.534c-.266-.053-.533-.1-.8-.14-.237-.038-.473-.07-.71-.1h0q-.339-.039-.678-.069a.164.164,0,0,1,.029-.327c.482.04.963.1,1.438.182.02,0,.04.006.058.011s.041.006.061.011c.221.041.443.087.662.134a16.779,16.779,0,0,1,2,.56c.142.049.284.1.424.154.293.108.586.224.873.346a13.388,13.388,0,0,1,1.252.594C1127.306,759.339,1127.2,759.524,1127.092,759.472Z"
                        transform="translate(-1089.903 -742.954)" />
                      <path id="Path_3489" data-name="Path 3489"
                        d="M1124.857,766.388a12.35,12.35,0,0,0-1.146-.752,19.15,19.15,0,0,0-2.169-1.01c-.113-.046-.226-.093-.339-.14l-.154-.063c-.209-.086-.421-.169-.635-.244q-.16-.057-.321-.1a5.144,5.144,0,0,0-.841-.157.156.156,0,0,1,.029-.31,3.431,3.431,0,0,1,1.079.2c.1.032.192.066.285.1.223.079.441.168.659.259l.412.177.069.029c.38.162.759.328,1.13.507a9.022,9.022,0,0,1,2.094,1.3C1125.134,766.285,1124.995,766.488,1124.857,766.388Z"
                        transform="translate(-1088.935 -748.313)" />
                      <path id="Path_3490" data-name="Path 3490"
                        d="M1118.889,771.774a7.323,7.323,0,0,0-.427-.907,5.308,5.308,0,0,0-1.1-1.348,5.688,5.688,0,0,0-.5-.4h0c-.067-.049-.136-.1-.2-.14-.027-.017-.053-.035-.081-.05-.093-.06-.188-.116-.286-.168s-.192-.084-.285-.133l-.041-.023a.732.732,0,0,1-.079-.055.159.159,0,0,1,.107-.284,1.353,1.353,0,0,1,.441.185l.072.04c.151.081.3.169.443.264.026.017.05.034.075.052.078.053.154.108.227.168a5.334,5.334,0,0,1,1.036,1.061,5.186,5.186,0,0,1,.847,1.661C1119.168,771.839,1118.941,771.9,1118.889,771.774Z"
                        transform="translate(-1086.143 -752.261)" />
                      <path id="Path_3491" data-name="Path 3491"
                        d="M1013.653,720.2a18.345,18.345,0,0,0-5.15-1.734c-.505-.086-1.012-.133-1.521-.193-.122-.014-.113-.224.013-.219a13,13,0,0,1,1.377.151c.458.068.915.155,1.368.253a18.117,18.117,0,0,1,2.628.8,14.832,14.832,0,0,1,1.431.644.164.164,0,0,1-.146.294Z"
                        transform="translate(-993.843 -709.706)" />
                      <path id="Path_3492" data-name="Path 3492"
                        d="M1014.5,731.438c-.061-.029-.122-.058-.183-.082a4.579,4.579,0,0,0-.681-.243v0c-.086-.023-.171-.044-.259-.064-.325-.07-.655-.122-.983-.174l-.212-.035a18.887,18.887,0,0,0-2.378-.278,12.069,12.069,0,0,0-1.369.04.131.131,0,0,1-.02-.261,9.047,9.047,0,0,1,2.462,0c.411.041.82.1,1.227.159s.814.119,1.216.2c.092.018.183.04.276.061a4.385,4.385,0,0,1,.675.214,2.453,2.453,0,0,1,.368.188A.156.156,0,0,1,1014.5,731.438Z"
                        transform="translate(-995.03 -720.047)" />
                      <path id="Path_3493" data-name="Path 3493"
                        d="M1053.856,680.316c-.029-.168-.058-.327-.086-.473a3.5,3.5,0,0,1-1.074.087,10.209,10.209,0,0,1-2.317-.118c-.22-.035-.435-.075-.641-.117a11.93,11.93,0,0,1-2.369-.724c-.144-.061-.282-.127-.417-.194a5.751,5.751,0,0,1-2.963-2.982,1.275,1.275,0,0,1-.124-.25c-.031,0-.061-.008-.09-.009-.14-.009-.284-.011-.426-.008l-.114,0c.026.081.052.162.079.243.035.105.073.211.116.314a6.887,6.887,0,0,0,2.231,2.445c.121.105.241.211.366.308a2.791,2.791,0,0,0,.626.331l.035.018c.159.082.319.16.484.229.037.017.073.031.11.046a12.274,12.274,0,0,0,1.331.531,12.619,12.619,0,0,0,3.912.678h.082c.234,0,.466-.014.7-.037v0a.306.306,0,0,1,.052-.008l.031-.006a.54.54,0,0,1,.131-.011l.014,0c.095-.02.191-.037.289-.047l.076-.015C1053.885,680.475,1053.871,680.394,1053.856,680.316Zm0,0c-.029-.168-.058-.327-.086-.473a3.5,3.5,0,0,1-1.074.087,10.209,10.209,0,0,1-2.317-.118c-.22-.035-.435-.075-.641-.117a11.93,11.93,0,0,1-2.369-.724c-.144-.061-.282-.127-.417-.194a5.751,5.751,0,0,1-2.963-2.982,1.275,1.275,0,0,1-.124-.25c-.031,0-.061-.008-.09-.009-.14-.009-.284-.011-.426-.008l-.114,0c.026.081.052.162.079.243.035.105.073.211.116.314a6.887,6.887,0,0,0,2.231,2.445c.121.105.241.211.366.308a2.791,2.791,0,0,0,.626.331l.035.018c.159.082.319.16.484.229.037.017.073.031.11.046a12.274,12.274,0,0,0,1.331.531,12.619,12.619,0,0,0,3.912.678h.082c.234,0,.466-.014.7-.037v0a.306.306,0,0,1,.052-.008l.031-.006a.54.54,0,0,1,.131-.011l.014,0c.095-.02.191-.037.289-.047l.076-.015C1053.885,680.475,1053.871,680.394,1053.856,680.316Zm-.086-.473a3.5,3.5,0,0,1-1.074.087,10.209,10.209,0,0,1-2.317-.118c-.22-.035-.435-.075-.641-.117a11.93,11.93,0,0,1-2.369-.724c-.144-.061-.282-.127-.417-.194a5.751,5.751,0,0,1-2.963-2.982,1.275,1.275,0,0,1-.124-.25c-.031,0-.061-.008-.09-.009-.14-.009-.284-.011-.426-.008l-.114,0c.026.081.052.162.079.243.035.105.073.211.116.314a6.887,6.887,0,0,0,2.231,2.445c.121.105.241.211.366.308a2.791,2.791,0,0,0,.626.331l.035.018c.159.082.319.16.484.229.037.017.073.031.11.046a12.274,12.274,0,0,0,1.331.531,12.619,12.619,0,0,0,3.912.678l1.329-.36C1053.827,680.148,1053.8,679.99,1053.771,679.843Zm0,0a3.5,3.5,0,0,1-1.074.087,10.209,10.209,0,0,1-2.317-.118c-.22-.035-.435-.075-.641-.117a11.93,11.93,0,0,1-2.369-.724c-.144-.061-.282-.127-.417-.194a5.751,5.751,0,0,1-2.963-2.982,1.275,1.275,0,0,1-.124-.25c-.031,0-.061-.008-.09-.009-.14-.009-.284-.011-.426-.008l-.114,0c.026.081.052.162.079.243.035.105.073.211.116.314a6.887,6.887,0,0,0,2.231,2.445c.121.105.241.211.366.308a2.791,2.791,0,0,0,.626.331l.035.018c.159.082.319.16.484.229.037.017.073.031.11.046a12.274,12.274,0,0,0,1.331.531,12.619,12.619,0,0,0,3.912.678l1.329-.36C1053.827,680.148,1053.8,679.99,1053.771,679.843Zm0,0a3.5,3.5,0,0,1-1.074.087,10.209,10.209,0,0,1-2.317-.118c-.22-.035-.435-.075-.641-.117a11.93,11.93,0,0,1-2.369-.724c-.144-.061-.282-.127-.417-.194a5.751,5.751,0,0,1-2.963-2.982,1.275,1.275,0,0,1-.124-.25c-.031,0-.061-.008-.09-.009-.14-.009-.284-.011-.426-.008l-.114,0c.026.081.052.162.079.243.035.105.073.211.116.314a6.887,6.887,0,0,0,2.231,2.445c.121.105.241.211.366.308a2.791,2.791,0,0,0,.626.331l.035.018c.159.082.319.16.484.229.037.017.073.031.11.046a12.274,12.274,0,0,0,1.331.531,12.619,12.619,0,0,0,3.912.678l1.329-.36C1053.827,680.148,1053.8,679.99,1053.771,679.843Zm6.189-12.467a.89.89,0,0,0-.5-.517c-1.259-.313-2.9,1.322-5.223,2.932-.081.053-.168.113-.252.174a5.72,5.72,0,0,0-2.3-1.276c-.311-.073-.647-.156-.966-.214l-.037-.116c-.655-2.154-.746-4.484-1.79-4.929v0a.936.936,0,0,0-.673.056,7.886,7.886,0,0,0-3.179,3.359,6.642,6.642,0,0,0-.7,4.094,7.99,7.99,0,0,0-.685.763,4.559,4.559,0,0,0-.6.96l-.008.038s0,0,0,0l-.014.047c-.017.078-.029.157-.038.235l0,.029c-.014.1-.027.2-.038.3v0c-.011.087-.02.172-.026.259a3.814,3.814,0,0,0,.006.53c.008.119.021.237.04.354v0c.014.09.031.179.049.267.035.165.076.33.122.493.031.107.061.212.095.318.026.081.052.162.079.243.035.105.073.211.116.314a6.887,6.887,0,0,0,2.231,2.445c.121.105.241.211.366.308a2.791,2.791,0,0,0,.626.331l.035.018c.159.082.319.16.484.229.037.017.073.031.11.046a12.274,12.274,0,0,0,1.331.531,12.619,12.619,0,0,0,3.912.678h.082c.234,0,.466-.014.7-.037v0a.306.306,0,0,1,.052-.008l.031-.006a.54.54,0,0,1,.131-.011l.014,0c.095-.02.191-.037.289-.047l.076-.015c.122-.027.244-.05.366-.076.053-.011.107-.023.159-.035.224-.053.441-.121.658-.194h0l.209-.073.055-.021c.041-.015.082-.032.122-.05l.021-.009.105-.046c.108-.052.214-.105.319-.157a0,0,0,0,1,0,0c.082-.041.165-.081.249-.119.05-.041.1-.084.151-.127l.058-.05c.037-.032.072-.064.107-.1.064-.06.128-.124.194-.183.021-.023.043-.047.063-.07a1.094,1.094,0,0,0,.075-.1,1.72,1.72,0,0,0,.115-.272,4.779,4.779,0,0,0,.128-.519l.059-.3c.026-.131.055-.263.092-.392a.181.181,0,0,1,.006-.026,3.673,3.673,0,0,0,.011-.557,9.5,9.5,0,0,0,2.627-4.254A9.355,9.355,0,0,0,1059.96,667.376Zm-.23,3.149a12.643,12.643,0,0,1-2.486,6.032c-.2-.6-.623-.563-.569.064a2.322,2.322,0,0,1-.191.969.809.809,0,0,1-.014.1.836.836,0,0,1-.066.191.266.266,0,0,1-.012.031s0,0,0,.008c-.015.035-.034.069-.052.1a1.75,1.75,0,0,1-.081.192,2.276,2.276,0,0,1-.183.319,2.916,2.916,0,0,1-.279.351c-.032.037-.066.07-.1.1a.892.892,0,0,1-.166.163,1.5,1.5,0,0,1-.31.182v0h0c-.052.023-.1.044-.153.064l-.034.012a3.777,3.777,0,0,1-.375.171c-.136.052-.273.1-.411.137l-.027.008-.031.009c-.133.038-.272.075-.414.105a3.5,3.5,0,0,1-1.074.087,10.209,10.209,0,0,1-2.317-.118c-.22-.035-.435-.075-.641-.117a11.93,11.93,0,0,1-2.369-.724c-.144-.061-.282-.127-.417-.194a5.751,5.751,0,0,1-2.963-2.982,1.275,1.275,0,0,1-.124-.25c-.032-.087-.058-.176-.083-.264-.008-.029-.017-.058-.023-.087a4.968,4.968,0,0,1-.11-.5c-.014-.081-.024-.162-.033-.244,0-.046-.009-.093-.012-.14a4.178,4.178,0,0,1,0-.691c0-.008,0-.014,0-.021a1.872,1.872,0,0,1,.058-.334c.011-.035.021-.069.035-.1l.008-.069c.311-1.314,1.627-2.5,1.333-2.563a.149.149,0,0,0-.029,0,.585.585,0,0,0-.157.032l-.1.061a9.023,9.023,0,0,1,1.877-5.075,6.471,6.471,0,0,1,1.923-1.592l.116-.034c.572.052,1.021,3.2,1.337,4.48a.916.916,0,0,0-.18.038h0v0a.284.284,0,0,0-.073.029c.218.081.469.162.737.246h0l.172.055a18.455,18.455,0,0,1,2.065.739c.075.034.15.067.223.1a4.046,4.046,0,0,1,1.6,1.244,1.458,1.458,0,0,0,.1.148c.238.327.273.008,0-.427,1.161-.762,4.588-3.807,4.786-2.926A7.3,7.3,0,0,1,1059.729,670.525Zm-5.959,9.318a3.5,3.5,0,0,1-1.074.087,10.209,10.209,0,0,1-2.317-.118c-.22-.035-.435-.075-.641-.117a11.93,11.93,0,0,1-2.369-.724c-.144-.061-.282-.127-.417-.194a5.751,5.751,0,0,1-2.963-2.982,1.275,1.275,0,0,1-.124-.25c-.031,0-.061-.008-.09-.009-.14-.009-.284-.011-.426-.008l-.114,0c.026.081.052.162.079.243.035.105.073.211.116.314a6.887,6.887,0,0,0,2.231,2.445c.121.105.241.211.366.308a2.791,2.791,0,0,0,.626.331l.035.018c.159.082.319.16.484.229.037.017.073.031.11.046a12.274,12.274,0,0,0,1.331.531,12.619,12.619,0,0,0,3.912.678l1.329-.36C1053.827,680.148,1053.8,679.99,1053.771,679.843Zm0,0a3.5,3.5,0,0,1-1.074.087,10.209,10.209,0,0,1-2.317-.118c-.22-.035-.435-.075-.641-.117a11.93,11.93,0,0,1-2.369-.724c-.144-.061-.282-.127-.417-.194a5.751,5.751,0,0,1-2.963-2.982,1.275,1.275,0,0,1-.124-.25c-.031,0-.061-.008-.09-.009-.14-.009-.284-.011-.426-.008l-.114,0c.026.081.052.162.079.243.035.105.073.211.116.314a6.887,6.887,0,0,0,2.231,2.445c.121.105.241.211.366.308a2.791,2.791,0,0,0,.626.331l.035.018c.159.082.319.16.484.229.037.017.073.031.11.046a12.274,12.274,0,0,0,1.331.531,12.619,12.619,0,0,0,3.912.678l1.329-.36C1053.827,680.148,1053.8,679.99,1053.771,679.843Zm.086.473c-.029-.168-.058-.327-.086-.473a3.5,3.5,0,0,1-1.074.087,10.209,10.209,0,0,1-2.317-.118c-.22-.035-.435-.075-.641-.117a11.93,11.93,0,0,1-2.369-.724c-.144-.061-.282-.127-.417-.194a5.751,5.751,0,0,1-2.963-2.982,1.275,1.275,0,0,1-.124-.25c-.031,0-.061-.008-.09-.009-.14-.009-.284-.011-.426-.008l-.114,0c.026.081.052.162.079.243.035.105.073.211.116.314a6.887,6.887,0,0,0,2.231,2.445c.121.105.241.211.366.308a2.791,2.791,0,0,0,.626.331l.035.018c.159.082.319.16.484.229.037.017.073.031.11.046a12.274,12.274,0,0,0,1.331.531,12.619,12.619,0,0,0,3.912.678h.082c.234,0,.466-.014.7-.037v0a.306.306,0,0,1,.052-.008l.031-.006a.54.54,0,0,1,.131-.011l.014,0c.095-.02.191-.037.289-.047l.076-.015C1053.885,680.475,1053.871,680.394,1053.856,680.316Zm0,0c-.029-.168-.058-.327-.086-.473a3.5,3.5,0,0,1-1.074.087,10.209,10.209,0,0,1-2.317-.118c-.22-.035-.435-.075-.641-.117a11.93,11.93,0,0,1-2.369-.724c-.144-.061-.282-.127-.417-.194a5.751,5.751,0,0,1-2.963-2.982,1.275,1.275,0,0,1-.124-.25c-.032-.087-.058-.176-.083-.264-.008-.029-.017-.058-.023-.087a4.968,4.968,0,0,1-.11-.5,4.576,4.576,0,0,0-.681-.243c.014.09.031.179.049.267.035.165.076.33.122.493.031.107.061.212.095.318.026.081.052.162.079.243.035.105.073.211.116.314a6.887,6.887,0,0,0,2.231,2.445c.121.105.241.211.366.308a2.791,2.791,0,0,0,.626.331l.035.018c.159.082.319.16.484.229.037.017.073.031.11.046a12.274,12.274,0,0,0,1.331.531,12.619,12.619,0,0,0,3.912.678h.082c.234,0,.466-.014.7-.037v0a.306.306,0,0,1,.052-.008l.031-.006a.54.54,0,0,1,.131-.011l.014,0c.095-.02.191-.037.289-.047l.076-.015C1053.885,680.475,1053.871,680.394,1053.856,680.316Zm-9.866-4.521a1.275,1.275,0,0,1-.124-.25c-.031,0-.061-.008-.09-.009-.14-.009-.284-.011-.426-.008l-.114,0c.026.081.052.162.079.243.035.105.073.211.116.314a6.887,6.887,0,0,0,2.231,2.445c.121.105.241.211.366.308a2.791,2.791,0,0,0,.626.331l.035.018.049-.078c.078-.119.15-.234.214-.337A5.751,5.751,0,0,1,1043.99,675.8Z"
                        transform="translate(-1024.367 -663.389)" />
                      <g id="Group_1216" data-name="Group 1216" transform="translate(22.113 9.289)">
                        <path id="Path_3494" data-name="Path 3494"
                          d="M1096.632,727.374a1.859,1.859,0,0,0-.216,1.209,1.046,1.046,0,0,0,.834.734,1.457,1.457,0,0,0,1.214-.376,3.14,3.14,0,0,0,.813-1.141.861.861,0,0,1-.466-.3.779.779,0,0,1-.131-.238.458.458,0,0,1-.01-.394.486.486,0,0,1,.667-.178,1.075,1.075,0,0,1,.175.116.8.8,0,0,0-.13-.378.275.275,0,0,0-.081-.082.719.719,0,0,0-.437-.3,1.872,1.872,0,0,0-1.278.212A2.4,2.4,0,0,0,1096.632,727.374Z"
                          transform="translate(-1091.783 -725.736)" />
                        <path id="Path_3495" data-name="Path 3495"
                          d="M1074.039,724.454c-1.049-.693-3.149.45-3.732,2.062l-.044,0c-.081-.078-.169-.157-.272-.238-.548-.427-1.333-.829-1.56-.582-.4.484-.1,1.288.371,1.79-.146.279-.321.569-.638.583a1.334,1.334,0,0,1-1.461-.957c-.047-.153,0-.3.174-.319.115-.02.24-.069.237-.2s-.171-.208-.334-.217a.681.681,0,0,0-.513.8,1.658,1.658,0,0,0,2.094,1.175l.087-.031-.009.024.055.3a1.346,1.346,0,0,0,1.79.911.615.615,0,0,0,.4-.725c-.076-.108-.191-.2-.308-.133s-.092.169-.06.258c.061.128-.035.23-.172.269a1.11,1.11,0,0,1-1.355-.572c-.125-.234.038-.495.2-.731.058-.069.111-.136.157-.2a1.5,1.5,0,0,0,.745-.157.4.4,0,0,0,.1.282,4.038,4.038,0,0,0,2.958,1.067,1.978,1.978,0,0,0,1.107-.823C1074.831,727.038,1074.706,724.935,1074.039,724.454Zm-4.08,2.406-.116.027c-.273.075-.375-.345-.418-.5-.1-.308.582.275.583.276l.009.009A.559.559,0,0,0,1069.959,726.859Zm3.233,1.333a1.769,1.769,0,0,1-1.862.089.348.348,0,0,1-.1-.047.393.393,0,0,1-.07-.046.3.3,0,0,1-.148-.078.273.273,0,0,0-.02-.021l-.053-.034a1.716,1.716,0,0,1-.3-.227.364.364,0,0,1-.092-.055.082.082,0,0,1-.015-.017l-.035-.027-.076-.066c-.105-.09-.1-.235-.067-.394a.543.543,0,0,0,.2-.33.367.367,0,0,0-.095-.212.215.215,0,0,0-.055-.182,6.056,6.056,0,0,0,.716-.8c.038-.043.076-.084.117-.124l0,0c.693-.7,1.793-1.192,2.5-.745a.538.538,0,0,1,.172.174,0,0,0,0,0,0,0A3.194,3.194,0,0,1,1073.192,728.192Z"
                          transform="translate(-1066.256 -724.247)" />
                      </g>
                      <path id="Path_3496" data-name="Path 3496"
                        d="M1066.573,775.859c0,.043,0,.085,0,.128a10.243,10.243,0,0,1-1.134,4.352l-.02.037c-.07.13-.144.256-.221.382a8.021,8.021,0,0,1-1.174,1.482,8.549,8.549,0,0,1-1.754,1.326,10.841,10.841,0,0,1-3.453,1.207,14.221,14.221,0,0,1-1.487.185c-.267.018-.5.027-.707.029q.131-.233.256-.476c.22-.034.47-.076.743-.128.324-.061.681-.137,1.061-.231a11.734,11.734,0,0,0,3.181-1.273,8.225,8.225,0,0,0,1.564-1.232,7.5,7.5,0,0,0,1.255-1.713q.057-.105.11-.211h0c.049-.1.095-.2.139-.295a10.476,10.476,0,0,0,.846-3.492,15.767,15.767,0,0,0,.043-1.6v-.044c0-.166-.011-.336-.021-.508-.023-.42-.061-.856-.115-1.317-.052-.438-.111-.838-.171-1.2-.014-.082-.027-.163-.043-.241-.029-.168-.058-.327-.086-.473.142-.031.281-.067.414-.105l.031-.009a.273.273,0,0,0,.011.032c.041.128.084.269.127.421.024.084.047.172.072.264.095.351.188.757.273,1.21a16.246,16.246,0,0,1,.275,2.532v0C1066.59,775.224,1066.589,775.541,1066.573,775.859Z"
                        transform="translate(-1035.978 -754.1)" />
                      <path id="Path_3497" data-name="Path 3497"
                        d="M1010.443,764.4c-.053.134-.108.264-.168.392l-.027.058-.037.079c-.1.223-.215.476-.359.737l-.162.3-.1.194-.371.618c-.037.061-.075.124-.115.186l-.188.279c-.035.05-.069.1-.1.153-.093.139-.189.282-.3.421-.064.089-.13.176-.2.263a14.219,14.219,0,0,1-1.9,2.053,13.064,13.064,0,0,1-1.288,1,11.541,11.541,0,0,1-1.32.762,9.625,9.625,0,0,1-2.438.826,7.2,7.2,0,0,1-1.352.134c-.056,0-.11,0-.159,0-.087,0-.16-.006-.221-.011-.1-.008-.2-.02-.292-.035a2.2,2.2,0,0,1,.258-.267c.038-.034.078-.07.122-.108a12.393,12.393,0,0,0,1.38-.3c.038-.009.076-.021.116-.032a11.261,11.261,0,0,0,2.222-.916,12.922,12.922,0,0,0,1.209-.746,14.019,14.019,0,0,0,1.2-.948c.38-.336.733-.681,1.061-1.03a20.116,20.116,0,0,0,1.8-2.228c.22-.313.42-.614.6-.894.125-.183.232-.357.336-.525.043-.069.082-.134.124-.2l.049-.078c.078-.119.15-.234.214-.337C1010.16,764.277,1010.3,764.343,1010.443,764.4Z"
                        transform="translate(-987.441 -748.821)" />
                      <path id="Path_3498" data-name="Path 3498"
                        d="M1004.154,773.789a3.189,3.189,0,0,1-.375.963h0c-.041.076-.084.15-.128.223a8.225,8.225,0,0,1-1.565,1.722,14.431,14.431,0,0,1-1.3.963c-.067.044-.133.087-.2.128-.237.148-.43.266-.6.365s-.319.166-.444.224a.367.367,0,0,1-.035.017,1.251,1.251,0,0,1-.433.148.092.092,0,0,1-.087-.04c-.023-.037-.021-.084.043-.171a2.206,2.206,0,0,1,.258-.267c.038-.034.078-.07.122-.108.082-.073.175-.151.279-.237l.046-.038c.143-.124.3-.261.482-.406.441-.365.89-.757,1.337-1.171a11.444,11.444,0,0,0,.943-1h0a6.219,6.219,0,0,0,.429-.582,3.093,3.093,0,0,0,.406-.905,1.655,1.655,0,0,0,.04-.491,1.356,1.356,0,0,0-.067-.333,1.8,1.8,0,0,0-.423-.664,3.4,3.4,0,0,0-.589-.482,6.516,6.516,0,0,0-.568-.334c-.119-.064-.23-.119-.331-.169l-.073-.037c.061-.111.124-.241.186-.383a3.808,3.808,0,0,1,.476.121,4.519,4.519,0,0,1,.624.252,3.417,3.417,0,0,1,.774.505,2.4,2.4,0,0,1,.669.913,1.862,1.862,0,0,1,.115.4A2.321,2.321,0,0,1,1004.154,773.789Z"
                        transform="translate(-987.129 -754.338)" />
                      <path id="Path_3499" data-name="Path 3499"
                        d="M1012.432,761.487c-.018.052-.04.1-.061.153a2.833,2.833,0,0,1-.258.469,2.152,2.152,0,0,1-.362.412.883.883,0,0,1-.444.249.052.052,0,0,1-.015,0,.059.059,0,0,1-.049-.027c-.038-.055.021-.143.142-.319.029-.043.061-.089.095-.14a4.172,4.172,0,0,0,.229-.379c.061-.111.124-.241.186-.383.026-.064.052-.13.078-.2a5.219,5.219,0,0,0,.223-.862c.014-.085.026-.165.038-.238.018-.115.032-.209.049-.281l.215-.078.015.043.008.023a1.363,1.363,0,0,1,.069.345c0,.011,0,.024,0,.038A2.75,2.75,0,0,1,1012.432,761.487Z"
                        transform="translate(-997.518 -745.136)" />
                      <path id="Path_3500" data-name="Path 3500"
                        d="M966.416,771.017a1.607,1.607,0,0,1-.089.292c-.024.061-.053.127-.086.192a8.631,8.631,0,0,1-1,1.514,24.963,24.963,0,0,1-1.78,1.983c-.058.06-.119.124-.182.191a8.539,8.539,0,0,0-.78.951,8.036,8.036,0,0,0-.673,1.184c-.032.07-.063.14-.093.211a7.98,7.98,0,0,0-.51,1.713c-.021.124-.041.246-.057.369a7.723,7.723,0,0,0-.064.917,6.967,6.967,0,0,0,.047.9c.017.143.038.285.064.424a5.038,5.038,0,0,0,.334,1.117,3.177,3.177,0,0,0,.485.8,1.866,1.866,0,0,0,.153.157,2.092,2.092,0,0,0,.369.275c-.13.072-.252.143-.365.215a2.072,2.072,0,0,1-.392-.258c-.029-.023-.056-.047-.085-.073a3.325,3.325,0,0,1-.655-.872,5.45,5.45,0,0,1-.533-1.6c-.027-.154-.049-.311-.066-.47-.023-.2-.035-.4-.04-.606a7.32,7.32,0,0,1,.038-.951c.012-.133.029-.266.049-.4a7.905,7.905,0,0,1,.426-1.624c.038-.107.081-.212.125-.317a8.084,8.084,0,0,1,.853-1.525c.049-.069.1-.137.153-.206a9.381,9.381,0,0,1,.917-1.007c.725-.688,1.345-1.311,1.845-1.85.305-.33.583-.647.812-.928.119-.147.224-.282.314-.406.121-.163.2-.3.259-.386.079-.127.1-.165.15-.162a.06.06,0,0,1,.043.023C966.444,770.854,966.425,770.97,966.416,771.017Z"
                        transform="translate(-954.458 -754.388)" />
                      <path id="Path_3501" data-name="Path 3501"
                        d="M1030.555,788.96c0,.1,0,.243-.009.438,0,.124-.011.269-.02.44-.044.821-.156,1.891-.314,3.008l-.165.991c-.037.229-.084.456-.136.7-.024.122-.05.244-.076.371-.049.243-.108.485-.172.742-.032.13-.066.263-.1.4l-.285,1-.063.194c-.16.508-.337,1-.53,1.481-.049.122-.1.243-.15.362q-.14.33-.292.649c-.055.116-.111.232-.168.346-.1.194-.194.386-.293.575-.06.113-.119.226-.18.336l-.084.156-.371.684c-.023.04-.044.079-.069.118a3.585,3.585,0,0,1-.234.327,4.4,4.4,0,0,1-1.65,1.212,4.044,4.044,0,0,1-1.566.353,3.245,3.245,0,0,1-.388-.024,1.783,1.783,0,0,1-.957-.426,1.421,1.421,0,0,1-.316-.432l-.1-.217c-.02-.058-.038-.116-.055-.172l-.018-.066a1.2,1.2,0,0,1-.032-.18l-.009-.073c0-.053,0-.1,0-.15s.006-.085.011-.125a1.052,1.052,0,0,1,.154-.394,1.009,1.009,0,0,1,.081-.113,1.331,1.331,0,0,1,.412-.305,1.552,1.552,0,0,1,.221-.089l.031-.009c.027-.008.055-.015.082-.021a.5.5,0,0,1,.087-.02l.128-.055.133-.079.006,0a2.332,2.332,0,0,0,.256-.206,3.447,3.447,0,0,0,.438-.511,7.246,7.246,0,0,0,.643-1.125,17.7,17.7,0,0,0,.778-2.009c.156-.485.276-.89.365-1.186.18-.607.2-.664.261-.652l.017,0,.012.017a7.181,7.181,0,0,1-.323,1.913,15.054,15.054,0,0,1-.7,2.1,7.394,7.394,0,0,1-.647,1.224,3.691,3.691,0,0,1-.276.369c-.067.079-.136.154-.211.229l0,0a2.357,2.357,0,0,1-.226.2c-.029.023-.06.047-.093.072l-.186.116-.229.1-.089.018-.015,0a.393.393,0,0,0-.05.015l-.027.009a1,1,0,0,0-.147.061.788.788,0,0,0-.232.176.522.522,0,0,0-.1.235,1.368,1.368,0,0,0,0,.145.478.478,0,0,1,.011.063.654.654,0,0,0,.018.093c.008.024.017.049.024.075s.02.063.032.095l.079.169a.8.8,0,0,0,.194.259,1.17,1.17,0,0,0,.644.269,3.253,3.253,0,0,0,1.632-.3,3.859,3.859,0,0,0,1.419-1.043,3.032,3.032,0,0,0,.189-.263l.079-.139.325-.6.1-.188a.066.066,0,0,0,.008-.015q.131-.233.256-.476.19-.362.371-.733c.038-.078.075-.157.111-.237l.133-.29c.264-.6.508-1.227.727-1.883l.1-.295.262-.865c.035-.14.073-.279.111-.417.064-.24.127-.466.179-.693.029-.134.061-.267.093-.4.053-.224.1-.437.145-.649l.2-.974c.217-1.2.362-2.178.469-2.889.012-.079.023-.153.034-.221.031-.209.057-.372.078-.5a0,0,0,0,1,0,0Z"
                        transform="translate(-1006.438 -769.794)" />
                      <path id="Path_3502" data-name="Path 3502"
                        d="M990.567,866.92a2.2,2.2,0,0,0,.5.255,3.772,3.772,0,0,0,.362.116,7.913,7.913,0,0,0,2.154.256c.176,0,.353,0,.533-.012.487-.024.951-.075,1.378-.136a12.479,12.479,0,0,0,1.571-.33l.438-.429c-.18,0-.449.028-.833.067l-.226.023c-.65.067-1.461.15-2.357.2a14.794,14.794,0,0,1-2.482-.067l-.082-.011c-.266-.032-.485-.075-.656-.11Z"
                        transform="translate(-980.007 -835.618)" />
                      <path id="Path_3503" data-name="Path 3503"
                        d="M1116.927,805.142a1.9,1.9,0,0,1-.517.676,1.987,1.987,0,0,1-.742.377,2.245,2.245,0,0,1-.4.067c-.041,0-.081,0-.121,0a2.612,2.612,0,0,1-.273-.015,4.988,4.988,0,0,1-.714-.115,4.3,4.3,0,0,1-1.308-.539,3.209,3.209,0,0,1-.978-.954,3.358,3.358,0,0,1-.482-1.187,1.392,1.392,0,0,1-.037-.211c0-.029-.006-.06-.011-.089l-.012-.092c-.008-.069-.017-.137-.023-.2l-.015-.169-.035-.365c-.043-.325-.09-.672-.154-.992a14.26,14.26,0,0,0-.548-2.033q-.153-.447-.337-.879c-.023-.053-.044-.105-.066-.154v0c.049-.1.095-.2.139-.295.059.1.121.211.183.328.092.174.2.38.3.62a12.7,12.7,0,0,1,.771,2.32c.081.343.143.71.194,1.024l.04.319.029.232c.008.056.015.111.024.165,0,.032.011.066.015.1s.008.055.012.084a1.032,1.032,0,0,0,.035.174,2.862,2.862,0,0,0,.429,1,2.718,2.718,0,0,0,.826.775,3.706,3.706,0,0,0,1.139.449,4.444,4.444,0,0,0,.635.1,2.081,2.081,0,0,0,.3.008,1.611,1.611,0,0,0,.285-.05,1.309,1.309,0,0,0,.862-.725.714.714,0,0,0,.061-.5.817.817,0,0,0-.336-.412,2.587,2.587,0,0,0-.588-.313c-.055-.023-.111-.044-.169-.066a3.239,3.239,0,0,1-.548-.25,1.979,1.979,0,0,1-.6-.6,3.848,3.848,0,0,1-.305-.626l-.027-.073-.118-.348-.095-.346c-.043-.15-.075-.3-.105-.446-.017-.079-.034-.159-.052-.237-.063-.324-.118-.643-.169-.951-.021-.122-.041-.243-.063-.362a28.492,28.492,0,0,0-1.119-4.394c-.069-.194-.139-.379-.211-.556a8.849,8.849,0,0,0-.755-1.525v-.044l-.021-.508a5.382,5.382,0,0,1,.788,1.119v0a12.269,12.269,0,0,1,.626,1.352,25.737,25.737,0,0,1,1.253,4.451c.028.143.055.285.081.429.052.284.107.577.166.867.02.076.037.154.053.234.031.137.063.279.1.415l.09.325.11.314c.02.052.04.1.061.151a2.891,2.891,0,0,0,.218.429,1.331,1.331,0,0,0,.408.414,2.685,2.685,0,0,0,.449.2c.056.021.116.043.176.067a3.188,3.188,0,0,1,.719.385,1.422,1.422,0,0,1,.563.731A1.336,1.336,0,0,1,1116.927,805.142Z"
                        transform="translate(-1081.338 -772.649)" />
                      <path id="Path_3504" data-name="Path 3504"
                        d="M928.352,721.586c0,.041,0,.079,0,.119,0,.073,0,.151-.009.224l-.032.325c-.012.157-.037.314-.06.466l-.027.177a17.887,17.887,0,0,1-1.5,4.579c-.3.638-.638,1.285-1.006,1.926-.032.058-.067.116-.1.176-.053.092-.107.182-.151.264a2.19,2.19,0,0,0-.105.206,1.917,1.917,0,0,0-.092.212,3.373,3.373,0,0,0-.215.867,2.92,2.92,0,0,0-.018.461,3.163,3.163,0,0,0,.252,1.171,3.734,3.734,0,0,0,.175.35l.058.089.041.063c.02.026.044.053.067.081s.032.038.046.057a2.04,2.04,0,0,0,.549.423,3.5,3.5,0,0,0,1.207.366l.05.008a6.334,6.334,0,0,0,.666.049c-.021.124-.041.246-.057.369a6.114,6.114,0,0,1-.652-.023c-.018,0-.038,0-.056-.006a4.566,4.566,0,0,1-.637-.1,3.314,3.314,0,0,1-.73-.26,2.528,2.528,0,0,1-.691-.5l-.047-.053c-.034-.038-.069-.076-.1-.118l-.131-.186-.018-.032a3.777,3.777,0,0,1-.2-.369,3.795,3.795,0,0,1-.321-1.887,3.961,3.961,0,0,1,.229-1.015c.035-.1.067-.176.1-.249a2.382,2.382,0,0,1,.119-.243c.052-.1.1-.192.156-.282.031-.056.063-.111.093-.169.35-.638.67-1.276.951-1.9a17.186,17.186,0,0,0,1.392-4.423c.008-.058.017-.117.024-.177.02-.139.041-.284.05-.427l.027-.308c0-.064.006-.127.006-.188,0-.037,0-.073,0-.11a3.555,3.555,0,0,0-.182-1.16,2.9,2.9,0,0,0-1.563-1.714,3.273,3.273,0,0,0-2.422-.148,2.382,2.382,0,0,0-.543.276,2.072,2.072,0,0,0-.427.411,1.841,1.841,0,0,0-.272.527,1.471,1.471,0,0,0-.061.211c-.009.035-.017.07-.026.1l0,.023c-.017.095-.035.191-.041.276a.34.34,0,0,0,0,.078c0,.018,0,.035,0,.055a.054.054,0,0,0,0,.015.08.08,0,0,1,0,.027l0,.014,0,0,0,.006.034,0,.049,0a.635.635,0,0,0,.089-.011l.043-.008c.1-.021.2-.049.3-.081.163-.052.327-.11.5-.171.276-.1.562-.2.861-.279a3.411,3.411,0,0,1,.772-.124,1.7,1.7,0,0,1,.856.179l.038.023c.053.034.107.067.157.1l.026.023c.05.043.1.087.143.13s.058.067.085.1a1.513,1.513,0,0,1,.166.209l.108.159a1.3,1.3,0,0,1,.066.119l.029.057c.011.02.02.038.031.056.02.041.041.079.058.122l.066.183a3.418,3.418,0,0,1,.133,1.491c-.011.058-.02.113-.027.166a3.756,3.756,0,0,1-.113.536l-.092.333-.235.644-.279.611c-.029.066-.064.13-.1.191l-.055.1c-.037.067-.072.134-.107.2-.066.124-.134.252-.208.374l-.334.546c-.076.134-.165.261-.249.385l-.1.145-.35.514-.73.974-.742.922h0l-.02.023-.1.171c-.026.047-.052.1-.076.145l-.046.087a3.564,3.564,0,0,0-.182.475,2.727,2.727,0,0,0,.125,1.9,4.863,4.863,0,0,0,1.079,1.517,9.267,9.267,0,0,0,1.358,1.1,13.737,13.737,0,0,0,1.357.807c.284.148.572.287.862.417.229.1.459.2.69.288.017.143.038.285.064.424-.229-.073-.459-.154-.688-.243-.377-.143-.756-.307-1.129-.485a13.435,13.435,0,0,1-1.43-.791,9.587,9.587,0,0,1-1.464-1.131,5.352,5.352,0,0,1-1.236-1.671,3.313,3.313,0,0,1-.186-2.3,3.821,3.821,0,0,1,.209-.572l.044-.09c.031-.061.061-.124.095-.185l.116-.2a.447.447,0,0,1,.041-.056l.74-.945.7-.962.336-.5c.032-.047.064-.1.1-.145.079-.119.162-.241.234-.368l.319-.533c.067-.113.128-.232.188-.346l.105-.2.053-.1c.031-.058.063-.116.089-.177l.256-.574.212-.591.079-.3a2.809,2.809,0,0,0,.09-.44c.009-.055.018-.111.027-.168a2.737,2.737,0,0,0-.1-1.172l-.05-.139c-.011-.024-.024-.05-.038-.076a.529.529,0,0,1-.026-.05c-.009-.014-.017-.031-.026-.047s-.026-.052-.041-.078l-.085-.121a.853.853,0,0,0-.115-.145c-.026-.027-.05-.056-.075-.085l-.087-.078-.095-.06a1.6,1.6,0,0,0-1.1.011c-.256.069-.511.159-.781.255-.177.064-.359.128-.546.189a3.845,3.845,0,0,1-.385.1l-.049.009a1.433,1.433,0,0,1-.179.021h-.029c-.031,0-.063,0-.095,0-.052,0-.1-.011-.148-.018a1.013,1.013,0,0,1-.168-.053.655.655,0,0,1-.124-.072l-.027-.02a.758.758,0,0,1-.211-.292.686.686,0,0,1-.044-.15l-.006-.035a.647.647,0,0,1-.014-.1c0-.021,0-.044,0-.067a1.015,1.015,0,0,1,0-.168,2.887,2.887,0,0,1,.055-.379l0-.027c.012-.04.02-.076.029-.113a2.136,2.136,0,0,1,.079-.272,2.539,2.539,0,0,1,.382-.736,2.783,2.783,0,0,1,.594-.569,3.081,3.081,0,0,1,.716-.365,3.992,3.992,0,0,1,2.973.183,3.62,3.62,0,0,1,1.925,2.141A4.247,4.247,0,0,1,928.352,721.586Z"
                        transform="translate(-921.382 -709.382)" />
                      <path id="Path_3505" data-name="Path 3505"
                        d="M985.379,737.173c.006-.015.011-.029.017-.043a.757.757,0,0,0,.032-.089,1.022,1.022,0,0,0,.04-.186.64.64,0,0,0,0-.108.5.5,0,0,0-.049-.2.515.515,0,0,0-.073-.113.462.462,0,0,0-.128-.107l-.008,0a.29.29,0,0,0-.061-.032l-.018-.008-.014,0a.224.224,0,0,0-.034-.008.159.159,0,0,0,0-.02.108.108,0,0,0,0-.021v-.053a.315.315,0,0,0,0-.066.62.62,0,0,0-.049-.186.6.6,0,0,0-.24-.278.909.909,0,0,0-.293-.113,1.129,1.129,0,0,0-.137-.021l-.063,0a.046.046,0,0,0-.006-.012.062.062,0,0,0-.011-.017l0-.009a.225.225,0,0,0-.038-.05l-.069-.075c-.02-.015-.041-.029-.061-.043l-.024-.014a.524.524,0,0,0-.35-.053,1.107,1.107,0,0,0-.447.2.989.989,0,0,0-.282.269,1.747,1.747,0,0,0-.267.175c-.114.081-.272.192-.464.321q-.364.243-.751.47-.634.373-1.325.7l-.258.119-.464.2c-.238.1-.519.221-.8.365a7.109,7.109,0,0,0-.823.488,4.926,4.926,0,0,0-.4.313c-.061.055-.124.113-.2.186s-.124.137-.18.214a1.768,1.768,0,0,0-.325,1.117,1.747,1.747,0,0,0,.481,1.123,1.678,1.678,0,0,0,1.168.492h.009a1.58,1.58,0,0,0,.65-.145,2.146,2.146,0,0,0,.281-.153l.134-.082.691-.424,1.175-.72c.1-.061.2-.124.3-.186.185-.114.359-.223.53-.32a5.621,5.621,0,0,1,.8-.372l.026-.011c.121-.043.246-.089.372-.137.157-.061.319-.125.479-.2a5.252,5.252,0,0,0,.8-.427,2.087,2.087,0,0,0,.266-.2l.093-.076.156-.162a.858.858,0,0,0,.1-.127l.043-.061a1.125,1.125,0,0,0,.081-.16l.026-.06.014-.061a.6.6,0,0,0,.029-.18.777.777,0,0,0-.029-.253l-.011-.031a.559.559,0,0,0-.032-.084l-.04-.076,0-.006-.011-.014a.012.012,0,0,0,0-.006Zm-.319.6a1.268,1.268,0,0,1-.629.679,6.216,6.216,0,0,1-1.146.534l-.194.07-.021.008-.217.075a6.075,6.075,0,0,0-.9.4c-.2.11-.386.224-.569.337-.093.056-.188.115-.285.172l-1.757,1.07c-.053.031-.108.066-.162.1a2.769,2.769,0,0,1-.311.179,1.134,1.134,0,0,1-.455.1.972.972,0,0,1-.229-.023,1.82,1.82,0,0,1-.224-.069,1.255,1.255,0,0,1-.379-.25,1.274,1.274,0,0,1-.354-.813,1.306,1.306,0,0,1,.229-.829c.035-.047.072-.092.111-.139l.024-.029c.058-.061.111-.113.165-.162a4.558,4.558,0,0,1,.357-.29,6.851,6.851,0,0,1,.76-.476c.258-.14.521-.264.763-.375l.375-.174.351-.177c.435-.227.812-.447,1.128-.652a10.439,10.439,0,0,0,.922-.661,3.153,3.153,0,0,0,.643-.626.548.548,0,0,0,.114-.06c.052-.029.122-.07.211-.116a1.037,1.037,0,0,1,.386-.125.3.3,0,0,1,.194.043.261.261,0,0,0,.021.017.112.112,0,0,1,.018.014l.044.055a.481.481,0,0,1,.026.05l.011.023.018.035a.465.465,0,0,0,.035.067l.009.015h.015c.046,0,.111,0,.166.011a.689.689,0,0,1,.11.024.645.645,0,0,1,.194.086.3.3,0,0,1,.115.148.294.294,0,0,1,.017.087l0,.012a.082.082,0,0,1,0,.027.14.14,0,0,0,0,.026.656.656,0,0,1-.015.1l0,.009,0,.009c0,.014.011.031.015.046a.478.478,0,0,0,.038.1l.009.009a.776.776,0,0,1,.111.1l.006.006.024.006.024.008a.2.2,0,0,1,.031.014.2.2,0,0,1,.018.009l.008.006a.142.142,0,0,1,.041.038.251.251,0,0,1,.024.044.163.163,0,0,1,.009.064.564.564,0,0,1-.032.165l-.006.014a1.085,1.085,0,0,1-.066.146v0c-.012.021-.024.044-.04.07l0,.008v.05a.448.448,0,0,0,0,.09,1.086,1.086,0,0,1,.029.121l0,.011A.414.414,0,0,1,985.06,737.77Z"
                        transform="translate(-968.305 -724.259)" />
                      <path id="Path_3506" data-name="Path 3506"
                        d="M1019.957,739.264c.147-.106.214-.265.15-.355s-.237-.078-.384.027-.214.265-.15.355S1019.809,739.37,1019.957,739.264Z"
                        transform="translate(-1004.564 -727.331)" />
                      <path id="Path_3507" data-name="Path 3507"
                        d="M1023.8,742.084c.148-.106.215-.265.15-.355s-.237-.078-.384.027-.214.265-.15.355S1023.655,742.19,1023.8,742.084Z"
                        transform="translate(-1007.823 -729.72)" />
                      <path id="Path_3508" data-name="Path 3508"
                        d="M1025.182,747.114a.366.366,0,0,1-.33-.038.141.141,0,0,1-.043-.064c-.031-.107.085-.235.261-.284a.441.441,0,0,1,.243-.006.166.166,0,0,1,.128.108C1025.472,746.937,1025.356,747.066,1025.182,747.114Z"
                        transform="translate(-1009.019 -733.991)" />
                      <path id="Path_3509" data-name="Path 3509"
                        d="M1024.073,751.924c-.181,0-.328.09-.328.2s.147.2.328.2.329-.09.329-.2S1024.254,751.924,1024.073,751.924Z"
                        transform="translate(-1008.12 -738.411)" />
                      <path id="Path_3510" data-name="Path 3510"
                        d="M969.737,839.7a.555.555,0,0,0-.032-.082l-.04-.078,0-.006a.084.084,0,0,0-.011-.014.012.012,0,0,0,0-.006l.038-.082c0-.014.009-.027.015-.041a.787.787,0,0,0,.032-.09.835.835,0,0,0,.041-.295.505.505,0,0,0-.122-.318.477.477,0,0,0-.127-.107l-.008,0a.593.593,0,0,0-.061-.032l-.02-.008-.014,0-.034-.008a.16.16,0,0,0,0-.02.094.094,0,0,0,0-.021v-.055a.229.229,0,0,0,0-.064.622.622,0,0,0-.049-.186.6.6,0,0,0-.24-.278.946.946,0,0,0-.293-.113,1.138,1.138,0,0,0-.136-.021.449.449,0,0,0-.063,0,.038.038,0,0,1-.006-.011c0-.006-.008-.014-.011-.018l-.006-.009a.222.222,0,0,0-.038-.05l-.069-.075a.629.629,0,0,0-.061-.043l-.024-.014a.522.522,0,0,0-.35-.053,1.117,1.117,0,0,0-.447.2.989.989,0,0,0-.282.269,1.752,1.752,0,0,0-.266.174c-.115.082-.272.192-.466.322-.377.253-.775.493-1.191.72-.287.156-.583.307-.885.449l-.35.162-.372.159c-.237.1-.517.22-.8.365-.09.046-.176.092-.258.139-.137.076-.266.153-.388.232-.06.038-.119.078-.175.117a4.706,4.706,0,0,0-.4.313c-.063.055-.127.116-.2.186a2.677,2.677,0,0,0-.179.214,1.769,1.769,0,0,0,.154,2.242,1.683,1.683,0,0,0,1.168.49h.009a1.616,1.616,0,0,0,.652-.143,2.349,2.349,0,0,0,.279-.153l2-1.229c.1-.061.2-.124.3-.186l.108-.066c.145-.092.285-.177.423-.255.038-.021.076-.041.114-.061a5.534,5.534,0,0,1,.713-.32c.122-.044.249-.092.377-.14a6.665,6.665,0,0,0,1.276-.623,2.087,2.087,0,0,0,.266-.2l.095-.076.154-.162a.869.869,0,0,0,.1-.127l.043-.061a1.194,1.194,0,0,0,.081-.159l.026-.061c0-.02.009-.041.015-.061a.6.6,0,0,0,.027-.18.777.777,0,0,0-.029-.253Zm-.35-.514,0,.014a1.485,1.485,0,0,1-.107.218l0,.008v.008a.4.4,0,0,1,0,.043.356.356,0,0,0,0,.09c.009.034.018.073.027.121l0,.011a.415.415,0,0,1,.064.331,1.262,1.262,0,0,1-.629.679,7.564,7.564,0,0,1-1.577.687,4.913,4.913,0,0,0-.488.2c-.139.061-.276.13-.412.2s-.267.154-.4.232l-.174.105-.125.076-.16.1-1.757,1.07-.16.1a2.93,2.93,0,0,1-.313.179,1.134,1.134,0,0,1-.455.1.97.97,0,0,1-.229-.021,2.127,2.127,0,0,1-.224-.07,1.255,1.255,0,0,1-.379-.25,1.282,1.282,0,0,1-.354-.813,1.316,1.316,0,0,1,.229-.829c.035-.047.072-.092.111-.139l.024-.029c.058-.061.113-.113.166-.162a4.224,4.224,0,0,1,.356-.29c.1-.072.2-.143.314-.215s.235-.143.365-.215l.082-.046c.261-.142.52-.264.763-.374l.374-.176.353-.177c.241-.125.462-.249.667-.368a11.346,11.346,0,0,0,1.381-.945,3.153,3.153,0,0,0,.643-.626.59.59,0,0,0,.116-.06c.05-.029.121-.07.209-.116a1.037,1.037,0,0,1,.386-.125.3.3,0,0,1,.194.043c.006.006.014.011.021.017l.02.014.043.055a.442.442,0,0,1,.027.05l.011.023c.006.011.011.023.017.035s.023.047.035.069l.009.014h.017c.044,0,.11,0,.165.011a.8.8,0,0,1,.11.024.668.668,0,0,1,.194.086.3.3,0,0,1,.114.148.294.294,0,0,1,.017.087l0,.012a.2.2,0,0,1,0,.028.134.134,0,0,0,0,.026.654.654,0,0,1-.015.1l0,.009,0,.009a.42.42,0,0,1,.015.046.474.474,0,0,0,.04.1l.009.011a.807.807,0,0,1,.11.1l.006.006.024.006.024.008.031.014a.057.057,0,0,1,.018.011l.008,0a.123.123,0,0,1,.041.038.162.162,0,0,1,.034.108A.479.479,0,0,1,969.387,839.187Z"
                        transform="translate(-955.009 -810.91)" />
                      <path id="Path_3511" data-name="Path 3511"
                        d="M1004.269,841.525c.147-.106.214-.265.15-.355s-.237-.078-.384.027-.214.265-.15.355S1004.121,841.631,1004.269,841.525Z"
                        transform="translate(-991.271 -813.983)" />
                      <path id="Path_3512" data-name="Path 3512"
                        d="M1008.115,844.345c.147-.106.214-.265.15-.355s-.237-.078-.384.027-.214.265-.15.355S1007.967,844.451,1008.115,844.345Z"
                        transform="translate(-994.529 -816.373)" />
                      <path id="Path_3513" data-name="Path 3513"
                        d="M1009.126,849.269c.031.107.2.153.371.1s.291-.178.26-.285-.2-.153-.371-.1S1009.095,849.162,1009.126,849.269Z"
                        transform="translate(-995.729 -820.639)" />
                      <path id="Path_3514" data-name="Path 3514"
                        d="M1008.385,854.185c-.182,0-.328.09-.328.2s.147.2.328.2.328-.09.328-.2S1008.566,854.185,1008.385,854.185Z"
                        transform="translate(-994.827 -825.063)" />
                      <path id="Path_3515" data-name="Path 3515" d="M1062.812,714.983s-.961,3.2,3.16,2.1"
                        transform="translate(-1041.142 -707.108)" fill="none" stroke="#000" stroke-width="0.5" />
                      <path id="Path_3516" data-name="Path 3516"
                        d="M1061.457,794.277c.224-.043.464-.092.72-.154a12.014,12.014,0,0,0,1.3-.4,9.773,9.773,0,0,0,3-1.706,7.273,7.273,0,0,0,1.369-1.546,6.414,6.414,0,0,0,.884-2.044,5.183,5.183,0,0,0-.7-4.178,3.382,3.382,0,0,0-.688-.722,2.087,2.087,0,0,0-.888-.394,2.011,2.011,0,0,0-.9.056,2.985,2.985,0,0,0-.736.331,4.75,4.75,0,0,0-.63.478c-.076.067-.146.133-.209.2a0,0,0,0,0,0,0c-.072.069-.134.134-.189.192a7.607,7.607,0,0,0-.633.775,2.53,2.53,0,0,0-.429.756l0,.015.011.008c.04.026.07-.014.273-.258.082-.1.189-.229.319-.38.165-.188.345-.391.566-.606.032-.034.067-.066.1-.1.052-.049.111-.1.177-.162a5.009,5.009,0,0,1,.824-.6,2.012,2.012,0,0,1,1.378-.293,1.677,1.677,0,0,1,.7.334,2.975,2.975,0,0,1,.583.636,4.865,4.865,0,0,1,.592,3.8,6.055,6.055,0,0,1-.811,1.894,7,7,0,0,1-1.265,1.465,10.029,10.029,0,0,1-2.834,1.709c-.366.147-.71.269-1.024.372-.27.089-.517.163-.737.226Z"
                        transform="translate(-1040.077 -764.837)" />
                      <path id="Path_3517" data-name="Path 3517"
                        d="M994.212,846.668s-.051.3,1.086.628a.76.76,0,0,0,.809-.252c.379-.492-.492-.713-.492-.713s.367-.553-.063-.814a.6.6,0,0,0-.685.068C993.988,846.315,994.212,846.668,994.212,846.668Z"
                        transform="translate(-983.074 -817.652)" />
                      <path id="Path_3518" data-name="Path 3518"
                        d="M1010.907,744.533s-.049.276.936.549a.667.667,0,0,0,.708-.243c.338-.451-.417-.636-.417-.636s.328-.507-.042-.736a.51.51,0,0,0-.6.074C1010.717,744.217,1010.907,744.533,1010.907,744.533Z"
                        transform="translate(-997.225 -731.189)" />
                    </g>
                  </g>
                </svg>