<svg xmlns="http://www.w3.org/2000/svg" width="31.978" height="33.684" viewBox="0 0 31.978 33.684">
  <g id="Group_18738" data-name="Group 18738" transform="translate(-27.561 -210.35)">
    <path id="Path_3539" data-name="Path 3539" d="M65.584,235.051a17.864,17.864,0,0,1,7.236-1.719" transform="translate(-13.283 -7.808)" fill="none" stroke="#1f1c1a" stroke-width="0.13"/>
    <g id="Group_18737" data-name="Group 18737" transform="translate(27.578 210.991)">
      <path id="Path_3540" data-name="Path 3540" d="M49.553,235.117c-.161-.591-.965-.576-1.423-.392a.3.3,0,0,0-.15.464.266.266,0,0,0,.194.18l.02,0a1.249,1.249,0,0,0,.244.081.3.3,0,0,0,.425.16l.016-.009h.007a.343.343,0,0,0,.145.012.27.27,0,0,0,.174.009.324.324,0,0,0,.2-.18A.273.273,0,0,0,49.553,235.117Z" transform="translate(-34.688 -219.246)" fill="#1a1818"/>
      <path id="Path_3541" data-name="Path 3541" d="M58.437,220.625a.265.265,0,0,0-.022-.052,1.4,1.4,0,0,0,.008-.345,1.077,1.077,0,0,0,.052-.37.269.269,0,0,0-.36-.233c.022-.066.046-.131.071-.191a.274.274,0,0,0-.1-.34c.017-.1.031-.207.042-.309a2.349,2.349,0,0,0,.093-.715l.012-.034a.205.205,0,0,0-.024-.193c0-.017.006-.034.009-.05.044-.24.1-.483.119-.727a.355.355,0,0,1-.306-.374,3.233,3.233,0,0,1,.2-.44.255.255,0,0,0-.4-.307.788.788,0,0,0-.07.082,5.283,5.283,0,0,0,.152-.541.255.255,0,0,0-.122-.28c.006-.029.012-.057.018-.085a.28.28,0,0,0-.066-.23.6.6,0,0,0,.014-.088.219.219,0,0,0-.2-.241,2.035,2.035,0,0,0,.044-.263.207.207,0,0,0-.223-.24.344.344,0,0,0-.154-.216.269.269,0,0,0-.151-.075l0-.018a.225.225,0,0,0-.081-.137l.009-.025a.211.211,0,0,0-.023-.2.247.247,0,0,0-.208-.26.23.23,0,0,0-.182-.209.226.226,0,0,0-.229-.16.6.6,0,0,0-.116.016.245.245,0,0,0-.242-.064,1.236,1.236,0,0,0-.484.319.268.268,0,0,0-.2.068,1.424,1.424,0,0,0-.27.326,2.133,2.133,0,0,0-.656.728,7.474,7.474,0,0,0-.359.7c-.239-.027-.406.25-.517.517a1.482,1.482,0,0,0-.264.355,1.725,1.725,0,0,0-.435.585,1.525,1.525,0,0,0-.4.613c-.028.031-.055.062-.081.1a.2.2,0,0,0-.213.021,1.2,1.2,0,0,0-.284.4.6.6,0,0,0-.36.432.261.261,0,0,0-.11.064,1.048,1.048,0,0,0-.247.577,2.076,2.076,0,0,0-.208.22.043.043,0,0,0-.053-.031l.02-.036a.042.042,0,0,0-.073-.043c-.014.02-.03.038-.044.057l.008-.014a.042.042,0,0,0-.01-.051.2.2,0,0,0,.015-.04.036.036,0,0,0,0-.02c.012-.019.025-.038.036-.057a.042.042,0,0,0-.057-.058.416.416,0,0,0-.077.062.042.042,0,0,0-.053-.038.21.21,0,0,0-.047.022.047.047,0,0,0-.066.009.868.868,0,0,0-.07.118,2.072,2.072,0,0,0-.382-.313q-.8-.333-.085-.049l-.057-.036A2.986,2.986,0,0,0,48.9,217.9q-.822-.107-.243-.036l-.472-.064c-.015,0-.273,0-.351,0l-.263-.034-.065,0a1.858,1.858,0,0,0-.448-.045c-.114,0-.228,0-.343,0-.053,0-.089,0-.114,0a4.462,4.462,0,0,0-.485-.032c-.139,0-.958.012-.564.049.282.027-.2-.018-.252-.021l-.066,0-.083-.011a1.016,1.016,0,0,0-.315-.029,1.318,1.318,0,0,0-.341-.03c-.016-.077-.033-.154-.051-.231a.219.219,0,0,0-.251-.18l-.009-.019c-.053-.19-.146-.379-.208-.554-.082-.229-.111-.57-.3-.744a1.51,1.51,0,0,0-.226-.449,3.591,3.591,0,0,0-.256-.7c-.03-.1-.064-.2-.1-.3,0-.053.005-.106.007-.159a.249.249,0,0,0-.226-.245.662.662,0,0,0-.247-.208.31.31,0,0,0-.145-.023.22.22,0,0,0-.02-.034,1.716,1.716,0,0,0-.157-.5.229.229,0,0,0-.317-.1c-.008-.075-.02-.147-.033-.213a.888.888,0,0,0,0-.224.19.19,0,0,0-.068-.118.228.228,0,0,0-.008-.043.794.794,0,0,0-1.006-.453,1.386,1.386,0,0,0-.909.839c-.023.059-.057.131-.088.209-.018.031-.035.062-.051.095a.6.6,0,0,0-.128.1,1.154,1.154,0,0,0-.142.2,2.047,2.047,0,0,0-.552.864c-.02.044-.038.089-.057.134a1.933,1.933,0,0,0-.4.567,5.443,5.443,0,0,0-.5,1.128,12.011,12.011,0,0,0-.4,2.37,12.954,12.954,0,0,0,.071,2.279c.069.57.127,1.458.615,1.836a.178.178,0,0,0,.088.033c-.065.124-.123.248-.18.363a3.441,3.441,0,0,0-.233.564c-.058.138-.11.279-.161.422a3.36,3.36,0,0,0-.243.886,1.82,1.82,0,0,0-.087.525,1.615,1.615,0,0,0,.042.917,2.307,2.307,0,0,0,.062.484,3.17,3.17,0,0,0,.3,1.259.367.367,0,0,0,.029.049,3.075,3.075,0,0,0,.148.363.333.333,0,0,0,.039.061c.033.1.062.2.085.306a.323.323,0,0,0,.362.272.384.384,0,0,0,.583-.277l.022.015a.384.384,0,0,0,.572-.328,1.008,1.008,0,0,0-.058-.4.388.388,0,0,0-.023-.053l.026.018a.673.673,0,0,0,.087.1.41.41,0,0,0,.49.07.456.456,0,0,0,.2-.4.381.381,0,0,0-.152-.3.4.4,0,0,0-.085-.08.449.449,0,0,0-.169-.213.5.5,0,0,0-.293-.106h-.014c0-.01,0-.021,0-.032a1.3,1.3,0,0,0-.177-.586,1.829,1.829,0,0,0-.172-.477l0-.02a2.255,2.255,0,0,0-.113-.593l-.006-.013c0-.029,0-.058,0-.087a1.424,1.424,0,0,0-.04-.5.34.34,0,0,0,.116-.146c.013-.03.025-.06.037-.091h0v-.007c.069-.178.12-.362.172-.545a.4.4,0,0,0,.087-.1,1.413,1.413,0,0,0,.156-.568,3.449,3.449,0,0,1,.209-.356.275.275,0,0,0,.043-.1,1.569,1.569,0,0,0,.285-.446.4.4,0,0,0,.031-.129l.031-.051a.406.406,0,0,0,.217-.144c.235-.308.56-.571.817-.874a3.759,3.759,0,0,1,.615-.271.38.38,0,0,0,.368.376c.549.056.969.6,1.231,1.045.154.265.333.52.462.8a3.112,3.112,0,0,1,.359.967.387.387,0,0,0,.061.184,2.057,2.057,0,0,0,0,1.238c-.006.016-.012.031-.016.046a1.45,1.45,0,0,0-.024.239l0,0a.814.814,0,0,0-.063.075.3.3,0,0,0-.023.353.113.113,0,0,0-.015.036.148.148,0,0,0,.009.115.056.056,0,0,0,.07.029.07.07,0,0,0,.073-.046.4.4,0,0,0,.457-.006,2.89,2.89,0,0,1,.623.044c.407.02.473-.5.2-.691a.978.978,0,0,0,.072-.23.47.47,0,0,0,0-.06.972.972,0,0,0,.073-.456c.051,0,.1.008.156.008a1.854,1.854,0,0,0,1.579-.958A1.715,1.715,0,0,0,47.9,224a.252.252,0,0,0,.22-.068c.156-.162.265-.405.4-.557.04-.044.082-.1.125-.151a.255.255,0,0,0,.216-.067,1.893,1.893,0,0,0,.315-.4.221.221,0,0,0,.1-.031.766.766,0,0,0,.263-.282.2.2,0,0,0,.173-.088c.029-.036.06-.077.093-.121a.583.583,0,0,0,.116-.092.249.249,0,0,0,.167.016c.126-.029.247-.055.37-.078.086-.013.172-.022.26-.027a.212.212,0,0,0,.086,0,1.461,1.461,0,0,1,.641.129l.053.023a.229.229,0,0,0,0,.134c.068.219.253.23.453.252a1.107,1.107,0,0,1,.15.026,1.35,1.35,0,0,1,.284.158.279.279,0,0,0,.071.04c.069.066.137.146.221.239a8.049,8.049,0,0,1,.924,1.294c.261.441.475.915.742,1.352a6.977,6.977,0,0,1-.541,1.987,5.731,5.731,0,0,0-.406.977,5.117,5.117,0,0,0-.1,1.11c-.02.4-.251,1.724.394,1.742.384.012.479-.419.7-.645a.262.262,0,0,0,.441,0c.088-.172.187-.338.285-.5a.271.271,0,0,0,.411-.121q.063-.151.123-.3a1.7,1.7,0,0,0,.148-.188.236.236,0,0,0,.164-.12,3.14,3.14,0,0,0,.323-.834,3.252,3.252,0,0,0,.217-.983.249.249,0,0,0,0-.044c.021-.07.042-.139.062-.209a.232.232,0,0,0-.089-.261c.047-.148.091-.289.137-.406a.207.207,0,0,0-.063-.241l.04-.1a.212.212,0,0,0-.145-.289c.005-.021.012-.043.016-.065a.23.23,0,0,0,0-.1.309.309,0,0,0,.062-.014.282.282,0,0,0,.155.006.455.455,0,0,0,.132-.062.245.245,0,0,0,.247-.118c.073-.113.094-.288.164-.409a.573.573,0,0,0,.114-.18.2.2,0,0,0-.031-.21c.018-.055.034-.112.051-.168a9.155,9.155,0,0,0,.366-1.013.286.286,0,0,0,.01-.072,1.433,1.433,0,0,0,.094-.424.232.232,0,0,0-.025-.109,2.41,2.41,0,0,0,.142-.43,1.575,1.575,0,0,0,.264-.538,1.536,1.536,0,0,0,.088-.563c.028-.126.051-.248.077-.352l0-.012A1.214,1.214,0,0,0,58.437,220.625Z" transform="translate(-31.037 -211.378)" fill="#d8ccc0"/>
      <g id="Group_18734" data-name="Group 18734" transform="translate(7.488 12.686)">
        <path id="Path_3542" data-name="Path 3542" d="M54.669,234.206a1.042,1.042,0,0,0-.593.109c-.192.062-.383.124-.576.181-.548.164-1.1.347-1.641.542-.117.042-.234.078-.351.111a.286.286,0,0,0-.189.016l-.049.023a6.652,6.652,0,0,1-1.341.013c-.113-.015-.227-.023-.339-.04a.669.669,0,0,0-.113-.029c-.062-.017-.318,0-.47-.027a.237.237,0,0,0-.049-.064.31.31,0,0,0-.231-.222.275.275,0,0,0-.243-.146.283.283,0,0,0-.187-.075.448.448,0,0,0,.015-.107v-.016l.007-.036a.265.265,0,0,0-.21-.31.271.271,0,0,0-.145-.166.878.878,0,0,0-.031-.114.041.041,0,0,0-.033-.029l-.008-.031a.035.035,0,0,0-.016-.025.044.044,0,0,0,.021-.01.042.042,0,0,0,.075-.024c.005-.036.009-.073.013-.11a.048.048,0,0,0,.062-.026h0a.043.043,0,0,0,.063-.036c0-.059.023-.116.029-.174a.041.041,0,0,0-.049-.041c.007-.02.014-.04.019-.059a.039.039,0,0,0-.02-.047c0-.016.01-.032.014-.049a.042.042,0,0,0-.015-.043c0-.015.008-.029.013-.042.012-.034-.019-.054-.047-.05a.041.041,0,0,0-.018-.038c.01-.025.019-.05.026-.075a.044.044,0,0,0-.049-.053c0-.022.008-.042.01-.057a.042.042,0,0,0-.01-.034v-.012a.145.145,0,0,0,0-.086.459.459,0,0,0,.025-.085.05.05,0,0,0-.018-.044v-.009a.036.036,0,0,0-.019-.034l.02-.038a.045.045,0,0,0-.02-.061c0-.011,0-.021.006-.031a.044.044,0,0,0-.029-.052l-.021-.008a.038.038,0,0,0-.031.005c.025-.124.036-.251.059-.377.021-.079.043-.158.061-.235a.473.473,0,0,0,.011-.077,2.187,2.187,0,0,0,.146-.548l0-.007h0c.015-.032.029-.062.04-.09a.314.314,0,0,0-.221-.436.338.338,0,0,0-.522.114l0,.009a.405.405,0,0,0-.128.087c-.014.014-.026.029-.039.042a.447.447,0,0,0-.247.036.533.533,0,0,0-.239.3.428.428,0,0,0-.388.094,1.413,1.413,0,0,0-.274,1,.351.351,0,0,0-.369.069l-.077.017c-.4.107-.336.779.1.747.06,0,.087,0,.081-.007.033.014.066.028.1.04.12.023.237.04.355.061a3.105,3.105,0,0,1,.321.078l.15.048h.008a.308.308,0,0,0,.044.033c0,.068,0,.133,0,.191a.359.359,0,0,0,.206.324.41.41,0,0,0-.217.084.826.826,0,0,0-.211.291c-.016.02-.033.04-.049.059a.39.39,0,0,0-.693.224,1.96,1.96,0,0,0,.023.354l-.005.005c-.027.042-.055.089-.083.139a.757.757,0,0,0-.22.3,1.719,1.719,0,0,0-.1.824c0,.018,0,.036,0,.053a.316.316,0,0,0-.128-.1,1.848,1.848,0,0,0-.013-.538.8.8,0,0,0-.07-.472.271.271,0,0,1-.173-.155.307.307,0,0,0-.115-.1c-.025-.172-.1-.306-.273-.332,0-.025,0-.05-.008-.075a.244.244,0,0,0-.177-.177.4.4,0,0,0-.4.162.749.749,0,0,0-.184.155,1.27,1.27,0,0,0-.122.039.267.267,0,0,0-.123,0,1.067,1.067,0,0,0-.259.088,1.2,1.2,0,0,0-.271-.069,3.089,3.089,0,0,1-.889-.36.452.452,0,0,0-.081-.044,1.185,1.185,0,0,0-.141-.054.322.322,0,0,0-.066-.015,1.781,1.781,0,0,0-.587-.129.617.617,0,0,0-.208-.071,1.634,1.634,0,0,1-.125-.107,1.788,1.788,0,0,0-.129-.138.357.357,0,0,0-.323-.109,1,1,0,0,0-.208-.228.413.413,0,0,0-.264-.089l-.029-.023c-.333-.238-.734.253-.5.55a.283.283,0,0,0,.01.194.673.673,0,0,0,.549.44c-.291.184-.736.369-.785.735a.8.8,0,0,0-.353.328.261.261,0,0,0,.1.353.3.3,0,0,0,.137.358.311.311,0,0,0,.068.036.321.321,0,0,0,.08.1.38.38,0,0,0,.176.081.363.363,0,0,0,.049.067.325.325,0,0,0,.191.1,3.33,3.33,0,0,0,.442.667.761.761,0,0,0,.146.12.625.625,0,0,0,.323-.012,4.87,4.87,0,0,1,1.03-.061c.339.013.642-.057.976-.073a.275.275,0,0,0,.252-.282.457.457,0,0,0,.122.051.359.359,0,0,0,.162,0,.293.293,0,0,0,.055.029.371.371,0,0,0,.29.077.22.22,0,0,0,.157.012.31.31,0,0,0,.088.058.253.253,0,0,0,.261.085.782.782,0,0,0,.379-.242c.02-.006.041-.012.062-.017a.231.231,0,0,0,.114-.058.593.593,0,0,1,.131.022.3.3,0,0,0,.074.01l.085.077a.289.289,0,0,0,.234.071.255.255,0,0,0,.3-.044,1.137,1.137,0,0,0,.146-.2l0,0a.323.323,0,0,0,.339.17.387.387,0,0,0,.079-.014.284.284,0,0,0,.159-.024.39.39,0,0,0,.264.1.506.506,0,0,0,.436-.114.555.555,0,0,0,.075.063.216.216,0,0,0,.144.033.2.2,0,0,0,.107.109.914.914,0,0,0,1.175-.532.279.279,0,0,0,.1-.16.316.316,0,0,0,.066.011.279.279,0,0,0,.114.2l-.021.016a.26.26,0,0,0-.075.084l-.06.048a.206.206,0,0,0-.075.188c-.024.029-.049.056-.075.083a2.808,2.808,0,0,1-.635.144.259.259,0,0,0-.254.253,2.786,2.786,0,0,0,.231.719c.052.148.143.281.185.431.049.176.008.355.049.53a.25.25,0,0,0,.379.142.216.216,0,0,0,.234-.07l0,0a.214.214,0,0,0,.186-.036.232.232,0,0,0,.306.047,1.178,1.178,0,0,0,.1-.07.2.2,0,0,0,.273.028.246.246,0,0,0,.333-.009q.127-.117.261-.228a.264.264,0,0,0,.334.08l.021-.011a.207.207,0,0,0,.311.055l.243-.174a.21.21,0,0,0,.28.021c.115-.088.232-.172.351-.254a.208.208,0,0,0,.245-.005l.105-.079a.237.237,0,0,0,.278.023c.052-.029.1-.061.153-.093a.209.209,0,0,0,.189-.028l.031-.021a.244.244,0,0,0,.2-.024l.163-.094a.282.282,0,0,0,.329.071,5.735,5.735,0,0,0,.738-.5.254.254,0,0,0,.067-.366.228.228,0,0,0-.014-.084.211.211,0,0,0-.027-.289.285.285,0,0,0-.072-.345l.026-.029a.277.277,0,0,0,.062-.111.374.374,0,0,0,.1-.255.29.29,0,0,0-.191-.283.268.268,0,0,0-.013-.153.311.311,0,0,0-.044-.079c.027-.022.053-.044.078-.067a.262.262,0,0,0-.009-.366c.087-.068.173-.137.257-.209a.25.25,0,0,0-.124-.422,1.9,1.9,0,0,0,.559-.305A.256.256,0,0,0,54.669,234.206ZM42.6,236.242a.125.125,0,0,0-.022,0,.783.783,0,0,0,.049-.072.68.68,0,0,0,.078.1A.327.327,0,0,0,42.6,236.242Zm.259.47a.23.23,0,0,0-.036-.078.362.362,0,0,0,.005-.038c.005-.011.012-.021.016-.033v0a.681.681,0,0,0,.051.167Zm4.667-2.644a.372.372,0,0,0-.174-.168.342.342,0,0,0,.2-.082,1.639,1.639,0,0,0-.018.169.038.038,0,0,0,.025.038A.258.258,0,0,0,47.53,234.068Z" transform="translate(-39.09 -230.493)" fill="#d8ccc0"/>
        <path id="Path_3543" data-name="Path 3543" d="M53.271,236.64c0,.024,0,.029,0,0Z" transform="translate(-44.046 -232.642)" fill="#d8ccc0"/>
      </g>
      <path id="Path_3544" data-name="Path 3544" d="M40.372,251.331l0-.142a.249.249,0,0,0-.054-.154,1.761,1.761,0,0,0-.083-.533.262.262,0,0,0-.226-.185,1.643,1.643,0,0,0-.165-.289.26.26,0,0,0-.3-.107c-.113-.086-.232-.156-.351-.237a.219.219,0,0,0-.222-.011.572.572,0,0,0-.336-.02.331.331,0,0,0-.15.106.3.3,0,0,0-.181.013.968.968,0,0,0-.079-.6c0-.04,0-.079,0-.119a.229.229,0,0,0-.095-.194c0-.018,0-.036,0-.054V248.8a.287.287,0,0,0,.014-.06c.005-.042,0-.123.007-.188a.256.256,0,0,0,.033-.079l.013-.057a.246.246,0,0,0-.073-.247c0-.042,0-.083-.006-.126a.253.253,0,0,0-.355-.226.2.2,0,0,0-.2.127,1.036,1.036,0,0,0-.064.192.249.249,0,0,0-.089.085,1.823,1.823,0,0,0-.143.323.8.8,0,0,0-.263.3,1.166,1.166,0,0,0-.3.442,1.424,1.424,0,0,0-.275.479,2.037,2.037,0,0,0-.269.6,2.407,2.407,0,0,0-.137.883,3.022,3.022,0,0,0-.02.506,1.217,1.217,0,0,0,.221,1.236.543.543,0,0,0,.074.131.568.568,0,0,0,.1.093.5.5,0,0,0,.293.389.4.4,0,0,0,.084.016.368.368,0,0,0,.107.065.456.456,0,0,0,.118.145.438.438,0,0,0,.448.252c.016.02.034.04.052.059a.248.248,0,0,0,.247.065.7.7,0,0,0,.092-.042.317.317,0,0,0,.263-.064.345.345,0,0,0,.445-.114.217.217,0,0,0,.168-.031l.048-.038h0a.412.412,0,0,0,.33.035c.014,0,.027.006.041.007a.253.253,0,0,0,.247-.065l.046-.06.021-.009a.949.949,0,0,0,.191-.151c.3-.087.437-.455.533-.752.009-.028.018-.057.026-.087a1.57,1.57,0,0,0,.1-.334,3.66,3.66,0,0,0,.127-1.008A.211.211,0,0,0,40.372,251.331Z" transform="translate(-30.498 -223.853)" fill="#d8ccc0"/>
      <path id="Path_3545" data-name="Path 3545" d="M56.262,253.415a.217.217,0,0,0-.056-.034.248.248,0,0,0-.312.061,5.364,5.364,0,0,1-.237-.582c-.067-.168-.083-.356-.148-.528a2.478,2.478,0,0,1-.263-.6c-.031-.3-.474-.323-.506-.061a.327.327,0,0,0-.117-.06.288.288,0,0,0-.22.014,1.056,1.056,0,0,0,.065-.18.732.732,0,0,1,.384-.031c.206-.1.313-.414.381-.673a1.264,1.264,0,0,0,.12-.223,1.035,1.035,0,0,0,.326-.671,1.294,1.294,0,0,0,.081-.589,2.206,2.206,0,0,0,.057-.744,1.284,1.284,0,0,0,.057-.647.253.253,0,0,0-.3-.175.247.247,0,0,0-.04-.028,1.791,1.791,0,0,0,.04-.36.266.266,0,0,0-.306-.25.253.253,0,0,0-.136-.149c0-.028-.006-.055-.011-.083a.229.229,0,0,0-.288-.173.265.265,0,0,0-.164-.09.341.341,0,0,0-.036-.031.183.183,0,0,0-.077-.031.277.277,0,0,0-.483-.088,1,1,0,0,0-.057.087l0,0a.323.323,0,0,0-.055-.034,4.33,4.33,0,0,0,.006-.5.255.255,0,0,0-.116-.2.244.244,0,0,0-.044-.034.7.7,0,0,0,.107-.159.588.588,0,0,0-.012-.611.437.437,0,0,0,.245-.474.255.255,0,0,0-.372-.152l-.029.021a.25.25,0,0,0-.112.215c-.162-.191-1.037-.017-1.205,0-.3.036-.806-.018-.786.436a.259.259,0,0,0,.161.233l0,.017c0,.133,0,.269.013.406a3.741,3.741,0,0,0,.079.835,1.734,1.734,0,0,0,.109.455c0,.01.01.019.014.028,0,.036,0,.075.007.114A3.473,3.473,0,0,0,52,248.251a.369.369,0,0,0-.042.011c-.07-.023-.142-.046-.213-.07a.234.234,0,0,0-.049-.011.327.327,0,0,0-.18-.168.526.526,0,0,0-.333.006.52.52,0,0,0-.086.036,4.153,4.153,0,0,0-.928.225l-.037.012a.849.849,0,0,0-.219.14,1.046,1.046,0,0,0-.482.452,2.44,2.44,0,0,0-.119.3,1.11,1.11,0,0,0-.222.291A2.073,2.073,0,0,0,48.917,251a1.323,1.323,0,0,0,.333.727.469.469,0,0,0,.118.191.6.6,0,0,0,.181.377.411.411,0,0,0,.087.159.366.366,0,0,0,.459.095l0,0a.257.257,0,0,0,.286.116c.027-.009.051-.021.077-.032a.26.26,0,0,0,.268.086c.023-.008.045-.018.067-.029a.249.249,0,0,0,.232.159.545.545,0,0,0,.459-.244.19.19,0,0,0,.043,0,.615.615,0,0,0,.07-.011.252.252,0,0,0,.3.16,1.024,1.024,0,0,0,.473-.381,1.548,1.548,0,0,1,.513-.033c.01.008.019.017.03.024a.236.236,0,0,0,.217.016c-.053.1-.1.211-.144.321a.41.41,0,0,0-.053-.047.255.255,0,0,0-.307.04.564.564,0,0,0-.1.136.445.445,0,0,0-.049.105v0l-.005.016a1.006,1.006,0,0,0-.049.308.661.661,0,0,0,0,.358.521.521,0,0,0,.1.531.6.6,0,0,0,.025.083c0,.02-.008.04-.01.06a1.273,1.273,0,0,0-.237.021l-.024-.008a.191.191,0,0,1-.007.061.153.153,0,0,1,0,.1.531.531,0,0,1-.208.291.261.261,0,0,0,.245.089,5.259,5.259,0,0,0,2.2-.087,4.317,4.317,0,0,0,1.2-.409c.3-.152.6-.295.658-.661A.272.272,0,0,0,56.262,253.415Zm-2.229-1.343a.208.208,0,0,0-.063-.011.25.25,0,0,0-.305-.046.279.279,0,0,0,.08-.122l.006-.021,0,0a.283.283,0,0,0,.342.074c.014-.007.027-.014.04-.021C54.1,251.971,54.065,252.02,54.033,252.072Z" transform="translate(-35.005 -222.632)" fill="#d8ccc0"/>
      <g id="Group_18735" data-name="Group 18735" transform="translate(7.928 4.026)">
        <path id="Path_3546" data-name="Path 3546" d="M42.779,217.184h0c-.02,0-.038,0-.058,0h0c.019,0,.038,0,.058,0h0Z" transform="translate(-40.798 -217.18)" fill="none"/>
        <path id="Path_3547" data-name="Path 3547" d="M59.995,222.613a8.739,8.739,0,0,1,1.105-1.221,8.7,8.7,0,0,0-1.1,1.221,14.164,14.164,0,0,1,4.142,4.428h0A14.169,14.169,0,0,0,59.995,222.613Z" transform="translate(-46.836 -218.652)" fill="none"/>
        <path id="Path_3548" data-name="Path 3548" d="M46.637,223.228l-.072-.08c.054.059.108.116.159.168C46.7,223.287,46.666,223.26,46.637,223.228Z" transform="translate(-42.142 -219.266)" fill="none"/>
        <path id="Path_3549" data-name="Path 3549" d="M39.963,224.272c.007-.048.014-.1.021-.144-.01.064-.019.135-.029.2C39.958,224.312,39.96,224.291,39.963,224.272Z" transform="translate(-39.832 -219.608)" fill="none"/>
        <path id="Path_3550" data-name="Path 3550" d="M57.193,223.294h0c.022-.007.049-.009.072-.015h0C57.242,223.285,57.215,223.287,57.193,223.294Z" transform="translate(-45.857 -219.312)" fill="none"/>
        <path id="Path_3551" data-name="Path 3551" d="M54.619,224.2l.167-.012h0l-.167.012h0a.56.56,0,0,1-.057-.039l.057.039Z" transform="translate(-44.936 -219.62)" fill="none"/>
        <path id="Path_3552" data-name="Path 3552" d="M52.769,221.683h0a2.7,2.7,0,0,1,.343-.323,2.72,2.72,0,0,0-.345.325,7.018,7.018,0,0,0-.711,1.135l-.007.011.007-.012A6.923,6.923,0,0,1,52.769,221.683Z" transform="translate(-44.06 -218.64)" fill="none"/>
        <path id="Path_3553" data-name="Path 3553" d="M54.338,224h0c-.015-.015-.03-.031-.044-.048l-.006-.008.006.008C54.308,223.969,54.323,223.985,54.338,224Z" transform="translate(-44.841 -219.544)" fill="none"/>
        <path id="Path_3554" data-name="Path 3554" d="M57.539,223.222l.077-.013-.076.013Z" transform="translate(-45.978 -219.287)" fill="none"/>
        <path id="Path_3555" data-name="Path 3555" d="M53.894,223.246h0c-.008-.018-.014-.037-.02-.055s-.012-.031-.017-.047h0C53.868,223.178,53.88,223.212,53.894,223.246Z" transform="translate(-44.69 -219.264)" fill="none"/>
        <path id="Path_3556" data-name="Path 3556" d="M47.616,223.241a7.349,7.349,0,0,1,.131-1.178A7.349,7.349,0,0,0,47.616,223.241Z" transform="translate(-42.51 -218.887)" fill="none"/>
        <path id="Path_3557" data-name="Path 3557" d="M53.759,222.728c0,.031.012.062.019.093v-.005c0-.021-.009-.043-.013-.064s0-.014,0-.021Z" transform="translate(-44.657 -219.119)" fill="none"/>
        <path id="Path_3558" data-name="Path 3558" d="M53.745,222.158s0-.008,0-.012a1.008,1.008,0,0,1,.059-.267l0,0a1.034,1.034,0,0,0-.06.271A.078.078,0,0,0,53.745,222.158Z" transform="translate(-44.651 -218.821)" fill="none"/>
        <path id="Path_3559" data-name="Path 3559" d="M53.952,221.634l0-.005-.007.012Z" transform="translate(-44.723 -218.735)" fill="none"/>
        <path id="Path_3560" data-name="Path 3560" d="M62.085,220.431l-.061.046c-.082.062-.18.145-.286.241.105-.095.2-.178.285-.241l.061-.046.01-.007a3.856,3.856,0,0,1,1.78-.89h0a3.861,3.861,0,0,0-1.781.889Z" transform="translate(-47.445 -218.003)" fill="none"/>
        <path id="Path_3561" data-name="Path 3561" d="M44.918,218.424c-.066-.056-.124-.1-.186-.15.062.051.12.094.186.15l.016.015,0,0Z" transform="translate(-41.502 -217.562)" fill="none"/>
        <path id="Path_3562" data-name="Path 3562" d="M44.028,217.744c.018.012.033.02.051.033-.018-.013-.034-.021-.051-.033Z" transform="translate(-41.256 -217.377)" fill="none"/>
        <path id="Path_3563" data-name="Path 3563" d="M43.856,222.241h0c-.251.139-.489.288-.719.444.23-.156.468-.306.718-.444Z" transform="translate(-40.944 -218.949)" fill="none"/>
        <path id="Path_3564" data-name="Path 3564" d="M39.793,225.549c-.016.116-.021.214-.027.312h0c.006-.1.011-.2.027-.312l0-.016c0-.032.008-.057.011-.088,0,.031-.007.057-.01.088Z" transform="translate(-39.766 -220.068)" fill="none"/>
        <path id="Path_3565" data-name="Path 3565" d="M43.114,217.259h0c.049.017.1.037.15.06h0q-.077-.035-.15-.06Z" transform="translate(-40.936 -217.208)" fill="none"/>
        <path id="Path_3566" data-name="Path 3566" d="M40.139,221.292a19.29,19.29,0,0,1,.765-2.835,2.614,2.614,0,0,1,.383-.839,2.622,2.622,0,0,0-.382.839A19.363,19.363,0,0,0,40.139,221.292Z" transform="translate(-39.896 -217.333)" fill="none"/>
        <path id="Path_3567" data-name="Path 3567" d="M41.09,224.325l.034-.031c-.212.2-.412.4-.6.6l.036-.041C40.727,224.675,40.9,224.5,41.09,224.325Z" transform="translate(-40.031 -219.666)" fill="none"/>
        <path id="Path_3568" data-name="Path 3568" d="M45.326,218.806h0c.07.074.144.157.223.252l.009.011C45.478,218.971,45.4,218.883,45.326,218.806Z" transform="translate(-41.709 -217.748)" fill="none"/>
        <path id="Path_3569" data-name="Path 3569" d="M47.506,223.922a.046.046,0,0,1-.026.008.249.249,0,0,1-.109-.044.24.24,0,0,0,.11.043A.055.055,0,0,0,47.506,223.922Z" transform="translate(-42.424 -219.524)" fill="none"/>
        <path id="Path_3570" data-name="Path 3570" d="M47.683,222.145a4.427,4.427,0,0,1,.081-.528v0c.021-.079.043-.154.069-.226h0a1.638,1.638,0,0,1,.1-.208h0a1.5,1.5,0,0,1,.279-.36c-.147,0-.273-.014-.41-.02.137.007.264.016.411.02h0a1.473,1.473,0,0,0-.28.36h0a1.55,1.55,0,0,0-.1.208h0a2.357,2.357,0,0,0-.069.226v0a4.062,4.062,0,0,0-.081.528v0c0,.046-.008.105-.012.154,0-.048.007-.108.011-.154Z" transform="translate(-42.529 -218.444)" fill="none"/>
        <path id="Path_3571" data-name="Path 3571" d="M47.613,223.874c0,.007,0,.008-.006.014h0C47.609,223.882,47.612,223.881,47.613,223.874Z" transform="translate(-42.506 -219.52)" fill="none"/>
        <path id="Path_3572" data-name="Path 3572" d="M45.024,221.651h0q-.4.177-.776.382h0Q44.62,221.827,45.024,221.651Z" transform="translate(-41.332 -218.743)" fill="none"/>
        <path id="Path_3573" data-name="Path 3573" d="M46.792,220.844l.1-.027-.1.027Z" transform="translate(-42.222 -218.451)" fill="none"/>
        <path id="Path_3574" data-name="Path 3574" d="M45.714,219.245h0l.055.07h0Z" transform="translate(-41.845 -217.902)" fill="none"/>
        <path id="Path_3575" data-name="Path 3575" d="M45.484,221.723c-.013-.023-.032-.05-.043-.072h0C45.453,221.672,45.471,221.7,45.484,221.723Z" transform="translate(-41.749 -218.743)" fill="none"/>
        <path id="Path_3576" data-name="Path 3576" d="M53.914,223.3h0Z" transform="translate(-44.711 -219.319)" fill="#c2bebc"/>
        <path id="Path_3577" data-name="Path 3577" d="M57.822,223.18h0Z" transform="translate(-46.076 -219.277)" fill="#c2bebc"/>
        <path id="Path_3578" data-name="Path 3578" d="M57.3,223.278h0Z" transform="translate(-45.896 -219.311)" fill="#c2bebc"/>
        <path id="Path_3579" data-name="Path 3579" d="M58.195,223.156h0Z" transform="translate(-46.207 -219.268)" fill="#c2bebc"/>
        <path id="Path_3580" data-name="Path 3580" d="M57.538,223.229h0Z" transform="translate(-45.977 -219.294)" fill="#c2bebc"/>
        <path id="Path_3581" data-name="Path 3581" d="M53.787,222.869h0v-.005h0Z" transform="translate(-44.666 -219.166)" fill="#c2bebc"/>
        <path id="Path_3582" data-name="Path 3582" d="M54.121,221.411a.2.2,0,0,0-.02.026l.02-.026Z" transform="translate(-44.776 -218.659)" fill="#c2bebc"/>
        <path id="Path_3583" data-name="Path 3583" d="M43.345,217.352h0Z" transform="translate(-41.017 -217.24)" fill="#c2bebc"/>
        <path id="Path_3584" data-name="Path 3584" d="M43.114,217.259h0Z" transform="translate(-40.936 -217.208)" fill="#c2bebc"/>
        <path id="Path_3585" data-name="Path 3585" d="M64.139,226.393h0a14.17,14.17,0,0,0-4.144-4.429,8.74,8.74,0,0,1,1.105-1.221l.029-.025c.105-.095.2-.178.285-.241l.061-.046.01-.007a3.856,3.856,0,0,1,1.78-.89h.005c.487,0,.723.457.8,1.482A23.583,23.583,0,0,1,64.139,226.393Z" transform="translate(-46.836 -218.003)" fill="#c2bebc"/>
        <path id="Path_3586" data-name="Path 3586" d="M53.856,223.142h0Z" transform="translate(-44.69 -219.264)" fill="#c2bebc"/>
        <path id="Path_3587" data-name="Path 3587" d="M53.759,222.727v0h0v0Z" transform="translate(-44.657 -219.119)" fill="#c2bebc"/>
        <path id="Path_3588" data-name="Path 3588" d="M40.295,225.16l-.036.041c-.168.185-.342.368-.492.561h0C39.928,225.555,40.113,225.358,40.295,225.16Z" transform="translate(-39.766 -219.969)" fill="#312c29"/>
        <path id="Path_3589" data-name="Path 3589" d="M45.035,219.534c-.128-.007-.265-.01-.384-.019a.213.213,0,0,1-.035,0,.141.141,0,0,1-.047-.007l-.022,0-.083.023-.03.008-.1.027h0c-.067-.135-.149-.271-.232-.4-.071-.11-.145-.218-.221-.322l0,0c-.063-.087-.126-.168-.189-.248l-.057-.072-.011-.013-.007-.008c-.083-.1-.161-.187-.234-.264s-.13-.134-.181-.179l-.019-.018c-.066-.056-.124-.1-.186-.15-.164-.134-.316-.248-.458-.345l-.035-.022-.007,0h0a2.922,2.922,0,0,0-.362-.209l-.04-.019q-.077-.035-.15-.061a.971.971,0,0,0-.2-.047h0c-.02,0-.038,0-.058,0H41.67a.565.565,0,0,0-.143.037.572.572,0,0,0-.127.033.758.758,0,0,0-.093.081.779.779,0,0,0-.144.126l-.005.008a2.622,2.622,0,0,0-.382.839,19.362,19.362,0,0,0-.766,2.835c-.025.139-.049.279-.073.432-.005.034-.01.074-.016.109l0,.019h0c-.01.064-.019.135-.029.2-.029.206-.057.422-.083.654,0,.031-.007.057-.01.088l0,.016c-.016.116-.021.214-.027.312a9.707,9.707,0,0,1,1.679-1.687c-.222.174-.42.365-.621.553l.034-.031c.191-.177.376-.358.587-.522.164-.128.336-.25.513-.369.23-.156.468-.306.718-.444h0l0,0h0q.373-.206.776-.382h0c.011.021.029.049.042.072.027.048.054.095.089.148s.06.085.091.129.056.08.087.122.078.1.118.15.057.071.087.107c.045.054.089.1.135.156l.081.09c.054.059.108.116.159.168l.021.021c.06.059.116.112.169.158l.018.016a1.34,1.34,0,0,0,.142.107l.014.01a.241.241,0,0,0,.11.043.055.055,0,0,0,.025-.008l.007,0v0l.016-.04h0c.012-.185.025-.342.038-.5,0-.048.007-.108.011-.154v0a4.426,4.426,0,0,1,.081-.528v0c.021-.079.043-.154.069-.226h0a1.638,1.638,0,0,1,.1-.208h0a1.5,1.5,0,0,1,.279-.36C45.3,219.549,45.173,219.54,45.035,219.534Z" transform="translate(-39.766 -217.18)" fill="#312c29"/>
        <path id="Path_3590" data-name="Path 3590" d="M46.435,220.238a4.267,4.267,0,0,1,.232.4h0C46.6,220.506,46.518,220.371,46.435,220.238Z" transform="translate(-42.097 -218.249)" fill="#312c29"/>
        <path id="Path_3591" data-name="Path 3591" d="M46.274,219.992c.016.024.027.049.042.073-.071-.11-.145-.218-.221-.322C46.155,219.824,46.217,219.9,46.274,219.992Z" transform="translate(-41.978 -218.076)" fill="#312c29"/>
        <path id="Path_3592" data-name="Path 3592" d="M47.607,222.81c0,.007,0,.008-.006.014a.065.065,0,0,1-.012.028l.016-.04h0c.012-.185.025-.342.038-.5,0-.048.007-.108.012-.154v0a4.062,4.062,0,0,1,.081-.528v0a2.357,2.357,0,0,1,.069-.226h0a1.55,1.55,0,0,1,.1-.208h0a1.473,1.473,0,0,1,.28-.36h0a1.553,1.553,0,0,0-.443.8A7.349,7.349,0,0,0,47.607,222.81Z" transform="translate(-42.5 -218.455)" fill="#2e2a27"/>
        <path id="Path_3593" data-name="Path 3593" d="M45.382,218.86c.054.059.113.129.17.2-.079-.094-.153-.178-.223-.252C45.349,218.828,45.362,218.838,45.382,218.86Z" transform="translate(-41.71 -217.749)" fill="#2e2a27"/>
        <path id="Path_3594" data-name="Path 3594" d="M45.715,219.246l.055.07" transform="translate(-41.845 -217.902)" fill="none" stroke="#2e2a27" stroke-linecap="round" stroke-linejoin="round"/>
        <path id="Path_3595" data-name="Path 3595" d="M44.486,218.089c-.164-.134-.316-.248-.458-.345.018.012.033.02.051.033.111.079.228.168.353.267.08.064.155.122.241.194l.016.015-.016-.015C44.606,218.182,44.548,218.14,44.486,218.089Z" transform="translate(-41.256 -217.377)" fill="#2e2a27"/>
        <path id="Path_3596" data-name="Path 3596" d="M42.81,217.186h0a.9.9,0,0,1,.2.048h0A.97.97,0,0,0,42.81,217.186Z" transform="translate(-40.829 -217.182)" fill="#2e2a27"/>
        <path id="Path_3597" data-name="Path 3597" d="M43.114,217.259h0Z" transform="translate(-40.936 -217.208)" fill="#2e2a27"/>
        <path id="Path_3598" data-name="Path 3598" d="M43.407,217.381a2.92,2.92,0,0,1,.362.209" transform="translate(-41.039 -217.25)" fill="none" stroke="#2e2a27" stroke-linecap="round" stroke-linejoin="round"/>
        <path id="Path_3599" data-name="Path 3599" d="M43.115,217.259h0c.017.006.032.006.049.012s.068.034.1.049h0C43.213,217.3,43.163,217.276,43.115,217.259Z" transform="translate(-40.936 -217.208)" fill="#2e2a27"/>
        <path id="Path_3600" data-name="Path 3600" d="M46.091,219.736v0c.061.083.122.163.18.252-.057-.088-.118-.168-.179-.249Z" transform="translate(-41.977 -218.073)" fill="#2e2a27"/>
        <path id="Path_3601" data-name="Path 3601" d="M45.8,219.353c.04.049.079.1.119.15.024.032.047.067.071.1-.063-.087-.126-.168-.189-.248Z" transform="translate(-41.875 -217.939)" fill="#2e2a27"/>
        <path id="Path_3602" data-name="Path 3602" d="M43.345,217.352h0" transform="translate(-41.017 -217.24)" fill="none" stroke="#2e2a27" stroke-linecap="round" stroke-linejoin="round"/>
        <path id="Path_3603" data-name="Path 3603" d="M43.345,217.352l.023.009c.005,0,.012.007.017.01h0Z" transform="translate(-41.017 -217.24)" fill="#2e2a27"/>
        <path id="Path_3604" data-name="Path 3604" d="M43.974,217.71l.035.022h0Z" transform="translate(-41.237 -217.365)" fill="#2e2a27"/>
        <path id="Path_3605" data-name="Path 3605" d="M43.963,217.7l.007,0-.007,0Z" transform="translate(-41.233 -217.363)" fill="#2e2a27"/>
        <path id="Path_3606" data-name="Path 3606" d="M45.046,218.53l0,0c.053.047.118.111.186.183h0C45.161,218.64,45.1,218.574,45.046,218.53Z" transform="translate(-41.61 -217.651)" fill="#2e2a27"/>
        <path id="Path_3607" data-name="Path 3607" d="M45.7,219.225l.012.014h0Z" transform="translate(-41.839 -217.895)" fill="#2e2a27"/>
        <path id="Path_3608" data-name="Path 3608" d="M45.672,219.2l.01.012.007.008-.007-.008Z" transform="translate(-41.83 -217.884)" fill="#2e2a27"/>
        <path id="Path_3609" data-name="Path 3609" d="M39.767,225.178a9.707,9.707,0,0,1,1.679-1.687c-.222.174-.42.365-.621.553s-.363.35-.531.533C40.113,224.775,39.928,224.972,39.767,225.178Z" transform="translate(-39.766 -219.386)" fill="#2e2a27"/>
        <path id="Path_3610" data-name="Path 3610" d="M47.7,220.79l.108.005c.137.007.264.016.411.02h0l.01-.009C48.058,220.8,47.873,220.8,47.7,220.79Z" transform="translate(-42.539 -218.442)" fill="#1f1c1a"/>
        <path id="Path_3611" data-name="Path 3611" d="M63.717,219.734a.84.84,0,0,1,.107.158,2.983,2.983,0,0,1,.25,1.125,23.617,23.617,0,0,1,.065,5.374A14.164,14.164,0,0,0,60,221.964a8.7,8.7,0,0,1,1.1-1.221l.029-.025c.105-.1.2-.178.286-.241l.061-.046.009-.007a3.861,3.861,0,0,1,1.781-.889h0a.584.584,0,0,1,.271.066A.565.565,0,0,1,63.717,219.734Z" transform="translate(-46.837 -218.003)" fill="#312c29"/>
        <path id="Path_3612" data-name="Path 3612" d="M65.9,226.392a23.617,23.617,0,0,0-.065-5.374,2.984,2.984,0,0,0-.25-1.125.841.841,0,0,0-.107-.158.565.565,0,0,0-.177-.133.584.584,0,0,0-.271-.066h0c.487,0,.723.457.8,1.482a23.583,23.583,0,0,1,.065,5.375h0Z" transform="translate(-48.595 -218.003)" fill="#2e2a27"/>
        <path id="Path_3613" data-name="Path 3613" d="M53.155,221.608h0c.018-.021.038-.039.055-.059.054-.062.108-.123.167-.18a2.56,2.56,0,0,1,.265-.221h0c-.055.04-.094.093-.144.136A2.7,2.7,0,0,0,53.155,221.608Z" transform="translate(-44.445 -218.567)" fill="#2e2a27"/>
        <path id="Path_3614" data-name="Path 3614" d="M49.9,220.866l-.743-.023-.394-.01h0v-.007c.468.014.967.027,1.482.051h.039Z" transform="translate(-42.911 -218.454)" fill="#1f1c1a"/>
        <path id="Path_3615" data-name="Path 3615" d="M54.139,223.739c-.017-.025-.034-.049-.05-.075h0C54.105,223.691,54.122,223.715,54.139,223.739Z" transform="translate(-44.772 -219.446)" fill="#312c29"/>
        <path id="Path_3616" data-name="Path 3616" d="M55.935,223.827h0l-.025.012h0Z" transform="translate(-45.407 -219.503)" fill="#312c29"/>
        <path id="Path_3617" data-name="Path 3617" d="M55.479,224.015h0l-.04.016h0Z" transform="translate(-45.245 -219.568)" fill="#312c29"/>
        <path id="Path_3618" data-name="Path 3618" d="M56.4,222.493h0c-.038,0-.072.012-.107.019l-.077.013h0c-.051.01-.1.02-.15.031h0c-.023.006-.05.008-.072.015h0c-.029.008-.053.021-.081.031a3.145,3.145,0,0,0-.306.117h0c-.137.061-.273.126-.414.192l-.005,0-.029.014h0l-.025.01c-.076.034-.155.067-.239.1l-.036.014a3.555,3.555,0,0,1-.347.108l-.167.012h0l-.057-.039-.126-.085h0c-.015-.015-.03-.031-.045-.048l-.006-.008,0-.005a1.406,1.406,0,0,1-.125-.176c-.016-.027-.031-.058-.046-.088-.024-.047-.047-.1-.068-.148h0c-.014-.034-.026-.068-.038-.1h0a1.435,1.435,0,0,1-.036-.141c0-.011-.006-.022-.008-.034h0c-.007-.031-.014-.062-.019-.093h0a1.315,1.315,0,0,1-.009-.267v0a.078.078,0,0,1,0-.012,1.033,1.033,0,0,1,.06-.271h0l.071-.144v0l.007-.012v0l.08-.1,0,0h0l.028-.036.145-.123.008-.006a6.134,6.134,0,0,1,2.789,1.036l.01.008c.027.02.052.041.077.062s.031.03.046.043c.054.049.1.091.147.126-.154-.014-.295-.02-.423-.02-.055,0-.1.007-.147.009h-.008C56.555,222.481,56.47,222.483,56.4,222.493Z" transform="translate(-44.65 -218.59)" fill="#312c29"/>
        <path id="Path_3619" data-name="Path 3619" d="M53.988,223.467c-.02-.04-.04-.079-.058-.121.018.042.037.081.057.12Z" transform="translate(-44.716 -219.335)" fill="#312c29"/>
        <path id="Path_3620" data-name="Path 3620" d="M56.9,223.349h0c-.107.036-.21.074-.308.117h0A3.152,3.152,0,0,1,56.9,223.349Z" transform="translate(-45.648 -219.336)" fill="#312c29"/>
        <path id="Path_3621" data-name="Path 3621" d="M57.615,223.2c.035-.007.069-.014.107-.019h0c-.067.008-.126.021-.186.033h0Z" transform="translate(-45.977 -219.277)" fill="#2e2a27"/>
        <path id="Path_3622" data-name="Path 3622" d="M53.779,222.829c0-.022-.009-.044-.013-.065,0,.021.008.043.013.064Z" transform="translate(-44.659 -219.132)" fill="#2e2a27"/>
        <path id="Path_3623" data-name="Path 3623" d="M53.764,222.752c0-.007,0-.014,0-.021h0C53.76,222.738,53.762,222.745,53.764,222.752Z" transform="translate(-44.657 -219.12)" fill="#2e2a27"/>
        <path id="Path_3624" data-name="Path 3624" d="M53.9,223.273c-.008-.019-.014-.038-.02-.057.007.018.012.037.02.055Z" transform="translate(-44.7 -219.29)" fill="#2e2a27"/>
        <path id="Path_3625" data-name="Path 3625" d="M53.857,223.144h0c.005.016.011.031.017.047C53.868,223.175,53.862,223.16,53.857,223.144Z" transform="translate(-44.691 -219.264)" fill="#2e2a27"/>
        <path id="Path_3626" data-name="Path 3626" d="M53.857,223.144h0" transform="translate(-44.69 -219.264)" fill="none" stroke="#2e2a27" stroke-linecap="round" stroke-linejoin="round"/>
        <path id="Path_3627" data-name="Path 3627" d="M54.819,224.146a3.55,3.55,0,0,0,.347-.108h0a3.545,3.545,0,0,1-.347.109.178.178,0,0,1-.09.024.254.254,0,0,1-.077-.013h0l.167-.012Z" transform="translate(-44.969 -219.577)" fill="#2e2a27"/>
        <path id="Path_3628" data-name="Path 3628" d="M53.751,222.576c0-.01,0-.02-.006-.03a1.35,1.35,0,0,1,0-.256c0,.005,0,.011,0,.017a1.316,1.316,0,0,0,.009.267Z" transform="translate(-44.649 -218.966)" fill="#2e2a27"/>
        <path id="Path_3629" data-name="Path 3629" d="M58.355,223.142c-.055,0-.1.006-.15.008h.008c.048,0,.088-.009.14-.009.129,0,.269.006.423.02h0C58.625,223.149,58.484,223.142,58.355,223.142Z" transform="translate(-46.21 -219.263)" fill="#2e2a27"/>
        <path id="Path_3630" data-name="Path 3630" d="M55.91,223.839h0l.029-.014Z" transform="translate(-45.407 -219.503)" fill="#2e2a27"/>
        <path id="Path_3631" data-name="Path 3631" d="M55.955,223.721c.142-.066.277-.131.414-.192h0c-.139.061-.275.127-.42.194h0Z" transform="translate(-45.422 -219.399)" fill="#2e2a27"/>
        <path id="Path_3632" data-name="Path 3632" d="M55.738,223.864c-.075.033-.153.066-.236.1h0C55.584,223.931,55.662,223.9,55.738,223.864Z" transform="translate(-45.265 -219.516)" fill="#2e2a27"/>
        <path id="Path_3633" data-name="Path 3633" d="M55.892,223.848l-.025.01.025-.01Z" transform="translate(-45.393 -219.51)" fill="#2e2a27"/>
        <path id="Path_3634" data-name="Path 3634" d="M57.456,223.23h0c-.051.01-.1.02-.15.031h0C57.353,223.25,57.4,223.24,57.456,223.23Z" transform="translate(-45.896 -219.294)" fill="#2e2a27"/>
        <path id="Path_3635" data-name="Path 3635" d="M57.149,223.294h0c.022-.007.049-.009.072-.015h0c-.054.014-.1.03-.154.046h0C57.1,223.315,57.12,223.3,57.149,223.294Z" transform="translate(-45.813 -219.311)" fill="#2e2a27"/>
        <path id="Path_3636" data-name="Path 3636" d="M58.065,223.156h.007c-.086,0-.172.007-.248.016h0C57.9,223.162,57.982,223.16,58.065,223.156Z" transform="translate(-46.077 -219.268)" fill="#2e2a27"/>
        <path id="Path_3637" data-name="Path 3637" d="M54.214,223.841l.009.013a1.372,1.372,0,0,1-.084-.114c-.017-.025-.034-.048-.05-.075A1.406,1.406,0,0,0,54.214,223.841Z" transform="translate(-44.772 -219.447)" fill="#2e2a27"/>
        <path id="Path_3638" data-name="Path 3638" d="M53.982,223.451c-.02-.039-.04-.077-.057-.12,0-.009-.007-.019-.01-.028h0C53.935,223.354,53.958,223.4,53.982,223.451Z" transform="translate(-44.711 -219.32)" fill="#2e2a27"/>
        <path id="Path_3639" data-name="Path 3639" d="M53.837,223.067h0a1.432,1.432,0,0,1-.036-.141,1.432,1.432,0,0,0,.036.141Z" transform="translate(-44.671 -219.188)" fill="#2e2a27"/>
        <path id="Path_3640" data-name="Path 3640" d="M53.787,222.87c0,.012.006.023.008.034,0-.011-.006-.022-.008-.034v0Z" transform="translate(-44.666 -219.167)" fill="#2e2a27"/>
        <path id="Path_3641" data-name="Path 3641" d="M54.064,223.618h0c-.016-.027-.03-.057-.046-.086h0C54.034,223.56,54.048,223.591,54.064,223.618Z" transform="translate(-44.747 -219.399)" fill="#2e2a27"/>
        <path id="Path_3642" data-name="Path 3642" d="M59.007,223.105h0c-.044-.033-.093-.075-.147-.125.057.051.106.09.154.127h-.005Z" transform="translate(-46.439 -219.207)" fill="#1f1c1a"/>
      </g>
      <path id="Path_3643" data-name="Path 3643" d="M45.457,229.26a3.012,3.012,0,0,0-1.47-2.376,1.328,1.328,0,0,0-.3-.079.436.436,0,0,0-.25-.029,1.038,1.038,0,0,0-.7.3c-.171.158-.341.323-.505.487a3.645,3.645,0,0,0-.5.634,2.152,2.152,0,0,0-.359.564,6.916,6.916,0,0,0-.413,1.574,2.745,2.745,0,0,0,.187,1.193c.152.485.642.66,1.058.851.446.206.954.126,1.395.333.356.167.8.41,1.2.211a.863.863,0,0,0,.38-.474c.038-.106.055-.254.09-.383.016-.033.031-.066.046-.1a.483.483,0,0,0,.226-.365,5.183,5.183,0,0,0,.032-.71A10.849,10.849,0,0,0,45.457,229.26Z" transform="translate(-32.248 -216.505)" fill="#b8d4e9"/>
      <path id="Path_3644" data-name="Path 3644" d="M58.862,232.061a1.737,1.737,0,0,0,.181-.726,1.437,1.437,0,0,0-.038-.362c-.028-.107-.036-.127-.036-.113l0-.017a3.149,3.149,0,0,0-.272-.849,3.725,3.725,0,0,0-.934-1.41,3.672,3.672,0,0,0-1.514-.653.68.68,0,0,0-.321.02.4.4,0,0,0-.507-.081,5.224,5.224,0,0,0-.512.315c-.206.155-.431.3-.624.473a3.68,3.68,0,0,0-.742.969,4.462,4.462,0,0,0-.469,1.2c-.059.276-.036.554-.08.829a2.729,2.729,0,0,0-.06.33c-.005.159.058.3.039.463a.425.425,0,0,0,.422.422.28.28,0,0,1,.084,0,.5.5,0,0,0,.076,0,.443.443,0,0,0,.711-.427,1.3,1.3,0,0,0-.033-.207c.014-.067.041-.148.049-.206a3.984,3.984,0,0,1,.144-.749c.029-.084.073-.163.1-.246s.072-.211,0-.063l.088-.193a.418.418,0,0,0,.235.049.608.608,0,0,0,.077.092c.011.011.023.021.034.031a.629.629,0,0,0,0,.626.351.351,0,0,0,.161.155.434.434,0,0,0,.19.476,1.062,1.062,0,0,0,.55.2.644.644,0,0,0,.3-.111.5.5,0,0,0,.218.023c0,.048.006.1.012.144a1.172,1.172,0,0,0,.191.544,1.855,1.855,0,0,0-.384.277.427.427,0,0,0,.186.706c.544.168,1.026-.257,1.486-.474a2.4,2.4,0,0,0,.277-.1,2.139,2.139,0,0,0,.235-.141,2.5,2.5,0,0,0,.517-.72l0,0a1.059,1.059,0,0,0,.047-.1A.332.332,0,0,0,58.862,232.061Z" transform="translate(-36.439 -216.87)" fill="#b8d4e9"/>
      <path id="Path_3645" data-name="Path 3645" d="M45.584,230.2l-.029-.016a.451.451,0,0,0-.036-.248,2.234,2.234,0,0,0-.121-.61.418.418,0,0,0-.031-.064l-.006-.019c-.017-.268-.1-.543-.1-.8a.409.409,0,0,0-.247-.373,2.733,2.733,0,0,0-.281-.531,1.144,1.144,0,0,0-.374-.465.749.749,0,0,0-.413-.247.514.514,0,0,0-.108-.089.616.616,0,0,0-.631-.043.632.632,0,0,0-.512.158,1.164,1.164,0,0,0-.275.319c-.023.012-.047.024-.07.038a.767.767,0,0,0-.509.468,1.209,1.209,0,0,0-.2.3,1.394,1.394,0,0,0-.322.786c-.435-.078-.762.545-.323.759a.431.431,0,0,0,.046.061l.025.025a.174.174,0,0,1,.165-.011c.336.148.657.327.989.483a.141.141,0,0,1,.065.208c.346.155.705.273,1.056.411a3.907,3.907,0,0,0,.418.165c.019,0,.139.031.193.04s.113.04.134.046a1.819,1.819,0,0,0,.366.046.171.171,0,0,1,.119-.288,1.854,1.854,0,0,1,.881.168.145.145,0,0,1,.084.137.451.451,0,0,0,.1-.037,1.706,1.706,0,0,1,.092-.5c0-.057,0-.114,0-.172A.473.473,0,0,0,45.584,230.2Z" transform="translate(-32.195 -216.453)" fill="#006bad"/>
      <path id="Path_3646" data-name="Path 3646" d="M59.075,230.418a.393.393,0,0,0-.272-.381.418.418,0,0,0-.119-.275.477.477,0,0,0-.12-.087.5.5,0,0,0-.221-.164.585.585,0,0,0-.3-.152c-.007-.013-.014-.026-.022-.038a.653.653,0,0,0-.522-.822.477.477,0,0,0-.359-.471.768.768,0,0,0-.5.005,1.064,1.064,0,0,0-.367-.032,1.046,1.046,0,0,0-.881.151,1.728,1.728,0,0,0-.963.648,1.77,1.77,0,0,0-.526.416,2.177,2.177,0,0,0-.382.565,1.463,1.463,0,0,0-.233.512,2.738,2.738,0,0,0-.152.289.626.626,0,0,0-.059.243l-.014,0-.023.127a.144.144,0,0,1,.038.066,1.022,1.022,0,0,1-.031.633l.014,0a.168.168,0,0,1,.168-.157,5.558,5.558,0,0,1,.624.078.151.151,0,0,1,.116.193,23.962,23.962,0,0,0,2.659-.073c.185-.01.376-.027.567-.049a.165.165,0,0,1,.161-.2,4.716,4.716,0,0,0,.809-.062.169.169,0,0,1,.072-.108.948.948,0,0,1,.782-.186.191.191,0,0,1,.023.009.6.6,0,0,0,.17-.265A.373.373,0,0,0,59.075,230.418Z" transform="translate(-36.475 -216.921)" fill="#006bad"/>
      <path id="Path_3647" data-name="Path 3647" d="M59,232.347a1.831,1.831,0,0,1-.009-.681.353.353,0,0,0-.192.031,6.414,6.414,0,0,1-1.261.57,6,6,0,0,1-1.633.107,7.393,7.393,0,0,0-.787-.006c-.271.016-.539-.038-.808-.01a5.378,5.378,0,0,1-.678.04,3.855,3.855,0,0,1-.834-.043c.012.118.018.237.018.357a.161.161,0,0,1-.022.083,2.1,2.1,0,0,1,0,.248c.2.027.414.014.617.025a5.118,5.118,0,0,0,.883-.029,15.154,15.154,0,0,1,1.778.01,6.852,6.852,0,0,0,1.646-.131,5.742,5.742,0,0,0,1.283-.57Z" transform="translate(-36.389 -218.216)" fill="#74aed5"/>
      <path id="Path_3648" data-name="Path 3648" d="M45.674,231.471c-.366-.048-.736-.065-1.1-.126a6.611,6.611,0,0,1-1.382-.294c-.409-.159-.812-.284-1.213-.463-.155-.07-.45-.122-.549-.179a3.955,3.955,0,0,1-.49-.28.347.347,0,0,0-.1-.061.1.1,0,0,1-.012.023c-.084.116-.136.25-.226.362a.492.492,0,0,1-.159.129.288.288,0,0,0,.024.025,1.5,1.5,0,0,0,.53.3,3.98,3.98,0,0,0,.794.351,4.5,4.5,0,0,0,.686.271s.273.083.141.044c.154.046.307.093.458.154a5.309,5.309,0,0,0,1.29.277c.2.027.387.074.584.1.225.03.454.019.68.041a.149.149,0,0,1-.018-.043A1.08,1.08,0,0,1,45.674,231.471Z" transform="translate(-32.072 -217.658)" fill="#74aed5"/>
      <path id="Path_3649" data-name="Path 3649" d="M49.332,234.963a.52.52,0,0,0-.337-.129.514.514,0,0,0-.18-.046c-.007,0-.044,0-.068,0a.439.439,0,0,0-.6.115.335.335,0,0,0,0,.341.561.561,0,0,0,.2.213.35.35,0,0,0,.306.489.871.871,0,0,0,.247-.018.722.722,0,0,0,.12-.049l.049-.027c.014,0,.082-.031.1-.038s.031-.017.046-.027a.375.375,0,0,0,.172-.269.1.1,0,0,0,0-.014.2.2,0,0,0,.014-.021A.414.414,0,0,0,49.332,234.963Z" transform="translate(-34.752 -219.284)" fill="#fff"/>
      <path id="Path_3650" data-name="Path 3650" d="M50.419,238.539l-.048-.018a.282.282,0,0,0-.381.174,1.889,1.889,0,0,1-.473.332,1.422,1.422,0,0,1-.8.044c-.328-.076-1.157-.214-1.222-.641-.046-.3-.388-.3-.559-.118a1.046,1.046,0,0,0-.267.167,1.211,1.211,0,0,1-.858.379.9.9,0,0,1-.682-.254,1.261,1.261,0,0,1-.366-.59c-.092-.425-.744-.245-.652.18a1.738,1.738,0,0,0,1.3,1.3,1.818,1.818,0,0,0,1.014-.054,2.7,2.7,0,0,0,.619-.4,2.849,2.849,0,0,0,1.4.653,2.04,2.04,0,0,0,1.118.025,3.617,3.617,0,0,0,.942-.556A.343.343,0,0,0,50.419,238.539Z" transform="translate(-33.353 -220.351)" fill="#fff"/>
      <path id="Path_3651" data-name="Path 3651" d="M51.733,249.483a3.425,3.425,0,0,0-.779.527.337.337,0,0,0-.334-.1,2.008,2.008,0,0,0-1.559,1.993,1.6,1.6,0,0,0-.072.631,3.348,3.348,0,0,0,.357,1.535.308.308,0,0,0,.249.159.284.284,0,0,0,.347.092c.014.044.027.087.042.131v0l.014.041c.146.4.792.235.652-.18a4.2,4.2,0,0,1-.014-2.482,2.63,2.63,0,0,1,1.437-1.764C52.465,249.874,52.122,249.291,51.733,249.483Z" transform="translate(-35.06 -224.43)" fill="#fff"/>
      <path id="Path_3652" data-name="Path 3652" d="M41.433,252.258a3.4,3.4,0,0,0-.853-1.459.336.336,0,0,0-.219-.151l-.034-.02-.007.012h0l.008-.012a.314.314,0,0,0-.369.023.933.933,0,0,0-.461-.18c-.433-.041-.429.635,0,.676.15.014.475.469.556.577.025.032.047.05.04.033.023.044.04.094.066.135a2.077,2.077,0,0,1,.244.483,6.127,6.127,0,0,1,.243.968,3.644,3.644,0,0,1,.042.483,2.3,2.3,0,0,0,0,.284v.018a.313.313,0,0,0-.043.269l.012.047a.345.345,0,0,0,.326.248h.047a.33.33,0,0,0,.292-.168.863.863,0,0,0,.057-.211.265.265,0,0,0,.183-.23A3.262,3.262,0,0,0,41.433,252.258Z" transform="translate(-31.631 -224.788)" fill="#fff"/>
      <path id="Path_3653" data-name="Path 3653" d="M48.571,251.826c-.241-.17-.5-.111-.771-.143s-.524.01-.783-.018a4.221,4.221,0,0,1-.852-.177,2.261,2.261,0,0,1-.739-.48c-.1-.083-.2-.174-.305-.252a.675.675,0,0,0-.146-.756.41.41,0,0,0-.1-.062c-.014-.029-.029-.057-.044-.085a.344.344,0,0,0,.036-.106c.038-.259.083-.516.109-.776a.251.251,0,0,0,0-.059,1.219,1.219,0,0,0,.059-.332,2.068,2.068,0,0,0,.231-.617,1.824,1.824,0,0,0,.088-.174.369.369,0,0,0,.026-.085,4.927,4.927,0,0,0,.405-.4.345.345,0,0,0,.07-.1,5.339,5.339,0,0,1,1.261-.637,5.229,5.229,0,0,1,.809-.116c.2-.019.353-.064.424-.276a1.133,1.133,0,0,0-.123-.73,1.851,1.851,0,0,1-.157-.822,5.872,5.872,0,0,0-.209-1.913c-.067-.2-.073-.411-.137-.611a4.857,4.857,0,0,0-.235-.592c-.088-.18-.155-.432-.332-.55-.211-.14-.546-.075-.785-.118a7.939,7.939,0,0,0-1.9-.01,4.819,4.819,0,0,0-1.1.209.293.293,0,0,0-.166-.027L43.184,241a.645.645,0,0,0-.572,0,1.122,1.122,0,0,0-.29.061.427.427,0,0,0-.379-.025.338.338,0,0,0-.115-.021.717.717,0,0,0-.285.068.543.543,0,0,0-.273.056c-.022.011-.16.105-.133.1-.036.008-.144-.034-.193-.032a.909.909,0,0,0-.273.075.416.416,0,0,0-.062.029.539.539,0,0,0-.351-.069.694.694,0,0,0-.219,0,.82.82,0,0,0-.162.047,1.123,1.123,0,0,0-.537.351.709.709,0,0,0-.356.651.623.623,0,0,0-.016.114.631.631,0,0,0-.053.294.64.64,0,0,0,.054.464,1.084,1.084,0,0,0,.046.224,1.1,1.1,0,0,0,.054.382,1.135,1.135,0,0,0,.044.477,4.787,4.787,0,0,0,.124,1.076,11.911,11.911,0,0,0,.155,1.339.313.313,0,0,0,.518.165,1.488,1.488,0,0,0,.7.246,1.165,1.165,0,0,0,.165,0c0,.007,0,.014,0,.021a.362.362,0,0,0,.278.245c-.033-.009.11.052.131.075.066.072.126.141.19.219a1.581,1.581,0,0,1,.414.64,4.629,4.629,0,0,1,.084.643,3.8,3.8,0,0,1-.257,1.711c-.017.04-.034.081-.05.122a.274.274,0,0,0-.018.14c-.133.1-.236.265-.376.4-.092.09-.208.213-.305.293a2.22,2.22,0,0,1-.193.119c.085-.049-.179.076-.157.064a.647.647,0,0,0-.351.4c-.064.223.04.356.081.566a3.462,3.462,0,0,0,.213,1c.392.757,1.472.627,2.178.559a8.436,8.436,0,0,0,.995-.244.4.4,0,0,0,.232.152,3.6,3.6,0,0,0,.959-.036,6.689,6.689,0,0,0,1.042-.169c.415-.09.83-.187,1.25-.248a.592.592,0,0,0,.126.067,1.319,1.319,0,0,0,.775-.1,1.282,1.282,0,0,0,.659-.29A1.231,1.231,0,0,0,48.571,251.826Z" transform="translate(-31.533 -221.4)" fill="#3c3b3b"/>
      <path id="Path_3654" data-name="Path 3654" d="M55.485,244.284a6.4,6.4,0,0,1-2.269.12.422.422,0,0,0,0,.844,7.979,7.979,0,0,0,2.343-.1.421.421,0,0,0,.453-.375A.427.427,0,0,0,55.485,244.284Z" transform="translate(-36.396 -222.62)" fill="#85878b"/>
      <path id="Path_3655" data-name="Path 3655" d="M56.716,254.957a1.344,1.344,0,0,0-.524.374,1.774,1.774,0,0,1-.448.311,3.86,3.86,0,0,1-.743.28c-.168.045-.52.246-.667.193-.513-.183-.734.632-.225.814a1.157,1.157,0,0,0,.763-.079,8.1,8.1,0,0,0,.935-.314c.246-.118.466-.209.654-.324a2.552,2.552,0,0,0,.327-.285,2.034,2.034,0,0,1,.156-.144l.025-.022A.423.423,0,0,0,56.716,254.957Z" transform="translate(-36.75 -226.351)" fill="#85878b"/>
      <path id="Path_3656" data-name="Path 3656" d="M64.887,215.682a6.255,6.255,0,0,1,1.384.9,9,9,0,0,1,.671.684,2.629,2.629,0,0,1,.065-1.2,2.22,2.22,0,0,0-.5-.535l-.213-.153a.525.525,0,0,0,.036-.247,2.01,2.01,0,0,0-.785-1.311.6.6,0,0,0-.029-.247.609.609,0,0,0-.551-.505,1.625,1.625,0,0,0-1.084.308.9.9,0,0,0-.328.21.585.585,0,0,0-.139.54.7.7,0,0,0-.139-.019c-.154-.007-.31-.008-.467,0a5.33,5.33,0,0,1-.771,1.1A4.19,4.19,0,0,1,64.887,215.682Z" transform="translate(-39.622 -211.715)" fill="#fff"/>
      <path id="Path_3657" data-name="Path 3657" d="M42.524,212.917a.616.616,0,0,0-.165,0c-.033.005-.066.009-.1.012a.54.54,0,0,0-.4-.673c-.008-.01-.017-.02-.026-.029-.557-.546-1.978-.153-2.37.5a1.091,1.091,0,0,0-.334.377.552.552,0,0,0,.068.63,5.174,5.174,0,0,0-.991.874l-.053.132a.172.172,0,0,1,.027.131c-.129.617-.314,1.218-.5,1.817-.026.1-.054.2-.081.3.523-.113.567-.625.848-1.045a3.593,3.593,0,0,1,.512-.541c.2-.191.4-.42.611-.595a3.733,3.733,0,0,1,1.624-.7c.407-.053.816-.051,1.222-.1a.624.624,0,0,0,.092.041,5.693,5.693,0,0,0,.595.161c.059.014.115.024.169.033C42.995,213.819,42.761,213.365,42.524,212.917Z" transform="translate(-31.079 -211.333)" fill="#fff"/>
      <path id="Path_3658" data-name="Path 3658" d="M57.173,227.525c-.035-.216-.048-.435-.064-.654a1.536,1.536,0,0,1-.025-.163,4.953,4.953,0,0,0-.2-.746,13.115,13.115,0,0,0,1.874-6.644c-.025-2.82-.677-5.666-1.92-7.281a1.228,1.228,0,0,0-.86-.5c-1.791.062-3.349,2.854-5.824,5.873-.086.1-.179.213-.268.326a7.914,7.914,0,0,0-3.534-.823c-.44.021-.919.04-1.364.084l-.092-.141c-1.686-2.609-2.69-5.67-4.271-5.864h0a1.286,1.286,0,0,0-.849.329,10.916,10.916,0,0,0-2.946,5.665,8.985,8.985,0,0,0,.65,5.7h0a8.141,8.141,0,0,0-1.058,2.665c0,.029-.005.059-.009.088v.007c0,.053,0,.106,0,.159.049.32.074.647.116.97q.049.258.114.5h0a6.786,6.786,0,0,0,.41,1.09,6.231,6.231,0,0,0,.452.775c.047.06.093.12.137.182.091.128.174.26.252.4a7.512,7.512,0,0,0,1.166,1.138.594.594,0,0,1,.05-.138.063.063,0,0,0,.025.012h.011a.059.059,0,0,0,.067.042.2.2,0,0,0,.082-.049.416.416,0,0,0,.04-.036.081.081,0,0,0,.091-.007l0,0h.027a.118.118,0,0,0,.04-.014l.018.012a.055.055,0,0,0,.028.012l.008,0a.2.2,0,0,0,.183-.044l.036.01a.05.05,0,0,0,.05-.026.355.355,0,0,0,.038,0,.038.038,0,0,0,.038-.027,2.353,2.353,0,0,0,.323.13c.051.017.074-.065.022-.081a2.377,2.377,0,0,1-.68-.347,6.706,6.706,0,0,1-.831-.907,3.976,3.976,0,0,1-.836-1.22,3.725,3.725,0,0,1-.315-.788c-.027-.1-.055-.194-.074-.292a1.431,1.431,0,0,1-.085-.331,2.145,2.145,0,0,1-.021-.214,2.467,2.467,0,0,1-.014-.6c-.063-1.841,1.2-3.873.794-3.844h0a.585.585,0,0,0-.234.11l-.1.116a12.425,12.425,0,0,1,.563-7.417,8.912,8.912,0,0,1,1.938-2.83l.141-.087c.773-.148,2.551,3.845,3.45,5.417a1.073,1.073,0,0,0-.314.187c1.948.147,5.434-.136,7.226,1.343.632.606.611.122.02-.406,1.247-1.446,4.619-6.763,5.212-5.674a10.04,10.04,0,0,1,1.473,3.688,17.407,17.407,0,0,1-1.008,8.91c-.494-.714-1.032-.51-.727.3a3.483,3.483,0,0,1,.094,1.547h0a3.511,3.511,0,0,1-.107.738,3.762,3.762,0,0,1-.174.677c-.019.069-.036.129-.05.176a2.407,2.407,0,0,1-.152.3h0a3.855,3.855,0,0,1-.251.367,4.89,4.89,0,0,1-.545.631c-.062.062-.13.122-.2.178-.028.025-.055.049-.084.073a4.877,4.877,0,0,1-1.624.864c-.111.036-.222.07-.334.1a13.845,13.845,0,0,1-3.666.935c-.56.066-1.093.108-1.6.129a1.052,1.052,0,0,1,.1.825h0a17.322,17.322,0,0,0,4.908-.634c.309-.089.613-.2.912-.313h0a.618.618,0,0,1,.2-.069h0a3.668,3.668,0,0,1,.515-.243,1.121,1.121,0,0,1,.331-.23,4.778,4.778,0,0,0,.43-.221,8.048,8.048,0,0,0,1.929-1.677,3.972,3.972,0,0,0,.641-1.056,2.066,2.066,0,0,0,.117-.539c0-.03.007-.06.01-.089,0-.046,0-.093,0-.138A2.913,2.913,0,0,1,57.173,227.525Z" transform="translate(-30.666 -210.991)" fill="#1f1c1a"/>
      <path id="Path_3659" data-name="Path 3659" d="M56.073,227.221c-2.2-.036-4.067,2.827-3.279,5.124-.554.224-.046.723.028.889.163.318.453.837.854.891A8.427,8.427,0,0,0,59,233.2a2.26,2.26,0,0,0,.758-1.763C59.814,229.641,57.515,227.292,56.073,227.221Zm2.55,4.974a2.333,2.333,0,0,1-1.326,1.179l.033-.025a1.1,1.1,0,0,1-.291.083.594.594,0,0,1-.221.062,2.4,2.4,0,0,1-.362.1,3.665,3.665,0,0,1-.686.085.6.6,0,0,1-.146.025.454.454,0,0,1-.142-.018,8.885,8.885,0,0,1-1.369-.08c-.49-.056-.565-.7-.84-1.067a.422.422,0,0,0-.306-.219,6.427,6.427,0,0,0,.227-1.449c.207-1.38,1.33-2.929,2.88-2.927C57.382,227.921,59.023,230.464,58.623,232.195Z" transform="translate(-36.302 -216.663)" fill="#1f1c1a"/>
      <path id="Path_3660" data-name="Path 3660" d="M53.368,238.822c-.179-.134-.406-.213-.543-.064-.12.141-.031.3.072.423.168.169.088.371-.094.49a1.41,1.41,0,0,1-.807.31,2.174,2.174,0,0,1,.243.207.515.515,0,0,1,.145.3,2.362,2.362,0,0,0,.825-.366A.933.933,0,0,0,53.368,238.822Z" transform="translate(-36.112 -220.667)" fill="#1f1c1a"/>
      <path id="Path_3661" data-name="Path 3661" d="M37.161,249.841a1.629,1.629,0,0,1,2.64,1.1,2.3,2.3,0,0,1-2.063,2.573,2.088,2.088,0,0,1-2.108-2.488,5.433,5.433,0,0,1,1.862-3.4c.356-.315.347-1.118-.051-.889-1.62.933-3.159,3.668-2.729,5.488a3,3,0,0,0,3.99,2.046,3.15,3.15,0,0,0,1.691-4.088c-.59-1.378-2.6-2.065-3.594-.7-.154.21.151.512.361.361Z" transform="translate(-30.046 -223.471)" fill="#1f1c1a"/>
      <path id="Path_3662" data-name="Path 3662" d="M44.9,232.05c-.068,0-.135-.01-.2-.012a1.847,1.847,0,0,1-.355-.01.469.469,0,0,1-.375-.665.517.517,0,0,1,.587-.264c.034,0,.07,0,.1.005l.017,0a1.361,1.361,0,0,0-.48-.3,1.614,1.614,0,0,0-1.875.789c-.311.511-.667,1.393-.295,1.952a1.64,1.64,0,0,0,.467.586,1.723,1.723,0,0,0,1.955.239,2.535,2.535,0,0,0,.711-1.816,1.945,1.945,0,0,0-.021-.556A.6.6,0,0,1,44.9,232.05Z" transform="translate(-32.571 -217.888)" fill="#1f1c1a"/>
      <path id="Path_3663" data-name="Path 3663" d="M56.98,232.779l-.006,0a.528.528,0,0,1-.377.139c-.068,0-.135-.01-.2-.012a1.9,1.9,0,0,1-.355-.01.469.469,0,0,1-.375-.665.517.517,0,0,1,.587-.264c.034,0,.07,0,.1.005l.033,0a1.571,1.571,0,0,0-.66-.314c-1.773-.377-2.959,2.192-1.754,3.418a.341.341,0,0,0,.234.1,1.1,1.1,0,0,0,.483.457,1.789,1.789,0,0,0,1.936-.377A2.311,2.311,0,0,0,56.98,232.779Z" transform="translate(-36.633 -218.204)" fill="#1f1c1a"/>
      <path id="Path_3664" data-name="Path 3664" d="M34.656,232.325a17.109,17.109,0,0,0-7.078-1.693" transform="translate(-27.578 -217.855)" fill="none" stroke="#1f1c1a" stroke-width="0.13"/>
      <path id="Path_3665" data-name="Path 3665" d="M34.854,235.039a18.946,18.946,0,0,0-7.276.453" transform="translate(-27.578 -219.339)" fill="none" stroke="#1f1c1a" stroke-width="0.13"/>
      <path id="Path_3666" data-name="Path 3666" d="M36.315,236.936a17.779,17.779,0,0,0-5.735,1.628" transform="translate(-28.627 -220.059)" fill="none" stroke="#1f1c1a" stroke-width="0.13"/>
      <path id="Path_3667" data-name="Path 3667" d="M65.278,237.65a19.206,19.206,0,0,1,7.327.453" transform="translate(-40.754 -220.251)" fill="none" stroke="#1f1c1a" stroke-width="0.13"/>
      <path id="Path_3668" data-name="Path 3668" d="M64.067,239.677a18,18,0,0,1,5.775,1.628" transform="translate(-40.331 -221.017)" fill="none" stroke="#1f1c1a" stroke-width="0.13"/>
      <path id="Path_3669" data-name="Path 3669" d="M57.313,244.55a2.014,2.014,0,0,0-.408,1.65" transform="translate(-37.81 -222.72)" fill="none" stroke="#1f1c1a" stroke-width="0.13"/>
      <path id="Path_3670" data-name="Path 3670" d="M52.424,249.365a2.274,2.274,0,0,0-2.327-.33,2.832,2.832,0,0,0-1.564,1.814,2.228,2.228,0,0,0,1.029,2.694,2.766,2.766,0,0,0,.973.161,6.324,6.324,0,0,0,3.582-.887A3.965,3.965,0,0,0,56,249.744a3.036,3.036,0,0,0-2.039-2.658" transform="translate(-34.866 -223.606)" fill="none" stroke="#1f1c1a" stroke-width="0.13"/>
      <path id="Path_3671" data-name="Path 3671" d="M58.726,254.551q.366,1.358.837,2.685" transform="translate(-38.464 -226.215)" fill="none" stroke="#1f1c1a" stroke-width="0.13"/>
      <path id="Path_3672" data-name="Path 3672" d="M39.319,246.645a31.377,31.377,0,0,1-.429-3.96,1.62,1.62,0,0,1,.211-1.075,1.647,1.647,0,0,1,1.146-.474q2.95-.382,5.926-.5a1.622,1.622,0,0,1,1.194.271,1.587,1.587,0,0,1,.386.835,24.774,24.774,0,0,1,.628,4.856" transform="translate(-31.529 -221.348)" fill="none" stroke="#1f1c1a" stroke-width="0.13"/>
      <path id="Path_3673" data-name="Path 3673" d="M40.237,257.754c.585.555.187,1.7.8,2.223a1.642,1.642,0,0,0,1.18.237l1.413-.077a45.2,45.2,0,0,0,4.988-.457,1.145,1.145,0,0,0,.468-.153.99.99,0,0,0,.29-.974,3.139,3.139,0,0,1-.1-1.061" transform="translate(-32.002 -227.243)" fill="none" stroke="#1f1c1a" stroke-width="0.13"/>
      <g id="Group_18736" data-name="Group 18736" transform="translate(8.337 19.253)">
        <path id="Path_3674" data-name="Path 3674" d="M41.473,240.655h0C41.5,240.657,41.515,240.656,41.473,240.655Z" transform="translate(-40.771 -240.611)" fill="#1f1c1a"/>
        <path id="Path_3675" data-name="Path 3675" d="M41.34,240.729a.358.358,0,0,0-.241-.1l-.032,0a.545.545,0,0,0-.142,0l-.018,0h-.045a.427.427,0,0,0-.044-.014c-.017-.005-.112-.03-.04,0a.261.261,0,0,0-.315.408c-.05-.062.034.048.045.059a.4.4,0,0,0,.1.067.585.585,0,0,0,.236.063l.058.006h.085a.873.873,0,0,0,.088.005c.021,0,.041,0,.062,0A.291.291,0,0,0,41.34,240.729Z" transform="translate(-40.394 -240.587)" fill="#1f1c1a"/>
      </g>
      <path id="Path_3676" data-name="Path 3676" d="M50.063,250.58a.573.573,0,0,0,.087.34,1.861,1.861,0,0,0,.423.529c.007.007.021.006.023,0s-.014-.016-.016-.007" transform="translate(-35.435 -224.827)" fill="none" stroke="#1f1c1a" stroke-width="0.13"/>
      <path id="Path_3677" data-name="Path 3677" d="M48.813,252.418a.156.156,0,0,0,.059.1l.177.181a.564.564,0,0,0,.155.124.527.527,0,0,0,.141.037l.313.053" transform="translate(-35 -225.47)" fill="none" stroke="#1f1c1a" stroke-width="0.13"/>
      <path id="Path_3678" data-name="Path 3678" d="M48.711,254.407a1.179,1.179,0,0,0,.867-.032" transform="translate(-34.964 -226.153)" fill="none" stroke="#1f1c1a" stroke-width="0.13"/>
      <path id="Path_3679" data-name="Path 3679" d="M40.933,250.794a1.515,1.515,0,0,1-.3.457.268.268,0,0,1-.106.077" transform="translate(-32.104 -224.902)" fill="none" stroke="#1f1c1a" stroke-width="0.13"/>
      <path id="Path_3680" data-name="Path 3680" d="M42.081,251.714a.849.849,0,0,1-.556.516l.025-.01" transform="translate(-32.452 -225.223)" fill="none" stroke="#1f1c1a" stroke-width="0.13"/>
      <path id="Path_3681" data-name="Path 3681" d="M41.932,253.715a.456.456,0,0,0,.6-.186" transform="translate(-32.595 -225.858)" fill="none" stroke="#1f1c1a" stroke-width="0.13"/>
      <path id="Path_3682" data-name="Path 3682" d="M58.65,232.5a.671.671,0,0,0-.451-.517,1.346,1.346,0,0,0-1.008,0c-.038,0-.087,0-.1.007a.559.559,0,0,0-.31.19.533.533,0,0,0,0,.74,1.12,1.12,0,0,0,.754.314,1.427,1.427,0,0,0,.82-.1A.6.6,0,0,0,58.65,232.5Z" transform="translate(-37.734 -218.294)" fill="#fff"/>
      <path id="Path_3683" data-name="Path 3683" d="M46.331,231.349a1.089,1.089,0,0,0-.494-.153.331.331,0,0,0-.176-.054.705.705,0,0,0-.641.233.641.641,0,0,0-.1.676c.226.42.827.409,1.226.345a.56.56,0,0,0,.512-.424A.623.623,0,0,0,46.331,231.349Z" transform="translate(-33.618 -218.033)" fill="#fff"/>
      <path id="Path_3684" data-name="Path 3684" d="M45.974,234.19l.018-.145c.013-.085.03-.171.047-.255.941-.116,1.962-.706,1.962-1.572-.022-.46-1.205-.723-2.16-.751-.18,0-.343,0-.5.013l-.044-.042c.8-2.217-.424-5.268-2.141-5.455-1.129-.075-3.1,2.041-3.206,3.838a2.735,2.735,0,0,0,.451,1.841,5.564,5.564,0,0,0,4.067,1.466.557.557,0,0,0,.351-.215,2.109,2.109,0,0,0,.634.81c0,.051,0,.1,0,.152,0,.091-.006.182,0,.273-.039.425-.105.865-.427,1.013l-.012.007a2.076,2.076,0,0,1-.339.118c-.075.016-.171.047-.269.07l-.022,0a1.546,1.546,0,0,1-1.294-.813c-.113-.177-.124-.391.051-.482a.305.305,0,0,0,.165-.362c-.069-.187-.267-.2-.443-.142a1.007,1.007,0,0,0-.208,1.244,2.38,2.38,0,0,0,.66.725,2.667,2.667,0,0,1,.36-.085.04.04,0,0,0,0,.012.1.1,0,0,0-.022.025.043.043,0,0,0,.036.064.129.129,0,0,0,.072-.02h.011a.035.035,0,0,0,.039,0,.072.072,0,0,0,.037-.023h0l.008,0a.711.711,0,0,1,.066-.031.786.786,0,0,1,.1,0c.017,0,.035-.007.053-.011H44.1l.022,0a.036.036,0,0,0,.031.016h.018a.035.035,0,0,0,.026-.011.8.8,0,0,0,.124-.008l.021,0h.008a.33.33,0,0,0,.062-.005,2.49,2.49,0,0,0,.373-.072.043.043,0,0,0,.083,0h0l0,0a.039.039,0,0,0,.031.012.091.091,0,0,0,.025,0h0a.044.044,0,0,0,.019,0,.028.028,0,0,0,.015,0l.01,0a.031.031,0,0,0,.024.007h0a.044.044,0,0,0,.04,0l.014-.008a.049.049,0,0,0,.034.008.132.132,0,0,0,.04-.016.044.044,0,0,0,.042,0,.1.1,0,0,0,.025-.016.033.033,0,0,0,.029,0l.012-.01.01.008a.044.044,0,0,0,.045.068.464.464,0,0,0,.149-.074l.018-.012a.7.7,0,0,0,.219-.2.373.373,0,0,0,.015.048.8.8,0,0,0,.061.1l.014.023a.225.225,0,0,0,.215.164.238.238,0,0,0,.193-.109.925.925,0,0,1,.209-.069,1.954,1.954,0,0,1-.185-.2,1.064,1.064,0,0,1-.233-.849C45.971,234.224,45.973,234.207,45.974,234.19Zm-1.025-2.648a.52.52,0,0,0-.286.141.755.755,0,0,0-.073.528c-.1.2-.226.355-.416.357-.045,0-.092,0-.139,0h-.061c-.01,0-.021,0-.031,0a.43.43,0,0,1-.144-.021,2.48,2.48,0,0,1-.518-.021l-.085-.013-.041.005a.408.408,0,0,1-.225-.047.44.44,0,0,1-.114-.014.5.5,0,0,1-.148-.038l0,0a2.433,2.433,0,0,1-1.894-1.727c-.172-1.77,1.307-4.148,2.325-3.993,1.205.155,1.956,1.817,2.008,3.219a8.177,8.177,0,0,0,.059,1.473A.293.293,0,0,0,44.95,231.541Zm.516.641-.1-.132c-.187-.252.1-.251.1-.251h.019s1.231-.023.86.218C46.166,232.146,45.689,232.5,45.466,232.183Z" transform="translate(-31.898 -216.23)" fill="#1f1c1a"/>
      <path id="Path_3685" data-name="Path 3685" d="M38.182,220.843s-1.7-.945-.838-6.162c0,0,11.14-9.378,22.782,2.158a8.084,8.084,0,0,1-2.808,6.31S43.952,215.591,38.182,220.843Z" transform="translate(-30.907 -211.024)" fill="#fff" stroke="#1a1818" stroke-linecap="round" stroke-linejoin="round" stroke-width="1.375"/>
      <path id="Path_3686" data-name="Path 3686" d="M39.7,224.966a8.576,8.576,0,0,1,.8-.749c.1-.092-.325.262-.137.114l.109-.087q.117-.093.236-.181.264-.2.54-.38.3-.2.607-.375.16-.092.323-.178l.089-.047c.159-.086-.159.08-.15.077.072-.031.14-.07.21-.1a10.563,10.563,0,0,1,1.646-.625c.145-.042.291-.076.436-.114s-.254.053-.113.026c.041-.008.081-.018.121-.026.092-.019.184-.036.276-.053a9.823,9.823,0,0,1,.995-.126,10.093,10.093,0,0,1,1.1-.024.786.786,0,0,1,.248.012c-.122-.056-.185-.014-.066,0l.145.012c.2.018.394.042.59.071a11.788,11.788,0,0,1,2.517.678c.066.025.363.15.157.061q.19.082.378.168.39.18.769.383a16.921,16.921,0,0,1,1.544.936,22.493,22.493,0,0,1,3.254,2.72,1.074,1.074,0,0,0,1.588-.119c.364-.394.8-1.326.312-1.813-3.079-3.081-6.955-5.727-11.476-5.673a11.759,11.759,0,0,0-6.987,2.54,9.671,9.671,0,0,0-1.326,1.185c-.388.442-.771,1.28-.312,1.813a1.061,1.061,0,0,0,1.587-.119Z" transform="translate(-31.187 -213.981)" fill="#fff" stroke="#1a1818" stroke-linecap="round" stroke-linejoin="round" stroke-width="1.375"/>
      <path id="Path_3687" data-name="Path 3687" d="M49.537,213.331l.016.815-1.392.194.151.982,1.264,0,.018.961,1.039-.02-.082-.988h1.438l-.023-1.181-1.375.026-.016-.815Z" transform="translate(-34.771 -211.801)" fill="#e11221"/>
      <path id="Path_3688" data-name="Path 3688" d="M45.355,247.376l.427-1.241-.45-.074-.317.97-.807-.678.552-.414a.631.631,0,0,0-.052-.859,4.1,4.1,0,0,0-1.386.068l.036,2.433.5-.068L43.8,246.8l.994.751-.44.974s.314.085.317.1.306-.582.419-.751l.675.574.4-.355Zm-1.563-1.3.02-.636c.776-.128.684.133.684.133A.758.758,0,0,1,43.793,246.076Z" transform="translate(-33.081 -222.896)" fill="#e11221"/>
    </g>
  </g>
</svg>
