 <svg xmlns="http://www.w3.org/2000/svg" width="51.889" height="53.592" viewBox="0 0 31.889 33.592">
                        <g id="Group_1210" data-name="Group 1210" transform="translate(-27.561 -210.35)">
                          <path id="Path_3278" data-name="Path 3278" d="M65.584,235.047a17.814,17.814,0,0,1,7.216-1.715" transform="translate(-13.352 -7.849)" fill="none" stroke="#1f1c1a" stroke-width="0.13"/>
                          <g id="Group_1209" data-name="Group 1209" transform="translate(27.578 210.991)">
                            <path id="Path_3279" data-name="Path 3279" d="M49.549,235.115c-.161-.59-.963-.575-1.419-.391a.3.3,0,0,0-.149.463.265.265,0,0,0,.193.18l.02,0a1.244,1.244,0,0,0,.243.081.3.3,0,0,0,.424.16l.016-.009h.007a.342.342,0,0,0,.145.012.27.27,0,0,0,.173.009.323.323,0,0,0,.2-.179A.272.272,0,0,0,49.549,235.115Z" transform="translate(-34.725 -219.289)" fill="#1a1818"/>
                            <path id="Path_3280" data-name="Path 3280" d="M58.379,220.6a.265.265,0,0,0-.022-.052,1.4,1.4,0,0,0,.008-.344,1.074,1.074,0,0,0,.052-.369.268.268,0,0,0-.359-.232c.022-.066.045-.13.071-.19a.274.274,0,0,0-.1-.339c.017-.1.03-.206.042-.308a2.343,2.343,0,0,0,.093-.713l.012-.034a.2.2,0,0,0-.024-.192c0-.017.006-.034.009-.05.044-.239.1-.482.119-.725a.354.354,0,0,1-.306-.373,3.226,3.226,0,0,1,.2-.439.254.254,0,0,0-.4-.306.785.785,0,0,0-.07.082,5.268,5.268,0,0,0,.151-.54.255.255,0,0,0-.121-.28c.006-.029.012-.057.018-.084a.279.279,0,0,0-.066-.229.593.593,0,0,0,.014-.088.218.218,0,0,0-.2-.24,2.029,2.029,0,0,0,.044-.262.206.206,0,0,0-.223-.239.343.343,0,0,0-.153-.215.268.268,0,0,0-.15-.075l0-.018a.225.225,0,0,0-.081-.137l.009-.025a.21.21,0,0,0-.023-.2.246.246,0,0,0-.207-.259.229.229,0,0,0-.182-.208.225.225,0,0,0-.228-.16.6.6,0,0,0-.116.016.245.245,0,0,0-.241-.064,1.233,1.233,0,0,0-.483.318.268.268,0,0,0-.2.067,1.421,1.421,0,0,0-.269.325,2.127,2.127,0,0,0-.654.726,7.457,7.457,0,0,0-.358.694c-.239-.027-.4.249-.516.516a1.478,1.478,0,0,0-.263.354,1.72,1.72,0,0,0-.433.583,1.521,1.521,0,0,0-.4.611c-.028.03-.055.062-.08.1a.2.2,0,0,0-.213.021,1.2,1.2,0,0,0-.283.4.6.6,0,0,0-.359.431.26.26,0,0,0-.11.064,1.045,1.045,0,0,0-.247.575,2.074,2.074,0,0,0-.207.219.043.043,0,0,0-.053-.03l.019-.036a.042.042,0,0,0-.073-.043c-.014.02-.03.038-.044.057l.008-.014a.042.042,0,0,0-.01-.051.2.2,0,0,0,.015-.04.035.035,0,0,0,0-.02c.012-.019.025-.038.036-.057a.042.042,0,0,0-.057-.058.414.414,0,0,0-.077.062.042.042,0,0,0-.053-.038.21.21,0,0,0-.047.022.046.046,0,0,0-.066.009.865.865,0,0,0-.069.118,2.067,2.067,0,0,0-.381-.312q-.8-.332-.084-.049l-.057-.036a2.978,2.978,0,0,0-1-.317q-.819-.107-.243-.036l-.47-.064c-.015,0-.272,0-.35,0l-.262-.034-.065,0a1.853,1.853,0,0,0-.446-.045c-.114,0-.228,0-.342,0-.053,0-.089,0-.114,0a4.445,4.445,0,0,0-.484-.032c-.139,0-.956.012-.562.049.281.027-.195-.018-.251-.021l-.066,0-.082-.011a1.013,1.013,0,0,0-.315-.029,1.314,1.314,0,0,0-.34-.03c-.016-.077-.032-.154-.051-.23a.218.218,0,0,0-.25-.18l-.009-.019c-.053-.189-.145-.378-.208-.552-.082-.228-.11-.569-.3-.741a1.506,1.506,0,0,0-.226-.448,3.581,3.581,0,0,0-.255-.7c-.03-.1-.064-.2-.1-.3,0-.053.005-.106.006-.159a.248.248,0,0,0-.225-.244.66.66,0,0,0-.247-.207.31.31,0,0,0-.145-.023.221.221,0,0,0-.02-.034,1.712,1.712,0,0,0-.157-.5.229.229,0,0,0-.317-.1c-.008-.075-.019-.147-.033-.213a.886.886,0,0,0,0-.223.19.19,0,0,0-.068-.117.227.227,0,0,0-.008-.043.792.792,0,0,0-1-.452,1.383,1.383,0,0,0-.907.837c-.023.058-.056.131-.088.208-.018.031-.035.062-.051.095a.593.593,0,0,0-.128.1,1.151,1.151,0,0,0-.142.2,2.041,2.041,0,0,0-.55.861c-.02.043-.038.089-.056.134a1.928,1.928,0,0,0-.4.565,5.428,5.428,0,0,0-.5,1.125,11.977,11.977,0,0,0-.4,2.363,12.918,12.918,0,0,0,.071,2.273c.069.569.126,1.454.613,1.831a.178.178,0,0,0,.088.033c-.065.123-.123.248-.18.362a3.431,3.431,0,0,0-.232.562c-.058.138-.11.278-.161.42a3.351,3.351,0,0,0-.242.884,1.815,1.815,0,0,0-.086.523,1.611,1.611,0,0,0,.042.915,2.3,2.3,0,0,0,.062.483,3.161,3.161,0,0,0,.3,1.255.367.367,0,0,0,.029.049,3.066,3.066,0,0,0,.147.362.333.333,0,0,0,.039.06c.033.1.062.2.085.3a.322.322,0,0,0,.361.271.383.383,0,0,0,.581-.276l.022.015a.383.383,0,0,0,.57-.328,1,1,0,0,0-.058-.4.388.388,0,0,0-.023-.053l.026.018a.67.67,0,0,0,.087.1.409.409,0,0,0,.489.069.454.454,0,0,0,.2-.394.379.379,0,0,0-.152-.3.393.393,0,0,0-.084-.08.447.447,0,0,0-.169-.213.5.5,0,0,0-.292-.106h-.014c0-.01,0-.021,0-.032a1.294,1.294,0,0,0-.176-.584,1.824,1.824,0,0,0-.172-.476l0-.019a2.249,2.249,0,0,0-.112-.591l-.006-.013c0-.029,0-.058,0-.087a1.42,1.42,0,0,0-.04-.495.339.339,0,0,0,.115-.145c.013-.03.025-.06.037-.091h0v-.006c.069-.177.12-.361.172-.544a.4.4,0,0,0,.086-.1,1.409,1.409,0,0,0,.156-.566,3.442,3.442,0,0,1,.209-.355.274.274,0,0,0,.043-.1,1.565,1.565,0,0,0,.284-.445.4.4,0,0,0,.03-.128l.031-.051a.405.405,0,0,0,.217-.143c.235-.307.559-.57.815-.871a3.747,3.747,0,0,1,.613-.271.378.378,0,0,0,.367.375c.547.056.966.595,1.227,1.042.154.264.332.519.461.8a3.1,3.1,0,0,1,.358.964.386.386,0,0,0,.061.184,2.051,2.051,0,0,0,0,1.234c-.006.016-.012.031-.016.046a1.446,1.446,0,0,0-.024.239l0,0a.81.81,0,0,0-.063.075.3.3,0,0,0-.023.352.113.113,0,0,0-.015.036.147.147,0,0,0,.009.115.056.056,0,0,0,.069.029.07.07,0,0,0,.073-.046.4.4,0,0,0,.456-.006,2.881,2.881,0,0,1,.621.043c.405.02.472-.5.2-.689a.975.975,0,0,0,.072-.23.469.469,0,0,0,0-.06.969.969,0,0,0,.073-.455c.051,0,.1.008.156.008a1.848,1.848,0,0,0,1.575-.956,1.71,1.71,0,0,0,.152-.292.252.252,0,0,0,.219-.068c.156-.162.264-.4.4-.556.04-.043.082-.1.125-.15a.254.254,0,0,0,.215-.067,1.888,1.888,0,0,0,.314-.4.221.221,0,0,0,.1-.03.764.764,0,0,0,.262-.282.2.2,0,0,0,.173-.088c.029-.036.06-.077.093-.121a.582.582,0,0,0,.115-.091.248.248,0,0,0,.166.016c.125-.029.247-.054.369-.078.086-.013.172-.022.259-.027a.211.211,0,0,0,.086,0,1.457,1.457,0,0,1,.64.128l.053.023a.229.229,0,0,0,0,.134c.067.218.252.229.451.252a1.106,1.106,0,0,1,.149.026,1.347,1.347,0,0,1,.283.158.278.278,0,0,0,.071.04c.069.066.137.145.221.239a8.028,8.028,0,0,1,.922,1.29c.26.44.474.912.74,1.348a6.958,6.958,0,0,1-.539,1.981,5.715,5.715,0,0,0-.4.974,5.1,5.1,0,0,0-.1,1.107c-.019.4-.25,1.719.393,1.737.383.012.478-.418.693-.644a.261.261,0,0,0,.44,0c.088-.172.187-.337.284-.5a.271.271,0,0,0,.41-.121q.063-.151.123-.3a1.7,1.7,0,0,0,.147-.187.235.235,0,0,0,.163-.119,3.131,3.131,0,0,0,.322-.832,3.243,3.243,0,0,0,.216-.98.248.248,0,0,0,0-.044c.021-.069.042-.138.062-.209a.231.231,0,0,0-.089-.261c.047-.148.091-.289.137-.4a.206.206,0,0,0-.063-.24l.04-.1a.211.211,0,0,0-.145-.288c.005-.021.012-.043.016-.065a.229.229,0,0,0,0-.1.308.308,0,0,0,.062-.014.282.282,0,0,0,.155.006.455.455,0,0,0,.132-.062.245.245,0,0,0,.247-.117c.073-.113.094-.287.163-.408a.571.571,0,0,0,.114-.18.2.2,0,0,0-.03-.21c.018-.055.034-.112.051-.168a9.129,9.129,0,0,0,.365-1.011.285.285,0,0,0,.01-.071,1.429,1.429,0,0,0,.094-.423.231.231,0,0,0-.025-.108,2.4,2.4,0,0,0,.141-.429,1.571,1.571,0,0,0,.263-.536,1.531,1.531,0,0,0,.088-.562c.028-.126.051-.247.077-.351l0-.012A1.211,1.211,0,0,0,58.379,220.6Z" transform="translate(-31.055 -211.38)" fill="#d8ccc0"/>
                            <g id="Group_1206" data-name="Group 1206" transform="translate(7.468 12.651)">
                              <path id="Path_3281" data-name="Path 3281" d="M54.626,234.2a1.039,1.039,0,0,0-.592.108c-.191.062-.382.123-.575.18-.547.163-1.1.346-1.636.54-.117.042-.234.078-.35.111a.285.285,0,0,0-.189.016l-.049.023a6.632,6.632,0,0,1-1.337.013c-.112-.015-.226-.023-.338-.04a.666.666,0,0,0-.112-.029c-.062-.017-.317,0-.468-.027a.237.237,0,0,0-.049-.064.309.309,0,0,0-.23-.221.274.274,0,0,0-.243-.145.282.282,0,0,0-.186-.075.448.448,0,0,0,.015-.107v-.016l.006-.036a.265.265,0,0,0-.21-.309.27.27,0,0,0-.145-.165.874.874,0,0,0-.031-.114.041.041,0,0,0-.033-.029l-.008-.03a.035.035,0,0,0-.016-.025.044.044,0,0,0,.021-.01.042.042,0,0,0,.075-.024c.005-.036.009-.073.013-.11a.047.047,0,0,0,.062-.026h0a.042.042,0,0,0,.063-.036c0-.058.023-.115.029-.174a.041.041,0,0,0-.049-.041c.007-.02.014-.04.019-.059a.039.039,0,0,0-.019-.047c0-.016.01-.032.014-.049a.042.042,0,0,0-.015-.043c0-.015.008-.029.013-.042.012-.034-.019-.054-.047-.05a.041.041,0,0,0-.018-.038c.01-.025.019-.05.026-.075a.044.044,0,0,0-.049-.053c0-.022.008-.042.01-.057a.042.042,0,0,0-.01-.034v-.012a.144.144,0,0,0,0-.086.457.457,0,0,0,.025-.085.05.05,0,0,0-.018-.044v-.009a.036.036,0,0,0-.019-.034l.019-.038a.045.045,0,0,0-.019-.06c0-.011,0-.021.006-.03a.044.044,0,0,0-.029-.052l-.021-.008a.038.038,0,0,0-.031.005c.025-.124.036-.25.058-.376.021-.079.043-.158.061-.235a.471.471,0,0,0,.011-.077,2.181,2.181,0,0,0,.146-.546l0-.007h0c.015-.032.029-.062.04-.09a.313.313,0,0,0-.22-.435.337.337,0,0,0-.521.114l0,.009a.4.4,0,0,0-.128.086c-.014.014-.026.029-.039.042a.446.446,0,0,0-.246.036.532.532,0,0,0-.238.3.427.427,0,0,0-.387.093,1.409,1.409,0,0,0-.273,1,.35.35,0,0,0-.368.069l-.077.017c-.4.107-.335.777.1.745.06,0,.087,0,.081-.006.033.014.066.028.1.04.119.023.237.04.354.061a3.108,3.108,0,0,1,.32.078l.15.048h.008a.306.306,0,0,0,.043.033c0,.067,0,.132,0,.191a.358.358,0,0,0,.206.323.409.409,0,0,0-.217.084.823.823,0,0,0-.21.29c-.016.02-.032.04-.049.059a.389.389,0,0,0-.692.223,1.954,1.954,0,0,0,.023.353l-.005.005c-.027.042-.055.089-.082.138a.755.755,0,0,0-.219.3,1.715,1.715,0,0,0-.1.822c0,.018,0,.036,0,.053a.315.315,0,0,0-.128-.1,1.843,1.843,0,0,0-.013-.536.794.794,0,0,0-.07-.47.271.271,0,0,1-.173-.155.306.306,0,0,0-.115-.1c-.025-.172-.1-.3-.272-.331,0-.025,0-.05-.008-.075a.243.243,0,0,0-.176-.176.4.4,0,0,0-.4.162.748.748,0,0,0-.184.154,1.267,1.267,0,0,0-.122.039.267.267,0,0,0-.123,0,1.063,1.063,0,0,0-.258.088,1.192,1.192,0,0,0-.27-.069,3.08,3.08,0,0,1-.887-.359.452.452,0,0,0-.08-.043,1.189,1.189,0,0,0-.141-.054.322.322,0,0,0-.066-.015,1.775,1.775,0,0,0-.585-.129.616.616,0,0,0-.207-.071,1.63,1.63,0,0,1-.125-.106,1.783,1.783,0,0,0-.128-.138.356.356,0,0,0-.322-.108,1,1,0,0,0-.208-.228.412.412,0,0,0-.263-.089l-.029-.023c-.332-.237-.732.252-.5.549a.282.282,0,0,0,.01.193.671.671,0,0,0,.547.439c-.29.184-.734.368-.782.733a.8.8,0,0,0-.352.328.26.26,0,0,0,.1.352.3.3,0,0,0,.137.357.311.311,0,0,0,.068.036.321.321,0,0,0,.08.1.379.379,0,0,0,.176.08.362.362,0,0,0,.049.067.324.324,0,0,0,.19.1,3.321,3.321,0,0,0,.44.665.758.758,0,0,0,.146.12.623.623,0,0,0,.322-.012,4.857,4.857,0,0,1,1.027-.061c.338.013.64-.056.973-.073a.275.275,0,0,0,.252-.281.455.455,0,0,0,.122.051.358.358,0,0,0,.162,0,.292.292,0,0,0,.054.029.37.37,0,0,0,.289.077.219.219,0,0,0,.157.012.31.31,0,0,0,.088.058.252.252,0,0,0,.26.085.779.779,0,0,0,.378-.241c.02-.006.041-.012.062-.017a.23.23,0,0,0,.114-.058.589.589,0,0,1,.131.022.3.3,0,0,0,.073.01l.085.077a.288.288,0,0,0,.233.071.255.255,0,0,0,.3-.043,1.134,1.134,0,0,0,.145-.195l0,0a.322.322,0,0,0,.338.17.385.385,0,0,0,.078-.014.284.284,0,0,0,.158-.024.389.389,0,0,0,.263.1.5.5,0,0,0,.435-.114.552.552,0,0,0,.075.063.215.215,0,0,0,.143.033.2.2,0,0,0,.107.108.912.912,0,0,0,1.172-.531.278.278,0,0,0,.1-.16.315.315,0,0,0,.066.011.278.278,0,0,0,.114.2l-.021.016a.259.259,0,0,0-.075.084l-.06.048a.206.206,0,0,0-.075.187c-.024.029-.049.056-.075.082a2.8,2.8,0,0,1-.633.143.258.258,0,0,0-.253.252,2.779,2.779,0,0,0,.23.717c.052.147.143.28.185.429.049.176.008.354.049.529a.25.25,0,0,0,.378.141.215.215,0,0,0,.234-.07l0,0a.213.213,0,0,0,.186-.036.232.232,0,0,0,.3.047,1.175,1.175,0,0,0,.1-.07.2.2,0,0,0,.272.028.246.246,0,0,0,.332-.009q.126-.117.26-.227a.263.263,0,0,0,.333.08l.021-.011a.206.206,0,0,0,.31.054l.243-.173a.209.209,0,0,0,.279.021c.115-.088.232-.172.35-.253a.208.208,0,0,0,.245-.005l.105-.079a.237.237,0,0,0,.277.023c.052-.029.1-.06.152-.093a.208.208,0,0,0,.188-.028l.031-.021a.244.244,0,0,0,.2-.024l.163-.093a.281.281,0,0,0,.328.071,5.722,5.722,0,0,0,.736-.495.254.254,0,0,0,.067-.365.227.227,0,0,0-.014-.084.21.21,0,0,0-.027-.289.284.284,0,0,0-.072-.344l.026-.029a.276.276,0,0,0,.062-.111.373.373,0,0,0,.1-.254.289.289,0,0,0-.19-.282.267.267,0,0,0-.013-.152.31.31,0,0,0-.043-.079c.027-.022.053-.043.078-.067a.261.261,0,0,0-.009-.365c.086-.067.173-.136.256-.209a.249.249,0,0,0-.124-.42,1.894,1.894,0,0,0,.557-.3A.255.255,0,0,0,54.626,234.2Zm-12.032,2.03a.125.125,0,0,0-.022,0,.781.781,0,0,0,.049-.072.677.677,0,0,0,.078.1A.327.327,0,0,0,42.594,236.226Zm.258.469a.23.23,0,0,0-.036-.078.362.362,0,0,0,.005-.038c.005-.011.012-.021.016-.033v0a.679.679,0,0,0,.051.166Zm4.654-2.637a.371.371,0,0,0-.173-.167.341.341,0,0,0,.2-.082,1.634,1.634,0,0,0-.018.169.038.038,0,0,0,.025.038A.258.258,0,0,0,47.506,234.058Z" transform="translate(-39.09 -230.493)" fill="#d8ccc0"/>
                              <path id="Path_3282" data-name="Path 3282" d="M53.271,236.64c0,.024,0,.029,0,0Z" transform="translate(-44.072 -232.653)" fill="#d8ccc0"/>
                            </g>
                            <path id="Path_3283" data-name="Path 3283" d="M40.359,251.321l0-.141a.249.249,0,0,0-.054-.154,1.756,1.756,0,0,0-.082-.531A.261.261,0,0,0,40,250.31a1.638,1.638,0,0,0-.165-.288.26.26,0,0,0-.3-.106c-.112-.086-.232-.156-.35-.236a.219.219,0,0,0-.221-.011.57.57,0,0,0-.335-.02.33.33,0,0,0-.149.106.3.3,0,0,0-.18.013.965.965,0,0,0-.078-.595c0-.04,0-.079,0-.119a.228.228,0,0,0-.095-.194c0-.018,0-.036,0-.054v-.013a.287.287,0,0,0,.014-.06c.005-.042,0-.123.006-.187a.255.255,0,0,0,.032-.078l.013-.056a.245.245,0,0,0-.073-.246c0-.042,0-.083-.006-.125a.253.253,0,0,0-.354-.225.2.2,0,0,0-.2.127,1.033,1.033,0,0,0-.064.191.248.248,0,0,0-.089.085,1.818,1.818,0,0,0-.143.322.8.8,0,0,0-.263.3,1.163,1.163,0,0,0-.295.441,1.421,1.421,0,0,0-.274.477,2.031,2.031,0,0,0-.269.594,2.4,2.4,0,0,0-.137.88,3.014,3.014,0,0,0-.02.5,1.214,1.214,0,0,0,.221,1.232.541.541,0,0,0,.074.131.567.567,0,0,0,.1.093.5.5,0,0,0,.292.388.4.4,0,0,0,.084.016.367.367,0,0,0,.106.065.455.455,0,0,0,.117.145.437.437,0,0,0,.446.252c.016.02.034.04.052.058a.248.248,0,0,0,.246.065.7.7,0,0,0,.092-.042.316.316,0,0,0,.262-.064.344.344,0,0,0,.444-.114.216.216,0,0,0,.167-.031l.048-.038h0a.41.41,0,0,0,.329.035c.014,0,.027.006.041.007a.252.252,0,0,0,.246-.065l.046-.06.021-.009a.947.947,0,0,0,.191-.15c.3-.086.436-.454.531-.75.009-.028.018-.056.026-.086a1.566,1.566,0,0,0,.1-.333,3.65,3.65,0,0,0,.126-1.005A.21.21,0,0,0,40.359,251.321Z" transform="translate(-30.513 -223.92)" fill="#d8ccc0"/>
                            <path id="Path_3284" data-name="Path 3284" d="M56.242,253.39a.216.216,0,0,0-.056-.034.247.247,0,0,0-.311.061,5.346,5.346,0,0,1-.236-.58c-.067-.168-.082-.355-.148-.527a2.472,2.472,0,0,1-.263-.6c-.03-.3-.472-.322-.5-.06a.326.326,0,0,0-.117-.06.287.287,0,0,0-.219.014,1.053,1.053,0,0,0,.065-.18.731.731,0,0,1,.383-.03c.2-.1.312-.413.379-.671a1.26,1.26,0,0,0,.12-.222,1.032,1.032,0,0,0,.325-.669,1.291,1.291,0,0,0,.08-.588,2.2,2.2,0,0,0,.056-.741,1.28,1.28,0,0,0,.056-.645.252.252,0,0,0-.3-.174.246.246,0,0,0-.04-.028,1.786,1.786,0,0,0,.04-.359.265.265,0,0,0-.306-.249.252.252,0,0,0-.136-.149c0-.028-.006-.055-.011-.082a.229.229,0,0,0-.287-.173.264.264,0,0,0-.163-.09.338.338,0,0,0-.036-.031.182.182,0,0,0-.077-.031.276.276,0,0,0-.481-.088,1,1,0,0,0-.056.086l0,0a.321.321,0,0,0-.055-.034,4.319,4.319,0,0,0,.006-.5.254.254,0,0,0-.116-.2.244.244,0,0,0-.043-.034.7.7,0,0,0,.107-.159.587.587,0,0,0-.012-.609.436.436,0,0,0,.245-.472.254.254,0,0,0-.371-.151l-.029.021a.249.249,0,0,0-.112.214c-.162-.19-1.034-.017-1.2,0-.3.036-.8-.018-.784.435a.258.258,0,0,0,.16.232l0,.017c0,.133,0,.269.013.4a3.731,3.731,0,0,0,.079.832,1.729,1.729,0,0,0,.108.453c0,.01.01.019.014.028,0,.036,0,.075.007.114a3.464,3.464,0,0,0-.014,1.151.37.37,0,0,0-.042.011c-.07-.023-.142-.045-.213-.07a.233.233,0,0,0-.049-.011.326.326,0,0,0-.179-.168.57.57,0,0,0-.418.042,4.142,4.142,0,0,0-.925.224l-.037.012a.847.847,0,0,0-.218.14,1.043,1.043,0,0,0-.481.451,2.433,2.433,0,0,0-.119.3,1.107,1.107,0,0,0-.222.291,2.068,2.068,0,0,0-.173,1.525,1.319,1.319,0,0,0,.332.725.467.467,0,0,0,.117.191.594.594,0,0,0,.181.376.41.41,0,0,0,.087.158.365.365,0,0,0,.458.095l0,0a.257.257,0,0,0,.285.116c.027-.009.051-.021.077-.032a.259.259,0,0,0,.267.086c.023-.008.045-.018.067-.029a.248.248,0,0,0,.231.159.543.543,0,0,0,.457-.243.189.189,0,0,0,.043,0,.612.612,0,0,0,.069-.011.251.251,0,0,0,.3.16,1.021,1.021,0,0,0,.472-.379,1.543,1.543,0,0,1,.512-.033c.01.008.019.017.03.024a.236.236,0,0,0,.216.016c-.053.1-.1.211-.143.32a.408.408,0,0,0-.053-.047.255.255,0,0,0-.306.04.562.562,0,0,0-.1.136.444.444,0,0,0-.049.105v0l-.005.016a1,1,0,0,0-.049.307.659.659,0,0,0,0,.357.52.52,0,0,0,.1.53.6.6,0,0,0,.025.082c0,.02-.008.04-.01.06a1.268,1.268,0,0,0-.236.021l-.024-.008a.19.19,0,0,1-.007.06.153.153,0,0,1,0,.1.529.529,0,0,1-.207.291.26.26,0,0,0,.244.089,5.245,5.245,0,0,0,2.2-.086,4.3,4.3,0,0,0,1.2-.407c.3-.151.6-.294.656-.659A.271.271,0,0,0,56.242,253.39Zm-2.223-1.339a.207.207,0,0,0-.063-.011.249.249,0,0,0-.3-.046.278.278,0,0,0,.08-.121l.006-.021,0,0a.283.283,0,0,0,.341.074c.014-.007.027-.014.04-.021C54.086,251.95,54.051,252,54.019,252.051Z" transform="translate(-35.043 -222.692)" fill="#d8ccc0"/>
                            <g id="Group_1207" data-name="Group 1207" transform="translate(7.906 4.015)">
                              <path id="Path_3285" data-name="Path 3285" d="M42.779,217.184h0c-.019,0-.038,0-.058,0h0c.019,0,.038,0,.058,0h0Z" transform="translate(-40.803 -217.18)" fill="none"/>
                              <path id="Path_3286" data-name="Path 3286" d="M59.995,222.61a8.715,8.715,0,0,1,1.1-1.218A8.671,8.671,0,0,0,60,222.61a14.124,14.124,0,0,1,4.131,4.416h0A14.13,14.13,0,0,0,59.995,222.61Z" transform="translate(-46.873 -218.66)" fill="none"/>
                              <path id="Path_3287" data-name="Path 3287" d="M46.636,223.228l-.071-.08c.054.059.108.116.159.168C46.695,223.287,46.666,223.26,46.636,223.228Z" transform="translate(-42.155 -219.277)" fill="none"/>
                              <path id="Path_3288" data-name="Path 3288" d="M39.963,224.272c.006-.048.014-.1.021-.144-.01.064-.019.135-.029.2C39.958,224.312,39.96,224.29,39.963,224.272Z" transform="translate(-39.832 -219.621)" fill="none"/>
                              <path id="Path_3289" data-name="Path 3289" d="M57.193,223.294h0c.022-.006.049-.009.072-.015h0C57.242,223.285,57.215,223.287,57.193,223.294Z" transform="translate(-45.888 -219.323)" fill="none"/>
                              <path id="Path_3290" data-name="Path 3290" d="M54.619,224.2l.167-.012h0l-.166.012h0a.556.556,0,0,1-.057-.039l.057.039Z" transform="translate(-44.963 -219.632)" fill="none"/>
                              <path id="Path_3291" data-name="Path 3291" d="M52.767,221.682h0a2.692,2.692,0,0,1,.343-.322,2.713,2.713,0,0,0-.344.324,7,7,0,0,0-.709,1.132l-.006.011.006-.012A6.9,6.9,0,0,1,52.767,221.682Z" transform="translate(-44.082 -218.648)" fill="none"/>
                              <path id="Path_3292" data-name="Path 3292" d="M54.338,224h0c-.015-.015-.03-.031-.044-.047l-.006-.008.006.008C54.308,223.969,54.323,223.985,54.338,224Z" transform="translate(-44.867 -219.556)" fill="none"/>
                              <path id="Path_3293" data-name="Path 3293" d="M57.539,223.222l.077-.013-.076.013Z" transform="translate(-46.01 -219.298)" fill="none"/>
                              <path id="Path_3294" data-name="Path 3294" d="M53.894,223.246h0c-.008-.018-.014-.037-.02-.055s-.012-.03-.017-.047h0C53.868,223.178,53.88,223.212,53.894,223.246Z" transform="translate(-44.716 -219.274)" fill="none"/>
                              <path id="Path_3295" data-name="Path 3295" d="M47.616,223.238a7.329,7.329,0,0,1,.131-1.175A7.329,7.329,0,0,0,47.616,223.238Z" transform="translate(-42.524 -218.895)" fill="none"/>
                              <path id="Path_3296" data-name="Path 3296" d="M53.759,222.728c0,.031.012.062.019.093v-.005c0-.021-.009-.043-.013-.064s0-.014,0-.021Z" transform="translate(-44.682 -219.129)" fill="none"/>
                              <path id="Path_3297" data-name="Path 3297" d="M53.745,222.157s0-.008,0-.012a1,1,0,0,1,.058-.266l0,0a1.031,1.031,0,0,0-.06.27A.078.078,0,0,0,53.745,222.157Z" transform="translate(-44.677 -218.829)" fill="none"/>
                              <path id="Path_3298" data-name="Path 3298" d="M53.952,221.634l0-.005-.007.012Z" transform="translate(-44.749 -218.743)" fill="none"/>
                              <path id="Path_3299" data-name="Path 3299" d="M62.084,220.429l-.061.045c-.082.062-.18.145-.285.24.105-.095.2-.178.284-.24l.061-.045.01-.006a3.846,3.846,0,0,1,1.775-.887h0a3.851,3.851,0,0,0-1.776.887Z" transform="translate(-47.485 -218.007)" fill="none"/>
                              <path id="Path_3300" data-name="Path 3300" d="M44.918,218.423c-.066-.056-.123-.1-.186-.149.062.051.119.093.186.149l.016.015,0,0Z" transform="translate(-41.511 -217.564)" fill="none"/>
                              <path id="Path_3301" data-name="Path 3301" d="M44.028,217.744c.018.012.033.02.051.033-.018-.013-.034-.021-.051-.033Z" transform="translate(-41.263 -217.378)" fill="none"/>
                              <path id="Path_3302" data-name="Path 3302" d="M43.854,222.241h0c-.25.138-.487.287-.717.443.23-.156.466-.3.716-.443Z" transform="translate(-40.95 -218.958)" fill="none"/>
                              <path id="Path_3303" data-name="Path 3303" d="M39.793,225.548c-.016.116-.021.213-.027.311h0c.006-.1.011-.2.027-.311l0-.016c0-.032.008-.057.011-.088,0,.03-.007.057-.01.088Z" transform="translate(-39.766 -220.083)" fill="none"/>
                              <path id="Path_3304" data-name="Path 3304" d="M43.114,217.259h0c.049.017.1.037.149.06h0q-.077-.035-.15-.06Z" transform="translate(-40.942 -217.208)" fill="none"/>
                              <path id="Path_3305" data-name="Path 3305" d="M40.139,221.282a19.236,19.236,0,0,1,.763-2.827,2.607,2.607,0,0,1,.382-.837,2.614,2.614,0,0,0-.381.837A19.309,19.309,0,0,0,40.139,221.282Z" transform="translate(-39.897 -217.334)" fill="none"/>
                              <path id="Path_3306" data-name="Path 3306" d="M41.088,224.324l.034-.03c-.211.2-.411.4-.6.6l.036-.041C40.726,224.673,40.9,224.5,41.088,224.324Z" transform="translate(-40.032 -219.679)" fill="none"/>
                              <path id="Path_3307" data-name="Path 3307" d="M45.326,218.806h0c.07.074.144.157.223.251l.009.011C45.477,218.97,45.4,218.883,45.326,218.806Z" transform="translate(-41.719 -217.751)" fill="none"/>
                              <path id="Path_3308" data-name="Path 3308" d="M47.506,223.922a.046.046,0,0,1-.026.008.248.248,0,0,1-.109-.043.24.24,0,0,0,.11.043A.055.055,0,0,0,47.506,223.922Z" transform="translate(-42.438 -219.536)" fill="none"/>
                              <path id="Path_3309" data-name="Path 3309" d="M47.683,222.141a4.414,4.414,0,0,1,.08-.527v0c.021-.078.043-.153.069-.226h0a1.633,1.633,0,0,1,.1-.207h0a1.5,1.5,0,0,1,.278-.359c-.147,0-.272-.014-.409-.02.137.006.263.016.41.02h0a1.468,1.468,0,0,0-.279.359h0a1.545,1.545,0,0,0-.1.207h0a2.352,2.352,0,0,0-.069.226v0a4.051,4.051,0,0,0-.08.527v0c0,.045-.008.105-.012.153,0-.048.007-.108.011-.153Z" transform="translate(-42.543 -218.451)" fill="none"/>
                              <path id="Path_3310" data-name="Path 3310" d="M47.613,223.874c0,.006,0,.008-.006.014h0C47.609,223.882,47.612,223.88,47.613,223.874Z" transform="translate(-42.521 -219.532)" fill="none"/>
                              <path id="Path_3311" data-name="Path 3311" d="M45.022,221.651h0q-.4.176-.774.381h0Q44.619,221.826,45.022,221.651Z" transform="translate(-41.34 -218.751)" fill="none"/>
                              <path id="Path_3312" data-name="Path 3312" d="M46.792,220.844l.1-.027-.1.027Z" transform="translate(-42.234 -218.458)" fill="none"/>
                              <path id="Path_3313" data-name="Path 3313" d="M45.714,219.245h0l.054.069h0Z" transform="translate(-41.856 -217.905)" fill="none"/>
                              <path id="Path_3314" data-name="Path 3314" d="M45.484,221.722c-.013-.023-.032-.05-.043-.071h0C45.453,221.672,45.471,221.7,45.484,221.722Z" transform="translate(-41.76 -218.751)" fill="none"/>
                              <path id="Path_3315" data-name="Path 3315" d="M53.914,223.3h0Z" transform="translate(-44.736 -219.331)" fill="#c2bebc"/>
                              <path id="Path_3316" data-name="Path 3316" d="M57.822,223.18h0Z" transform="translate(-46.109 -219.288)" fill="#c2bebc"/>
                              <path id="Path_3317" data-name="Path 3317" d="M57.3,223.278h0Z" transform="translate(-45.927 -219.322)" fill="#c2bebc"/>
                              <path id="Path_3318" data-name="Path 3318" d="M58.195,223.156h0Z" transform="translate(-46.24 -219.279)" fill="#c2bebc"/>
                              <path id="Path_3319" data-name="Path 3319" d="M57.538,223.229h0Z" transform="translate(-46.009 -219.305)" fill="#c2bebc"/>
                              <path id="Path_3320" data-name="Path 3320" d="M53.787,222.869h0v-.005h0Z" transform="translate(-44.691 -219.176)" fill="#c2bebc"/>
                              <path id="Path_3321" data-name="Path 3321" d="M54.121,221.411a.2.2,0,0,0-.02.026l.02-.026Z" transform="translate(-44.802 -218.666)" fill="#c2bebc"/>
                              <path id="Path_3322" data-name="Path 3322" d="M43.345,217.352h0Z" transform="translate(-41.023 -217.24)" fill="#c2bebc"/>
                              <path id="Path_3323" data-name="Path 3323" d="M43.114,217.259h0Z" transform="translate(-40.942 -217.208)" fill="#c2bebc"/>
                              <path id="Path_3324" data-name="Path 3324" d="M64.128,226.374h0a14.13,14.13,0,0,0-4.132-4.416,8.715,8.715,0,0,1,1.1-1.218l.029-.025c.105-.095.2-.178.284-.24l.061-.045.01-.006a3.846,3.846,0,0,1,1.775-.887h.005c.485,0,.721.456.8,1.478A23.517,23.517,0,0,1,64.128,226.374Z" transform="translate(-46.873 -218.007)" fill="#c2bebc"/>
                              <path id="Path_3325" data-name="Path 3325" d="M53.856,223.142h0Z" transform="translate(-44.716 -219.274)" fill="#c2bebc"/>
                              <path id="Path_3326" data-name="Path 3326" d="M53.759,222.727v0h0v0Z" transform="translate(-44.682 -219.129)" fill="#c2bebc"/>
                              <path id="Path_3327" data-name="Path 3327" d="M40.293,225.16l-.036.041c-.167.185-.341.367-.49.559h0C39.927,225.554,40.112,225.358,40.293,225.16Z" transform="translate(-39.766 -219.983)" fill="#312c29"/>
                              <path id="Path_3328" data-name="Path 3328" d="M45.021,219.527c-.128-.006-.264-.01-.383-.019a.212.212,0,0,1-.035,0,.14.14,0,0,1-.047-.007l-.022,0-.082.023-.03.008-.1.027h0c-.067-.135-.149-.27-.232-.4-.071-.11-.145-.217-.221-.321l0,0c-.063-.086-.126-.168-.188-.247l-.056-.071-.011-.013-.007-.008c-.082-.1-.16-.186-.234-.263s-.13-.134-.181-.178l-.019-.018c-.066-.056-.123-.1-.186-.149-.163-.134-.315-.247-.457-.344l-.035-.022-.007,0h0a2.914,2.914,0,0,0-.361-.209l-.04-.019q-.077-.035-.15-.06a.968.968,0,0,0-.2-.047h0c-.019,0-.038,0-.058,0h-.018a.564.564,0,0,0-.143.037.572.572,0,0,0-.127.032.754.754,0,0,0-.093.08.776.776,0,0,0-.143.126l-.005.008a2.615,2.615,0,0,0-.381.837,19.309,19.309,0,0,0-.764,2.827c-.025.138-.049.278-.073.431-.005.034-.01.074-.016.109l0,.019h0c-.01.064-.019.135-.029.2-.029.2-.056.42-.083.653,0,.03-.007.057-.01.088l0,.016c-.016.116-.021.213-.027.311a9.68,9.68,0,0,1,1.674-1.682c-.222.174-.418.364-.619.551l.034-.03c.191-.176.375-.357.585-.521.163-.128.335-.249.511-.368.23-.156.466-.3.716-.443h0l0,0h0q.372-.205.774-.381h0c.011.021.029.049.042.071.027.048.054.095.089.148s.06.085.091.128.056.08.087.121.078.1.118.15.056.071.086.106c.045.054.089.1.134.156l.081.09c.054.059.108.116.159.168l.021.021c.06.059.115.112.169.158l.018.016a1.34,1.34,0,0,0,.142.106l.014.01a.24.24,0,0,0,.11.043.055.055,0,0,0,.025-.008l.007,0v0l.016-.04h0c.012-.184.025-.341.038-.5,0-.048.007-.108.011-.153v0a4.414,4.414,0,0,1,.08-.527v0c.021-.078.043-.153.069-.226h0a1.633,1.633,0,0,1,.1-.207h0a1.5,1.5,0,0,1,.278-.359C45.283,219.543,45.158,219.533,45.021,219.527Z" transform="translate(-39.766 -217.18)" fill="#312c29"/>
                              <path id="Path_3329" data-name="Path 3329" d="M46.435,220.238a4.255,4.255,0,0,1,.232.4h0C46.6,220.505,46.518,220.37,46.435,220.238Z" transform="translate(-42.109 -218.254)" fill="#312c29"/>
                              <path id="Path_3330" data-name="Path 3330" d="M46.273,219.991c.016.024.027.049.042.073-.071-.11-.145-.217-.221-.321C46.155,219.824,46.216,219.9,46.273,219.991Z" transform="translate(-41.989 -218.08)" fill="#312c29"/>
                              <path id="Path_3331" data-name="Path 3331" d="M47.607,222.8c0,.007,0,.008-.006.014a.065.065,0,0,1-.012.028l.016-.04h0c.012-.184.025-.341.038-.5,0-.048.007-.108.012-.153v0a4.052,4.052,0,0,1,.08-.527v0a2.35,2.35,0,0,1,.069-.226h0a1.545,1.545,0,0,1,.1-.207h0a1.468,1.468,0,0,1,.279-.359h0a1.549,1.549,0,0,0-.442.8A7.329,7.329,0,0,0,47.607,222.8Z" transform="translate(-42.514 -218.462)" fill="#2e2a27"/>
                              <path id="Path_3332" data-name="Path 3332" d="M45.382,218.86c.054.058.112.128.17.2-.078-.094-.152-.177-.223-.251C45.348,218.828,45.361,218.838,45.382,218.86Z" transform="translate(-41.72 -217.752)" fill="#2e2a27"/>
                              <path id="Path_3333" data-name="Path 3333" d="M45.715,219.246l.054.069" transform="translate(-41.856 -217.906)" fill="none" stroke="#2e2a27" stroke-linecap="round" stroke-linejoin="round"/>
                              <path id="Path_3334" data-name="Path 3334" d="M44.485,218.088c-.163-.134-.315-.247-.457-.344.018.012.033.02.051.033.111.079.228.167.352.267.08.064.155.121.24.193l.016.015-.016-.015C44.6,218.181,44.547,218.138,44.485,218.088Z" transform="translate(-41.263 -217.378)" fill="#2e2a27"/>
                              <path id="Path_3335" data-name="Path 3335" d="M42.81,217.186h0a.9.9,0,0,1,.2.048h0A.969.969,0,0,0,42.81,217.186Z" transform="translate(-40.835 -217.182)" fill="#2e2a27"/>
                              <path id="Path_3336" data-name="Path 3336" d="M43.114,217.259h0Z" transform="translate(-40.942 -217.208)" fill="#2e2a27"/>
                              <path id="Path_3337" data-name="Path 3337" d="M43.407,217.381a2.913,2.913,0,0,1,.361.209" transform="translate(-41.045 -217.251)" fill="none" stroke="#2e2a27" stroke-linecap="round" stroke-linejoin="round"/>
                              <path id="Path_3338" data-name="Path 3338" d="M43.115,217.259h0c.017.006.032.006.049.012s.067.034.1.049h0C43.213,217.3,43.163,217.276,43.115,217.259Z" transform="translate(-40.942 -217.208)" fill="#2e2a27"/>
                              <path id="Path_3339" data-name="Path 3339" d="M46.091,219.736v0c.06.083.122.163.18.251-.057-.088-.118-.167-.178-.248Z" transform="translate(-41.988 -218.078)" fill="#2e2a27"/>
                              <path id="Path_3340" data-name="Path 3340" d="M45.8,219.353c.04.049.079.1.119.15.024.032.047.067.071.1-.063-.086-.126-.168-.188-.247Z" transform="translate(-41.885 -217.943)" fill="#2e2a27"/>
                              <path id="Path_3341" data-name="Path 3341" d="M43.345,217.352h0" transform="translate(-41.023 -217.24)" fill="none" stroke="#2e2a27" stroke-linecap="round" stroke-linejoin="round"/>
                              <path id="Path_3342" data-name="Path 3342" d="M43.345,217.352l.023.009c.005,0,.012.007.017.01h0Z" transform="translate(-41.023 -217.24)" fill="#2e2a27"/>
                              <path id="Path_3343" data-name="Path 3343" d="M43.974,217.71l.035.022h0Z" transform="translate(-41.244 -217.366)" fill="#2e2a27"/>
                              <path id="Path_3344" data-name="Path 3344" d="M43.963,217.7l.007,0-.007,0Z" transform="translate(-41.24 -217.364)" fill="#2e2a27"/>
                              <path id="Path_3345" data-name="Path 3345" d="M45.046,218.53l0,0c.053.047.117.11.186.182h0C45.161,218.639,45.1,218.574,45.046,218.53Z" transform="translate(-41.62 -217.653)" fill="#2e2a27"/>
                              <path id="Path_3346" data-name="Path 3346" d="M45.7,219.225l.012.014h0Z" transform="translate(-41.85 -217.898)" fill="#2e2a27"/>
                              <path id="Path_3347" data-name="Path 3347" d="M45.672,219.2l.01.012.006.008-.007-.008Z" transform="translate(-41.841 -217.888)" fill="#2e2a27"/>
                              <path id="Path_3348" data-name="Path 3348" d="M39.767,225.173a9.68,9.68,0,0,1,1.674-1.682c-.222.174-.418.364-.619.551s-.362.349-.529.531C40.112,224.772,39.927,224.967,39.767,225.173Z" transform="translate(-39.766 -219.397)" fill="#2e2a27"/>
                              <path id="Path_3349" data-name="Path 3349" d="M47.7,220.79l.108.005c.137.006.263.016.41.02h0l.01-.009C48.057,220.8,47.873,220.8,47.7,220.79Z" transform="translate(-42.553 -218.448)" fill="#1f1c1a"/>
                              <path id="Path_3350" data-name="Path 3350" d="M63.707,219.734a.837.837,0,0,1,.107.158,2.975,2.975,0,0,1,.249,1.122,23.55,23.55,0,0,1,.065,5.359A14.124,14.124,0,0,0,60,221.957a8.671,8.671,0,0,1,1.1-1.218l.029-.025c.105-.1.2-.178.285-.24l.061-.045.009-.007a3.851,3.851,0,0,1,1.776-.887h0a.582.582,0,0,1,.27.066A.563.563,0,0,1,63.707,219.734Z" transform="translate(-46.873 -218.007)" fill="#312c29"/>
                              <path id="Path_3351" data-name="Path 3351" d="M65.9,226.373a23.551,23.551,0,0,0-.065-5.359,2.975,2.975,0,0,0-.249-1.122.836.836,0,0,0-.107-.158.563.563,0,0,0-.176-.133.582.582,0,0,0-.27-.066h0c.485,0,.721.456.8,1.478a23.517,23.517,0,0,1,.065,5.36h0Z" transform="translate(-48.641 -218.007)" fill="#2e2a27"/>
                              <path id="Path_3352" data-name="Path 3352" d="M53.155,221.607h0c.018-.021.038-.039.055-.059.054-.062.108-.123.167-.18a2.557,2.557,0,0,1,.264-.221h0c-.055.04-.093.093-.143.136A2.692,2.692,0,0,0,53.155,221.607Z" transform="translate(-44.469 -218.574)" fill="#2e2a27"/>
                              <path id="Path_3353" data-name="Path 3353" d="M49.9,220.866l-.741-.023-.392-.01h0v-.007c.466.014.964.027,1.478.051h.039C50.152,220.873,50.027,220.87,49.9,220.866Z" transform="translate(-42.927 -218.461)" fill="#1f1c1a"/>
                              <path id="Path_3354" data-name="Path 3354" d="M54.139,223.739c-.017-.025-.034-.049-.05-.075h0C54.105,223.691,54.122,223.715,54.139,223.739Z" transform="translate(-44.798 -219.458)" fill="#312c29"/>
                              <path id="Path_3355" data-name="Path 3355" d="M55.935,223.827h0l-.025.012h0Z" transform="translate(-45.436 -219.515)" fill="#312c29"/>
                              <path id="Path_3356" data-name="Path 3356" d="M55.479,224.015h0l-.04.016h0Z" transform="translate(-45.273 -219.581)" fill="#312c29"/>
                              <path id="Path_3357" data-name="Path 3357" d="M56.389,222.489h0c-.038,0-.071.012-.106.019l-.077.013h0c-.051.01-.1.019-.149.031h0c-.023.006-.05.008-.072.015h0c-.029.008-.053.021-.081.03a3.138,3.138,0,0,0-.306.117h0c-.137.061-.272.126-.413.191l-.005,0-.029.014h0l-.025.01c-.076.034-.154.067-.239.1l-.036.014a3.544,3.544,0,0,1-.346.108l-.167.012h0l-.057-.039-.125-.085h0c-.015-.015-.03-.031-.045-.048l-.006-.008,0-.005a1.4,1.4,0,0,1-.125-.176c-.016-.027-.03-.058-.046-.088-.024-.047-.047-.1-.067-.147h0c-.014-.034-.026-.068-.038-.1h0a1.431,1.431,0,0,1-.036-.14c0-.011-.006-.022-.008-.034h0c-.006-.03-.014-.062-.019-.093h0a1.312,1.312,0,0,1-.009-.267v0a.078.078,0,0,1,0-.012,1.031,1.031,0,0,1,.06-.27h0l.071-.144v0l.007-.012v0l.08-.1,0,0h0l.028-.036.145-.123.008-.006a6.117,6.117,0,0,1,2.781,1.033l.01.008c.027.02.052.041.077.062s.03.03.045.043c.054.049.1.091.147.125-.154-.014-.294-.02-.422-.02-.054,0-.1.007-.147.009H56.63C56.547,222.477,56.463,222.48,56.389,222.489Z" transform="translate(-44.675 -218.597)" fill="#312c29"/>
                              <path id="Path_3358" data-name="Path 3358" d="M53.988,223.467c-.02-.04-.04-.078-.058-.121.018.042.037.08.057.119Z" transform="translate(-44.742 -219.346)" fill="#312c29"/>
                              <path id="Path_3359" data-name="Path 3359" d="M56.9,223.349h0c-.107.036-.21.073-.307.117h0A3.142,3.142,0,0,1,56.9,223.349Z" transform="translate(-45.679 -219.347)" fill="#312c29"/>
                              <path id="Path_3360" data-name="Path 3360" d="M57.615,223.2c.035-.006.069-.014.106-.019h0c-.067.008-.126.021-.186.032h0Z" transform="translate(-46.009 -219.288)" fill="#2e2a27"/>
                              <path id="Path_3361" data-name="Path 3361" d="M53.779,222.829c0-.022-.009-.043-.013-.065,0,.021.008.043.013.064Z" transform="translate(-44.684 -219.142)" fill="#2e2a27"/>
                              <path id="Path_3362" data-name="Path 3362" d="M53.764,222.752c0-.007,0-.014,0-.021h0C53.76,222.738,53.762,222.745,53.764,222.752Z" transform="translate(-44.682 -219.13)" fill="#2e2a27"/>
                              <path id="Path_3363" data-name="Path 3363" d="M53.9,223.272c-.008-.019-.014-.038-.02-.056.006.018.012.037.02.055Z" transform="translate(-44.725 -219.3)" fill="#2e2a27"/>
                              <path id="Path_3364" data-name="Path 3364" d="M53.857,223.144h0c.005.016.011.031.017.047C53.868,223.175,53.862,223.16,53.857,223.144Z" transform="translate(-44.716 -219.275)" fill="#2e2a27"/>
                              <path id="Path_3365" data-name="Path 3365" d="M53.857,223.144h0" transform="translate(-44.716 -219.275)" fill="none" stroke="#2e2a27" stroke-linecap="round" stroke-linejoin="round"/>
                              <path id="Path_3366" data-name="Path 3366" d="M54.819,224.146a3.544,3.544,0,0,0,.346-.108h0a3.543,3.543,0,0,1-.346.108.177.177,0,0,1-.09.024.253.253,0,0,1-.077-.013h0l.166-.012Z" transform="translate(-44.996 -219.589)" fill="#2e2a27"/>
                              <path id="Path_3367" data-name="Path 3367" d="M53.751,222.575c0-.01,0-.019-.006-.03a1.347,1.347,0,0,1,0-.256c0,.005,0,.011,0,.017a1.312,1.312,0,0,0,.009.267Z" transform="translate(-44.674 -218.975)" fill="#2e2a27"/>
                              <path id="Path_3368" data-name="Path 3368" d="M58.355,223.142c-.054,0-.1.006-.15.008h.008c.048,0,.088-.009.139-.009.129,0,.269.006.422.02h0C58.623,223.149,58.483,223.142,58.355,223.142Z" transform="translate(-46.244 -219.274)" fill="#2e2a27"/>
                              <path id="Path_3369" data-name="Path 3369" d="M55.91,223.839h0l.029-.014Z" transform="translate(-45.436 -219.515)" fill="#2e2a27"/>
                              <path id="Path_3370" data-name="Path 3370" d="M55.955,223.72c.141-.066.276-.13.413-.191h0c-.138.061-.274.126-.418.193h0Z" transform="translate(-45.452 -219.41)" fill="#2e2a27"/>
                              <path id="Path_3371" data-name="Path 3371" d="M55.738,223.864c-.075.033-.152.066-.235.1h0C55.583,223.931,55.662,223.9,55.738,223.864Z" transform="translate(-45.293 -219.528)" fill="#2e2a27"/>
                              <path id="Path_3372" data-name="Path 3372" d="M55.892,223.848l-.025.01.025-.01Z" transform="translate(-45.422 -219.523)" fill="#2e2a27"/>
                              <path id="Path_3373" data-name="Path 3373" d="M57.455,223.23h0c-.051.01-.1.019-.15.031h0C57.353,223.249,57.4,223.24,57.455,223.23Z" transform="translate(-45.928 -219.305)" fill="#2e2a27"/>
                              <path id="Path_3374" data-name="Path 3374" d="M57.149,223.294h0c.022-.007.049-.009.072-.015h0c-.054.014-.1.03-.154.046h0C57.1,223.315,57.12,223.3,57.149,223.294Z" transform="translate(-45.844 -219.322)" fill="#2e2a27"/>
                              <path id="Path_3375" data-name="Path 3375" d="M58.064,223.156h.006c-.086,0-.172.007-.248.016h0C57.9,223.162,57.981,223.16,58.064,223.156Z" transform="translate(-46.11 -219.279)" fill="#2e2a27"/>
                              <path id="Path_3376" data-name="Path 3376" d="M54.214,223.841l.009.013a1.366,1.366,0,0,1-.084-.114c-.017-.025-.034-.048-.05-.075A1.4,1.4,0,0,0,54.214,223.841Z" transform="translate(-44.798 -219.458)" fill="#2e2a27"/>
                              <path id="Path_3377" data-name="Path 3377" d="M53.981,223.45c-.02-.039-.04-.077-.057-.119,0-.009-.006-.019-.01-.028h0C53.935,223.354,53.957,223.4,53.981,223.45Z" transform="translate(-44.736 -219.331)" fill="#2e2a27"/>
                              <path id="Path_3378" data-name="Path 3378" d="M53.837,223.066h0a1.431,1.431,0,0,1-.036-.14,1.431,1.431,0,0,0,.036.14Z" transform="translate(-44.697 -219.198)" fill="#2e2a27"/>
                              <path id="Path_3379" data-name="Path 3379" d="M53.787,222.87c0,.012.006.023.008.034,0-.011-.006-.022-.008-.034v0Z" transform="translate(-44.691 -219.177)" fill="#2e2a27"/>
                              <path id="Path_3380" data-name="Path 3380" d="M54.064,223.618h0c-.016-.027-.03-.056-.045-.086h0C54.034,223.56,54.048,223.59,54.064,223.618Z" transform="translate(-44.773 -219.411)" fill="#2e2a27"/>
                              <path id="Path_3381" data-name="Path 3381" d="M59.007,223.1h0c-.043-.033-.093-.075-.147-.125.057.051.106.09.153.126h-.005Z" transform="translate(-46.474 -219.217)" fill="#1f1c1a"/>
                            </g>
                            <path id="Path_3382" data-name="Path 3382" d="M45.445,229.253a3,3,0,0,0-1.466-2.369,1.326,1.326,0,0,0-.3-.079.434.434,0,0,0-.25-.029,1.035,1.035,0,0,0-.7.3c-.171.158-.34.322-.5.486a3.635,3.635,0,0,0-.5.632,2.146,2.146,0,0,0-.358.562,6.9,6.9,0,0,0-.412,1.57,2.737,2.737,0,0,0,.187,1.19c.152.484.64.658,1.055.849.444.2.952.125,1.391.332.355.167.8.409,1.2.21a.861.861,0,0,0,.379-.472c.038-.106.055-.254.09-.382.016-.033.031-.066.046-.1a.482.482,0,0,0,.226-.364,5.17,5.17,0,0,0,.032-.708A10.819,10.819,0,0,0,45.445,229.253Z" transform="translate(-32.272 -216.534)" fill="#fff"/>
                            <path id="Path_3383" data-name="Path 3383" d="M58.846,232.05a1.732,1.732,0,0,0,.18-.724,1.433,1.433,0,0,0-.038-.361c-.028-.106-.036-.126-.036-.113l0-.017a3.14,3.14,0,0,0-.271-.847,3.715,3.715,0,0,0-.932-1.406,3.661,3.661,0,0,0-1.51-.651.678.678,0,0,0-.32.019.4.4,0,0,0-.505-.08,5.213,5.213,0,0,0-.511.314c-.2.155-.429.3-.622.472a3.67,3.67,0,0,0-.74.966,4.449,4.449,0,0,0-.468,1.2c-.059.276-.036.553-.08.826a2.722,2.722,0,0,0-.06.33c-.005.158.058.3.039.462a.423.423,0,0,0,.421.421.279.279,0,0,1,.084,0,.5.5,0,0,0,.076,0,.442.442,0,0,0,.709-.426,1.3,1.3,0,0,0-.033-.206c.014-.067.041-.148.049-.206a3.973,3.973,0,0,1,.144-.747c.029-.084.073-.162.1-.245s.071-.21,0-.063l.088-.193a.417.417,0,0,0,.234.049.606.606,0,0,0,.077.092c.011.011.023.021.034.03a.628.628,0,0,0,0,.625.35.35,0,0,0,.16.155.433.433,0,0,0,.189.475,1.059,1.059,0,0,0,.548.2.642.642,0,0,0,.3-.111.5.5,0,0,0,.217.023c0,.048.006.1.012.143a1.168,1.168,0,0,0,.19.543,1.85,1.85,0,0,0-.383.276.426.426,0,0,0,.186.7c.542.168,1.024-.256,1.482-.473a2.4,2.4,0,0,0,.276-.1,2.134,2.134,0,0,0,.234-.141,2.493,2.493,0,0,0,.516-.718l0,0a1.056,1.056,0,0,0,.047-.1A.331.331,0,0,0,58.846,232.05Z" transform="translate(-36.485 -216.9)" fill="#fff"/>
                            <path id="Path_3384" data-name="Path 3384" d="M45.57,230.186l-.029-.016a.45.45,0,0,0-.036-.248,2.227,2.227,0,0,0-.121-.608.418.418,0,0,0-.031-.064l-.006-.019c-.017-.267-.1-.541-.1-.8a.407.407,0,0,0-.247-.372,2.725,2.725,0,0,0-.28-.529,1.14,1.14,0,0,0-.373-.464.746.746,0,0,0-.412-.247.513.513,0,0,0-.108-.089.615.615,0,0,0-.629-.043.63.63,0,0,0-.511.158,1.16,1.16,0,0,0-.274.318c-.023.012-.047.024-.069.038a.765.765,0,0,0-.507.467,1.206,1.206,0,0,0-.2.3,1.39,1.39,0,0,0-.321.784c-.433-.078-.76.544-.322.757a.431.431,0,0,0,.045.06l.025.025a.174.174,0,0,1,.165-.011c.335.147.655.326.987.481a.141.141,0,0,1,.065.208c.345.154.7.272,1.053.41a3.9,3.9,0,0,0,.417.165c.019,0,.138.031.193.04s.112.04.134.045a1.815,1.815,0,0,0,.365.046.171.171,0,0,1,.119-.287,1.849,1.849,0,0,1,.879.167.145.145,0,0,1,.084.136.451.451,0,0,0,.1-.037,1.7,1.7,0,0,1,.091-.5c0-.057,0-.114,0-.171A.472.472,0,0,0,45.57,230.186Z" transform="translate(-32.219 -216.481)" fill="#0090da"/>
                            <path id="Path_3385" data-name="Path 3385" d="M59.058,230.412a.392.392,0,0,0-.271-.38.417.417,0,0,0-.119-.274.476.476,0,0,0-.119-.087.5.5,0,0,0-.22-.163.584.584,0,0,0-.3-.151c-.006-.013-.014-.026-.022-.038a.651.651,0,0,0-.52-.819.475.475,0,0,0-.358-.47.766.766,0,0,0-.5.005,1.062,1.062,0,0,0-.366-.032,1.043,1.043,0,0,0-.878.151,1.723,1.723,0,0,0-.96.646,1.765,1.765,0,0,0-.525.415,2.171,2.171,0,0,0-.381.563,1.459,1.459,0,0,0-.232.511,2.731,2.731,0,0,0-.152.289.624.624,0,0,0-.059.242l-.014,0-.023.127a.144.144,0,0,1,.038.066,1.019,1.019,0,0,1-.031.631l.014,0a.168.168,0,0,1,.167-.157,5.538,5.538,0,0,1,.622.078.151.151,0,0,1,.115.192,23.9,23.9,0,0,0,2.652-.073c.185-.01.375-.027.565-.049a.165.165,0,0,1,.161-.2,4.7,4.7,0,0,0,.806-.062.168.168,0,0,1,.071-.108.946.946,0,0,1,.78-.186.2.2,0,0,1,.023.009.6.6,0,0,0,.169-.264A.372.372,0,0,0,59.058,230.412Z" transform="translate(-36.521 -216.952)" fill="#0090da"/>
                            <path id="Path_3386" data-name="Path 3386" d="M58.978,232.345a1.826,1.826,0,0,1-.009-.679.351.351,0,0,0-.191.03,6.4,6.4,0,0,1-1.258.569,5.981,5.981,0,0,1-1.628.107,7.368,7.368,0,0,0-.785-.006c-.27.016-.538-.038-.806-.01a5.36,5.36,0,0,1-.677.04,3.843,3.843,0,0,1-.832-.043c.012.118.018.236.018.356a.161.161,0,0,1-.022.082,2.094,2.094,0,0,1,0,.247c.2.027.413.014.616.025a5.105,5.105,0,0,0,.88-.029,15.109,15.109,0,0,1,1.773.01,6.832,6.832,0,0,0,1.642-.131,5.727,5.727,0,0,0,1.279-.569Z" transform="translate(-36.434 -218.253)" fill="#59b6e8"/>
                            <path id="Path_3387" data-name="Path 3387" d="M45.659,231.468c-.365-.047-.734-.065-1.1-.126a6.591,6.591,0,0,1-1.378-.293c-.407-.158-.81-.283-1.21-.461-.155-.069-.449-.122-.548-.178a3.947,3.947,0,0,1-.488-.279.346.346,0,0,0-.1-.061.1.1,0,0,1-.012.023c-.084.115-.136.25-.225.361a.49.49,0,0,1-.158.128.285.285,0,0,0,.024.025,1.492,1.492,0,0,0,.528.3,3.97,3.97,0,0,0,.791.35,4.485,4.485,0,0,0,.684.27s.272.083.14.044c.154.045.306.093.457.153a5.3,5.3,0,0,0,1.286.276c.2.027.386.074.583.1.224.03.453.019.678.041a.148.148,0,0,1-.018-.043A1.077,1.077,0,0,1,45.659,231.468Z" transform="translate(-32.095 -217.693)" fill="#59b6e8"/>
                            <path id="Path_3388" data-name="Path 3388" d="M49.329,234.963a.519.519,0,0,0-.336-.128.513.513,0,0,0-.18-.045c-.006,0-.043,0-.068,0a.438.438,0,0,0-.594.115.334.334,0,0,0,0,.34.56.56,0,0,0,.2.212.349.349,0,0,0,.3.487.87.87,0,0,0,.246-.018.72.72,0,0,0,.12-.049l.049-.027c.014,0,.082-.031.1-.038s.03-.017.046-.027a.374.374,0,0,0,.172-.268.1.1,0,0,0,0-.014.2.2,0,0,0,.014-.021A.413.413,0,0,0,49.329,234.963Z" transform="translate(-34.789 -219.327)" fill="#fff"/>
                            <path id="Path_3389" data-name="Path 3389" d="M50.4,238.537l-.048-.018a.281.281,0,0,0-.379.174,1.885,1.885,0,0,1-.472.331,1.417,1.417,0,0,1-.8.044c-.328-.076-1.153-.213-1.218-.639-.046-.3-.387-.3-.557-.118a1.043,1.043,0,0,0-.267.167,1.208,1.208,0,0,1-.856.378.9.9,0,0,1-.68-.253,1.257,1.257,0,0,1-.365-.588c-.092-.424-.742-.244-.65.179a1.733,1.733,0,0,0,1.293,1.295,1.814,1.814,0,0,0,1.011-.054,2.69,2.69,0,0,0,.617-.4,2.842,2.842,0,0,0,1.4.651,2.034,2.034,0,0,0,1.114.025,3.606,3.606,0,0,0,.939-.555A.342.342,0,0,0,50.4,238.537Z" transform="translate(-33.382 -220.4)" fill="#fff"/>
                            <path id="Path_3390" data-name="Path 3390" d="M51.726,249.482a3.416,3.416,0,0,0-.777.525.336.336,0,0,0-.333-.1,2,2,0,0,0-1.554,1.988,1.6,1.6,0,0,0-.072.629,3.339,3.339,0,0,0,.356,1.531.307.307,0,0,0,.248.159.283.283,0,0,0,.346.091c.014.043.027.087.042.13v0l.014.041c.145.4.79.235.65-.179a4.184,4.184,0,0,1-.014-2.475,2.623,2.623,0,0,1,1.433-1.759C52.455,249.873,52.114,249.292,51.726,249.482Z" transform="translate(-35.099 -224.5)" fill="#fff"/>
                            <path id="Path_3391" data-name="Path 3391" d="M41.427,252.253a3.389,3.389,0,0,0-.851-1.455.335.335,0,0,0-.218-.15l-.034-.02-.007.012h0l.008-.012a.314.314,0,0,0-.368.023.931.931,0,0,0-.459-.18c-.431-.041-.428.633,0,.674.15.014.474.468.555.575.025.032.047.05.04.033.023.044.04.093.066.135a2.071,2.071,0,0,1,.243.481,6.111,6.111,0,0,1,.243.965,3.634,3.634,0,0,1,.042.482,2.3,2.3,0,0,0,0,.283v.018a.312.312,0,0,0-.043.269l.012.047a.344.344,0,0,0,.325.247h.047a.33.33,0,0,0,.291-.167.861.861,0,0,0,.056-.211.264.264,0,0,0,.183-.23A3.253,3.253,0,0,0,41.427,252.253Z" transform="translate(-31.652 -224.859)" fill="#fff"/>
                            <path id="Path_3392" data-name="Path 3392" d="M48.544,251.795c-.241-.169-.5-.11-.769-.143s-.523.01-.781-.018a4.208,4.208,0,0,1-.85-.176,2.254,2.254,0,0,1-.737-.479c-.1-.083-.2-.174-.3-.251a.673.673,0,0,0-.145-.754.408.408,0,0,0-.1-.062c-.014-.029-.029-.057-.043-.085a.344.344,0,0,0,.036-.106c.038-.258.083-.514.109-.774a.25.25,0,0,0,0-.058,1.215,1.215,0,0,0,.058-.331,2.062,2.062,0,0,0,.23-.616,1.816,1.816,0,0,0,.088-.173.368.368,0,0,0,.026-.084,4.916,4.916,0,0,0,.4-.4.345.345,0,0,0,.069-.1,5.325,5.325,0,0,1,1.257-.635,5.216,5.216,0,0,1,.806-.115c.2-.019.352-.064.423-.276a1.13,1.13,0,0,0-.123-.728,1.846,1.846,0,0,1-.156-.82,5.856,5.856,0,0,0-.209-1.908c-.067-.2-.073-.41-.137-.609a4.844,4.844,0,0,0-.235-.59c-.088-.18-.155-.431-.331-.548-.211-.139-.545-.075-.783-.117a7.915,7.915,0,0,0-1.9-.01,4.806,4.806,0,0,0-1.1.208.292.292,0,0,0-.165-.027L43.172,241a.643.643,0,0,0-.571,0,1.119,1.119,0,0,0-.289.06.425.425,0,0,0-.378-.025.338.338,0,0,0-.115-.021.715.715,0,0,0-.284.068.541.541,0,0,0-.272.056c-.022.011-.16.105-.132.1-.036.008-.144-.034-.192-.032a.907.907,0,0,0-.272.075.416.416,0,0,0-.062.029.538.538,0,0,0-.35-.069.692.692,0,0,0-.218,0,.817.817,0,0,0-.162.047,1.12,1.12,0,0,0-.535.35.707.707,0,0,0-.355.649.621.621,0,0,0-.016.114.629.629,0,0,0-.053.293.639.639,0,0,0,.054.463,1.081,1.081,0,0,0,.045.223,1.1,1.1,0,0,0,.054.381,1.132,1.132,0,0,0,.044.476,4.774,4.774,0,0,0,.123,1.073,11.876,11.876,0,0,0,.155,1.336.312.312,0,0,0,.516.164,1.484,1.484,0,0,0,.7.245,1.161,1.161,0,0,0,.164,0c0,.007,0,.014,0,.021a.361.361,0,0,0,.278.244c-.032-.009.11.052.131.075.066.071.126.141.189.218a1.576,1.576,0,0,1,.413.638,4.617,4.617,0,0,1,.084.642,3.785,3.785,0,0,1-.256,1.707c-.017.04-.034.081-.05.122a.273.273,0,0,0-.018.139c-.132.1-.235.264-.375.4-.092.09-.208.212-.3.293a2.208,2.208,0,0,1-.193.119c.085-.049-.178.076-.156.064a.646.646,0,0,0-.35.394c-.064.223.04.355.08.564a3.453,3.453,0,0,0,.213.994c.391.755,1.468.625,2.172.557a8.408,8.408,0,0,0,.992-.243.4.4,0,0,0,.232.152,3.593,3.593,0,0,0,.956-.036,6.673,6.673,0,0,0,1.039-.169c.414-.09.828-.186,1.247-.247a.591.591,0,0,0,.126.067,1.315,1.315,0,0,0,.773-.1,1.278,1.278,0,0,0,.657-.289A1.228,1.228,0,0,0,48.544,251.795Z" transform="translate(-31.554 -221.453)" fill="#3c3b3b"/>
                            <path id="Path_3393" data-name="Path 3393" d="M55.477,244.284a6.387,6.387,0,0,1-2.263.12.421.421,0,0,0,0,.842,7.957,7.957,0,0,0,2.337-.1.42.42,0,0,0,.452-.374A.426.426,0,0,0,55.477,244.284Z" transform="translate(-36.441 -222.68)" fill="#85878b"/>
                            <path id="Path_3394" data-name="Path 3394" d="M56.708,254.957a1.341,1.341,0,0,0-.523.373,1.769,1.769,0,0,1-.446.31,3.849,3.849,0,0,1-.741.28c-.168.045-.518.245-.665.193-.512-.183-.732.63-.224.812a1.154,1.154,0,0,0,.761-.078,8.081,8.081,0,0,0,.933-.313c.245-.117.464-.208.653-.323a2.543,2.543,0,0,0,.326-.284,2.029,2.029,0,0,1,.156-.143l.025-.022A.422.422,0,0,0,56.708,254.957Z" transform="translate(-36.797 -226.431)" fill="#85878b"/>
                            <path id="Path_3395" data-name="Path 3395" d="M64.879,215.675a6.236,6.236,0,0,1,1.38.9,8.972,8.972,0,0,1,.669.682,2.621,2.621,0,0,1,.065-1.195,2.214,2.214,0,0,0-.5-.534l-.212-.152a.524.524,0,0,0,.036-.246,2,2,0,0,0-.782-1.308.6.6,0,0,0-.029-.247.608.608,0,0,0-.549-.5,1.62,1.62,0,0,0-1.081.307.892.892,0,0,0-.327.21.583.583,0,0,0-.138.538.7.7,0,0,0-.139-.019c-.153-.007-.309-.008-.466,0a5.316,5.316,0,0,1-.769,1.1A4.178,4.178,0,0,1,64.879,215.675Z" transform="translate(-39.684 -211.718)" fill="#fff"/>
                            <path id="Path_3396" data-name="Path 3396" d="M42.511,212.914a.614.614,0,0,0-.165,0c-.033.005-.066.009-.1.012a.539.539,0,0,0-.4-.671c-.008-.01-.017-.02-.026-.029-.555-.545-1.972-.152-2.364.494a1.088,1.088,0,0,0-.333.376.551.551,0,0,0,.068.629,5.16,5.16,0,0,0-.988.872l-.053.132a.171.171,0,0,1,.027.131c-.129.615-.313,1.214-.5,1.812-.026.1-.054.2-.081.3.522-.113.565-.623.845-1.042a3.583,3.583,0,0,1,.511-.539c.2-.191.4-.418.61-.593a3.723,3.723,0,0,1,1.619-.7c.406-.053.813-.051,1.219-.1a.621.621,0,0,0,.092.041,5.678,5.678,0,0,0,.593.161c.059.014.115.024.169.033C42.98,213.814,42.747,213.361,42.511,212.914Z" transform="translate(-31.097 -211.335)" fill="#fff"/>
                            <path id="Path_3397" data-name="Path 3397" d="M57.115,227.479c-.035-.215-.048-.434-.064-.652a1.532,1.532,0,0,1-.025-.162,4.939,4.939,0,0,0-.2-.744A13.079,13.079,0,0,0,58.7,219.3c-.025-2.812-.675-5.65-1.915-7.261a1.224,1.224,0,0,0-.858-.5c-1.786.062-3.339,2.846-5.808,5.856-.086.1-.178.213-.267.325a7.892,7.892,0,0,0-3.524-.821c-.439.021-.916.04-1.36.084l-.091-.141c-1.681-2.6-2.683-5.654-4.259-5.847h0a1.282,1.282,0,0,0-.847.328,10.885,10.885,0,0,0-2.938,5.649,8.96,8.96,0,0,0,.648,5.683h0a8.119,8.119,0,0,0-1.055,2.658c0,.029-.005.058-.009.088v.007c0,.053,0,.106,0,.159.049.319.074.645.115.967q.049.257.114.5h0a6.766,6.766,0,0,0,.409,1.087,6.211,6.211,0,0,0,.451.773c.047.06.093.119.136.182.091.127.174.259.252.394a7.49,7.49,0,0,0,1.162,1.135.593.593,0,0,1,.05-.138.062.062,0,0,0,.025.012h.011a.059.059,0,0,0,.067.042.2.2,0,0,0,.082-.049.415.415,0,0,0,.04-.036.081.081,0,0,0,.091-.007l0,0h.027a.118.118,0,0,0,.04-.014l.018.012a.055.055,0,0,0,.028.012l.008,0a.2.2,0,0,0,.183-.044l.036.01a.05.05,0,0,0,.05-.026.357.357,0,0,0,.038,0,.038.038,0,0,0,.038-.027,2.349,2.349,0,0,0,.322.13c.051.017.074-.065.022-.081a2.37,2.37,0,0,1-.679-.346,6.686,6.686,0,0,1-.828-.9,3.965,3.965,0,0,1-.834-1.217,3.714,3.714,0,0,1-.315-.786c-.027-.1-.054-.193-.074-.291a1.427,1.427,0,0,1-.084-.33,2.144,2.144,0,0,1-.021-.213,2.46,2.46,0,0,1-.014-.6c-.063-1.836,1.2-3.862.791-3.834h0a.584.584,0,0,0-.233.11l-.1.116a12.391,12.391,0,0,1,.562-7.4,8.888,8.888,0,0,1,1.932-2.822l.14-.087c.771-.148,2.544,3.834,3.441,5.4a1.07,1.07,0,0,0-.313.187c1.943.147,5.419-.136,7.206,1.339.631.6.609.122.02-.4,1.244-1.442,4.606-6.744,5.2-5.658a10.012,10.012,0,0,1,1.469,3.678,17.359,17.359,0,0,1-1,8.885c-.492-.712-1.029-.509-.725.3a3.473,3.473,0,0,1,.093,1.543h0a3.5,3.5,0,0,1-.106.736,3.753,3.753,0,0,1-.173.675c-.019.069-.036.129-.05.176a2.4,2.4,0,0,1-.151.3h0a3.844,3.844,0,0,1-.25.366,4.876,4.876,0,0,1-.544.629c-.062.062-.13.121-.2.178-.028.025-.055.049-.084.073a4.864,4.864,0,0,1-1.62.861c-.11.036-.221.069-.333.1a13.807,13.807,0,0,1-3.656.933c-.559.066-1.09.108-1.6.128a1.049,1.049,0,0,1,.1.823h0a17.274,17.274,0,0,0,4.894-.632c.308-.089.612-.2.909-.312h0a.616.616,0,0,1,.2-.069h0a3.654,3.654,0,0,1,.514-.242,1.118,1.118,0,0,1,.33-.229,4.771,4.771,0,0,0,.429-.22,8.025,8.025,0,0,0,1.923-1.672,3.962,3.962,0,0,0,.64-1.053,2.06,2.06,0,0,0,.117-.537c0-.03.006-.06.01-.089,0-.046,0-.093,0-.138A2.906,2.906,0,0,1,57.115,227.479Z" transform="translate(-30.682 -210.991)" fill="#1f1c1a"/>
                            <path id="Path_3398" data-name="Path 3398" d="M56.063,227.221c-2.2-.036-4.056,2.819-3.269,5.11-.552.224-.046.721.028.887.163.317.451.834.852.888a8.4,8.4,0,0,0,5.308-.926,2.253,2.253,0,0,0,.756-1.758C59.793,229.634,57.5,227.292,56.063,227.221Zm2.543,4.96a2.327,2.327,0,0,1-1.322,1.175l.032-.025a1.1,1.1,0,0,1-.291.083.592.592,0,0,1-.221.062,2.389,2.389,0,0,1-.361.1,3.656,3.656,0,0,1-.684.084.6.6,0,0,1-.145.025.452.452,0,0,1-.142-.018,8.857,8.857,0,0,1-1.365-.08c-.488-.056-.563-.7-.838-1.064a.421.421,0,0,0-.306-.218,6.409,6.409,0,0,0,.226-1.445c.206-1.376,1.326-2.92,2.872-2.919C57.369,227.919,59,230.455,58.606,232.181Z" transform="translate(-36.347 -216.692)" fill="#1f1c1a"/>
                            <path id="Path_3399" data-name="Path 3399" d="M53.364,238.822c-.178-.134-.4-.213-.541-.064-.12.14-.031.3.071.422.168.169.088.37-.093.489a1.406,1.406,0,0,1-.8.309,2.168,2.168,0,0,1,.243.206.514.514,0,0,1,.145.294,2.355,2.355,0,0,0,.823-.365A.931.931,0,0,0,53.364,238.822Z" transform="translate(-36.157 -220.717)" fill="#1f1c1a"/>
                            <path id="Path_3400" data-name="Path 3400" d="M37.154,249.833a1.624,1.624,0,0,1,2.633,1.1A2.292,2.292,0,0,1,37.73,253.5a2.082,2.082,0,0,1-2.1-2.481,5.418,5.418,0,0,1,1.857-3.394c.355-.314.346-1.114-.051-.886-1.616.931-3.151,3.657-2.722,5.472a3,3,0,0,0,3.979,2.04,3.141,3.141,0,0,0,1.687-4.076c-.588-1.375-2.591-2.059-3.584-.7-.153.21.15.511.36.36Z" transform="translate(-30.059 -223.535)" fill="#1f1c1a"/>
                            <path id="Path_3401" data-name="Path 3401" d="M44.889,232.047c-.067,0-.134-.01-.2-.012a1.842,1.842,0,0,1-.354-.01.468.468,0,0,1-.374-.663.516.516,0,0,1,.585-.263c.034,0,.069,0,.1.005l.017,0a1.357,1.357,0,0,0-.479-.3,1.609,1.609,0,0,0-1.87.787c-.31.51-.666,1.389-.294,1.947a1.635,1.635,0,0,0,.466.584,1.718,1.718,0,0,0,1.95.239,2.528,2.528,0,0,0,.709-1.811,1.939,1.939,0,0,0-.021-.555A.6.6,0,0,1,44.889,232.047Z" transform="translate(-32.597 -217.924)" fill="#1f1c1a"/>
                            <path id="Path_3402" data-name="Path 3402" d="M56.971,232.776l-.006,0a.526.526,0,0,1-.376.138c-.067,0-.134-.01-.2-.012a1.9,1.9,0,0,1-.354-.01.468.468,0,0,1-.374-.663.516.516,0,0,1,.585-.263c.034,0,.069,0,.1.005l.033,0a1.567,1.567,0,0,0-.658-.313c-1.768-.376-2.951,2.186-1.75,3.409a.34.34,0,0,0,.234.1,1.1,1.1,0,0,0,.482.456,1.784,1.784,0,0,0,1.931-.376A2.3,2.3,0,0,0,56.971,232.776Z" transform="translate(-36.68 -218.241)" fill="#1f1c1a"/>
                            <path id="Path_3403" data-name="Path 3403" d="M34.636,232.321a17.061,17.061,0,0,0-7.058-1.689" transform="translate(-27.578 -217.891)" fill="none" stroke="#1f1c1a" stroke-width="0.13"/>
                            <path id="Path_3404" data-name="Path 3404" d="M34.834,235.039a18.893,18.893,0,0,0-7.256.451" transform="translate(-27.578 -219.382)" fill="none" stroke="#1f1c1a" stroke-width="0.13"/>
                            <path id="Path_3405" data-name="Path 3405" d="M36.3,236.936a17.729,17.729,0,0,0-5.72,1.623" transform="translate(-28.633 -220.105)" fill="none" stroke="#1f1c1a" stroke-width="0.13"/>
                            <path id="Path_3406" data-name="Path 3406" d="M65.278,237.65a19.153,19.153,0,0,1,7.306.452" transform="translate(-40.822 -220.299)" fill="none" stroke="#1f1c1a" stroke-width="0.13"/>
                            <path id="Path_3407" data-name="Path 3407" d="M64.067,239.677a17.948,17.948,0,0,1,5.759,1.623" transform="translate(-40.397 -221.068)" fill="none" stroke="#1f1c1a" stroke-width="0.13"/>
                            <path id="Path_3408" data-name="Path 3408" d="M57.312,244.55a2.009,2.009,0,0,0-.407,1.645" transform="translate(-37.863 -222.78)" fill="none" stroke="#1f1c1a" stroke-width="0.13"/>
                            <path id="Path_3409" data-name="Path 3409" d="M52.413,249.358a2.268,2.268,0,0,0-2.32-.329,2.825,2.825,0,0,0-1.559,1.809,2.221,2.221,0,0,0,1.026,2.687,2.758,2.758,0,0,0,.97.16A6.306,6.306,0,0,0,54.1,252.8a3.954,3.954,0,0,0,1.876-3.064,3.027,3.027,0,0,0-2.033-2.651" transform="translate(-34.903 -223.671)" fill="none" stroke="#1f1c1a" stroke-width="0.13"/>
                            <path id="Path_3410" data-name="Path 3410" d="M58.726,254.551q.365,1.354.835,2.678" transform="translate(-38.521 -226.294)" fill="none" stroke="#1f1c1a" stroke-width="0.13"/>
                            <path id="Path_3411" data-name="Path 3411" d="M39.318,246.629a31.29,31.29,0,0,1-.428-3.949,1.616,1.616,0,0,1,.211-1.072,1.643,1.643,0,0,1,1.143-.473q2.941-.38,5.91-.5a1.618,1.618,0,0,1,1.19.27,1.583,1.583,0,0,1,.385.833,24.7,24.7,0,0,1,.627,4.842" transform="translate(-31.55 -221.402)" fill="none" stroke="#1f1c1a" stroke-width="0.13"/>
                            <path id="Path_3412" data-name="Path 3412" d="M40.237,257.753c.584.553.186,1.693.8,2.217a1.637,1.637,0,0,0,1.177.237l1.409-.077a45.072,45.072,0,0,0,4.974-.456,1.141,1.141,0,0,0,.467-.152.987.987,0,0,0,.289-.972,3.13,3.13,0,0,1-.1-1.058" transform="translate(-32.025 -227.327)" fill="none" stroke="#1f1c1a" stroke-width="0.13"/>
                            <g id="Group_1208" data-name="Group 1208" transform="translate(8.313 19.199)">
                              <path id="Path_3413" data-name="Path 3413" d="M41.473,240.655h0C41.5,240.657,41.515,240.656,41.473,240.655Z" transform="translate(-40.773 -240.611)" fill="#1f1c1a"/>
                              <path id="Path_3414" data-name="Path 3414" d="M41.338,240.728a.357.357,0,0,0-.241-.1l-.032,0a.541.541,0,0,0-.141,0l-.018,0h-.045a.424.424,0,0,0-.044-.014c-.017-.005-.112-.03-.04,0a.26.26,0,0,0-.314.407c-.05-.062.034.048.045.058a.4.4,0,0,0,.1.067.584.584,0,0,0,.235.063l.058.006h.085a.868.868,0,0,0,.088.005c.021,0,.041,0,.062,0A.29.29,0,0,0,41.338,240.728Z" transform="translate(-40.394 -240.587)" fill="#1f1c1a"/>
                            </g>
                            <path id="Path_3415" data-name="Path 3415" d="M50.063,250.58a.571.571,0,0,0,.086.339,1.856,1.856,0,0,0,.422.527c.007.007.021.006.023,0s-.014-.016-.016-.006" transform="translate(-35.476 -224.899)" fill="none" stroke="#1f1c1a" stroke-width="0.13"/>
                            <path id="Path_3416" data-name="Path 3416" d="M48.813,252.418a.156.156,0,0,0,.058.1l.176.18a.562.562,0,0,0,.154.123.524.524,0,0,0,.141.037l.312.053" transform="translate(-35.038 -225.544)" fill="none" stroke="#1f1c1a" stroke-width="0.13"/>
                            <path id="Path_3417" data-name="Path 3417" d="M48.711,254.407a1.175,1.175,0,0,0,.865-.032" transform="translate(-35.002 -226.232)" fill="none" stroke="#1f1c1a" stroke-width="0.13"/>
                            <path id="Path_3418" data-name="Path 3418" d="M40.932,250.794a1.511,1.511,0,0,1-.3.455.267.267,0,0,1-.106.077" transform="translate(-32.127 -224.974)" fill="none" stroke="#1f1c1a" stroke-width="0.13"/>
                            <path id="Path_3419" data-name="Path 3419" d="M42.079,251.714a.847.847,0,0,1-.554.515l.025-.01" transform="translate(-32.478 -225.297)" fill="none" stroke="#1f1c1a" stroke-width="0.13"/>
                            <path id="Path_3420" data-name="Path 3420" d="M41.932,253.715a.455.455,0,0,0,.6-.186" transform="translate(-32.621 -225.935)" fill="none" stroke="#1f1c1a" stroke-width="0.13"/>
                            <path id="Path_3421" data-name="Path 3421" d="M58.644,232.5a.669.669,0,0,0-.45-.516,1.343,1.343,0,0,0-1,0c-.038,0-.087,0-.1.006a.558.558,0,0,0-.309.189.532.532,0,0,0,0,.738,1.117,1.117,0,0,0,.752.313,1.423,1.423,0,0,0,.818-.1A.6.6,0,0,0,58.644,232.5Z" transform="translate(-37.786 -218.332)" fill="#fff"/>
                            <path id="Path_3422" data-name="Path 3422" d="M46.326,231.349a1.086,1.086,0,0,0-.492-.152.33.33,0,0,0-.176-.054.7.7,0,0,0-.64.232.639.639,0,0,0-.1.674c.226.418.824.407,1.223.344a.558.558,0,0,0,.511-.423A.622.622,0,0,0,46.326,231.349Z" transform="translate(-33.65 -218.07)" fill="#fff"/>
                            <path id="Path_3423" data-name="Path 3423" d="M45.958,234.167l.018-.145c.013-.085.03-.171.047-.254.939-.115,1.956-.7,1.956-1.567-.022-.459-1.2-.721-2.154-.749-.179,0-.343,0-.5.013l-.044-.042c.795-2.211-.423-5.253-2.135-5.44-1.125-.075-3.1,2.035-3.2,3.827a2.728,2.728,0,0,0,.45,1.836,5.548,5.548,0,0,0,4.056,1.462.555.555,0,0,0,.35-.214,2.1,2.1,0,0,0,.632.808c0,.051,0,.1,0,.152,0,.091-.006.182,0,.272-.039.424-.105.862-.426,1.011l-.012.007a2.069,2.069,0,0,1-.338.117c-.075.016-.171.047-.268.07l-.022,0a1.542,1.542,0,0,1-1.29-.811c-.113-.176-.123-.39.051-.481a.3.3,0,0,0,.164-.361c-.069-.186-.267-.2-.442-.142a1,1,0,0,0-.207,1.241,2.373,2.373,0,0,0,.658.723,2.662,2.662,0,0,1,.359-.084.04.04,0,0,0,0,.012.1.1,0,0,0-.022.025.043.043,0,0,0,.036.064.129.129,0,0,0,.072-.02h.011a.035.035,0,0,0,.039,0,.072.072,0,0,0,.037-.023h0l.008,0a.7.7,0,0,1,.066-.03.782.782,0,0,1,.1,0c.017,0,.035-.007.053-.011h.026l.022,0a.036.036,0,0,0,.03.016h.018a.035.035,0,0,0,.026-.011.8.8,0,0,0,.124-.008l.021,0h.008a.331.331,0,0,0,.062-.005,2.482,2.482,0,0,0,.372-.071.043.043,0,0,0,.082,0h0l0,0a.039.039,0,0,0,.03.012.091.091,0,0,0,.025,0h0a.044.044,0,0,0,.019,0,.028.028,0,0,0,.015,0l.01,0a.031.031,0,0,0,.024.007h0a.044.044,0,0,0,.04,0l.014-.008a.049.049,0,0,0,.034.008.131.131,0,0,0,.04-.016.044.044,0,0,0,.042,0,.1.1,0,0,0,.025-.016.033.033,0,0,0,.029,0l.012-.01.01.008a.044.044,0,0,0,.045.067.462.462,0,0,0,.149-.074l.018-.012a.694.694,0,0,0,.218-.2.371.371,0,0,0,.015.047.8.8,0,0,0,.061.1l.014.023a.224.224,0,0,0,.214.163.237.237,0,0,0,.193-.109.92.92,0,0,1,.208-.069,1.95,1.95,0,0,1-.184-.2,1.061,1.061,0,0,1-.232-.847C45.954,234.2,45.956,234.184,45.958,234.167Zm-1.022-2.641a.519.519,0,0,0-.285.14.753.753,0,0,0-.073.527c-.1.2-.225.354-.415.356-.045,0-.092,0-.139,0h-.061c-.01,0-.021,0-.03,0a.429.429,0,0,1-.144-.021,2.474,2.474,0,0,1-.516-.021l-.084-.013-.041.005a.407.407,0,0,1-.224-.047.439.439,0,0,1-.114-.014.5.5,0,0,1-.147-.038l0,0a2.427,2.427,0,0,1-1.889-1.722c-.172-1.765,1.3-4.137,2.318-3.982,1.2.154,1.951,1.812,2,3.21a8.154,8.154,0,0,0,.059,1.469A.292.292,0,0,0,44.936,231.526Zm.515.64-.1-.132c-.186-.252.1-.25.1-.25h.019s1.228-.023.858.217C46.148,232.129,45.673,232.484,45.451,232.166Z" transform="translate(-31.92 -216.257)" fill="#1f1c1a"/>
                            <path id="Path_3424" data-name="Path 3424" d="M38.179,220.816s-1.692-.942-.836-6.144c0,0,11.109-9.352,22.719,2.152a8.062,8.062,0,0,1-2.8,6.292S43.933,215.578,38.179,220.816Z" transform="translate(-30.924 -211.024)" fill="#fff" stroke="#1a1818" stroke-linecap="round" stroke-linejoin="round" stroke-width="1.375"/>
                            <path id="Path_3425" data-name="Path 3425" d="M39.7,224.951a8.551,8.551,0,0,1,.793-.747c.1-.091-.324.261-.137.114l.108-.087q.117-.092.235-.181.264-.2.538-.379.3-.2.605-.374.16-.091.322-.178l.089-.047c.158-.086-.158.08-.15.077.071-.031.139-.069.21-.1a10.532,10.532,0,0,1,1.641-.623c.145-.042.291-.076.435-.114s-.254.053-.113.026c.041-.008.08-.018.121-.026.091-.019.184-.036.276-.053a9.8,9.8,0,0,1,.992-.126,10.065,10.065,0,0,1,1.092-.024.784.784,0,0,1,.248.012c-.122-.056-.185-.014-.066,0l.145.012c.2.018.393.042.588.071a11.757,11.757,0,0,1,2.51.676c.066.025.362.149.157.061q.19.082.377.168.389.179.767.382a16.867,16.867,0,0,1,1.539.933,22.43,22.43,0,0,1,3.245,2.712,1.071,1.071,0,0,0,1.583-.119c.363-.392.8-1.322.311-1.808-3.071-3.073-6.936-5.711-11.444-5.657a11.726,11.726,0,0,0-6.968,2.533,9.645,9.645,0,0,0-1.323,1.181c-.387.44-.769,1.276-.311,1.808a1.058,1.058,0,0,0,1.583-.119Z" transform="translate(-31.206 -213.996)" fill="#fff" stroke="#1a1818" stroke-linecap="round" stroke-linejoin="round" stroke-width="1.375"/>
                            <path id="Path_3426" data-name="Path 3426" d="M49.533,213.331l.016.813-1.388.194.151.98,1.26,0,.018.958,1.036-.02-.081-.986h1.434l-.023-1.178-1.371.026-.016-.813Z" transform="translate(-34.809 -211.806)" fill="#e11221"/>
                            <path id="Path_3427" data-name="Path 3427" d="M45.35,247.369l.426-1.237-.449-.074-.317.967-.805-.676.551-.413a.629.629,0,0,0-.052-.856,4.088,4.088,0,0,0-1.382.068l.036,2.426.5-.068-.057-.716.991.749-.439.972s.313.085.316.1.3-.58.418-.749l.673.572.4-.354Zm-1.558-1.3.02-.634c.774-.127.682.133.682.133A.756.756,0,0,1,43.792,246.073Z" transform="translate(-33.109 -222.957)" fill="#e11221"/>
                          </g>
                        </g>
                      </svg>