<svg id="pet-hotel-svgrepo-com" xmlns="http://www.w3.org/2000/svg" width="17.883" height="25.894" viewBox="0 0 17.883 25.894">
  <path id="Path_15" data-name="Path 15" d="M111.264,17.381l.075-10.948A.537.537,0,0,0,110.8,5.9l-4.387-1.82L101.666,5.9a.537.537,0,0,0-.537.537l-.09,22.855a.537.537,0,0,0,.537.537h6.314a.537.537,0,0,0,.537-.538l.015-10.831a.537.537,0,0,1,.537-.537h1.746A.537.537,0,0,0,111.264,17.381Zm-6.18,8.4a.537.537,0,0,1-.537.538h-1.075a.537.537,0,0,1-.537-.538v-1.03a.537.537,0,0,1,.537-.537h1.075a.537.537,0,0,1,.537.537Zm0-4.031a.537.537,0,0,1-.537.537h-1.075a.537.537,0,0,1-.537-.537V18.619a.537.537,0,0,1,.537-.537h1.075a.537.537,0,0,1,.537.537Zm4.7-7.942a.537.537,0,0,1-.537.537h-5.777a.537.537,0,0,1-.537-.537v-.662a.537.537,0,0,1,.537-.537h5.777a.537.537,0,0,1,.537.537Zm0-4.333a.537.537,0,0,1-.537.537h-5.777a.537.537,0,0,1-.537-.537V8.816a.537.537,0,0,1,.537-.537h5.777a.537.537,0,0,1,.537.537Zm8.866,9.051c-.148,0-.269-.241-.269-.537V16.38a3.67,3.67,0,0,0-.02-.538,4.175,4.175,0,0,1-.053-.536c-.582-8.131-4.79-9.668-6.005-11.231-.182-.234-.339-.177-.339.119l.1,11.648v2.15a.537.537,0,0,1-.537.537h-1.747a.537.537,0,0,0-.537.538v10.22a.537.537,0,0,0,.537.537h8.6a.537.537,0,0,0,.537-.537V19.067C118.922,18.77,118.8,18.529,118.653,18.529ZM112.943,7.491a.537.537,0,0,1,.537-.537h.791a.537.537,0,0,1,.537.537v.662a.537.537,0,0,1-.537.537h-.791a.537.537,0,0,1-.537-.537V7.491Zm0,3.291a.537.537,0,0,1,.537-.537h1.209a.537.537,0,0,1,.537.537v.662a.537.537,0,0,1-.537.537h-1.209a.537.537,0,0,1-.537-.537v-.662Zm0,3.291a.537.537,0,0,1,.537-.537h1.209a.537.537,0,0,1,.537.537v.662a.537.537,0,0,1-.537.537h-1.209a.537.537,0,0,1-.537-.537v-.662Zm4.9,14.139a.537.537,0,0,1-.538.537h-6.448a.537.537,0,0,1-.537-.537V20.142a.537.537,0,0,1,.537-.537h2.418a.537.537,0,0,1,.538.537h.537a.537.537,0,0,1,.537-.537h2.418a.537.537,0,0,1,.537.537v8.071Zm-5.541-5.432a.9.9,0,0,1,.56-1.115c.411-.077.827.295.929.832a.9.9,0,0,1-.56,1.114C112.824,23.69,112.408,23.318,112.306,22.781Zm-1.146,1.4a.73.73,0,0,1,.455-.906c.334-.063.673.24.756.677a.73.73,0,0,1-.455.906C111.581,24.921,111.243,24.618,111.16,24.182Zm3.216-1.684c.1-.538.518-.91.929-.832a.9.9,0,0,1,.56,1.114c-.1.537-.518.91-.929.832A.9.9,0,0,1,114.376,22.5Zm2.635,1.684c-.083.437-.421.74-.756.677a.731.731,0,0,1-.456-.906c.083-.437.422-.74.756-.677A.731.731,0,0,1,117.011,24.181ZM116,25.7a.974.974,0,0,1,.1,1.07.854.854,0,0,1-.628.493,3.012,3.012,0,0,1-1.046-.15,1.871,1.871,0,0,0-.806-.041c-.464.126-1.071.447-1.588-.214a.892.892,0,0,1-.119-.92,2.964,2.964,0,0,1,.68-.808,3.675,3.675,0,0,0,.6-.716,1.266,1.266,0,0,1,.33-.377,1.08,1.08,0,0,1,.969-.083c.027.013.052.028.076.044a3.783,3.783,0,0,1,.691.807l.056.07C115.5,25.1,115.829,25.454,116,25.7Z" transform="translate(-101.039 -3.93)" fill="#919191"/>
</svg>
